<?xml version="1.0" encoding="UTF-8" standalone="no"?>
<!DOCTYPE svg PUBLIC "-//W3C//DTD SVG 1.1//EN" "http://www.w3.org/Graphics/SVG/1.1/DTD/svg11.dtd">
<svg width="100%" height="100%" viewBox="0 0 945 1182" version="1.1" xmlns="http://www.w3.org/2000/svg" xmlns:xlink="http://www.w3.org/1999/xlink" xml:space="preserve" xmlns:serif="http://www.serif.com/" style="fill-rule:evenodd;clip-rule:evenodd;stroke-linejoin:round;stroke-miterlimit:1.41421;">
    <g transform="matrix(26.6013,0,0,26.6013,-863.46,131.812)">
        <g id="Head-selection" serif:id="Head selection">
            <path id="right-maxillary-sinus" serif:id="right maxillary sinus" d="M47.747,16.031C48.205,16.519 48.488,17.244 48.737,17.257C49.059,17.222 49.029,16.595 48.873,16.307C48.386,16.064 48.197,15.819 48.04,15.411C47.965,15.126 48.157,14.577 48.38,14.733C48.724,14.973 48.97,15.232 49.361,15.278C49.571,14.6 48.856,14.438 48.792,13.66C48.895,13.329 49.08,13.331 49.267,13.388C49.635,13.654 50.068,14.232 50.217,14.78C49.838,16.63 50.592,21.35 49.789,21.906C49.434,22.152 49.055,21.974 48.466,21.805C47.781,21.481 47.467,20.736 47.244,20.04C46.877,18.978 47.921,18.361 48.228,19.497C48.374,20.034 48.449,20.353 48.873,20.413C49.228,20.34 49.338,20.147 49.28,19.87C49.337,19.317 48.986,18.751 48.635,18.411C48.132,18.213 47.95,17.819 47.81,17.325C47.644,17.636 47.277,18.328 47.061,18.965C46.863,19.548 46.106,21.635 44.968,21.336C44.267,21.151 43.757,19.816 42.815,18.177C42.177,17.068 45.478,17.064 45.994,16.555C46.684,15.874 47.478,15.563 47.747,16.031Z" style="fill:rgb(78,166,153);fill-opacity:0.54;"/>
        </g>
    </g>
</svg>
