<?xml version="1.0" encoding="UTF-8" standalone="no"?>
<!DOCTYPE svg PUBLIC "-//W3C//DTD SVG 1.1//EN" "http://www.w3.org/Graphics/SVG/1.1/DTD/svg11.dtd">
<svg width="100%" height="100%" viewBox="0 0 100 200" version="1.1" xmlns="http://www.w3.org/2000/svg" xmlns:xlink="http://www.w3.org/1999/xlink" xml:space="preserve" xmlns:serif="http://www.serif.com/" style="fill-rule:evenodd;clip-rule:evenodd;stroke-linejoin:round;stroke-miterlimit:2;">
    <g id="Body-scan-selections" serif:id="Body scan selections">
        <path d="M49.001,108.475C48.926,109.076 48.886,109.64 48.853,109.902C48.95,113.092 48.985,116.428 48.948,119.862C48.893,125.025 48.682,129.968 48.344,134.524L34.148,134.524L34.155,134.497C33.101,131.871 32.147,128.9 31.373,125.715C31.273,125.304 31.178,124.895 31.086,124.488C29.739,120.69 28.889,115.003 28.796,108.475L49.001,108.475ZM70.381,108.475C70.288,115.003 69.438,120.69 68.09,124.488C67.999,124.895 67.904,125.304 67.804,125.715C67.03,128.9 66.076,131.871 65.022,134.497L65.028,134.524L50.833,134.524C50.495,129.968 50.284,125.025 50.229,119.862C50.192,116.428 50.227,113.092 50.324,109.902C50.291,109.64 50.251,109.076 50.176,108.475L70.381,108.475ZM91.091,108.475C91.177,109.122 91.228,109.813 91.494,110.461C92.582,113.099 93.607,116.934 93.624,117.019C93.782,117.835 93.396,118.598 92.761,118.721C92.356,118.8 91.946,118.599 91.663,118.23C91.137,117.613 90.353,116.115 89.533,114.166C90.121,115.723 90.552,117.096 90.777,118.097C90.961,118.683 91.18,119.711 91.192,119.771C91.35,120.587 90.917,121.359 90.225,121.494C89.609,121.613 88.994,121.188 88.754,120.517C88.146,119.564 87.309,117.633 86.506,115.286C87.1,117.702 87.314,119.477 87.006,119.773C86.859,120.124 86.592,120.38 86.252,120.446C86.025,120.49 85.795,120.443 85.589,120.326C85.589,120.326 84.914,119.53 84.852,119.268C84.525,118.438 84.168,117.172 83.836,115.654C83.853,116.065 83.853,116.424 83.835,116.718C83.904,117.604 83.593,118.342 83.069,118.444C82.989,118.46 82.79,118.466 82.77,118.47C82.677,118.489 82.561,118.415 82.429,118.26C82.079,117.994 81.776,117.478 81.637,116.848C81.142,115.743 79.81,111.525 79.735,111.247C79.47,110.273 79.243,109.337 79.058,108.475L91.091,108.475ZM20.119,108.475C19.934,109.337 19.707,110.273 19.442,111.247C19.367,111.525 18.035,115.743 17.54,116.848C17.401,117.478 17.098,117.994 16.748,118.26C16.616,118.415 16.5,118.489 16.407,118.47C16.386,118.466 16.188,118.46 16.108,118.444C15.583,118.342 15.272,117.604 15.342,116.718C15.324,116.424 15.324,116.065 15.341,115.654C15.009,117.172 14.652,118.438 14.325,119.268C14.263,119.53 13.588,120.326 13.588,120.326C13.381,120.443 13.152,120.49 12.925,120.446C12.585,120.38 12.318,120.124 12.171,119.773C11.863,119.477 12.076,117.702 12.67,115.286C11.867,117.633 11.031,119.564 10.422,120.517C10.183,121.188 9.568,121.613 8.952,121.494C8.26,121.359 7.826,120.587 7.985,119.771C7.996,119.711 8.215,118.683 8.4,118.097C8.625,117.096 9.056,115.723 9.644,114.166C8.823,116.115 8.04,117.613 7.514,118.23C7.23,118.599 6.821,118.8 6.416,118.721C5.781,118.598 5.394,117.835 5.553,117.019C5.569,116.934 6.595,113.099 7.682,110.461C7.949,109.813 8,109.122 8.086,108.475L20.119,108.475ZM95.868,108.475C95.542,108.898 94.747,109.197 93.82,109.197C93.219,109.197 92.512,108.838 91.952,108.475L95.868,108.475ZM7.225,108.475C6.664,108.838 5.958,109.197 5.357,109.197C4.43,109.197 3.635,108.898 3.308,108.475L7.225,108.475Z" style="fill:rgb(78,166,153);fill-opacity:0.54;"/>
    </g>
</svg>
