<?xml version="1.0" encoding="UTF-8" standalone="no"?>
<!DOCTYPE svg PUBLIC "-//W3C//DTD SVG 1.1//EN" "http://www.w3.org/Graphics/SVG/1.1/DTD/svg11.dtd">
<svg width="100%" height="100%" viewBox="0 0 100 200" version="1.1" xmlns="http://www.w3.org/2000/svg" xmlns:xlink="http://www.w3.org/1999/xlink" xml:space="preserve" xmlns:serif="http://www.serif.com/" style="fill-rule:evenodd;clip-rule:evenodd;stroke-linejoin:round;stroke-miterlimit:2;">
    <g id="Body-scan-selections" serif:id="Body scan selections">
        <path d="M47.149,185.221C47.139,185.609 47.117,186.488 47.117,186.733C47.117,186.945 47.245,187.997 47.245,188.333C47.245,189.629 46.691,190.777 45.841,191.48C45.387,192.052 42.963,193.378 42.36,193.837C41.212,194.71 40.285,195.644 39.723,196.442C35.359,199.411 30.976,200.623 29.628,199.158C29.398,199.005 29.198,198.818 29.035,198.597C27.644,196.722 29.349,193.099 32.839,190.511C32.968,190.415 33.744,189.703 34.018,189.438C34.358,189.11 35.602,187.38 35.999,186.844C36.472,186.208 37.01,185.663 37.581,185.221L47.149,185.221ZM61.596,185.221C62.167,185.663 62.705,186.208 63.178,186.844C63.575,187.38 64.819,189.11 65.159,189.438C65.433,189.703 66.209,190.415 66.338,190.511C69.828,193.099 71.533,196.722 70.142,198.597C69.978,198.818 69.779,199.005 69.549,199.158C68.201,200.623 63.818,199.411 59.454,196.442C58.891,195.644 57.965,194.71 56.817,193.837C56.214,193.378 53.79,192.052 53.335,191.48C52.486,190.777 51.932,189.629 51.932,188.333C51.932,187.997 52.06,186.945 52.06,186.733C52.06,186.488 52.038,185.609 52.027,185.221L61.596,185.221Z" style="fill:rgb(78,166,153);fill-opacity:0.54;"/>
    </g>
</svg>
