<?xml version="1.0" encoding="UTF-8" standalone="no"?>
<!DOCTYPE svg PUBLIC "-//W3C//DTD SVG 1.1//EN" "http://www.w3.org/Graphics/SVG/1.1/DTD/svg11.dtd">
<svg width="100%" height="100%" viewBox="0 0 100 200" version="1.1" xmlns="http://www.w3.org/2000/svg" xmlns:xlink="http://www.w3.org/1999/xlink" xml:space="preserve" xmlns:serif="http://www.serif.com/" style="fill-rule:evenodd;clip-rule:evenodd;stroke-linejoin:round;stroke-miterlimit:2;">
    <g id="Body-scan-selections" serif:id="Body scan selections">
        <path d="M61.137,14.076C61.127,14.674 61.018,15.329 60.798,15.993C60.419,17.135 59.793,18.063 59.113,18.601C58.87,19.807 58.456,21.053 57.862,22.28C57.347,23.346 56.738,24.315 56.066,25.167C56.04,25.267 56.016,25.368 55.996,25.469L43.18,25.469C43.141,25.27 43.09,25.073 43.028,24.878C43.016,24.841 43.004,24.804 42.991,24.768C42.439,24.016 41.935,23.183 41.498,22.28C40.899,21.041 40.482,19.784 40.24,18.566C39.577,18.024 38.97,17.111 38.599,15.993C38.379,15.329 38.269,14.674 38.26,14.076L61.137,14.076Z" style="fill:rgb(78,166,153);fill-opacity:0.54;"/>
    </g>
</svg>
