<?xml version="1.0" encoding="UTF-8" standalone="no"?>
<!DOCTYPE svg PUBLIC "-//W3C//DTD SVG 1.1//EN" "http://www.w3.org/Graphics/SVG/1.1/DTD/svg11.dtd">
<svg width="100%" height="100%" viewBox="0 0 100 200" version="1.1" xmlns="http://www.w3.org/2000/svg" xmlns:xlink="http://www.w3.org/1999/xlink" xml:space="preserve" xmlns:serif="http://www.serif.com/" style="fill-rule:evenodd;clip-rule:evenodd;stroke-linejoin:round;stroke-miterlimit:2;">
    <g id="Body-scan-selections" serif:id="Body scan selections">
        <path d="M33.412,72.434C33.297,72.874 33.138,73.413 32.908,74.076C32.864,74.205 30.844,81.383 29.323,85.147C28.513,87.152 27.665,89.07 26.799,90.871L15.25,90.871C16.099,87.77 17.249,84.361 18.671,80.843C19.81,78.023 21.026,75.375 22.258,72.983C22.228,72.804 22.2,72.621 22.172,72.434L33.412,72.434ZM65.53,72.434C65.662,75.214 66.091,81.944 66.812,84.288L66.803,84.288C67.549,86.109 68.213,88.338 68.761,90.871L30.416,90.871C30.964,88.338 31.628,86.109 32.373,84.288L32.365,84.288C33.085,81.944 33.515,75.214 33.647,72.434L65.53,72.434ZM77.004,72.434C76.977,72.621 76.949,72.804 76.919,72.983C78.151,75.375 79.367,78.023 80.506,80.843C81.928,84.361 83.078,87.77 83.926,90.871L72.378,90.871C71.512,89.07 70.664,87.152 69.853,85.147C68.333,81.383 66.313,74.205 66.269,74.076C66.039,73.413 65.88,72.874 65.765,72.434L77.004,72.434Z" style="fill:rgb(78,166,153);fill-opacity:0.54;"/>
    </g>
</svg>
