<?xml version="1.0" encoding="UTF-8" standalone="no"?>
<!DOCTYPE svg PUBLIC "-//W3C//DTD SVG 1.1//EN" "http://www.w3.org/Graphics/SVG/1.1/DTD/svg11.dtd">
<svg width="100%" height="100%" viewBox="0 0 100 200" version="1.1" xmlns="http://www.w3.org/2000/svg" xmlns:xlink="http://www.w3.org/1999/xlink" xml:space="preserve" xmlns:serif="http://www.serif.com/" style="fill-rule:evenodd;clip-rule:evenodd;stroke-linejoin:round;stroke-miterlimit:2;">
    <g id="Body-scan-selections" serif:id="Body scan selections">
        <path d="M26.826,90.814C25.075,94.464 23.252,97.635 21.534,100.08C21.073,100.949 20.743,102.071 20.632,103.314C20.617,103.478 20.607,103.64 20.6,103.801C20.811,104.36 20.616,106.169 20.11,108.519L8.08,108.519C8.116,108.244 8.158,107.978 8.224,107.725C8.224,107.725 7.767,108.133 7.157,108.519L3.344,108.519C3.219,108.374 3.149,108.214 3.149,108.045C3.149,107.963 3.205,107.717 3.214,107.672C3.28,107.33 4.883,106.187 5.414,105.737C6.405,104.896 7.222,103.952 7.836,102.989L7.841,102.989C8.049,102.646 8.299,102.292 8.588,101.94C9.271,101.109 10.041,100.444 10.731,100.043C11.272,99.608 11.89,99.263 12.56,99.031C13.067,97.985 13.554,96.795 13.985,95.514C14.197,94.884 14.385,94.264 14.549,93.66C14.757,92.746 14.997,91.795 15.266,90.814L26.826,90.814ZM68.749,90.814C69.578,94.627 70.144,99.133 70.327,103.971C70.385,105.522 70.402,107.042 70.38,108.519L50.181,108.519C50.091,107.791 49.95,106.998 49.706,106.61L49.588,106.598L49.471,106.61C49.227,106.998 49.085,107.791 48.996,108.519L28.796,108.519C28.774,107.042 28.791,105.522 28.85,103.971C29.033,99.133 29.599,94.627 30.428,90.814L68.749,90.814ZM83.911,90.814C84.18,91.795 84.42,92.746 84.628,93.66C84.792,94.264 84.98,94.884 85.192,95.514C85.623,96.795 86.11,97.985 86.617,99.031C87.287,99.263 87.904,99.608 88.446,100.043C89.136,100.444 89.906,101.109 90.589,101.94C90.878,102.292 91.128,102.645 91.336,102.989L91.341,102.989C91.955,103.952 92.772,104.896 93.763,105.737C94.294,106.187 95.896,107.33 95.963,107.672C95.971,107.717 96.028,107.963 96.028,108.045C96.028,108.214 95.958,108.374 95.833,108.519L92.02,108.519C91.41,108.133 90.953,107.725 90.953,107.725C91.019,107.978 91.061,108.244 91.097,108.519L79.067,108.519C78.561,106.169 78.366,104.36 78.576,103.801C78.57,103.64 78.559,103.478 78.545,103.314C78.434,102.071 78.104,100.949 77.642,100.08C75.925,97.635 74.102,94.464 72.351,90.814L83.911,90.814Z" style="fill:rgb(78,166,153);fill-opacity:0.54;"/>
    </g>
</svg>
