<?xml version="1.0" encoding="UTF-8" standalone="no"?>
<!DOCTYPE svg PUBLIC "-//W3C//DTD SVG 1.1//EN" "http://www.w3.org/Graphics/SVG/1.1/DTD/svg11.dtd">
<svg width="100%" height="100%" viewBox="0 0 100 200" version="1.1" xmlns="http://www.w3.org/2000/svg" xmlns:xlink="http://www.w3.org/1999/xlink" xml:space="preserve" xmlns:serif="http://www.serif.com/" style="fill-rule:evenodd;clip-rule:evenodd;stroke-linejoin:round;stroke-miterlimit:2;">
    <g id="Body-scan-selections" serif:id="Body scan selections">
        <path d="M47.155,145.709C47.002,146.764 46.841,147.777 46.673,148.743C47.204,151.4 47.557,154.382 47.677,157.54C47.879,162.889 47.373,167.803 46.381,171.538C46.103,173 45.948,174.633 45.948,176.356C45.948,179.074 46.335,181.57 46.979,183.522C47.021,184.072 47.081,184.584 47.155,185.043L47.148,185.288L37.495,185.288C37.569,185.229 37.642,185.173 37.717,185.118C37.723,184.543 37.716,183.954 37.696,183.356C37.577,179.895 37.019,176.774 36.224,174.583L35.657,171.163C34.553,167.662 33.801,163.18 33.616,158.271C33.439,153.583 33.805,149.228 34.567,145.709L47.155,145.709ZM64.61,145.709C65.372,149.228 65.738,153.583 65.561,158.271C65.375,163.18 64.624,167.662 63.52,171.163L62.953,174.583C62.158,176.774 61.6,179.895 61.481,183.356C61.461,183.954 61.454,184.543 61.46,185.118C61.535,185.173 61.608,185.229 61.681,185.288L52.029,185.288L52.022,185.043C52.096,184.584 52.156,184.072 52.198,183.522C52.842,181.57 53.229,179.074 53.229,176.356C53.229,174.633 53.074,173 52.796,171.538C51.803,167.803 51.298,162.889 51.5,157.54C51.62,154.382 51.973,151.4 52.504,148.743C52.336,147.777 52.175,146.764 52.022,145.709L64.61,145.709Z" style="fill:rgb(78,166,153);fill-opacity:0.54;"/>
    </g>
</svg>
