<?xml version="1.0" encoding="UTF-8" standalone="no"?>
<!DOCTYPE svg PUBLIC "-//W3C//DTD SVG 1.1//EN" "http://www.w3.org/Graphics/SVG/1.1/DTD/svg11.dtd">
<svg width="100%" height="100%" viewBox="0 0 100 200" version="1.1" xmlns="http://www.w3.org/2000/svg" xmlns:xlink="http://www.w3.org/1999/xlink" xml:space="preserve" xmlns:serif="http://www.serif.com/" style="fill-rule:evenodd;clip-rule:evenodd;stroke-linejoin:round;stroke-miterlimit:2;">
    <g id="Body-scan-selections" serif:id="Body scan selections">
        <path d="M75.504,52.593C76.383,55.263 77.05,58.966 77.298,63.086C77.511,66.62 77.382,69.897 76.993,72.511L65.786,72.511C65.631,71.932 65.552,71.518 65.489,71.215C65.478,71.159 65.492,71.664 65.533,72.511L33.643,72.511C33.685,71.664 33.699,71.159 33.688,71.215C33.625,71.518 33.546,71.932 33.391,72.511L22.184,72.511C21.795,69.897 21.666,66.62 21.879,63.086C22.127,58.966 22.794,55.263 23.673,52.593L75.504,52.593Z" style="fill:rgb(78,166,153);fill-opacity:0.54;"/>
    </g>
</svg>
