<?xml version="1.0" encoding="UTF-8" standalone="no"?>
<!DOCTYPE svg PUBLIC "-//W3C//DTD SVG 1.1//EN" "http://www.w3.org/Graphics/SVG/1.1/DTD/svg11.dtd">
<svg width="100%" height="100%" viewBox="0 0 2872 618" version="1.1" xmlns="http://www.w3.org/2000/svg" xmlns:xlink="http://www.w3.org/1999/xlink" xml:space="preserve" xmlns:serif="http://www.serif.com/" style="fill-rule:evenodd;clip-rule:evenodd;stroke-linejoin:round;stroke-miterlimit:2;">
    <g id="Artboard1" transform="matrix(10.6254,0,0,1.33702,-4959.52,4.23061)">
        <rect x="466.761" y="-3.164" width="270.218" height="461.975" style="fill:none;"/>
        <g transform="matrix(0.0941141,0,0,0.747932,447.759,-57.2427)">
            <path d="M277.825,440.176C274.997,434.689 274.889,429.901 274.008,424.906C272.169,414.479 272.556,404.197 272.556,393.778C272.556,314.227 324.634,242.762 404.185,242.762C420.982,242.762 438.153,249.393 453.148,254.685C463.102,258.197 493.764,279.317 506.559,279.162C523.744,278.954 543.575,261.424 550.194,258.068C569.738,248.157 578.081,245.072 601.477,245.072C681.028,245.072 730.696,313.006 730.696,392.557C730.696,401.116 730.909,413.871 730.909,416.12C730.909,504.998 621.313,649.039 501.187,644.278C410.297,640.676 310.871,547.563 297.886,491.947C295.579,482.066 381.626,485.806 387.729,484.293C395.882,482.272 397.637,474.171 400.929,475.017C406.217,476.377 414.645,527.969 428.823,547.781C436.519,558.535 454.371,559.356 460.584,547.411C472.887,523.753 486.766,426.436 495.414,426.436C501.148,426.437 502.878,479.853 517.003,484.802C522.902,486.869 601.018,486.29 609.707,484.162C629.308,479.359 620.843,446.991 608.828,445.859C600.415,445.066 567.668,447.434 548.156,443.52C540.082,441.9 527.687,353.351 515.476,312.776C510.196,295.229 483.591,298.596 478.832,310.74C470.84,331.133 451.71,443.287 440.66,445.104C436.364,445.81 429.027,402.144 420.37,389.72C420.242,389.536 420.087,389.372 419.982,389.177C412.339,375.031 393.1,376.045 385.276,388.125C380.543,395.434 373.429,432.698 359.528,444.435C354.558,448.632 280.013,444.422 277.825,440.176ZM415.757,194.298C409.595,190.308 404.981,180.916 409.243,173.452C413.044,166.793 427.694,155.086 439.21,151.628C449.514,148.533 454.264,159.1 465.594,167.589C493.443,188.454 504.529,213.588 513.802,240.552C516.614,248.731 509.316,262.345 503.378,264.005C490.076,267.721 486.363,216.827 415.757,194.298ZM576.071,163.426C617.161,139.751 667.685,141.348 675.987,155.756C684.289,170.165 636.906,226.821 606.155,228.017C558.852,229.856 527.364,259.45 528.715,243.504C531.173,214.486 534.981,187.101 576.071,163.426Z" style="fill:rgb(227,24,54);"/>
        </g>
        <g transform="matrix(0.0747378,0,0,0.593947,472.884,65.5607)">
            <text x="662.576px" y="525.718px" style="font-family:'Arial-BoldMT', 'Arial', sans-serif;font-weight:700;font-size:558.308px;fill:rgb(53,84,130);">I<tspan x="800.942px 1125.23px 1449.52px 1773.81px 1912.17px 2298.62px 2592.37px 2886.13px 3024.49px 3193.66px " y="525.718px 525.718px 525.718px 525.718px 525.718px 525.718px 525.718px 525.718px 525.718px 525.718px ">dun Health</tspan></text>
        </g>
    </g>
</svg>
