<?xml version="1.0" encoding="UTF-8" standalone="no"?>
<!DOCTYPE svg PUBLIC "-//W3C//DTD SVG 1.1//EN" "http://www.w3.org/Graphics/SVG/1.1/DTD/svg11.dtd">
<svg version="1.1" xmlns="http://www.w3.org/2000/svg" xmlns:xlink="http://www.w3.org/1999/xlink" preserveAspectRatio="xMidYMid meet" viewBox="0 0 28 28" width="28" height="28"><defs><path d="M17.03 25.12L15.67 25.76L14 26L12.33 25.76L10.97 25.12L10.05 24.16L10 24L18 24L17.95 24.16L17.03 25.12ZM16.66 2.36L17.89 2.79L19.05 3.37L20.11 4.08L21.07 4.93L21.92 5.89L22.63 6.95L23.21 8.11L23.64 9.34L23.91 10.64L23.98 11.69L24 11.69L24 18.37L26 20.56L26 23L2 23L2 20.37L4 18.18L4 11.69L4.02 11.69L4.09 10.64L4.36 9.34L4.79 8.11L5.37 6.95L6.08 5.89L6.93 4.93L7.89 4.08L8.95 3.37L10.11 2.79L11.34 2.36L12.64 2.09L14 2L15.36 2.09L16.66 2.36Z" id="h3LfZvACi"></path></defs><g><g><g><use xlink:href="#h3LfZvACi" opacity="1" fill="#ffffff" fill-opacity="1"></use><g><use xlink:href="#h3LfZvACi" opacity="1" fill-opacity="0" stroke="#000000" stroke-width="1" stroke-opacity="0"></use></g></g></g></g></svg>