<?xml version="1.0" encoding="UTF-8" standalone="no"?>
<!DOCTYPE svg PUBLIC "-//W3C//DTD SVG 1.1//EN" "http://www.w3.org/Graphics/SVG/1.1/DTD/svg11.dtd">
<svg version="1.1" xmlns="http://www.w3.org/2000/svg" xmlns:xlink="http://www.w3.org/1999/xlink" preserveAspectRatio="xMidYMid meet" viewBox="0 0 28 28" width="28" height="28"><defs><path d="M8 3.94L20 3.94L20 1.94L22 1.94L22 3.94L25.25 3.94L25.33 3.95L25.4 3.97L25.46 3.99L25.53 4.02L25.59 4.05L25.71 4.13L25.81 4.23L25.85 4.29L25.89 4.34L25.92 4.41L25.95 4.47L25.99 4.61L26 4.69L26 15.01L24 15.01L24 7.94L4 7.94L4 23.94L11.03 23.94L11.03 25.94L2.82 25.94L2.75 25.93L2.67 25.92L2.6 25.91L2.54 25.89L2.47 25.86L2.41 25.83L2.35 25.79L2.29 25.74L2.24 25.7L2.19 25.64L2.15 25.59L2.11 25.53L2.08 25.47L2.05 25.4L2.01 25.26L2 25.19L2 4.69L2.01 4.61L2.05 4.47L2.08 4.41L2.11 4.34L2.15 4.29L2.19 4.23L2.29 4.13L2.41 4.05L2.47 4.02L2.54 3.99L2.6 3.97L2.67 3.95L2.75 3.94L6 3.94L6 1.94L8 1.94L8 3.94Z" id="aH8vDNzGR"></path><path d="M16 13.91L12 13.91L12 9.91L16 9.91L16 13.91Z" id="a1rT3LZmT9"></path><path d="M9.97 13.91L5.97 13.91L5.97 9.91L9.97 9.91L9.97 13.91Z" id="bNNYArYDI"></path><path d="M22.03 13.91L18.03 13.91L18.03 9.91L22.03 9.91L22.03 13.91Z" id="d79gVM2v3K"></path><path d="M13.03 27.01L13.03 17.01L27.03 17.01L27.03 27.01L13.03 27.01ZM15.03 25.07L25.03 25.07L25.03 19.07L15.03 19.07L15.03 25.07Z" id="a4u1JjJzS"></path></defs><g><g><g><use xlink:href="#aH8vDNzGR" opacity="1" fill="#ffffff" fill-opacity="1"></use><g><use xlink:href="#aH8vDNzGR" opacity="1" fill-opacity="0" stroke="#000000" stroke-width="1" stroke-opacity="0"></use></g></g><g><use xlink:href="#a1rT3LZmT9" opacity="1" fill="#ffffff" fill-opacity="1"></use><g><use xlink:href="#a1rT3LZmT9" opacity="1" fill-opacity="0" stroke="#000000" stroke-width="1" stroke-opacity="0"></use></g></g><g><use xlink:href="#bNNYArYDI" opacity="1" fill="#ffffff" fill-opacity="1"></use><g><use xlink:href="#bNNYArYDI" opacity="1" fill-opacity="0" stroke="#000000" stroke-width="1" stroke-opacity="0"></use></g></g><g><use xlink:href="#d79gVM2v3K" opacity="1" fill="#ffffff" fill-opacity="1"></use><g><use xlink:href="#d79gVM2v3K" opacity="1" fill-opacity="0" stroke="#000000" stroke-width="1" stroke-opacity="0"></use></g></g><g><use xlink:href="#a4u1JjJzS" opacity="1" fill="#ffffff" fill-opacity="1"></use><g><use xlink:href="#a4u1JjJzS" opacity="1" fill-opacity="0" stroke="#000000" stroke-width="1" stroke-opacity="0"></use></g></g></g></g></svg>