<?xml version="1.0" encoding="UTF-8" standalone="no"?>
<!DOCTYPE svg PUBLIC "-//W3C//DTD SVG 1.1//EN" "http://www.w3.org/Graphics/SVG/1.1/DTD/svg11.dtd">
<svg version="1.1" xmlns="http://www.w3.org/2000/svg" xmlns:xlink="http://www.w3.org/1999/xlink" preserveAspectRatio="xMidYMid meet" viewBox="0 0 28 28" width="28" height="28"><defs><path d="M20 1.94L22 1.94L22 3.94L25.25 3.94L25.33 3.95L25.4 3.97L25.46 3.99L25.53 4.02L25.59 4.05L25.71 4.13L25.81 4.23L25.85 4.29L25.89 4.34L25.92 4.41L25.95 4.47L25.99 4.61L26 4.69L26 16.42L25.89 15.74L25.32 14.64L24.46 13.77L24 13.54L24 7.94L4 7.94L4 23.94L16.1 23.94L15.68 24.48L15.18 25.67L15.14 25.94L2.82 25.94L2.75 25.93L2.67 25.92L2.6 25.91L2.54 25.89L2.47 25.86L2.41 25.83L2.35 25.79L2.29 25.74L2.24 25.7L2.19 25.64L2.15 25.59L2.11 25.53L2.08 25.47L2.05 25.4L2.01 25.26L2 25.19L2 4.69L2.01 4.61L2.05 4.47L2.08 4.41L2.11 4.34L2.15 4.29L2.19 4.23L2.29 4.13L2.41 4.05L2.47 4.02L2.54 3.99L2.6 3.97L2.67 3.95L2.75 3.94L6 3.94L6 1.94L8 1.94L8 3.94L20 3.94L20 3.94L20 1.94Z" id="a12W6J2EFa"></path><path d="M16 13.91L12 13.91L12 9.91L16 9.91L16 13.91Z" id="g3XCHAwXJ4"></path><path d="M9.97 13.91L5.97 13.91L5.97 9.91L9.97 9.91L9.97 13.91Z" id="c9addEr71b"></path><path d="M22.03 13.91L18.03 13.91L18.03 9.91L22.03 9.91L22.03 13.91Z" id="aN8ToTgaW"></path><path d="M23.2 19.76L24.15 19.12L24.56 18.52L24.76 18.83L25 20L24.76 21.17L24.12 22.12L23.17 22.76L22 23L20.83 22.76L19.88 22.12L19.24 21.17L19 20L19.24 18.83L19.48 18.48L19.91 19.12L20.86 19.76L20.86 19.76L22.03 20L23.2 19.76Z" id="dpMi0cNo0"></path><path d="M27 27L17 27L17.18 25.67L17.68 24.48L18.47 23.47L19.26 22.85L19.64 23.23L20.74 23.8L22 24L23.26 23.8L24.36 23.23L24.74 22.85L25.53 23.47L26.32 24.48L26.32 24.48L26.82 25.67L27 27Z" id="a1vmSOJ0Ik"></path><path d="M23.44 15.59L23.87 16.22L24.03 17L23.87 17.78L23.44 18.41L22.81 18.84L22.03 19L21.25 18.84L20.62 18.41L20.19 17.78L20.03 17L20.19 16.22L20.62 15.59L21.25 15.16L22.03 15L22.81 15.16L23.44 15.59ZM21.29 16.29L21.08 16.61L21 17L21.08 17.39L21.29 17.71L21.61 17.92L22 18L22.39 17.92L22.71 17.71L22.92 17.39L23 17L22.92 16.61L22.71 16.29L22.39 16.08L22 16L21.61 16.08L21.29 16.29Z" id="b72tPL180"></path></defs><g><g><g><use xlink:href="#a12W6J2EFa" opacity="1" fill="#ffffff" fill-opacity="1"></use><g><use xlink:href="#a12W6J2EFa" opacity="1" fill-opacity="0" stroke="#000000" stroke-width="1" stroke-opacity="0"></use></g></g><g><use xlink:href="#g3XCHAwXJ4" opacity="1" fill="#ffffff" fill-opacity="1"></use><g><use xlink:href="#g3XCHAwXJ4" opacity="1" fill-opacity="0" stroke="#000000" stroke-width="1" stroke-opacity="0"></use></g></g><g><use xlink:href="#c9addEr71b" opacity="1" fill="#ffffff" fill-opacity="1"></use><g><use xlink:href="#c9addEr71b" opacity="1" fill-opacity="0" stroke="#000000" stroke-width="1" stroke-opacity="0"></use></g></g><g><use xlink:href="#aN8ToTgaW" opacity="1" fill="#ffffff" fill-opacity="1"></use><g><use xlink:href="#aN8ToTgaW" opacity="1" fill-opacity="0" stroke="#000000" stroke-width="1" stroke-opacity="0"></use></g></g><g><use xlink:href="#dpMi0cNo0" opacity="1" fill="#ffffff" fill-opacity="1"></use><g><use xlink:href="#dpMi0cNo0" opacity="1" fill-opacity="0" stroke="#000000" stroke-width="1" stroke-opacity="0"></use></g></g><g><use xlink:href="#a1vmSOJ0Ik" opacity="1" fill="#ffffff" fill-opacity="1"></use><g><use xlink:href="#a1vmSOJ0Ik" opacity="1" fill-opacity="0" stroke="#000000" stroke-width="1" stroke-opacity="0"></use></g></g><g><use xlink:href="#b72tPL180" opacity="1" fill="#ffffff" fill-opacity="1"></use><g><use xlink:href="#b72tPL180" opacity="1" fill-opacity="0" stroke="#000000" stroke-width="1" stroke-opacity="0"></use></g></g></g></g></svg>