<?xml version="1.0" encoding="UTF-8" standalone="no"?>
<!DOCTYPE svg PUBLIC "-//W3C//DTD SVG 1.1//EN" "http://www.w3.org/Graphics/SVG/1.1/DTD/svg11.dtd">
<svg version="1.1" xmlns="http://www.w3.org/2000/svg" xmlns:xlink="http://www.w3.org/1999/xlink" preserveAspectRatio="xMidYMid meet" viewBox="0 0 28 28" width="28" height="28"><defs><path d="M20 1.94L22 1.94L22 3.94L25.25 3.94L25.33 3.95L25.4 3.97L25.46 3.99L25.53 4.02L25.59 4.05L25.65 4.09L25.71 4.13L25.81 4.23L25.85 4.29L25.89 4.34L25.92 4.41L25.95 4.47L25.99 4.61L26 4.69L26 8.34L24 10.34L24 7.94L4 7.94L4 23.94L24 23.94L24 18.91L26 16.91L26 25.19L25.99 25.26L25.97 25.33L25.95 25.4L25.92 25.47L25.89 25.53L25.85 25.59L25.81 25.64L25.76 25.7L25.71 25.74L25.65 25.79L25.59 25.83L25.53 25.86L25.46 25.89L25.4 25.91L25.33 25.92L25.25 25.93L25.18 25.94L2.82 25.94L2.75 25.93L2.67 25.92L2.6 25.91L2.54 25.89L2.47 25.86L2.41 25.83L2.35 25.79L2.29 25.74L2.24 25.7L2.19 25.64L2.15 25.59L2.11 25.53L2.08 25.47L2.05 25.4L2.03 25.33L2.01 25.26L2 25.19L2 4.69L2.01 4.61L2.05 4.47L2.08 4.41L2.11 4.34L2.15 4.29L2.19 4.23L2.29 4.13L2.35 4.09L2.41 4.05L2.47 4.02L2.54 3.99L2.6 3.97L2.67 3.95L2.75 3.94L6 3.94L6 1.94L8 1.94L8 3.94L20 3.94L20 1.94Z" id="a12vkKkDNo"></path><path d="M16 13.91L12 13.91L12 9.91L16 9.91L16 13.91Z" id="aSzav7zTx"></path><path d="M9.97 13.91L5.97 13.91L5.97 9.91L9.97 9.91L9.97 13.91Z" id="a3fFZawJ1"></path><path d="M18.03 13.91L18.03 9.91L22.03 9.91L22.03 12.34L20.46 13.91L18.03 13.91Z" id="a23P2qtINO"></path><path d="M17.1 22.97L11.44 17.31L12.86 15.9L18.51 21.55L17.1 22.97Z" id="aPGM0cHjG"></path><path d="M27.06 13.01L17.16 22.91L15.74 21.49L25.64 11.59L27.06 13.01Z" id="aJWrRmco"></path></defs><g><g><g><use xlink:href="#a12vkKkDNo" opacity="1" fill="#ffffff" fill-opacity="1"></use><g><use xlink:href="#a12vkKkDNo" opacity="1" fill-opacity="0" stroke="#000000" stroke-width="1" stroke-opacity="0"></use></g></g><g><use xlink:href="#aSzav7zTx" opacity="1" fill="#ffffff" fill-opacity="1"></use><g><use xlink:href="#aSzav7zTx" opacity="1" fill-opacity="0" stroke="#000000" stroke-width="1" stroke-opacity="0"></use></g></g><g><use xlink:href="#a3fFZawJ1" opacity="1" fill="#ffffff" fill-opacity="1"></use><g><use xlink:href="#a3fFZawJ1" opacity="1" fill-opacity="0" stroke="#000000" stroke-width="1" stroke-opacity="0"></use></g></g><g><use xlink:href="#a23P2qtINO" opacity="1" fill="#ffffff" fill-opacity="1"></use><g><use xlink:href="#a23P2qtINO" opacity="1" fill-opacity="0" stroke="#000000" stroke-width="1" stroke-opacity="0"></use></g></g><g><use xlink:href="#aPGM0cHjG" opacity="1" fill="#ffffff" fill-opacity="1"></use><g><use xlink:href="#aPGM0cHjG" opacity="1" fill-opacity="0" stroke="#000000" stroke-width="1" stroke-opacity="0"></use></g></g><g><use xlink:href="#aJWrRmco" opacity="1" fill="#ffffff" fill-opacity="1"></use><g><use xlink:href="#aJWrRmco" opacity="1" fill-opacity="0" stroke="#000000" stroke-width="1" stroke-opacity="0"></use></g></g></g></g></svg>