<?xml version="1.0" encoding="UTF-8" standalone="no"?>
<!DOCTYPE svg PUBLIC "-//W3C//DTD SVG 1.1//EN" "http://www.w3.org/Graphics/SVG/1.1/DTD/svg11.dtd">
<svg version="1.1" xmlns="http://www.w3.org/2000/svg" xmlns:xlink="http://www.w3.org/1999/xlink" preserveAspectRatio="xMidYMid meet" viewBox="0 0 28 28" width="28" height="28"><defs><path d="M8 4L25.25 4L25.33 4.01L25.4 4.03L25.46 4.05L25.53 4.08L25.59 4.11L25.71 4.19L25.81 4.29L25.85 4.35L25.89 4.4L25.92 4.47L25.95 4.53L25.99 4.67L26 4.75L26 25.25L25.99 25.32L25.95 25.46L25.92 25.53L25.89 25.59L25.85 25.65L25.81 25.7L25.76 25.76L25.71 25.8L25.65 25.85L25.59 25.89L25.53 25.92L25.46 25.95L25.4 25.97L25.33 25.98L25.25 25.99L25.18 26L2.82 26L2.75 25.99L2.67 25.98L2.6 25.97L2.54 25.95L2.47 25.92L2.41 25.89L2.35 25.85L2.29 25.8L2.24 25.76L2.19 25.7L2.15 25.65L2.11 25.59L2.08 25.53L2.05 25.46L2.01 25.32L2 25.25L2 4.75L2.01 4.67L2.05 4.53L2.08 4.47L2.11 4.4L2.15 4.35L2.19 4.29L2.29 4.19L2.41 4.11L2.47 4.08L2.54 4.05L2.6 4.03L2.67 4.01L2.75 4L6 4L6 2L8 2L8 4ZM4 24L24 24L24 8L4 8L4 24ZM5.97 13.97L5.97 9.97L9.97 9.97L9.97 13.97L5.97 13.97ZM12 13.97L12 9.97L16 9.97L16 13.97L12 13.97ZM18.03 13.97L18.03 9.97L22.03 9.97L22.03 13.97L18.03 13.97ZM20 4L20 2L22 2L22 4L20 4Z" id="g1WdxOYryw"></path></defs><g><g><g><use xlink:href="#g1WdxOYryw" opacity="1" fill="#ffffff" fill-opacity="1"></use><g><use xlink:href="#g1WdxOYryw" opacity="1" fill-opacity="0" stroke="#000000" stroke-width="1" stroke-opacity="0"></use></g></g></g></g></svg>