<?xml version="1.0" encoding="UTF-8" standalone="no"?>
<!DOCTYPE svg PUBLIC "-//W3C//DTD SVG 1.1//EN" "http://www.w3.org/Graphics/SVG/1.1/DTD/svg11.dtd">
<svg version="1.1" xmlns="http://www.w3.org/2000/svg" xmlns:xlink="http://www.w3.org/1999/xlink" preserveAspectRatio="xMidYMid meet" viewBox="0 0 28 28" width="28" height="28"><defs><path d="M14 26C7.38 26 2 20.62 2 14C2 7.38 7.38 2 14 2C20.62 2 26 7.38 26 14C26 20.62 20.62 26 14 26Z" id="jbtiypanz"></path><path d="M14 26C7.38 26 2 20.62 2 14C2 7.38 7.38 2 14 2C20.62 2 26 7.38 26 14C26 20.62 20.62 26 14 26Z" id="j1skwzIJwn"></path><path d="M14 26C7.38 26 2 20.62 2 14C2 7.38 7.38 2 14 2C20.62 2 26 7.38 26 14C26 20.62 20.62 26 14 26Z" id="e2XHJxjM6N"></path><path d="M21.03 8L21.1 8.05L21.16 8.11L21.19 8.15L21.21 8.18L21.23 8.22L21.25 8.25L21.27 8.34L21.28 8.39L21.28 10.52L20.07 11.73L20.07 10.36L7.93 10.36L7.93 20.07L20.07 20.07L20.07 17L21.28 15.8L21.28 20.82L21.27 20.87L21.25 20.95L21.19 21.07L21.07 21.19L20.95 21.25L20.92 21.26L20.87 21.27L20.83 21.27L20.78 21.28L7.22 21.28L7.18 21.27L7.13 21.27L7.08 21.26L7.05 21.25L6.93 21.19L6.81 21.07L6.75 20.95L6.73 20.87L6.72 20.82L6.72 8.39L6.73 8.34L6.75 8.25L6.77 8.22L6.79 8.18L6.81 8.15L6.84 8.11L6.9 8.05L6.97 8L7.05 7.96L7.08 7.95L7.18 7.93L20.83 7.93L20.87 7.94L20.92 7.95L20.92 7.95L20.95 7.96L21.03 8Z" id="c47skz8nc1"></path><path d="M12.75 13.85L12.75 11.35L15.25 11.35L15.25 13.85L12.75 13.85Z" id="a88e7PFbOs"></path><path d="M9.14 13.86L9.14 11.36L11.64 11.36L11.64 13.86L9.14 13.86Z" id="aMHmd29W4"></path><path d="M17.63 7.93L17.63 5.93L19.63 5.93L19.63 7.93L17.63 7.93Z" id="b6DyvLo2O"></path><path d="M8.39 7.93L8.39 5.93L10.39 5.93L10.39 7.93L8.39 7.93Z" id="e8Tqi7ZEJ"></path><path d="M16.39 11.35L18.91 11.35L18.91 12.87L17.92 13.86L16.39 13.86L16.39 11.35Z" id="e1wE1nH0VQ"></path><path d="M15.77 19.54L12.2 15.99L13.1 15.11L15.77 17.76L21.15 12.41L22.05 13.3L15.81 19.5L15.77 19.54Z" id="aeHygzxp6"></path></defs><g><g><g><use xlink:href="#jbtiypanz" opacity="1" fill="#80684b" fill-opacity="1"></use><g><use xlink:href="#jbtiypanz" opacity="1" fill-opacity="0" stroke="#000000" stroke-width="1" stroke-opacity="0"></use></g></g><g><use xlink:href="#j1skwzIJwn" opacity="1" fill="#000000" fill-opacity="0"></use><g><use xlink:href="#j1skwzIJwn" opacity="1" fill-opacity="0" stroke="#000000" stroke-width="1" stroke-opacity="0"></use></g></g><g><use xlink:href="#e2XHJxjM6N" opacity="1" fill="#805a2d" fill-opacity="1"></use><g><use xlink:href="#e2XHJxjM6N" opacity="1" fill-opacity="0" stroke="#000000" stroke-width="1" stroke-opacity="0"></use></g></g><g><use xlink:href="#c47skz8nc1" opacity="1" fill="#ffffff" fill-opacity="1"></use><g><use xlink:href="#c47skz8nc1" opacity="1" fill-opacity="0" stroke="#000000" stroke-width="1" stroke-opacity="0"></use></g></g><g><use xlink:href="#a88e7PFbOs" opacity="1" fill="#ffffff" fill-opacity="1"></use><g><use xlink:href="#a88e7PFbOs" opacity="1" fill-opacity="0" stroke="#000000" stroke-width="1" stroke-opacity="0"></use></g></g><g><use xlink:href="#aMHmd29W4" opacity="1" fill="#ffffff" fill-opacity="1"></use><g><use xlink:href="#aMHmd29W4" opacity="1" fill-opacity="0" stroke="#000000" stroke-width="1" stroke-opacity="0"></use></g></g><g><use xlink:href="#b6DyvLo2O" opacity="1" fill="#ffffff" fill-opacity="1"></use><g><use xlink:href="#b6DyvLo2O" opacity="1" fill-opacity="0" stroke="#000000" stroke-width="1" stroke-opacity="0"></use></g></g><g><use xlink:href="#e8Tqi7ZEJ" opacity="1" fill="#ffffff" fill-opacity="1"></use><g><use xlink:href="#e8Tqi7ZEJ" opacity="1" fill-opacity="0" stroke="#000000" stroke-width="1" stroke-opacity="0"></use></g></g><g><use xlink:href="#e1wE1nH0VQ" opacity="1" fill="#ffffff" fill-opacity="1"></use><g><use xlink:href="#e1wE1nH0VQ" opacity="1" fill-opacity="0" stroke="#000000" stroke-width="1" stroke-opacity="0"></use></g></g><g><use xlink:href="#aeHygzxp6" opacity="1" fill="#ffffff" fill-opacity="1"></use><g><use xlink:href="#aeHygzxp6" opacity="1" fill-opacity="0" stroke="#000000" stroke-width="1" stroke-opacity="0"></use></g></g></g></g></svg>