<?xml version="1.0" encoding="UTF-8" standalone="no"?>
<!DOCTYPE svg PUBLIC "-//W3C//DTD SVG 1.1//EN" "http://www.w3.org/Graphics/SVG/1.1/DTD/svg11.dtd">
<svg version="1.1" xmlns="http://www.w3.org/2000/svg" xmlns:xlink="http://www.w3.org/1999/xlink" preserveAspectRatio="xMidYMid meet" viewBox="0 0 28 28" width="28" height="28"><defs><path d="M14.95 2.38L15.04 2.49L15.05 2.49L19.66 7.34L19.66 7.27L26.05 14L24.08 14L24.08 25.46L24.06 25.54L24.03 25.62L23.98 25.69L23.92 25.76L23.85 25.82L23.78 25.87L23.7 25.91L23.6 25.95L23.51 25.98L23.41 25.99L23.3 26L4.65 26L4.54 25.99L4.44 25.98L4.35 25.95L4.25 25.91L4.17 25.87L4.1 25.82L4.04 25.76L3.97 25.69L3.92 25.62L3.9 25.54L3.87 25.46L3.86 25.38L3.86 14L1.96 14L3.86 12L3.85 12L12.89 2.49L12.97 2.49L13.1 2.31L13.51 2.08L14 2L14.49 2.08L14.87 2.3L14.87 2.3L14.95 2.38ZM12.26 6.46L10.84 7.96L10.82 7.97L10.82 7.98L6.99 12L6.46 12.56L6.44 12.56L6.39 12.62L6.39 23.55L6.4 23.63L6.42 23.71L6.47 23.78L6.53 23.84L6.59 23.9L6.68 23.94L6.77 23.97L6.85 23.99L6.96 24L21 24L21.1 23.99L21.19 23.97L21.28 23.94L21.36 23.9L21.43 23.84L21.48 23.78L21.53 23.71L21.55 23.63L21.55 12.57L21.01 12L20.98 12L14.85 5.56L13.99 4.67L13.27 5.43L12.27 6.47L12.27 6.47L12.26 6.46Z" id="f3xqydI7Vc"></path><path d="M15.77 22.25L11.77 22.25L11.77 19.41L8.77 19.41L8.77 15.41L11.77 15.41L11.77 12.25L15.77 12.25L15.77 15.41L18.77 15.41L18.77 19.41L15.77 19.41L15.77 19.41L15.77 22.25Z" id="b2as7yrdJP"></path></defs><g><g><g><use xlink:href="#f3xqydI7Vc" opacity="1" fill="#ffffff" fill-opacity="1"></use><g><use xlink:href="#f3xqydI7Vc" opacity="1" fill-opacity="0" stroke="#000000" stroke-width="1" stroke-opacity="0"></use></g></g><g><use xlink:href="#b2as7yrdJP" opacity="1" fill="#ffffff" fill-opacity="1"></use><g><use xlink:href="#b2as7yrdJP" opacity="1" fill-opacity="0" stroke="#000000" stroke-width="1" stroke-opacity="0"></use></g></g></g></g></svg>