<?xml version="1.0" encoding="UTF-8" standalone="no"?>
<!DOCTYPE svg PUBLIC "-//W3C//DTD SVG 1.1//EN" "http://www.w3.org/Graphics/SVG/1.1/DTD/svg11.dtd">
<svg version="1.1" xmlns="http://www.w3.org/2000/svg" xmlns:xlink="http://www.w3.org/1999/xlink" preserveAspectRatio="xMidYMid meet" viewBox="0 0 28 28" width="28" height="28"><defs><path d="M2 14C2 7.38 7.38 2 14 2C20.62 2 26 7.38 26 14C26 20.62 20.62 26 14 26C7.38 26 2 20.62 2 14Z" id="e3p8D1puBC"></path><path d="M2 14C2 7.38 7.38 2 14 2C20.62 2 26 7.38 26 14C26 20.62 20.62 26 14 26C7.38 26 2 20.62 2 14Z" id="a1i31HSiGf"></path><path d="M8.63 19.67L8.67 19.72L8.71 19.76L8.76 19.8L8.82 19.83L8.89 19.85L8.94 19.87L9.02 19.87L19.12 19.87L19.19 19.87L19.26 19.85L19.32 19.83L19.38 19.8L19.43 19.76L19.46 19.72L19.5 19.67L19.51 19.61L19.51 19.55L19.51 11.66L19.13 11.25L21.33 11.25L21.33 20.87L21.33 20.92L21.32 20.98L21.3 21.04L21.26 21.09L21.22 21.14L21.17 21.18L21.12 21.22L21.06 21.25L20.99 21.28L20.92 21.3L20.85 21.31L20.77 21.31L7.36 21.31L7.28 21.31L7.21 21.3L7.15 21.28L7.07 21.25L7.02 21.22L6.97 21.18L6.92 21.14L6.87 21.09L6.84 21.04L6.82 20.98L6.8 20.92L6.79 20.87L6.79 11.25L9.04 11.25L8.66 11.65L8.61 11.65L8.61 19.55L8.62 19.61L8.63 19.67Z" id="c6yeWmGrJ"></path><path d="M8.63 19.67L8.67 19.72L8.71 19.76L8.76 19.8L8.82 19.83L8.89 19.85L8.94 19.87L9.02 19.87L19.12 19.87L19.19 19.87L19.26 19.85L19.32 19.83L19.38 19.8L19.43 19.76L19.46 19.72L19.5 19.67L19.51 19.61L19.51 19.55L19.51 11.66L19.13 11.25L21.33 11.25L21.33 20.87L21.33 20.92L21.32 20.98L21.3 21.04L21.26 21.09L21.22 21.14L21.17 21.18L21.12 21.22L21.06 21.25L20.99 21.28L20.92 21.3L20.85 21.31L20.77 21.31L7.36 21.31L7.28 21.31L7.21 21.3L7.15 21.28L7.07 21.25L7.02 21.22L6.97 21.18L6.92 21.14L6.87 21.09L6.84 21.04L6.82 20.98L6.8 20.92L6.79 20.87L6.79 11.25L9.04 11.25L8.66 11.65L8.61 11.65L8.61 19.55L8.62 19.61L8.63 19.67Z" id="h1Xqln88fT"></path><path d="M14.83 4.41L14.84 4.41L18.16 7.89L18.16 7.84L22.75 12.68L20.51 12.68L19.15 11.25L19.1 11.25L14.7 6.61L14.08 5.97L13.56 6.52L12.84 7.27L12.83 7.26L11.81 8.34L11.8 8.35L11.8 8.36L9.04 11.25L9.04 11.25L7.66 12.68L5.43 12.68L6.79 11.25L6.79 11.25L13.29 4.41L13.34 4.41L13.44 4.28L13.73 4.11L14.09 4.05L14.44 4.11L14.71 4.27L14.77 4.33L14.83 4.41Z" id="f6FoLgAVXS"></path><path d="M14.83 4.41L14.84 4.41L18.16 7.89L18.16 7.84L22.75 12.68L20.51 12.68L19.15 11.25L19.1 11.25L14.7 6.61L14.08 5.97L13.56 6.52L12.84 7.27L12.83 7.26L11.81 8.34L11.8 8.35L11.8 8.36L9.04 11.25L9.04 11.25L7.66 12.68L5.43 12.68L6.79 11.25L6.79 11.25L13.29 4.41L13.34 4.41L13.44 4.28L13.73 4.11L14.09 4.05L14.44 4.11L14.71 4.27L14.77 4.33L14.83 4.41Z" id="b1U6RMLig5"></path><path d="M12.48 18.62L12.48 11.43L15.36 11.43L15.36 18.62L12.48 18.62Z" id="a3pVhw910W"></path><path d="M12.48 18.62L12.48 11.43L15.36 11.43L15.36 18.62L12.48 18.62Z" id="g1CIXPGjVY"></path><path d="M10.32 13.7L17.52 13.7L17.52 16.57L10.32 16.57L10.32 13.7Z" id="c5Gxm61hi"></path><path d="M10.32 13.7L17.52 13.7L17.52 16.57L10.32 16.57L10.32 13.7Z" id="b1QXvukuq"></path></defs><g><g><g><use xlink:href="#e3p8D1puBC" opacity="1" fill="#36a72d" fill-opacity="1"></use><g><use xlink:href="#e3p8D1puBC" opacity="1" fill-opacity="0" stroke="#000000" stroke-width="1" stroke-opacity="0"></use></g></g><g><use xlink:href="#a1i31HSiGf" opacity="1" fill="#2d63a7" fill-opacity="1"></use><g><use xlink:href="#a1i31HSiGf" opacity="1" fill-opacity="0" stroke="#000000" stroke-width="1" stroke-opacity="0"></use></g></g><g><use xlink:href="#c6yeWmGrJ" opacity="1" fill="#ffffff" fill-opacity="1"></use><g><use xlink:href="#c6yeWmGrJ" opacity="1" fill-opacity="0" stroke="#000000" stroke-width="1" stroke-opacity="0"></use></g></g><g><use xlink:href="#h1Xqln88fT" opacity="1" fill="#000000" fill-opacity="0"></use><g><use xlink:href="#h1Xqln88fT" opacity="1" fill-opacity="0" stroke="#000000" stroke-width="1" stroke-opacity="0"></use></g></g><g><use xlink:href="#f6FoLgAVXS" opacity="1" fill="#ffffff" fill-opacity="1"></use><g><use xlink:href="#f6FoLgAVXS" opacity="1" fill-opacity="0" stroke="#000000" stroke-width="1" stroke-opacity="0"></use></g></g><g><use xlink:href="#b1U6RMLig5" opacity="1" fill="#000000" fill-opacity="0"></use><g><use xlink:href="#b1U6RMLig5" opacity="1" fill-opacity="0" stroke="#000000" stroke-width="1" stroke-opacity="0"></use></g></g><g><use xlink:href="#a3pVhw910W" opacity="1" fill="#ffffff" fill-opacity="1"></use><g><use xlink:href="#a3pVhw910W" opacity="1" fill-opacity="0" stroke="#000000" stroke-width="1" stroke-opacity="0"></use></g></g><g><use xlink:href="#g1CIXPGjVY" opacity="1" fill="#000000" fill-opacity="0"></use><g><use xlink:href="#g1CIXPGjVY" opacity="1" fill-opacity="0" stroke="#000000" stroke-width="1" stroke-opacity="0"></use></g></g><g><use xlink:href="#c5Gxm61hi" opacity="1" fill="#ffffff" fill-opacity="1"></use><g><use xlink:href="#c5Gxm61hi" opacity="1" fill-opacity="0" stroke="#000000" stroke-width="1" stroke-opacity="0"></use></g></g><g><use xlink:href="#b1QXvukuq" opacity="1" fill="#000000" fill-opacity="0"></use><g><use xlink:href="#b1QXvukuq" opacity="1" fill-opacity="0" stroke="#000000" stroke-width="1" stroke-opacity="0"></use></g></g></g></g></svg>