<?xml version="1.0" encoding="UTF-8" standalone="no"?>
<!DOCTYPE svg PUBLIC "-//W3C//DTD SVG 1.1//EN" "http://www.w3.org/Graphics/SVG/1.1/DTD/svg11.dtd">
<svg version="1.1" xmlns="http://www.w3.org/2000/svg" xmlns:xlink="http://www.w3.org/1999/xlink" preserveAspectRatio="xMidYMid meet" viewBox="0 0 28 28" width="28" height="28"><defs><path d="M14.85 2.3L14.93 2.38L15.02 2.49L15.03 2.49L19.64 7.34L19.64 7.27L26.03 14L24.06 14L24.06 25.46L24.04 25.54L24.01 25.62L23.96 25.69L23.9 25.76L23.83 25.82L23.76 25.87L23.68 25.91L23.58 25.95L23.49 25.98L23.39 25.99L23.28 26L4.63 26L4.52 25.99L4.42 25.98L4.33 25.95L4.23 25.91L4.15 25.87L4.08 25.82L4.02 25.76L3.95 25.69L3.9 25.62L3.88 25.54L3.85 25.46L3.84 25.38L3.84 14L1.94 14L3.84 12L3.83 12L12.87 2.49L12.95 2.49L13.08 2.31L13.49 2.08L13.98 2L14.47 2.08L14.85 2.3ZM12.25 6.47L12.24 6.46L10.82 7.96L10.8 7.97L10.8 7.98L6.97 12L6.44 12.56L6.43 12.56L6.37 12.62L6.37 23.55L6.38 23.63L6.4 23.71L6.45 23.78L6.57 23.9L6.66 23.94L6.75 23.97L6.83 23.99L6.94 24L20.98 24L21.08 23.99L21.17 23.97L21.26 23.94L21.34 23.9L21.41 23.84L21.46 23.78L21.51 23.71L21.53 23.63L21.53 12.57L20.99 12L20.96 12L14.83 5.56L13.97 4.67L13.25 5.43L12.25 6.47Z" id="a5ICwNpUc"></path><path d="M12.28 10.97L12.35 11L12.42 11.05L12.48 11.1L12.54 11.16L12.59 11.24L12.92 11.84L13.32 11.75L14 11.71L14.68 11.75L15.08 11.84L15.42 11.24L15.46 11.16L15.52 11.1L15.58 11.05L15.65 11L15.73 10.97L15.8 10.95L15.88 10.94L15.96 10.94L16.04 10.95L16.12 10.98L16.2 11.02L17.8 11.98L17.87 12.04L17.94 12.09L17.99 12.16L18.03 12.23L18.06 12.31L18.08 12.39L18.09 12.48L18.09 12.56L18.08 12.64L18.05 12.73L18.01 12.8L17.68 13.41L17.96 13.74L18.31 14.3L18.61 14.9L18.76 15.37L19.51 15.37L19.59 15.39L19.67 15.43L19.74 15.46L19.81 15.51L19.86 15.57L19.91 15.64L19.95 15.71L19.98 15.8L19.99 15.88L20 15.97L20 17.91L19.99 17.99L19.98 18.08L19.95 18.16L19.91 18.23L19.86 18.3L19.81 18.36L19.74 18.41L19.67 18.45L19.59 18.48L19.51 18.5L19.43 18.51L18.76 18.51L18.61 18.97L18.31 19.58L17.96 20.13L17.68 20.46L18.01 21.07L18.05 21.15L18.08 21.23L18.09 21.32L18.09 21.4L18.08 21.48L18.06 21.57L18.03 21.64L17.99 21.71L17.94 21.78L17.87 21.84L17.8 21.89L16.2 22.86L16.12 22.9L15.96 22.94L15.88 22.94L15.8 22.93L15.73 22.91L15.65 22.87L15.58 22.83L15.52 22.78L15.46 22.71L15.42 22.64L15.08 22.03L14.68 22.12L14 22.17L13.32 22.12L12.92 22.03L12.59 22.64L12.54 22.71L12.48 22.78L12.42 22.83L12.28 22.91L12.2 22.93L12.12 22.94L12.04 22.94L11.88 22.9L11.8 22.86L10.2 21.89L10.13 21.84L10.07 21.78L10.02 21.71L9.94 21.57L9.92 21.48L9.91 21.4L9.92 21.32L9.93 21.23L9.95 21.15L9.99 21.07L10.32 20.46L10.04 20.13L9.69 19.58L9.4 18.97L9.24 18.51L8.58 18.51L8.49 18.5L8.41 18.48L8.33 18.45L8.26 18.41L8.2 18.36L8.14 18.3L8.09 18.23L8.06 18.16L8.03 18.08L8 17.99L8 15.88L8.03 15.8L8.06 15.71L8.09 15.64L8.14 15.57L8.2 15.51L8.26 15.46L8.33 15.43L8.41 15.39L8.49 15.37L9.24 15.37L9.4 14.9L9.69 14.3L10.04 13.74L10.32 13.41L9.99 12.8L9.95 12.73L9.93 12.64L9.91 12.48L9.92 12.39L9.94 12.31L9.98 12.23L10.02 12.16L10.07 12.09L10.13 12.04L10.2 11.98L11.8 11.02L11.88 10.98L11.96 10.95L12.04 10.94L12.12 10.94L12.2 10.95L12.28 10.97ZM12.82 15.25L12.39 15.7L12.1 16.28L12 16.94L12.1 17.6L12.39 18.17L12.82 18.63L13.37 18.93L14 19.03L14.63 18.93L15.18 18.63L15.62 18.17L15.9 17.6L16 16.94L15.9 16.28L15.62 15.7L15.18 15.25L14.63 14.95L14 14.85L13.37 14.95L12.82 15.25Z" id="e1fUPJg1vT"></path></defs><g><g><g><use xlink:href="#a5ICwNpUc" opacity="1" fill="#ffffff" fill-opacity="1"></use><g><use xlink:href="#a5ICwNpUc" opacity="1" fill-opacity="0" stroke="#000000" stroke-width="1" stroke-opacity="0"></use></g></g><g><use xlink:href="#e1fUPJg1vT" opacity="1" fill="#ffffff" fill-opacity="1"></use><g><use xlink:href="#e1fUPJg1vT" opacity="1" fill-opacity="0" stroke="#000000" stroke-width="1" stroke-opacity="0"></use></g></g></g></g></svg>