<?xml version="1.0" encoding="UTF-8" standalone="no"?>
<!DOCTYPE svg PUBLIC "-//W3C//DTD SVG 1.1//EN" "http://www.w3.org/Graphics/SVG/1.1/DTD/svg11.dtd">
<svg version="1.1" xmlns="http://www.w3.org/2000/svg" xmlns:xlink="http://www.w3.org/1999/xlink" preserveAspectRatio="xMidYMid meet" viewBox="0 0 28 28" width="28" height="28"><defs><path d="M2 14C2 7.38 7.38 2 14 2C20.62 2 26 7.38 26 14C26 20.62 20.62 26 14 26C7.38 26 2 20.62 2 14Z" id="a4kdDuyIv"></path><path d="M18.02 13.53L17.49 14.36L16.81 15.05L15.97 15.58L15.03 15.91L14 16.03L12.97 15.91L12.03 15.58L11.19 15.05L10.51 14.36L9.98 13.53L9.64 12.58L9.52 11.55L9.64 10.53L9.98 9.58L10.16 9.29L10.46 9.77L11.16 10.47L12 11.01L12.96 11.35L14 11.47L15.04 11.35L16 11.01L16.84 10.47L17.54 9.77L17.84 9.29L18.02 9.58L18.36 10.53L18.48 11.55L18.36 12.58L18.02 13.53Z" id="c8bjY7xHB"></path><path d="M8.58 16.43L9.79 15.47L10.38 16.06L12.06 16.94L14 17.25L15.94 16.94L17.62 16.06L18.21 15.47L19.42 16.43L20.64 17.99L20.64 17.99L21.4 19.83L21.68 21.88L6.32 21.88L6.6 19.83L7.36 17.99L8.58 16.43Z" id="e17lNBcHLW"></path><path d="M15.89 4.33L16.58 5.03L17.04 5.91L17.2 6.91L17.04 7.92L16.58 8.8L15.89 9.5L15.01 9.95L14 10.12L12.99 9.95L12.11 9.5L11.42 8.8L10.96 7.92L10.8 6.91L10.96 5.91L11.42 5.03L12.11 4.33L12.99 3.88L14 3.71L15.01 3.88L15.89 4.33ZM12.64 5.56L12.23 6.17L12.08 6.91L12.23 7.66L12.64 8.27L13.25 8.68L14 8.83L14.75 8.68L15.36 8.27L15.77 7.66L15.92 6.91L15.77 6.17L15.36 5.56L14.75 5.14L14 5L13.25 5.14L12.64 5.56Z" id="bhYIdTAeD"></path></defs><g><g><g><use xlink:href="#a4kdDuyIv" opacity="1" fill="#2d7280" fill-opacity="1"></use><g><use xlink:href="#a4kdDuyIv" opacity="1" fill-opacity="0" stroke="#000000" stroke-width="1" stroke-opacity="0"></use></g></g><g><use xlink:href="#c8bjY7xHB" opacity="1" fill="#ffffff" fill-opacity="1"></use><g><use xlink:href="#c8bjY7xHB" opacity="1" fill-opacity="0" stroke="#000000" stroke-width="1" stroke-opacity="0"></use></g></g><g><use xlink:href="#e17lNBcHLW" opacity="1" fill="#ffffff" fill-opacity="1"></use><g><use xlink:href="#e17lNBcHLW" opacity="1" fill-opacity="0" stroke="#000000" stroke-width="1" stroke-opacity="0"></use></g></g><g><use xlink:href="#bhYIdTAeD" opacity="1" fill="#ffffff" fill-opacity="1"></use><g><use xlink:href="#bhYIdTAeD" opacity="1" fill-opacity="0" stroke="#000000" stroke-width="1" stroke-opacity="0"></use></g></g></g></g></svg>