<?xml version="1.0" encoding="UTF-8" standalone="no"?>
<!DOCTYPE svg PUBLIC "-//W3C//DTD SVG 1.1//EN" "http://www.w3.org/Graphics/SVG/1.1/DTD/svg11.dtd">
<svg version="1.1" xmlns="http://www.w3.org/2000/svg" xmlns:xlink="http://www.w3.org/1999/xlink" preserveAspectRatio="xMidYMid meet" viewBox="0 0 28 28" width="28" height="28"><defs><path d="M19.92 12.36L19.77 13.72L19.32 14.97L18.62 16.07L17.71 16.98L16.61 17.68L15.36 18.12L14 18.28L12.64 18.12L11.39 17.68L10.29 16.98L9.38 16.07L8.68 14.97L8.23 13.72L8.08 12.36L8.23 11L8.68 9.75L8.92 9.37L9.32 10L10.25 10.93L11.36 11.64L12.62 12.09L14 12.25L15.38 12.09L16.64 11.64L17.75 10.93L18.68 10L19.08 9.37L19.32 9.75L19.77 11L19.92 12.36Z" id="e4n0RgwsOn"></path><path d="M4.21 23.3L5.22 20.87L6.83 18.81L8.43 17.54L9.21 18.32L11.44 19.48L14 19.89L16.56 19.48L18.79 18.32L19.57 17.54L21.17 18.81L22.78 20.87L22.78 20.87L23.79 23.3L24.16 26.01L3.84 26.01L4.21 23.3Z" id="b9YUXqVSA"></path><path d="M16.5 2.78L17.41 3.7L18.02 4.86L18.23 6.19L18.02 7.53L17.41 8.69L16.5 9.61L15.34 10.21L14 10.43L12.66 10.21L11.5 9.61L10.59 8.69L9.98 7.53L9.77 6.19L9.98 4.86L10.59 3.7L11.5 2.78L12.66 2.18L14 1.96L15.34 2.18L16.5 2.78ZM12.2 4.4L11.66 5.21L11.46 6.19L11.66 7.18L12.2 7.99L13.01 8.53L14 8.73L14.99 8.53L15.8 7.99L16.34 7.18L16.54 6.19L16.34 5.21L15.8 4.4L14.99 3.85L14 3.66L13.01 3.85L12.2 4.4Z" id="b5tXIycu5X"></path></defs><g><g><g><use xlink:href="#e4n0RgwsOn" opacity="1" fill="#ffffff" fill-opacity="1"></use><g><use xlink:href="#e4n0RgwsOn" opacity="1" fill-opacity="0" stroke="#000000" stroke-width="1" stroke-opacity="0"></use></g></g><g><use xlink:href="#b9YUXqVSA" opacity="1" fill="#ffffff" fill-opacity="1"></use><g><use xlink:href="#b9YUXqVSA" opacity="1" fill-opacity="0" stroke="#000000" stroke-width="1" stroke-opacity="0"></use></g></g><g><use xlink:href="#b5tXIycu5X" opacity="1" fill="#ffffff" fill-opacity="1"></use><g><use xlink:href="#b5tXIycu5X" opacity="1" fill-opacity="0" stroke="#000000" stroke-width="1" stroke-opacity="0"></use></g></g></g></g></svg>