<?xml version="1.0" encoding="UTF-8" standalone="no"?>
<!DOCTYPE svg PUBLIC "-//W3C//DTD SVG 1.1//EN" "http://www.w3.org/Graphics/SVG/1.1/DTD/svg11.dtd">
<svg version="1.1" xmlns="http://www.w3.org/2000/svg" xmlns:xlink="http://www.w3.org/1999/xlink" preserveAspectRatio="xMidYMid meet" viewBox="0 0 28 28" width="28" height="28"><defs><path d="M19.06 20.02L19.06 5.69L19.06 5.69L19.06 4.12L11 4.12L11 1.94L21 1.94L21 21.88L20.95 21.88L19.06 20.02Z" id="cxgppXGA6"></path><path d="M19.06 20.02L19.06 5.69L19.06 5.69L19.06 4.12L11 4.12L11 1.94L21 1.94L21 21.88L20.95 21.88L19.06 20.02Z" id="a1gkUoc9ut"></path><path d="M7 26.06L7 6.13L17 6.13L17 26.06L16.95 26.06L11.99 21.19L7.03 26.06L7 26.06ZM9.05 21.21L11.99 18.32L15.05 21.32L15.05 8.12L9.05 8.12L9.05 21.21Z" id="ca7unJqgm"></path></defs><g><g><g><use xlink:href="#cxgppXGA6" opacity="1" fill="#000000" fill-opacity="1"></use><g><use xlink:href="#cxgppXGA6" opacity="1" fill-opacity="0" stroke="#000000" stroke-width="1" stroke-opacity="0"></use></g></g><g><use xlink:href="#a1gkUoc9ut" opacity="1" fill="#000000" fill-opacity="0"></use><g><use xlink:href="#a1gkUoc9ut" opacity="1" fill-opacity="0" stroke="#000000" stroke-width="1" stroke-opacity="0"></use></g></g><g><use xlink:href="#ca7unJqgm" opacity="1" fill="#000000" fill-opacity="1"></use><g><use xlink:href="#ca7unJqgm" opacity="1" fill-opacity="0" stroke="#000000" stroke-width="1" stroke-opacity="0"></use></g></g></g></g></svg>