<?xml version="1.0" encoding="UTF-8" standalone="no"?>
<!DOCTYPE svg PUBLIC "-//W3C//DTD SVG 1.1//EN" "http://www.w3.org/Graphics/SVG/1.1/DTD/svg11.dtd">
<svg version="1.1" xmlns="http://www.w3.org/2000/svg" xmlns:xlink="http://www.w3.org/1999/xlink" preserveAspectRatio="xMidYMid meet" viewBox="0 0 28 28" width="28" height="28"><defs><path d="M14 2C20.62 2 26 7.38 26 14C26 20.62 20.62 26 14 26C7.38 26 2 20.62 2 14C2 7.38 7.38 2 14 2Z" id="a3Ug1On3py"></path><path d="M14 2C20.62 2 26 7.38 26 14C26 20.62 20.62 26 14 26C7.38 26 2 20.62 2 14C2 7.38 7.38 2 14 2Z" id="g33KAsXBqg"></path><path d="M22.5 21.59L6.6 21.59L6.6 21.55L6.56 21.55L6.56 5.66L7.89 5.66L7.89 20.27L22.5 20.27L22.5 21.59Z" id="b2raUG4tZ"></path><path d="M21.12 13.95L17.2 17.88L17.19 17.87L16.25 18.82L13.24 15.81L9.23 19.82L8.23 18.82L13.22 13.83L13.23 13.83L13.24 13.82L16.25 16.82L19.96 13.11L19 13.11L19 11.7L22.53 11.7L22.53 15.19L21.12 15.19L21.12 13.95Z" id="a2xgzM2TZX"></path></defs><g><g><g><use xlink:href="#a3Ug1On3py" opacity="1" fill="#807c4b" fill-opacity="1"></use><g><use xlink:href="#a3Ug1On3py" opacity="1" fill-opacity="0" stroke="#000000" stroke-width="1" stroke-opacity="0"></use></g></g><g><use xlink:href="#g33KAsXBqg" opacity="1" fill="#80792d" fill-opacity="1"></use><g><use xlink:href="#g33KAsXBqg" opacity="1" fill-opacity="0" stroke="#000000" stroke-width="1" stroke-opacity="0"></use></g></g><g><use xlink:href="#b2raUG4tZ" opacity="1" fill="#ffffff" fill-opacity="1"></use><g><use xlink:href="#b2raUG4tZ" opacity="1" fill-opacity="0" stroke="#000000" stroke-width="1" stroke-opacity="0"></use></g></g><g><use xlink:href="#a2xgzM2TZX" opacity="1" fill="#ffffff" fill-opacity="1"></use><g><use xlink:href="#a2xgzM2TZX" opacity="1" fill-opacity="0" stroke="#000000" stroke-width="1" stroke-opacity="0"></use></g></g></g></g></svg>