<?xml version="1.0" encoding="UTF-8" standalone="no"?>
<!DOCTYPE svg PUBLIC "-//W3C//DTD SVG 1.1//EN" "http://www.w3.org/Graphics/SVG/1.1/DTD/svg11.dtd">
<svg width="100%" height="100%" viewBox="0 0 28 28" version="1.1" xmlns="http://www.w3.org/2000/svg" xmlns:xlink="http://www.w3.org/1999/xlink" xml:space="preserve" xmlns:serif="http://www.serif.com/" style="fill-rule:evenodd;clip-rule:evenodd;stroke-linejoin:round;stroke-miterlimit:2;">
    <path id="c9wQ5KIPkJ" d="M25.01,23.88L3.08,23.88C2.421,23.879 2.077,23.563 2.09,22.89L2.09,10.86C2.076,10.544 2.172,10.295 2.412,10.132L6.09,8.207L6.09,4.13L22,4.13L22,8.207L25.678,10.132C25.919,10.295 26.014,10.544 26,10.86L26,22.89C26.013,23.563 25.669,23.879 25.01,23.88ZM24,21.88L24,12.927L14.05,18L14.045,17.998L14.04,18L4.09,12.927L4.09,21.88L24,21.88Z" style="fill:white;fill-rule:nonzero;"/>
</svg>
