<?xml version="1.0" encoding="UTF-8" standalone="no"?>
<!DOCTYPE svg PUBLIC "-//W3C//DTD SVG 1.1//EN" "http://www.w3.org/Graphics/SVG/1.1/DTD/svg11.dtd">
<svg width="100%" height="100%" viewBox="0 0 28 28" version="1.1" xmlns="http://www.w3.org/2000/svg" xmlns:xlink="http://www.w3.org/1999/xlink" xml:space="preserve" xmlns:serif="http://www.serif.com/" style="fill-rule:evenodd;clip-rule:evenodd;stroke-linejoin:round;stroke-miterlimit:2;">
    <path id="amAj0bReK" d="M3.061,23.81C2.44,23.834 2.091,23.527 2.071,22.82L2.071,10.8C2.06,10.117 2.387,9.784 3.061,9.81L25.01,9.81C25.684,9.784 26.011,10.117 26,10.8L26,22.82C25.98,23.527 25.631,23.834 25.01,23.81L3.061,23.81ZM24,21.81L24,12.882L14.04,17.96L14.035,17.958L14.031,17.96L4.071,12.882L4.071,21.81L24,21.81ZM6.388,11.81L14.029,15.705L14.031,15.703L14.031,15.699L14.035,15.701L14.039,15.699L14.039,15.703L14.042,15.705L21.683,11.81L6.388,11.81Z" style="fill:white;fill-rule:nonzero;"/>
</svg>
