<?xml version="1.0" encoding="UTF-8" standalone="no"?>
<!DOCTYPE svg PUBLIC "-//W3C//DTD SVG 1.1//EN" "http://www.w3.org/Graphics/SVG/1.1/DTD/svg11.dtd">
<svg version="1.1" xmlns="http://www.w3.org/2000/svg" xmlns:xlink="http://www.w3.org/1999/xlink" preserveAspectRatio="xMidYMid meet" viewBox="0 0 28 28" width="28" height="28"><defs><path d="M25.84 8.34L26.04 9.29L25.84 10.25L25.31 11.02L24.53 11.54L23.59 11.74L22.89 11.61L16.83 17.67L15.09 15.93L15.1 15.93L12.65 13.49L12.21 13.58L11.76 13.49L6.84 18.41L6.9 18.71L6.7 19.66L6.18 20.43L5.4 20.96L4.45 21.16L3.49 20.96L2.72 20.43L2.2 19.66L2 18.71L2.2 17.75L2.72 16.97L3.49 16.44L4.45 16.26L5.34 16.44L9.92 11.86L9.76 11.13L9.96 10.17L10.49 9.4L11.27 8.88L12.21 8.68L13.17 8.88L13.95 9.4L14.48 10.17L14.66 11.13L14.51 11.89L16.83 14.2L21.24 9.79L21.14 9.29L21.32 8.34L21.85 7.57L22.63 7.04L23.59 6.84L24.53 7.04L25.31 7.57L25.84 8.34Z" id="g3Pf0RPgTT"></path></defs><g><g><g><use xlink:href="#g3Pf0RPgTT" opacity="1" fill="#ffffff" fill-opacity="1"></use><g><use xlink:href="#g3Pf0RPgTT" opacity="1" fill-opacity="0" stroke="#000000" stroke-width="1" stroke-opacity="0"></use></g></g></g></g></svg>