<?xml version="1.0" encoding="UTF-8" standalone="no"?>
<!DOCTYPE svg PUBLIC "-//W3C//DTD SVG 1.1//EN" "http://www.w3.org/Graphics/SVG/1.1/DTD/svg11.dtd">
<svg version="1.1" xmlns="http://www.w3.org/2000/svg" xmlns:xlink="http://www.w3.org/1999/xlink" preserveAspectRatio="xMidYMid meet" viewBox="0 0 28 28" width="28" height="28"><defs><path d="M14 2C20.62 2 26 7.38 26 14C26 20.62 20.62 26 14 26C7.38 26 2 20.62 2 14C2 7.38 7.38 2 14 2Z" id="aT9HuCuoh"></path><path d="M14 2C20.62 2 26 7.38 26 14C26 20.62 20.62 26 14 26C7.38 26 2 20.62 2 14C2 7.38 7.38 2 14 2Z" id="b4NJRLkt0c"></path><path d="M14 2C20.62 2 26 7.38 26 14C26 20.62 20.62 26 14 26C7.38 26 2 20.62 2 14C2 7.38 7.38 2 14 2Z" id="a2u8KEijjq"></path><path d="M23.88 10.5L23.72 11.28L23.29 11.91L22.65 12.34L21.88 12.5L21.31 12.39L16.36 17.34L14.94 15.92L14.95 15.92L12.95 13.93L12.59 14L12.22 13.93L8.2 17.95L8.25 18.19L8.09 18.97L7.66 19.6L7.03 20.03L6.25 20.19L5.47 20.03L4.84 19.6L4.41 18.97L4.25 18.19L4.41 17.41L4.84 16.77L5.47 16.34L6.25 16.19L6.98 16.34L10.72 12.6L10.59 12L10.75 11.22L11.18 10.59L11.82 10.16L12.59 10L13.37 10.16L14.01 10.59L14.44 11.22L14.59 12L14.47 12.62L16.36 14.51L19.96 10.91L19.88 10.5L20.03 9.72L20.46 9.09L21.1 8.66L21.88 8.5L22.65 8.66L23.29 9.09L23.72 9.72L23.88 10.5Z" id="aGXRRxre"></path></defs><g><g><g><use xlink:href="#aT9HuCuoh" opacity="1" fill="#6b2da7" fill-opacity="1"></use><g><use xlink:href="#aT9HuCuoh" opacity="1" fill-opacity="0" stroke="#000000" stroke-width="1" stroke-opacity="0"></use></g></g><g><use xlink:href="#b4NJRLkt0c" opacity="1" fill="#000000" fill-opacity="0"></use><g><use xlink:href="#b4NJRLkt0c" opacity="1" fill-opacity="0" stroke="#000000" stroke-width="1" stroke-opacity="0"></use></g></g><g><use xlink:href="#a2u8KEijjq" opacity="1" fill="#802d62" fill-opacity="1"></use><g><use xlink:href="#a2u8KEijjq" opacity="1" fill-opacity="0" stroke="#000000" stroke-width="1" stroke-opacity="0"></use></g></g><g><use xlink:href="#aGXRRxre" opacity="1" fill="#ffffff" fill-opacity="1"></use><g><use xlink:href="#aGXRRxre" opacity="1" fill-opacity="0" stroke="#000000" stroke-width="1" stroke-opacity="0"></use></g></g></g></g></svg>