<?xml version="1.0" encoding="UTF-8" standalone="no"?>
<!DOCTYPE svg PUBLIC "-//W3C//DTD SVG 1.1//EN" "http://www.w3.org/Graphics/SVG/1.1/DTD/svg11.dtd">
<svg version="1.1" xmlns="http://www.w3.org/2000/svg" xmlns:xlink="http://www.w3.org/1999/xlink" preserveAspectRatio="xMidYMid meet" viewBox="0 0 28 28" width="28" height="28"><defs><path d="M16.53 2.41L17.68 2.89L18.72 3.54L19.66 4.34L20.46 5.28L21.11 6.32L21.59 7.47L21.9 8.7L22 10L21.9 11.3L21.59 12.53L21.11 13.68L20.47 14.7L20.49 14.72L20.29 14.92L19.66 15.66L18.94 16.27L16 19.22L16 20.13L12 20.13L12 17.5L12.06 17.5L17.27 12.28L17.8 11.26L18 10L17.8 8.74L17.23 7.64L16.36 6.77L15.26 6.2L14 6L12.74 6.2L11.64 6.77L10.77 7.64L10.2 8.74L10.03 9.84L6.01 9.84L6.1 8.7L6.41 7.47L6.89 6.32L7.54 5.28L8.34 4.34L9.28 3.54L10.32 2.89L11.47 2.41L12.7 2.1L14 2L15.3 2.1L16.53 2.41Z" id="m1ObgdhE8t"></path><path d="M16 22.06L16 26.06L12 26.06L12 22.06L16 22.06Z" id="e9dtNkcND"></path></defs><g><g><g><use xlink:href="#m1ObgdhE8t" opacity="1" fill="#ffffff" fill-opacity="1"></use><g><use xlink:href="#m1ObgdhE8t" opacity="1" fill-opacity="0" stroke="#000000" stroke-width="1" stroke-opacity="0"></use></g></g><g><use xlink:href="#e9dtNkcND" opacity="1" fill="#ffffff" fill-opacity="1"></use><g><use xlink:href="#e9dtNkcND" opacity="1" fill-opacity="0" stroke="#000000" stroke-width="1" stroke-opacity="0"></use></g></g></g></g></svg>