<?xml version="1.0" encoding="UTF-8" standalone="no"?>
<!DOCTYPE svg PUBLIC "-//W3C//DTD SVG 1.1//EN" "http://www.w3.org/Graphics/SVG/1.1/DTD/svg11.dtd">
<svg version="1.1" xmlns="http://www.w3.org/2000/svg" xmlns:xlink="http://www.w3.org/1999/xlink" preserveAspectRatio="xMidYMid meet" viewBox="0 0 28 28" width="28" height="28"><defs><path d="M2 14C2 7.38 7.38 2 14 2C20.62 2 26 7.38 26 14C26 20.62 20.62 26 14 26C7.38 26 2 20.62 2 14Z" id="a2FQU1YXVK"></path><path d="M21.59 18.61L21.88 20.71L6.13 20.71L6.41 18.61L7.19 16.73L8.44 15.13L9.68 14.15L10.29 14.75L12.02 15.65L14 15.97L15.98 15.65L17.71 14.75L18.32 14.15L19.56 15.13L20.81 16.73L21.59 18.61Z" id="ksYQiYI8t"></path><path d="M21.59 18.61L21.88 20.71L6.13 20.71L6.41 18.61L7.19 16.73L8.44 15.13L9.68 14.15L10.29 14.75L12.02 15.65L14 15.97L15.98 15.65L17.71 14.75L18.32 14.15L19.56 15.13L20.81 16.73L21.59 18.61Z" id="d12KEtjzYd"></path><path d="M21.59 18.61L21.88 20.71L6.13 20.71L6.41 18.61L7.19 16.73L8.44 15.13L9.68 14.15L10.29 14.75L12.02 15.65L14 15.97L15.98 15.65L17.71 14.75L18.32 14.15L19.56 15.13L20.81 16.73L21.59 18.61Z" id="h48BLMV8Sj"></path><path d="M18.59 10.13C18.59 12.67 16.55 14.72 14.01 14.72C11.46 14.72 9.42 12.67 9.42 10.13C9.42 7.59 11.46 5.54 14.01 5.54C16.55 5.54 18.59 7.59 18.59 10.13Z" id="a5sKD4vw7"></path></defs><g><g><g><use xlink:href="#a2FQU1YXVK" opacity="1" fill="#36802d" fill-opacity="1"></use><g><use xlink:href="#a2FQU1YXVK" opacity="1" fill-opacity="0" stroke="#000000" stroke-width="1" stroke-opacity="0"></use></g></g><g><use xlink:href="#ksYQiYI8t" opacity="1" fill="#ffffff" fill-opacity="1"></use><g><use xlink:href="#ksYQiYI8t" opacity="1" fill-opacity="0" stroke="#000000" stroke-width="1" stroke-opacity="0"></use></g></g><g><use xlink:href="#d12KEtjzYd" opacity="1" fill="#000000" fill-opacity="0"></use><g><use xlink:href="#d12KEtjzYd" opacity="1" fill-opacity="0" stroke="#000000" stroke-width="1" stroke-opacity="0"></use></g></g><g><use xlink:href="#h48BLMV8Sj" opacity="1" fill="#000000" fill-opacity="0"></use><g><use xlink:href="#h48BLMV8Sj" opacity="1" fill-opacity="0" stroke="#000000" stroke-width="1" stroke-opacity="0"></use></g></g><g><use xlink:href="#a5sKD4vw7" opacity="1" fill="#ffffff" fill-opacity="1"></use><g><use xlink:href="#a5sKD4vw7" opacity="1" fill-opacity="0" stroke="#000000" stroke-width="1" stroke-opacity="0"></use></g></g></g></g></svg>