<?xml version="1.0" encoding="UTF-8" standalone="no"?>
<!DOCTYPE svg PUBLIC "-//W3C//DTD SVG 1.1//EN" "http://www.w3.org/Graphics/SVG/1.1/DTD/svg11.dtd">
<svg version="1.1" xmlns="http://www.w3.org/2000/svg" xmlns:xlink="http://www.w3.org/1999/xlink" preserveAspectRatio="xMidYMid meet" viewBox="0 0 28 28" width="28" height="28"><defs><path d="M17.92 4.07L18.95 4.92L19.81 5.96L20.45 7.15L20.86 8.46L21 9.87L20.87 11.13L10.87 11.13L10.87 16.11L10.08 15.68L9.05 14.83L8.19 13.79L7.55 12.6L7.14 11.28L7 9.87L7.14 8.46L7.55 7.15L8.19 5.96L9.05 4.92L10.08 4.07L11.27 3.43L12.59 3.02L14 2.88L15.41 3.02L16.73 3.43L17.92 4.07Z" id="b1UCEIntqt"></path><path d="M10.87 26L2 26L2.43 22.8L3.63 19.93L5.53 17.49L7.42 16L8.34 16.92L10.87 18.24L10.87 26Z" id="bdZ6VsP8V"></path><path d="M13.01 27.01L13.01 23.01L15 23.01L15 27.01L13.01 27.01Z" id="cfK3FM9So"></path><path d="M12.99 21.94L12.99 17.94L15.02 17.94L15.02 21.94L12.99 21.94Z" id="d2eNwLTRCO"></path><path d="M12.99 16.95L12.99 12.95L15.01 12.95L15.01 16.95L12.99 16.95Z" id="gjRoNaWyM"></path><path d="M16.99 16.95L16.99 12.95L26.01 12.95L26.01 16.95L16.99 16.95Z" id="d4xDV9WiYN"></path><path d="M16.99 22.01L16.99 18.01L26.01 18.01L26.01 22.01L16.99 22.01Z" id="b34bAnmeoR"></path><path d="M16.99 26.94L16.99 22.94L26.01 22.94L26.01 26.94L16.99 26.94Z" id="b1UaRNXl31"></path></defs><g><g><g><use xlink:href="#b1UCEIntqt" opacity="1" fill="#ffffff" fill-opacity="1"></use><g><use xlink:href="#b1UCEIntqt" opacity="1" fill-opacity="0" stroke="#000000" stroke-width="1" stroke-opacity="0"></use></g></g><g><use xlink:href="#bdZ6VsP8V" opacity="1" fill="#ffffff" fill-opacity="1"></use><g><use xlink:href="#bdZ6VsP8V" opacity="1" fill-opacity="0" stroke="#000000" stroke-width="1" stroke-opacity="0"></use></g></g><g><use xlink:href="#cfK3FM9So" opacity="1" fill="#ffffff" fill-opacity="1"></use><g><use xlink:href="#cfK3FM9So" opacity="1" fill-opacity="0" stroke="#000000" stroke-width="1" stroke-opacity="0"></use></g></g><g><use xlink:href="#d2eNwLTRCO" opacity="1" fill="#ffffff" fill-opacity="1"></use><g><use xlink:href="#d2eNwLTRCO" opacity="1" fill-opacity="0" stroke="#000000" stroke-width="1" stroke-opacity="0"></use></g></g><g><use xlink:href="#gjRoNaWyM" opacity="1" fill="#ffffff" fill-opacity="1"></use><g><use xlink:href="#gjRoNaWyM" opacity="1" fill-opacity="0" stroke="#000000" stroke-width="1" stroke-opacity="0"></use></g></g><g><use xlink:href="#d4xDV9WiYN" opacity="1" fill="#ffffff" fill-opacity="1"></use><g><use xlink:href="#d4xDV9WiYN" opacity="1" fill-opacity="0" stroke="#000000" stroke-width="1" stroke-opacity="0"></use></g></g><g><use xlink:href="#b34bAnmeoR" opacity="1" fill="#ffffff" fill-opacity="1"></use><g><use xlink:href="#b34bAnmeoR" opacity="1" fill-opacity="0" stroke="#000000" stroke-width="1" stroke-opacity="0"></use></g></g><g><use xlink:href="#b1UaRNXl31" opacity="1" fill="#ffffff" fill-opacity="1"></use><g><use xlink:href="#b1UaRNXl31" opacity="1" fill-opacity="0" stroke="#000000" stroke-width="1" stroke-opacity="0"></use></g></g></g></g></svg>