<?xml version="1.0" encoding="UTF-8" standalone="no"?>
<!DOCTYPE svg PUBLIC "-//W3C//DTD SVG 1.1//EN" "http://www.w3.org/Graphics/SVG/1.1/DTD/svg11.dtd">
<svg version="1.1" xmlns="http://www.w3.org/2000/svg" xmlns:xlink="http://www.w3.org/1999/xlink" preserveAspectRatio="xMidYMid meet" viewBox="0 0 28 28" width="28" height="28"><defs><path d="M17.92 4.07L18.95 4.92L19.81 5.96L20.45 7.15L20.86 8.46L21 9.87L20.86 11.28L20.81 11.45L19.63 11.08L18.22 10.94L16.81 11.08L15.49 11.49L14.3 12.13L13.27 12.99L12.41 14.02L11.77 15.21L11.41 16.36L11.27 16.32L10.08 15.68L9.05 14.83L8.19 13.79L7.55 12.6L7.14 11.28L7 9.87L7.14 8.46L7.55 7.15L8.19 5.96L9.05 4.92L10.08 4.07L11.27 3.43L12.59 3.02L14 2.88L15.41 3.02L16.73 3.43L17.92 4.07Z" id="c1UaJVkanH"></path><path d="M11.36 19.35L11.77 20.66L12.41 21.85L13.27 22.89L14.3 23.74L15.49 24.39L16.81 24.8L18.22 24.94L19.63 24.8L20.56 24.5L22.06 26L2 26L2.43 22.8L3.63 19.93L5.53 17.49L7.42 16L8.34 16.92L10.98 18.29L10.98 18.29L11.26 18.33L11.36 19.35Z" id="a3gAsAIptR"></path><path d="M25.71 26.86L20.91 22.06L21.66 21.47L22.31 20.63L27.13 25.45L25.71 26.86ZM20.65 13.62L21.66 14.4L22.44 15.41L22.95 16.61L23.13 17.94L22.95 19.27L22.44 20.46L21.66 21.47L20.65 22.25L19.45 22.76L18.13 22.94L16.8 22.76L15.6 22.25L14.59 21.47L13.81 20.46L13.3 19.27L13.13 17.94L13.3 16.61L13.81 15.41L14.59 14.4L15.6 13.62L16.8 13.12L18.13 12.94L19.45 13.12L20.65 13.62ZM16 15.82L15.36 16.77L15.13 17.94L15.36 19.1L16 20.06L16.96 20.7L18.13 20.94L19.29 20.7L20.25 20.06L20.89 19.1L21.13 17.94L20.89 16.77L20.25 15.82L19.29 15.17L18.13 14.94L16.96 15.17L16 15.82Z" id="a3nZHAsY18"></path></defs><g><g><g><use xlink:href="#c1UaJVkanH" opacity="1" fill="#ffffff" fill-opacity="1"></use><g><use xlink:href="#c1UaJVkanH" opacity="1" fill-opacity="0" stroke="#000000" stroke-width="1" stroke-opacity="0"></use></g></g><g><use xlink:href="#a3gAsAIptR" opacity="1" fill="#ffffff" fill-opacity="1"></use><g><use xlink:href="#a3gAsAIptR" opacity="1" fill-opacity="0" stroke="#000000" stroke-width="1" stroke-opacity="0"></use></g></g><g><use xlink:href="#a3nZHAsY18" opacity="1" fill="#ffffff" fill-opacity="1"></use><g><use xlink:href="#a3nZHAsY18" opacity="1" fill-opacity="0" stroke="#000000" stroke-width="1" stroke-opacity="0"></use></g></g></g></g></svg>