<?xml version="1.0" encoding="UTF-8" standalone="no"?>
<!DOCTYPE svg PUBLIC "-//W3C//DTD SVG 1.1//EN" "http://www.w3.org/Graphics/SVG/1.1/DTD/svg11.dtd">
<svg version="1.1" xmlns="http://www.w3.org/2000/svg" xmlns:xlink="http://www.w3.org/1999/xlink" preserveAspectRatio="xMidYMid meet" viewBox="0 0 28 28" width="28" height="28"><defs><path d="M18.95 4.92L19.81 5.96L20.45 7.15L20.86 8.46L21 9.87L20.87 11.13L16.31 11.13L16.31 16.13L11.13 16.13L11.13 16.25L10.08 15.68L9.05 14.83L8.19 13.79L7.55 12.6L7.14 11.29L7 9.87L7.14 8.46L7.55 7.15L8.19 5.96L9.05 4.92L10.08 4.07L11.27 3.42L12.59 3.02L14 2.88L15.41 3.02L16.73 3.42L17.92 4.07L18.95 4.92Z" id="d1tj86axkw"></path><path d="M24.31 24.13L25.75 24.13L26 26L24.31 26L24.31 24.13Z" id="hcshHRQU"></path><path d="M27.06 18.13L27.06 22.13L22.38 22.13L22.38 27.12L18.38 27.12L18.38 22.13L13.07 22.13L13.07 18.13L18.38 18.13L18.38 13.13L22.38 13.13L22.38 18.13L27.06 18.13Z" id="a1ShyCnzzW"></path><path d="M10.98 18.29L11.13 18.31L11.13 24.13L16.31 24.13L16.31 26L2 26L2.43 22.8L3.63 19.93L5.53 17.49L7.42 16L8.34 16.92L10.98 18.29Z" id="ccHACELC5"></path></defs><g><g><g><use xlink:href="#d1tj86axkw" opacity="1" fill="#ffffff" fill-opacity="1"></use><g><use xlink:href="#d1tj86axkw" opacity="1" fill-opacity="0" stroke="#000000" stroke-width="1" stroke-opacity="0"></use></g></g><g><use xlink:href="#hcshHRQU" opacity="1" fill="#ffffff" fill-opacity="1"></use><g><use xlink:href="#hcshHRQU" opacity="1" fill-opacity="0" stroke="#000000" stroke-width="1" stroke-opacity="0"></use></g></g><g><use xlink:href="#a1ShyCnzzW" opacity="1" fill="#ffffff" fill-opacity="1"></use><g><use xlink:href="#a1ShyCnzzW" opacity="1" fill-opacity="0" stroke="#000000" stroke-width="1" stroke-opacity="0"></use></g></g><g><use xlink:href="#ccHACELC5" opacity="1" fill="#ffffff" fill-opacity="1"></use><g><use xlink:href="#ccHACELC5" opacity="1" fill-opacity="0" stroke="#000000" stroke-width="1" stroke-opacity="0"></use></g></g></g></g></svg>