<?xml version="1.0" encoding="UTF-8" standalone="no"?>
<!DOCTYPE svg PUBLIC "-//W3C//DTD SVG 1.1//EN" "http://www.w3.org/Graphics/SVG/1.1/DTD/svg11.dtd">
<svg version="1.1" xmlns="http://www.w3.org/2000/svg" xmlns:xlink="http://www.w3.org/1999/xlink" preserveAspectRatio="xMidYMid meet" viewBox="0 0 28 28" width="28" height="28"><defs><path d="M1.91 23.88L1.91 7.88L21.91 7.88L21.91 23.88L1.91 23.88ZM5.81 19.88L17.94 19.88L17.94 13.81L5.81 13.81L5.81 19.88Z" id="b2c7Ckb9Sl"></path><path d="M26.09 3.87L26.09 21.88L24.09 21.88L24.09 5.85L4.26 5.85L4.26 3.85L24.26 3.85L24.26 3.89L24.28 3.88L24.33 3.87L26.09 3.87Z" id="cvfZXrsbp"></path><path d="M26.09 3.87L26.09 21.88L24.09 21.88L24.09 5.85L4.26 5.85L4.26 3.85L24.26 3.85L24.26 3.89L24.28 3.88L24.33 3.87L26.09 3.87Z" id="bym2huMCA"></path></defs><g><g><g><use xlink:href="#b2c7Ckb9Sl" opacity="1" fill="#ffffff" fill-opacity="1"></use><g><use xlink:href="#b2c7Ckb9Sl" opacity="1" fill-opacity="0" stroke="#000000" stroke-width="1" stroke-opacity="0"></use></g></g><g><use xlink:href="#cvfZXrsbp" opacity="1" fill="#000000" fill-opacity="1"></use><g><use xlink:href="#cvfZXrsbp" opacity="1" fill-opacity="0" stroke="#000000" stroke-width="1" stroke-opacity="0"></use></g></g><g><use xlink:href="#bym2huMCA" opacity="1" fill="#ffffff" fill-opacity="1"></use><g><use xlink:href="#bym2huMCA" opacity="1" fill-opacity="0" stroke="#000000" stroke-width="1" stroke-opacity="0"></use></g></g></g></g></svg>