<?xml version="1.0" encoding="UTF-8" standalone="no"?>
<!DOCTYPE svg PUBLIC "-//W3C//DTD SVG 1.1//EN" "http://www.w3.org/Graphics/SVG/1.1/DTD/svg11.dtd">
<svg version="1.1" xmlns="http://www.w3.org/2000/svg" xmlns:xlink="http://www.w3.org/1999/xlink" preserveAspectRatio="xMidYMid meet" viewBox="0 0 28 28" width="28" height="28"><defs><path d="M14 26C7.38 26 2 20.62 2 14C2 7.38 7.38 2 14 2C20.62 2 26 7.38 26 14C26 20.62 20.62 26 14 26Z" id="ePIUBNnWj"></path><path d="M8.83 13.1L8.83 20.49L5.88 20.49L5.88 13.1L8.83 13.1Z" id="dyfk7IQaq"></path><path d="M17.6 5.72L17.6 20.49L14.65 20.49L14.65 5.72L17.6 5.72Z" id="f10POxiRIu"></path><path d="M22.13 8.72L22.13 20.53L19.17 20.53L19.17 8.72L22.13 8.72Z" id="axcmG0iGB"></path><path d="M13.22 10.15L13.22 20.49L10.26 20.49L10.26 10.15L13.22 10.15Z" id="c2qpnSUMDA"></path></defs><g><g><g><use xlink:href="#ePIUBNnWj" opacity="1" fill="#90a72d" fill-opacity="1"></use><g><use xlink:href="#ePIUBNnWj" opacity="1" fill-opacity="0" stroke="#000000" stroke-width="1" stroke-opacity="0"></use></g></g><g><use xlink:href="#dyfk7IQaq" opacity="1" fill="#ffffff" fill-opacity="1"></use><g><use xlink:href="#dyfk7IQaq" opacity="1" fill-opacity="0" stroke="#000000" stroke-width="1" stroke-opacity="0"></use></g></g><g><use xlink:href="#f10POxiRIu" opacity="1" fill="#ffffff" fill-opacity="1"></use><g><use xlink:href="#f10POxiRIu" opacity="1" fill-opacity="0" stroke="#000000" stroke-width="1" stroke-opacity="0"></use></g></g><g><use xlink:href="#axcmG0iGB" opacity="1" fill="#ffffff" fill-opacity="1"></use><g><use xlink:href="#axcmG0iGB" opacity="1" fill-opacity="0" stroke="#000000" stroke-width="1" stroke-opacity="0"></use></g></g><g><use xlink:href="#c2qpnSUMDA" opacity="1" fill="#ffffff" fill-opacity="1"></use><g><use xlink:href="#c2qpnSUMDA" opacity="1" fill-opacity="0" stroke="#000000" stroke-width="1" stroke-opacity="0"></use></g></g></g></g></svg>