<?xml version="1.0" encoding="UTF-8" standalone="no"?>
<!DOCTYPE svg PUBLIC "-//W3C//DTD SVG 1.1//EN" "http://www.w3.org/Graphics/SVG/1.1/DTD/svg11.dtd">
<svg version="1.1" xmlns="http://www.w3.org/2000/svg" xmlns:xlink="http://www.w3.org/1999/xlink" preserveAspectRatio="xMidYMid meet" viewBox="0 0 28 28" width="28" height="28"><defs><path d="M16.57 2.28L17.79 2.61L18.95 3.07L20.05 3.64L21.09 4.32L22.04 5.09L22.91 5.96L23.68 6.91L24.36 7.95L24.93 9.05L25.39 10.21L25.72 11.43L25.93 12.69L26 14L25.93 15.31L25.72 16.57L25.39 17.79L24.93 18.95L24.36 20.05L23.68 21.09L22.91 22.04L22.04 22.91L21.09 23.68L20.05 24.36L18.95 24.93L17.79 25.39L16.57 25.72L15.31 25.93L14 26L12.69 25.93L11.43 25.72L10.21 25.39L9.05 24.93L7.95 24.36L6.91 23.68L5.96 22.91L5.09 22.04L4.32 21.09L3.64 20.05L3.07 18.95L2.61 17.79L2.28 16.57L2.07 15.31L2 14L2.07 12.69L2.28 11.43L2.61 10.21L3.07 9.05L3.64 7.95L4.32 6.91L5.09 5.96L5.96 5.09L6.91 4.32L7.95 3.64L9.05 3.07L10.21 2.61L11.43 2.28L12.69 2.07L14 2L15.31 2.07L16.57 2.28ZM11.34 4.36L10.11 4.79L8.95 5.37L7.89 6.08L6.93 6.93L6.08 7.89L5.37 8.95L4.79 10.11L4.36 11.34L4.09 12.64L4 14L4.09 15.36L4.36 16.66L4.79 17.89L5.37 19.05L6.08 20.11L6.93 21.07L7.89 21.92L8.95 22.63L10.11 23.21L11.34 23.64L12.64 23.91L14 24L15.36 23.91L16.66 23.64L17.89 23.21L19.05 22.63L20.11 21.92L21.07 21.07L21.92 20.11L22.63 19.05L23.21 17.89L23.64 16.66L23.91 15.36L24 14L23.91 12.64L23.64 11.34L23.21 10.11L22.63 8.95L21.92 7.89L21.07 6.93L20.11 6.08L19.05 5.37L17.89 4.79L16.66 4.36L15.36 4.09L14 4L12.64 4.09L11.34 4.36Z" id="bq9jZP0gZ"></path><path d="M13 4.88L15 4.88L15 13.88L13 13.88L13 4.88Z" id="f1BHLUiznt"></path><path d="M13.59 12.45L15.01 13.86L10.06 18.81L8.64 17.4L13.59 12.45Z" id="cc4oR2JtK"></path></defs><g><g><g><use xlink:href="#bq9jZP0gZ" opacity="1" fill="#000000" fill-opacity="1"></use></g><g><use xlink:href="#f1BHLUiznt" opacity="1" fill="#000000" fill-opacity="1"></use></g><g><use xlink:href="#cc4oR2JtK" opacity="1" fill="#000000" fill-opacity="1"></use></g></g></g></svg>