<?xml version="1.0" encoding="UTF-8" standalone="no"?>
<!DOCTYPE svg PUBLIC "-//W3C//DTD SVG 1.1//EN" "http://www.w3.org/Graphics/SVG/1.1/DTD/svg11.dtd">
<svg width="100%" height="100%" viewBox="0 0 100 200" version="1.1" xmlns="http://www.w3.org/2000/svg" xmlns:xlink="http://www.w3.org/1999/xlink" xml:space="preserve" xmlns:serif="http://www.serif.com/" style="fill-rule:evenodd;clip-rule:evenodd;stroke-linejoin:round;stroke-miterlimit:1.41421;">
    <g id="Bone-Selections" serif:id="Bone Selections">
        <path id="Cervical-vertebrae" serif:id="Cervical vertebrae" d="M50.566,34.541L48.813,34.541L47.789,34.459C47.56,34.307 47.566,34.128 47.789,33.927C48.197,33.613 48.518,33.225 48.772,32.78L47.748,32.411C47.567,32.28 47.575,32.129 47.748,31.961C48.371,31.491 48.725,31.012 48.895,30.527L47.912,30.486C47.682,30.401 47.644,30.255 47.83,30.036C48.341,29.814 48.644,29.429 48.854,28.971C49.395,28.622 49.952,28.608 50.525,28.971C50.734,29.429 51.038,29.814 51.549,30.036C51.723,30.233 51.691,30.382 51.467,30.486L50.484,30.527C50.653,31.012 51.007,31.491 51.631,31.961C51.81,32.13 51.794,32.279 51.631,32.411L50.607,32.78C50.86,33.225 51.181,33.613 51.59,33.927C51.782,34.11 51.801,34.288 51.59,34.459L50.566,34.541Z" style="fill:rgb(78,166,153);fill-opacity:0.54;"/>
    </g>
</svg>
