<?xml version="1.0" encoding="UTF-8" standalone="no"?>
<!DOCTYPE svg PUBLIC "-//W3C//DTD SVG 1.1//EN" "http://www.w3.org/Graphics/SVG/1.1/DTD/svg11.dtd">
<svg width="100%" height="100%" viewBox="0 0 100 200" version="1.1" xmlns="http://www.w3.org/2000/svg" xmlns:xlink="http://www.w3.org/1999/xlink" xml:space="preserve" xmlns:serif="http://www.serif.com/" style="fill-rule:evenodd;clip-rule:evenodd;stroke-linejoin:round;stroke-miterlimit:1.41421;">
    <g id="Bone-Selections" serif:id="Bone Selections">
        <path id="Head" d="M49.823,0.829C55.31,0.836 59.762,5.144 59.762,10.449C59.762,11.029 59.709,11.598 59.607,12.15C59.355,14.623 58.551,17.785 57.074,18.645C57.032,18.655 56.833,22.332 56.833,22.332C56.357,25.42 53.25,28.073 49.796,28.073L49.775,28.073L49.775,28.053C46.349,28.018 43.28,25.38 42.807,22.313C42.807,22.313 42.608,18.635 42.566,18.626C41.239,18.442 40.322,14.851 40.033,12.13C39.931,11.578 39.878,11.009 39.878,10.429C39.878,5.122 44.334,0.813 49.823,0.809L49.823,0.829ZM53.91,22.091C53.912,22.044 53.913,21.997 53.913,21.949C54.898,21.393 55.337,20.282 55.609,19.04C54.613,19.378 53.949,19.807 53.878,20.399L54.035,20.84L53.901,21.199L53.968,21.694L53.615,21.963L53.364,21.784L53.112,22.053L52.827,21.918L52.609,22.21L52.24,22.323L51.921,22.098L51.485,22.66L51.199,22.615L51.099,22.323L50.847,22.368L50.696,22.75L50.193,22.727L50.008,22.233L49.706,22.233L49.371,22.66L48.951,22.682L48.733,22.278L48.532,22.188L48.515,22.458L47.961,22.525L47.878,22.053L47.626,22.48L47.257,22.413L47.022,21.986L46.686,22.435L46.284,22.21L46.149,21.806L45.965,22.076L45.727,21.958C45.727,22.027 45.731,22.094 45.738,22.159L45.927,22.353L46.179,22.255L46.28,22.667L46.397,22.471L46.682,22.549L46.766,22.981L46.884,22.726L47.186,22.726L47.505,23.138L47.521,22.745L47.874,22.745L48.327,23.255L48.427,22.706L48.763,22.726L49.132,23.412L49.199,22.961L49.719,23L49.887,23.432L50.088,23.02L50.34,22.961L50.743,23.177L50.826,22.902L51.296,22.765L51.548,23.118L51.766,22.745L52.101,22.647L52.32,22.863L52.487,22.471L52.773,22.392L52.907,22.667L53.024,22.392L53.158,22.255L53.343,22.471L53.326,22.274L53.595,22.117L53.796,22.274L53.846,22.117L53.91,22.091ZM45.766,20.43L45.766,20.42C45.721,19.806 45.049,19.366 44.031,19.021C44.282,20.171 44.678,21.209 45.518,21.797L45.579,21.267L45.512,20.548L45.766,20.43ZM49.816,15.574C49.771,15.398 49.672,15.333 49.496,15.455C49.202,15.659 48.185,17.748 48.185,18.076C48.185,18.404 48.479,18.67 48.84,18.67C49.202,18.67 49.408,18.393 49.496,18.076C49.569,17.811 49.744,17.051 49.816,16.407L49.816,16.362L49.819,16.385L49.823,16.342L49.823,16.427C49.896,17.071 50.071,17.831 50.144,18.096C50.232,18.413 50.438,18.69 50.799,18.69C51.161,18.69 51.455,18.424 51.455,18.096C51.455,17.768 50.438,15.679 50.144,15.475C49.968,15.353 49.869,15.418 49.823,15.594L49.823,15.603L49.822,15.598C49.82,15.606 49.818,15.614 49.816,15.623L49.816,15.574ZM53.032,11.009C54.332,11.009 55.505,11.732 55.919,12.969C56.193,13.785 56.098,14.887 55.474,15.364C54.948,15.765 53.989,15.62 53.155,15.523C51.864,15.372 51.209,13.913 51.209,12.613C51.209,11.312 51.732,11.009 53.032,11.009ZM46.608,10.989C45.308,10.989 44.135,11.712 43.72,12.949C43.447,13.766 43.542,14.867 44.166,15.344C44.691,15.745 45.651,15.6 46.485,15.503C47.776,15.353 48.431,13.893 48.431,12.593C48.431,11.293 47.908,10.989 46.608,10.989Z" style="fill:rgb(78,166,153);fill-opacity:0.54;"/>
    </g>
</svg>
