<?xml version="1.0" encoding="UTF-8" standalone="no"?>
<!DOCTYPE svg PUBLIC "-//W3C//DTD SVG 1.1//EN" "http://www.w3.org/Graphics/SVG/1.1/DTD/svg11.dtd">
<svg width="100%" height="100%" viewBox="0 0 100 200" version="1.1" xmlns="http://www.w3.org/2000/svg" xmlns:xlink="http://www.w3.org/1999/xlink" xml:space="preserve" xmlns:serif="http://www.serif.com/" style="fill-rule:evenodd;clip-rule:evenodd;stroke-linejoin:round;stroke-miterlimit:1.41421;">
    <g transform="matrix(-1,0,0,1,99.366,0)">
        <g id="Bone-Selections" serif:id="Bone Selections">
            <path id="left-humerus" serif:id="left humerus" d="M31.159,37.572C33.605,36.951 32.976,44.352 32.344,43.839L30.952,43.02L30.747,42.324L30.337,42.528L28.986,69.316L29.805,71.979C30.135,72.375 30.383,72.84 30.501,73.412C30.502,73.953 30.324,74.333 29.928,74.518C27.973,75.32 26.508,75.076 25.67,73.494C25.352,73.443 25.174,73.207 25.097,72.839L25.384,71.979C25.193,71.726 25.191,71.482 25.261,71.241C25.305,70.879 25.531,70.523 25.957,70.176L26.94,66.162L28.087,43.266L27.759,41.136C27.752,40.458 27.95,40.014 28.374,39.825L29.029,39.825C29.362,39.499 29.734,39.458 30.135,39.62L30.053,39.006L30.504,38.514C30.44,38.116 30.674,37.807 31.159,37.572Z" style="fill:rgb(78,166,153);fill-opacity:0.54;"/>
        </g>
    </g>
</svg>
