<?xml version="1.0" encoding="UTF-8" standalone="no"?>
<!DOCTYPE svg PUBLIC "-//W3C//DTD SVG 1.1//EN" "http://www.w3.org/Graphics/SVG/1.1/DTD/svg11.dtd">
<svg width="100%" height="100%" viewBox="0 0 100 200" version="1.1" xmlns="http://www.w3.org/2000/svg" xmlns:xlink="http://www.w3.org/1999/xlink" xml:space="preserve" xmlns:serif="http://www.serif.com/" style="fill-rule:evenodd;clip-rule:evenodd;stroke-linejoin:round;stroke-miterlimit:1.41421;">
    <g transform="matrix(-1,0,0,1,99.3685,0)">
        <g id="Bone-Selections" serif:id="Bone Selections">
            <path id="Left-Tibia-and-Fibula" serif:id="Left Tibia and Fibula" d="M36.973,141.447C37.56,140.327 44.728,140.405 44.96,141.733L45.738,142.389C46.076,143.026 46.077,143.669 45.902,144.314L44.919,145.256L43.035,149.024L44.1,178.106L45.534,183.717C45.683,184.219 45.661,184.753 45.493,185.315C45.247,185.635 44.989,185.804 44.714,185.765C42.845,186.264 41.25,186.02 39.963,184.946C39.733,184.567 39.594,184.145 39.553,183.677C39.344,182.571 39.4,181.505 39.758,180.482L36.44,147.345C36.154,146.786 36.078,146.268 36.195,145.789C36.336,145.134 36.587,144.709 36.973,144.56L36.277,143.454L36.277,142.143C36.535,141.708 36.765,141.497 36.973,141.447ZM38.86,147.57C38.418,147.715 38.196,148.227 38.348,149.362C38.714,159.439 39.615,168.778 40.716,177.842C40.32,168.504 39.87,159.115 39.308,149.618C38.98,148.96 38.81,148.28 38.86,147.57Z" style="fill:rgb(78,166,153);fill-opacity:0.54;"/>
        </g>
    </g>
</svg>
