<?xml version="1.0" encoding="UTF-8" standalone="no"?>
<!DOCTYPE svg PUBLIC "-//W3C//DTD SVG 1.1//EN" "http://www.w3.org/Graphics/SVG/1.1/DTD/svg11.dtd">
<svg width="100%" height="100%" viewBox="0 0 100 200" version="1.1" xmlns="http://www.w3.org/2000/svg" xmlns:xlink="http://www.w3.org/1999/xlink" xml:space="preserve" xmlns:serif="http://www.serif.com/" style="fill-rule:evenodd;clip-rule:evenodd;stroke-linejoin:round;stroke-miterlimit:1.41421;">
    <g transform="matrix(-1,0,0,1,99.366,0)">
        <g id="Bone-Selections" serif:id="Bone Selections">
            <path id="Left-hand" serif:id="Left hand" d="M14.977,100.405C16.381,100.109 17.438,100.508 18.131,101.634C18.789,102.684 19.305,103.77 19.606,104.91C19.422,105.319 19.142,105.64 18.746,105.853L18.869,107.614C18.72,107.912 18.441,108.045 18.008,107.982L17.558,112.857L17.763,113.389L17.599,113.881L17.312,116.093L17.476,116.42C17.453,116.785 17.278,117.109 16.984,117.403C16.73,117.214 16.604,116.962 16.657,116.625L16.821,116.133L16.657,115.765L16.862,114.004L16.534,113.348L16.903,112.939L17.148,108.433L16.534,107.573L15.879,109.744L15.059,113.471L15.182,114.167L14.936,114.618L13.912,118.591C13.626,118.851 13.484,118.777 13.462,118.427L13.912,116.297L14.199,114.454L13.994,113.963L14.363,113.471L14.404,112.16L15.223,107.819L14.855,107.327L14.404,107.491L12.929,112.201L12.929,112.652L12.561,113.061L11.578,115.806L9.857,119.287C9.688,119.21 9.631,119.051 9.653,118.837L10.759,115.56L11.783,112.652L11.701,112.201L11.987,111.874L13.298,106.344L13.011,105.853L10.308,109.662L10.267,110.686L9.694,111.013L8.588,113.922L7.236,117.239C6.989,117.467 6.902,117.312 6.867,117.035L7.072,115.478L7.973,113.471L8.178,112.406L9.12,110.563L9.079,110.235L10.185,108.064L11.619,105.033L11.742,104.296L9.448,104.992L7.646,106.467L5.352,107.409C5.034,107.388 4.971,107.209 5.024,106.958L5.802,106.59L6.99,105.73L8.874,104.173L10.103,103.19L13.134,102.207C13.503,101.521 13.952,101.054 14.486,100.814L14.977,100.405Z" style="fill:rgb(78,166,153);fill-opacity:0.54;"/>
        </g>
    </g>
</svg>
