<?xml version="1.0" encoding="UTF-8" standalone="no"?>
<!DOCTYPE svg PUBLIC "-//W3C//DTD SVG 1.1//EN" "http://www.w3.org/Graphics/SVG/1.1/DTD/svg11.dtd">
<svg width="100%" height="100%" viewBox="0 0 100 200" version="1.1" xmlns="http://www.w3.org/2000/svg" xmlns:xlink="http://www.w3.org/1999/xlink" xml:space="preserve" xmlns:serif="http://www.serif.com/" style="fill-rule:evenodd;clip-rule:evenodd;stroke-linejoin:round;stroke-miterlimit:1.41421;">
    <g id="Bone-Selections" serif:id="Bone Selections">
        <path id="Lower-spine" serif:id="Lower spine" d="M48.565,67.026C48.361,66.955 51.02,66.968 50.814,67.041L50.814,68.169L51.592,68.046C51.879,68.142 51.948,68.382 51.838,68.743C51.668,69.064 51.269,69.298 50.732,69.48L50.855,71.528L52.043,71.323C52.324,71.449 52.398,71.724 52.329,72.101C51.904,72.591 51.408,72.822 50.855,72.839L51.019,75.542L52.411,75.296C52.712,75.597 52.795,75.854 52.698,76.075C52.23,76.676 51.704,76.95 51.142,77.017L50.896,78.082L51.264,79.925L52.288,79.679C52.72,79.637 52.891,79.83 52.944,80.13C52.512,80.774 52.046,81.054 51.551,81.031L51.264,83.161L52.657,82.915C52.949,82.927 53.059,83.153 52.903,83.693C52.453,84.048 51.945,84.311 51.346,84.43L51.387,85.7L52.493,85.618C52.698,85.774 52.729,86.011 52.616,86.315C52.413,86.654 52.028,86.892 51.428,87.011C50.316,87.642 49.156,87.637 47.95,87.011C47.351,86.892 46.966,86.654 46.762,86.315C46.65,86.011 46.681,85.774 46.885,85.618L47.991,85.7L48.032,84.43C47.433,84.311 46.925,84.048 46.476,83.693C46.32,83.153 46.43,82.927 46.721,82.915L48.114,83.161L47.827,81.031C47.333,81.054 46.866,80.774 46.435,80.13C46.487,79.83 46.659,79.637 47.09,79.679L48.114,79.925L48.483,78.082L48.237,77.017C47.674,76.95 47.149,76.676 46.68,76.075C46.584,75.854 46.667,75.597 46.967,75.296L48.36,75.542L48.524,72.839C47.97,72.822 47.475,72.591 47.049,72.101C46.981,71.724 47.054,71.449 47.336,71.323L48.524,71.528L48.647,69.48C48.11,69.298 47.711,69.064 47.541,68.743C47.43,68.382 47.5,68.142 47.786,68.046L48.565,68.169L48.565,67.026Z" style="fill:rgb(78,166,153);fill-opacity:0.54;"/>
    </g>
</svg>
