<?xml version="1.0" encoding="UTF-8" standalone="no"?>
<!DOCTYPE svg PUBLIC "-//W3C//DTD SVG 1.1//EN" "http://www.w3.org/Graphics/SVG/1.1/DTD/svg11.dtd">
<svg width="100%" height="100%" viewBox="0 0 100 200" version="1.1" xmlns="http://www.w3.org/2000/svg" xmlns:xlink="http://www.w3.org/1999/xlink" xml:space="preserve" xmlns:serif="http://www.serif.com/" style="fill-rule:evenodd;clip-rule:evenodd;stroke-linejoin:round;stroke-miterlimit:1.41421;">
    <g id="Skeleton-unique-selections" serif:id="Skeleton unique selections">
        <path id="Pelvis" d="M47.664,89.359C49.091,90.029 50.439,90.008 51.715,89.359L53.271,87.502L54.664,86.028C57.312,82.711 60.696,82.759 64.74,85.823C67.049,88.173 65.286,92.354 62.201,94.507L62.324,96.514L61.996,97.005L60.071,100.241L59.866,100.896L58.105,102.125L58.351,103.477C57.965,104.461 57.322,105.302 56.303,105.934C55.186,106.745 54.081,106.896 52.985,106.467L49.689,103.967L46.394,106.467C45.298,106.896 44.192,106.745 43.076,105.934C42.057,105.302 41.414,104.461 41.028,103.477L41.274,102.125L39.512,100.896L39.308,100.241L37.383,97.005L37.055,96.514L37.178,94.507C34.093,92.354 32.329,88.173 34.638,85.823C38.683,82.759 42.067,82.711 44.714,86.028L46.107,87.502L47.664,89.359ZM52.564,103.701C53.613,102.81 54.554,102.378 55.421,102.26C55.666,102.27 55.764,102.362 55.788,102.496C55.902,103.814 55.578,104.537 54.687,104.488C53.903,104.409 53.201,104.132 52.564,103.701ZM46.814,103.701C45.766,102.81 44.825,102.378 43.957,102.26C43.713,102.27 43.615,102.362 43.59,102.496C43.477,103.814 43.801,104.537 44.691,104.488C45.476,104.409 46.177,104.132 46.814,103.701ZM49.426,100.957C49.514,100.992 49.601,101.025 49.689,101.058C49.777,101.025 49.865,100.991 49.953,100.957L49.949,98.701C49.863,98.652 49.766,98.596 49.689,98.543C49.612,98.596 49.516,98.658 49.43,98.707L49.426,100.957ZM49.953,100.957C51.405,100.385 52.821,99.61 54.137,98.249C54.294,97.637 54.347,97.026 54.294,96.414L55.238,96.073C55.884,95.241 56.204,94.285 56.155,93.19C55.516,91.283 53.79,91.176 52.905,92.849L52.774,94.526C52.667,95.203 52.163,95.438 50.65,96.755C50.672,97.408 50.426,97.932 49.948,98.345L49.953,100.957ZM49.43,98.345C48.952,97.932 48.707,97.408 48.728,96.755C47.216,95.438 46.712,95.203 46.605,94.526L46.474,92.849C45.589,91.176 43.863,91.283 43.223,93.19C43.174,94.285 43.495,95.241 44.141,96.073L45.084,96.414C45.032,97.026 45.084,97.637 45.242,98.249C46.557,99.61 47.974,100.385 49.426,100.957L49.43,98.345Z" style="fill:rgb(79,165,153);fill-opacity:0.545098;"/>
    </g>
</svg>
