<?xml version="1.0" encoding="UTF-8" standalone="no"?>
<!DOCTYPE svg PUBLIC "-//W3C//DTD SVG 1.1//EN" "http://www.w3.org/Graphics/SVG/1.1/DTD/svg11.dtd">
<svg width="100%" height="100%" viewBox="0 0 100 200" version="1.1" xmlns="http://www.w3.org/2000/svg" xmlns:xlink="http://www.w3.org/1999/xlink" xml:space="preserve" xmlns:serif="http://www.serif.com/" style="fill-rule:evenodd;clip-rule:evenodd;stroke-linejoin:round;stroke-miterlimit:1.41421;">
    <g id="Skeleton-unique-selections" serif:id="Skeleton unique selections">
        <path id="Chest---Ribcage" serif:id="Chest / Ribcage" d="M48.772,35.238L50.607,35.238C50.944,35.025 51.494,34.806 52.163,34.582L53.187,34.582C55.297,35.304 56.679,36.169 57.611,37.122C61.645,37.057 65.881,48.359 64.74,50.598L64.863,51.867C64.816,52.669 64.609,53.28 64.249,53.71L64.945,54.775C64.995,55.683 64.882,56.404 64.576,56.905L64.863,58.421C64.819,59.168 64.613,59.77 64.29,60.264C64.591,60.44 64.817,60.705 64.945,61.083C65.069,61.611 65.044,62.17 64.863,62.763C64.783,63.316 64.604,63.829 64.167,64.237L64.576,64.647L65.109,65.835C65.097,66.731 64.778,67.571 64.249,68.374L63.78,68.971L63.798,69.767C63.654,70.762 63.152,71.357 62.528,71.815C62.068,72.138 61.523,72.332 60.726,72.142C60.045,71.824 59.544,71.412 59.211,70.914L50.814,56.619L48.565,56.619L40.168,70.914C39.834,71.412 39.334,71.824 38.652,72.142C37.855,72.332 37.31,72.138 36.85,71.815C36.227,71.357 35.725,70.762 35.58,69.767L35.598,68.971L35.13,68.374C34.601,67.571 34.282,66.731 34.27,65.835L34.802,64.647L35.212,64.237C34.774,63.829 34.595,63.316 34.515,62.763C34.335,62.17 34.31,61.611 34.433,61.083C34.562,60.705 34.788,60.44 35.089,60.264C34.765,59.77 34.56,59.168 34.515,58.421L34.802,56.905C34.496,56.404 34.383,55.683 34.433,54.775L35.13,53.71C34.77,53.28 34.562,52.669 34.515,51.867L34.638,50.598C33.498,48.359 37.733,37.057 41.768,37.122C42.699,36.168 44.081,35.304 46.191,34.582L47.215,34.582C47.884,34.805 48.435,35.025 48.772,35.238ZM60.09,69.354L60.09,70.219C60.676,70.868 61.37,71.121 62.318,70.428C62.69,70.144 62.858,69.827 62.868,69.485C61.825,69.638 60.921,69.558 60.09,69.354ZM39.289,69.354L39.289,70.219C38.702,70.868 38.009,71.121 37.061,70.428C36.689,70.144 36.521,69.827 36.51,69.485C37.553,69.638 38.458,69.558 39.289,69.354ZM59.408,67.073L59.591,68.043C60.502,68.943 61.662,69.013 63.314,67.44C63.807,66.158 63.939,65.239 63.314,65.081C61.508,65.916 60.329,66.714 59.408,67.073ZM39.971,67.073L39.787,68.043C38.876,68.943 37.717,69.013 36.065,67.44C35.571,66.158 35.439,65.239 36.065,65.081C37.87,65.916 39.049,66.714 39.971,67.073ZM58.543,65.185L58.019,63.953C57.962,63.123 60.486,62.244 63.366,61.358C63.684,61.596 63.843,61.825 63.733,62.04C63.838,62.792 63.57,63.443 62.973,64.006C61.497,64.936 60.02,65.269 58.543,65.185ZM40.836,65.185L41.36,63.953C41.417,63.123 38.892,62.244 36.012,61.358C35.695,61.596 35.536,61.825 35.645,62.04C35.54,62.792 35.809,63.443 36.405,64.006C37.881,64.936 39.358,65.269 40.836,65.185ZM55.476,59.34C59.361,59.354 61.63,58.989 62.868,58.186C63.212,58.426 63.352,58.67 63.209,58.92C61.774,61.804 58.29,62.523 55.79,60.126L55.476,59.34ZM43.903,59.34C40.018,59.354 37.749,58.989 36.51,58.186C36.166,58.426 36.026,58.67 36.17,58.92C37.604,61.804 41.089,62.523 43.588,60.126L43.903,59.34ZM51.806,54.175L51.701,54.726C52.623,55.825 53.929,56.768 55.554,57.583C59.411,58.097 62.028,57.485 63.497,55.984C63.745,55.274 63.333,54.706 62.973,54.411C59.74,56.069 56.012,55.996 51.806,54.175ZM47.573,54.175L47.678,54.726C46.756,55.825 45.449,56.768 43.824,57.583C39.967,58.097 37.35,57.485 35.881,55.984C35.634,55.274 36.046,54.706 36.405,54.411C39.639,56.069 43.367,55.996 47.573,54.175ZM47.101,51.738C41.983,53.319 39.026,52.105 36.563,49.981C36.185,50.203 35.723,50.813 35.671,51.371C36.965,55.549 43.14,55.115 47.18,52.917L47.101,51.738ZM52.278,51.738C57.395,53.319 60.353,52.105 62.816,49.981C63.194,50.203 63.656,50.813 63.707,51.371C62.414,55.549 56.239,55.115 52.199,52.917L52.278,51.738ZM47.127,49.116C42.223,49.322 38.725,48.45 37.035,46.521C36.849,46.94 36.681,47.497 36.772,47.936C39.163,51.817 43.092,52.29 47.048,50.715L47.127,49.116ZM52.251,49.116C57.156,49.322 60.653,48.45 62.344,46.521C62.529,46.94 62.698,47.497 62.606,47.936C60.216,51.817 56.287,52.29 52.33,50.715L52.251,49.116ZM38.791,42.694C41.412,45.478 44.379,46.065 47.494,45.708L47.363,47.569C43.352,48.349 40.004,47.939 37.638,44.948C37.538,43.98 37.961,43.131 38.791,42.694ZM60.588,42.694C57.966,45.478 55,46.065 51.884,45.708L52.015,47.569C56.027,48.349 59.375,47.939 61.741,44.948C61.84,43.98 61.418,43.131 60.588,42.694ZM47.363,41.802L47.861,42.903L47.809,44.214C44.338,44.779 41.585,43.672 39.473,41.068C39.35,40.084 39.755,39.713 40.495,39.731C42.321,41.957 44.578,42.756 47.363,41.802ZM52.015,41.802L51.517,42.903L51.57,44.214C55.04,44.779 57.794,43.672 59.906,41.068C60.028,40.084 59.624,39.713 58.884,39.731C57.057,41.957 54.801,42.756 52.015,41.802ZM42.007,38.676C43.399,38.601 45.227,38.981 47.332,39.649L47.127,40.571C45.869,41.355 41.795,40.588 42.007,38.676ZM57.372,38.676C55.98,38.601 54.152,38.981 52.047,39.649L52.252,40.571C53.51,41.355 57.583,40.588 57.372,38.676ZM48.974,37.703C49.01,37.196 48.579,36.702 48.048,36.219C47.201,35.771 46.637,35.671 46.308,35.86C45.011,36.252 44.143,36.791 43.769,37.245C45.099,37.325 46.344,37.396 47.178,37.652L48.974,37.703ZM50.405,37.703C50.369,37.196 50.8,36.702 51.33,36.219C52.178,35.771 52.742,35.671 53.071,35.86C54.368,36.252 55.236,36.791 55.61,37.245C54.279,37.325 53.034,37.396 52.201,37.652L50.405,37.703Z" style="fill:rgb(79,165,153);fill-opacity:0.537255;"/>
    </g>
</svg>
