<?xml version="1.0" encoding="UTF-8" standalone="no"?>
<!DOCTYPE svg PUBLIC "-//W3C//DTD SVG 1.1//EN" "http://www.w3.org/Graphics/SVG/1.1/DTD/svg11.dtd">
<svg width="100%" height="100%" viewBox="0 0 100 200" version="1.1" xmlns="http://www.w3.org/2000/svg" xmlns:xlink="http://www.w3.org/1999/xlink" xml:space="preserve" xmlns:serif="http://www.serif.com/" style="fill-rule:evenodd;clip-rule:evenodd;stroke-linejoin:round;stroke-miterlimit:1.41421;">
    <g id="Bone-Selections" serif:id="Bone Selections">
        <path id="Upper-spine" serif:id="Upper spine" d="M48.65,36.46C48.681,35.661 50.697,35.661 50.729,36.46L51.64,36.281C51.927,36.376 51.996,36.617 51.886,36.977C51.716,37.298 51.356,37.571 50.819,37.753L50.855,39.818L51.744,39.614C52.026,39.74 52.099,40.015 52.031,40.392C51.605,40.882 51.408,41.113 50.855,41.129L50.83,43.555C50.83,43.658 50.831,43.762 50.831,43.866L51.58,43.587C51.88,43.888 51.964,44.145 51.867,44.365C51.411,44.95 51.357,45.275 50.836,45.354C50.838,46.209 50.839,47.07 50.839,47.913L51.939,47.739C52.225,47.834 52.295,48.074 52.184,48.435C52.016,48.752 51.371,49.022 50.838,49.204C50.838,49.548 50.837,49.886 50.837,50.218L50.855,51.276L52.043,51.071C52.324,51.197 52.398,51.472 52.329,51.85C51.904,52.339 51.408,52.57 50.855,52.587L50.827,55.325L51.878,55.044C52.179,55.345 52.262,55.602 52.165,55.823C51.703,56.416 51.364,56.742 50.814,56.814L50.814,59.531L51.756,59.427C52.187,59.385 52.358,59.578 52.411,59.878C51.979,60.522 51.33,60.749 50.835,60.726L50.828,62.874L52.124,62.663C52.416,62.675 52.526,62.901 52.37,63.441C51.92,63.796 51.439,64.059 50.84,64.178L50.881,65.448L51.96,65.366C52.165,65.522 52.196,65.759 52.083,66.063C51.88,66.402 51.02,66.968 50.814,67.041L48.565,67.026C48.361,66.955 47.441,66.464 47.238,66.125C47.125,65.821 47.156,65.585 47.361,65.428L48.551,65.49L48.565,65.062L48.565,64.214C47.975,64.093 47.394,63.853 46.951,63.503C46.796,62.963 46.905,62.737 47.197,62.725L48.565,62.904L48.565,61.527L48.543,60.761C48.049,60.784 47.342,60.584 46.91,59.94C46.963,59.64 47.134,59.448 47.566,59.489L48.565,59.801L48.551,56.869C47.989,56.802 47.624,56.486 47.156,55.885C47.059,55.664 47.142,55.407 47.443,55.107L48.552,55.203L48.524,52.587C47.97,52.57 47.475,52.339 47.049,51.85C46.981,51.472 47.054,51.197 47.336,51.071L48.524,51.276L48.542,50.219C48.541,49.887 48.541,49.548 48.541,49.204C48.006,49.021 47.329,48.707 47.161,48.39C47.05,48.03 47.12,47.789 47.406,47.694L48.54,47.913C48.54,47.036 48.541,46.142 48.543,45.254C47.989,45.186 48.048,45.025 47.582,44.427C47.485,44.207 47.569,43.95 47.869,43.649L48.548,43.745L48.548,43.599L48.549,43.477L48.524,41.129C47.97,41.113 47.901,40.882 47.475,40.392C47.407,40.015 47.481,39.74 47.762,39.614L48.524,39.818L48.559,37.753C48.022,37.571 47.757,37.253 47.587,36.933C47.477,36.572 47.546,36.332 47.833,36.236L48.65,36.46Z" style="fill:rgb(78,166,153);fill-opacity:0.54;"/>
    </g>
</svg>
