<?xml version="1.0" encoding="UTF-8" standalone="no"?>
<!DOCTYPE svg PUBLIC "-//W3C//DTD SVG 1.1//EN" "http://www.w3.org/Graphics/SVG/1.1/DTD/svg11.dtd">
<svg width="100%" height="100%" viewBox="0 0 945 1182" version="1.1" xmlns="http://www.w3.org/2000/svg" xmlns:xlink="http://www.w3.org/1999/xlink" xml:space="preserve" xmlns:serif="http://www.serif.com/" style="fill-rule:evenodd;clip-rule:evenodd;stroke-linejoin:round;stroke-miterlimit:2;">
    <g transform="matrix(-1,2.08167e-17,2.08167e-17,1,959.806,0)">
        <g id="Group-markings" serif:id="Group markings">
            <path id="Fingerstråle-2" serif:id="Fingerstråle 2" d="M481.775,625.752C479.993,623.883 478.409,621.775 477.033,619.412C470.294,550.546 466.993,484.016 464.078,417.748C444.656,385.997 425.318,354.152 411.654,315.942C420.933,309.487 430.366,308.555 439.963,313.412C447.705,318.761 458.836,318.359 477.423,305.305C489.524,312.178 498.477,321.795 502.341,335.852L493.737,384.01L524.489,528.155C536.475,543.009 544.656,564.11 551.108,588.05C554.343,598.832 554.924,607.94 553.059,615.507C560.101,619.205 563.13,625.678 564.141,633.546L555.968,663.416L558.986,731.296C565.697,739.263 567.831,752.531 566.947,769.296L579.773,801.656C583.865,812.168 583.848,820.486 579.585,826.536C586.593,829.3 591.896,835.003 595.395,843.817L588.517,866.347L588.294,917.48L601.972,943.011C606.707,948.297 605.064,959.886 600.214,968.321C598.756,968.559 597.167,968.644 595.457,968.651C600.113,969.84 604.863,971.572 609.686,973.774C616.1,975.476 616.993,981.309 615.903,988.624C611.253,990.992 607.378,994.181 604.637,998.572C604.877,1006.21 604.601,1015.41 603.245,1027.9L612.901,1027.03C618.666,1032.74 617.854,1043.88 614.801,1056.87C607.056,1070.77 597.471,1075.87 586.271,1073.26C579.194,1068.79 572.816,1063.38 567.692,1056.29C563.812,1049.43 561.543,1041.92 564.694,1032.22L575.228,1032.07C570.135,1014.88 563.141,1000.7 552.188,992.789C547.13,987.807 546.686,982.252 555.337,975.564C548.13,970.959 545.153,962.898 552.959,957.199C544.785,944.331 546.402,922.497 546.16,900.213C540.26,884.902 533.874,869.407 522.682,856.102C522.682,856.102 517.794,841.755 528.316,837.741C529.214,837.25 530.104,836.772 530.987,836.307C528.448,837.041 525.823,837.827 523.098,838.645C512.639,830.188 509.771,818.243 519.177,800.658C511.651,760.527 503.992,720.377 496.124,680.195C493.751,672.396 485.302,665.561 473.569,658.309C472.727,648.714 477.097,634.136 481.775,625.752Z" style="fill:rgb(78,166,153);fill-opacity:0.54;"/>
        </g>
    </g>
</svg>
