<?xml version="1.0" encoding="UTF-8" standalone="no"?>
<!DOCTYPE svg PUBLIC "-//W3C//DTD SVG 1.1//EN" "http://www.w3.org/Graphics/SVG/1.1/DTD/svg11.dtd">
<svg width="100%" height="100%" viewBox="0 0 945 1182" version="1.1" xmlns="http://www.w3.org/2000/svg" xmlns:xlink="http://www.w3.org/1999/xlink" xml:space="preserve" xmlns:serif="http://www.serif.com/" style="fill-rule:evenodd;clip-rule:evenodd;stroke-linejoin:round;stroke-miterlimit:2;">
    <g transform="matrix(-1,-2.08167e-17,-2.08167e-17,1,959.806,6.82121e-13)">
        <g id="Group-markings" serif:id="Group markings">
            <path id="Fingerstråle-3" serif:id="Fingerstråle 3" d="M381.496,645.953L368.713,617.812L355.208,598.49L367.291,568.687L370.298,496.087L367.658,400.719L353.479,371.793C346.349,363.749 344.889,348.189 350.11,323.77C366.95,308.442 388.165,307.539 412.373,316.507L424.132,339.811C425.982,362.334 426.618,384.464 416.422,403.089C413.637,452.851 415.942,499.234 426.057,540.435C438.043,562.726 451.169,585.168 452.939,606.112C454.995,617.284 453.303,628.469 442.132,639.686C440.322,640.866 438.513,641.977 436.705,643.014C449.276,646.433 452.133,657.118 454.649,668.057C449.391,685.749 443.888,706.006 436.645,728.134C431.305,765.761 432.155,800.364 435.024,833.979C440.471,835.075 443.383,839.368 443.513,847.173C445.096,866.829 442.685,879.088 435.941,883.317C426.91,885.544 418.736,886.852 411.1,887.582C420.437,887.295 429.782,885.606 439.134,882.74C444.533,885.062 450.273,894.878 449.732,909.695C445.591,920.425 440.748,926.81 435.442,930.329C435.722,961.143 437.365,974.932 431.126,1001.34C436.727,1017.75 439.363,1032.82 430.03,1042.54C426.087,1041.41 422.134,1040.59 418.169,1040.1C422.3,1041.06 426.558,1042.53 430.94,1044.52C436.939,1047.95 439.94,1053.82 436.355,1065.02C424.416,1074.71 420.13,1089.67 418.053,1106.15L426.122,1106.57C437.903,1116.93 431.877,1130.92 420.856,1145.94C406.061,1160.42 393.671,1153.87 382.498,1136.68C375.422,1127.38 376.384,1115.69 381.825,1102.66C385.366,1097.47 389.421,1099.35 393.804,1105.71L393.106,1087.87C386.124,1079.59 380.564,1071.65 378.133,1064.45C375.98,1059.97 375.605,1055.13 380.537,1049.2C384.225,1045.98 388.1,1043.52 392.157,1041.81C391.582,1041.96 391.007,1042.12 390.431,1042.29C380.929,1040.57 377.369,1031.74 378.153,1017.71C376.611,1010.89 380.125,1002.81 387.683,993.719C382.29,973.638 381.263,951.518 384.6,927.359C378.971,920.284 375.162,911.178 375.704,897.216C376.294,892.708 378.503,888.382 384.932,884.53L385.187,884.598C373.128,874.51 370.926,859.953 383.14,838.859C376.595,801.163 375.779,759.953 379.626,715.881C376.23,702.327 371.539,689.582 362.138,679.778C356.833,668.348 360.286,639.24 373.798,642.142C376.275,643.654 378.842,644.922 381.496,645.953Z" style="fill:rgb(78,166,153);fill-opacity:0.54;"/>
        </g>
    </g>
</svg>
