<?xml version="1.0" encoding="UTF-8" standalone="no"?>
<!DOCTYPE svg PUBLIC "-//W3C//DTD SVG 1.1//EN" "http://www.w3.org/Graphics/SVG/1.1/DTD/svg11.dtd">
<svg width="100%" height="100%" viewBox="0 0 945 1182" version="1.1" xmlns="http://www.w3.org/2000/svg" xmlns:xlink="http://www.w3.org/1999/xlink" xml:space="preserve" xmlns:serif="http://www.serif.com/" style="fill-rule:evenodd;clip-rule:evenodd;stroke-linejoin:round;stroke-miterlimit:2;">
    <g transform="matrix(-1,4.16334e-17,4.16334e-17,1,959.806,0)">
        <g id="Group-markings" serif:id="Group markings">
            <path id="Fingerstråle-1" serif:id="Fingerstråle 1" d="M659.657,430.43C646.845,427.912 636.186,421.257 626.396,412.932C623.373,405.891 624.618,400.944 630.894,398.465C609.839,374.443 581.882,356.91 550.851,342.268C533.176,343.357 517.164,331.643 502.854,306.824C522.967,299.03 529.951,284.049 528.51,264.456L548.346,265.971C558.671,261.544 564.503,264.529 567.635,271.968C569.552,285.95 577.702,295.131 589.005,301.883L634.018,331.957C644.008,330.368 649.94,334.815 653.098,343.39L690.031,368.836L698.959,384.065C699.266,383.354 699.565,382.634 699.856,381.905C706.142,381.619 713.118,382.938 724.565,394.648L736.046,420.543C761.3,446.017 787.336,468.997 816.216,482.919C819.421,485.653 821.362,489.05 821.651,493.31C822.841,492.718 824.081,492.145 825.374,491.59C826.307,487.931 835.46,497.919 851.51,498.982L851.182,514.976C858.967,518.077 866.434,524.585 873.656,533.723C874.201,525.734 877.698,522.377 884.149,523.652C900.552,526.03 912.46,535.562 921.917,548.997C925.989,552.02 922.352,561.709 915.69,574.014C889.66,585.799 872.083,583.78 860.294,572.308L859.386,560.86C855.486,556.273 842.788,554.728 826.373,554.47C821.198,562.068 815.107,565.514 807.371,561.509L796.157,550.994C795.505,544.567 795.176,538.256 795.599,532.215C782.894,535.158 772.699,534.394 768.603,524.626C759.943,514.36 752.362,502.322 746.166,488.009C713.486,463.851 689.758,454.893 669.163,451.254C663.242,445.472 658.463,439.21 659.657,430.43Z" style="fill:rgb(78,166,153);fill-opacity:0.54;"/>
        </g>
    </g>
</svg>
