<?xml version="1.0" encoding="UTF-8" standalone="no"?>
<!DOCTYPE svg PUBLIC "-//W3C//DTD SVG 1.1//EN" "http://www.w3.org/Graphics/SVG/1.1/DTD/svg11.dtd">
<svg width="100%" height="100%" viewBox="0 0 591 1182" version="1.1" xmlns="http://www.w3.org/2000/svg" xmlns:xlink="http://www.w3.org/1999/xlink" xml:space="preserve" xmlns:serif="http://www.serif.com/" style="fill-rule:evenodd;clip-rule:evenodd;stroke-linejoin:round;stroke-miterlimit:1.41421;">
    <g id="Selections" transform="matrix(1,0,0,-1,0,1180.48)">
        <path id="Talus" d="M156.59,831.055C206.221,837.124 256.236,836.051 304.734,835.361C314.622,835.22 317.223,840.277 319.201,847.016C313.144,881.606 330.569,905.77 350.384,915.209C356.245,918.001 364.383,943.394 364.925,960.961C354.844,1002.99 321.781,1062.95 303.458,1074.76C287.811,1084.85 278.686,1084.27 264.2,1076.26C245.961,1055.18 220.966,1054.64 198.153,1057.92C187.861,1059.39 174.621,1041.4 172.479,1033.1C164.661,1002.79 177.935,975.628 186.309,948.697C190.752,939.845 170.208,934.84 167.042,920.646C165.247,912.596 163.414,902.145 167.042,889.289C145.318,892.068 144.376,838.666 156.59,831.055" style="fill:rgb(78,166,153);fill-opacity:0.54;"/>
    </g>
</svg>
