<?xml version="1.0" encoding="UTF-8" standalone="no"?>
<!DOCTYPE svg PUBLIC "-//W3C//DTD SVG 1.1//EN" "http://www.w3.org/Graphics/SVG/1.1/DTD/svg11.dtd">
<svg width="100%" height="100%" viewBox="0 0 591 1182" version="1.1" xmlns="http://www.w3.org/2000/svg" xmlns:xlink="http://www.w3.org/1999/xlink" xml:space="preserve" xmlns:serif="http://www.serif.com/" style="fill-rule:evenodd;clip-rule:evenodd;stroke-linejoin:round;stroke-miterlimit:1.41421;">
    <g id="Selections" transform="matrix(1,0,0,-1,0,1180.48)">
        <path id="Calcaneus" d="M214.395,1058.75C205.273,1060.4 199.675,1068.65 190.518,1081.06C188.729,1088.57 186.888,1096.08 191.692,1103.77C198.892,1129.48 210.144,1148.77 230.835,1153.09C259.343,1157.95 295.805,1150.01 336.129,1135.86C368.118,1124.3 383.295,1079.1 393.668,1024.31C408.726,1009.4 419.368,997.32 419.111,992.209C423.981,982.197 423.554,974.042 419.503,967.158C415.8,963.204 408.738,960.957 405.411,953.067C405.862,930.548 407.068,912.065 405.02,893.961C404.518,883.349 398.598,875.551 388.188,870.084C379.926,868.049 366.45,859.178 348.654,844.641C343.896,840.404 336.144,837.986 326.343,836.813C322.521,838.336 319.887,841.397 318.906,846.598C317.458,857.753 317.884,870.409 321.646,885.741C327.515,899.165 336.779,909.662 351.003,915.881C362.785,934.031 368.578,954.506 359.223,980.858C340.504,1018.84 325.535,1056.89 304.814,1073.24C294.476,1082.61 280.915,1083.94 263.323,1075.19C249.285,1060.34 233.072,1054.46 214.395,1058.75" style="fill:rgb(78,166,153);fill-opacity:0.54;"/>
    </g>
</svg>
