<?xml version="1.0" encoding="UTF-8" standalone="no"?>
<!DOCTYPE svg PUBLIC "-//W3C//DTD SVG 1.1//EN" "http://www.w3.org/Graphics/SVG/1.1/DTD/svg11.dtd">
<svg width="100%" height="100%" viewBox="0 0 591 1182" version="1.1" xmlns="http://www.w3.org/2000/svg" xmlns:xlink="http://www.w3.org/1999/xlink" xml:space="preserve" xmlns:serif="http://www.serif.com/" style="fill-rule:evenodd;clip-rule:evenodd;stroke-linejoin:round;stroke-miterlimit:1.41421;">
    <g id="Selections" transform="matrix(1,0,0,-1,0,1180.48)">
        <path id="Cuboid" d="M390.271,870.731C399.715,868.123 409.59,868.13 410.234,862.902C412.827,841.841 413.567,826.279 421.585,814.365C425.621,785.523 424.027,754.735 422.759,725.903C431.372,723.869 440.323,715.333 444.679,705.94C446.986,698.938 447.222,690.292 441.939,687.934C425.301,680.507 409.506,674.758 399.274,665.623C388.408,673.982 373.702,676.541 362.48,676.583L358.174,684.02C356.819,720.83 353.191,752.993 337.82,770.917C361.1,780.982 329.504,832.403 315.508,833.545C319.562,833.898 330.61,835.35 349.562,845.288C361.678,857.634 375.135,866.413 390.271,870.731" style="fill:rgb(78,166,153);fill-opacity:0.54;"/>
    </g>
</svg>
