<?xml version="1.0" encoding="UTF-8" standalone="no"?>
<!DOCTYPE svg PUBLIC "-//W3C//DTD SVG 1.1//EN" "http://www.w3.org/Graphics/SVG/1.1/DTD/svg11.dtd">
<svg width="100%" height="100%" viewBox="0 0 591 1182" version="1.1" xmlns="http://www.w3.org/2000/svg" xmlns:xlink="http://www.w3.org/1999/xlink" xml:space="preserve" xmlns:serif="http://www.serif.com/" style="fill-rule:evenodd;clip-rule:evenodd;stroke-linejoin:round;stroke-miterlimit:1.41421;">
    <g id="Selections" transform="matrix(1,0,0,-1,0,1180.48)">
        <path id="Metatarsal-2" serif:id="Metatarsal 2" d="M286.039,656.735C277.982,659.011 272.312,660.131 271.36,662.117C261.192,654.915 244.436,651.546 223.899,650.374C220.474,644.666 216.071,637.979 210.689,630.314C209.656,613.372 221.768,595.34 235.153,576.982C244.044,510.107 245.395,442.751 242.003,375.886C234.783,352.131 230.512,325.507 234.664,302.004C249.132,266.191 301.676,268.778 309.035,286.836C311.821,294.239 302.926,331.607 291.91,374.418C281.344,468.996 281.927,656.748 286.039,656.735Z" style="fill:rgb(78,166,153);fill-opacity:0.54;"/>
    </g>
</svg>
