<?xml version="1.0" encoding="UTF-8" standalone="no"?>
<!DOCTYPE svg PUBLIC "-//W3C//DTD SVG 1.1//EN" "http://www.w3.org/Graphics/SVG/1.1/DTD/svg11.dtd">
<svg width="100%" height="100%" viewBox="0 0 591 1182" version="1.1" xmlns="http://www.w3.org/2000/svg" xmlns:xlink="http://www.w3.org/1999/xlink" xml:space="preserve" xmlns:serif="http://www.serif.com/" style="fill-rule:evenodd;clip-rule:evenodd;stroke-linejoin:round;stroke-miterlimit:1.41421;">
    <g id="Selections" transform="matrix(1,0,0,-1,0,1180.48)">
        <path id="Metatarsal-5" serif:id="Metatarsal 5" d="M438.416,685.586C453.547,686.046 472.045,674.429 472.079,667.58C472.261,631.475 471.974,599.436 479.516,565.418L484.213,462.864C486.87,433.809 501.591,403.976 499.479,384.187C496.944,360.437 447.634,353.764 445.853,384.187C444.312,410.519 448.406,494.895 440.765,555.632C437.173,576.433 430.523,598.541 412.974,625.306C414.43,644.186 409.567,657.077 398.882,664.449C409.2,674.743 426.094,682.691 438.416,685.586" style="fill:rgb(78,166,153);fill-opacity:0.54;"/>
    </g>
</svg>
