<?xml version="1.0" encoding="UTF-8" standalone="no"?>
<!DOCTYPE svg PUBLIC "-//W3C//DTD SVG 1.1//EN" "http://www.w3.org/Graphics/SVG/1.1/DTD/svg11.dtd">
<svg width="100%" height="100%" viewBox="0 0 591 1182" version="1.1" xmlns="http://www.w3.org/2000/svg" xmlns:xlink="http://www.w3.org/1999/xlink" xml:space="preserve" xmlns:serif="http://www.serif.com/" style="fill-rule:evenodd;clip-rule:evenodd;stroke-linejoin:round;stroke-miterlimit:1.41421;">
    <g id="Selections" transform="matrix(1,0,0,-1,0,1180.48)">
        <path id="Phalange-distal-1" serif:id="Phalange distal 1" d="M207.009,138.388C199.173,127.842 180.121,127.274 144.068,141.832C136.943,141.038 134.411,135.406 132.169,126.488C129.804,117.083 144.088,106.993 154.715,97.053C156.18,87.653 156.858,78.756 155.654,71.062C151.941,68.894 150.778,65.954 150.957,62.607C170.136,20.973 197.571,38.123 203.565,57.91C207.506,64.165 207.569,70.765 201.06,77.951C198.659,87.454 198.292,95.682 201.373,101.75C213.354,107.646 217.826,139.144 207.009,138.388" style="fill:rgb(78,166,153);fill-opacity:0.54;"/>
    </g>
</svg>
