<?xml version="1.0" encoding="UTF-8" standalone="no"?>
<!DOCTYPE svg PUBLIC "-//W3C//DTD SVG 1.1//EN" "http://www.w3.org/Graphics/SVG/1.1/DTD/svg11.dtd">
<svg width="100%" height="100%" viewBox="0 0 945 1182" version="1.1" xmlns="http://www.w3.org/2000/svg" xmlns:xlink="http://www.w3.org/1999/xlink" xml:space="preserve" xmlns:serif="http://www.serif.com/" style="fill-rule:evenodd;clip-rule:evenodd;stroke-linejoin:round;stroke-miterlimit:1.41421;">
    <g transform="matrix(-1,0,0,1,959.806,0)">
        <g transform="matrix(1.07519,-0.297875,-0.330331,-1.18361,121.101,1583.86)">
            <g id="Fingerstråle-5" serif:id="Fingerstråle 5">
                <path id="Middle-phalange---pinky" serif:id="Middle phalange - pinky" d="M849.213,415.115L838.709,402.187C827.814,401.861 819.374,399.408 816.086,392.491C806.476,395.261 804.635,399.46 807.198,404.611C805.429,434.408 801.159,459.955 787.806,470.058C781.651,478.618 783.281,484.887 793.462,488.641C805.135,502.019 820.68,500.816 838.709,490.257C845.248,481.748 844.837,475.92 840.325,471.674C833.879,464.167 831.573,452.696 836.285,434.506C842.05,430.197 847.069,424.784 849.213,415.115" style="fill:rgb(78,166,153);fill-opacity:0.54;"/>
            </g>
        </g>
        <g id="Fingerstråle-4" serif:id="Fingerstråle 4">
        </g>
        <g id="Fingerstråle-3" serif:id="Fingerstråle 3">
        </g>
        <g id="Fingerstråle-2" serif:id="Fingerstråle 2">
        </g>
        <g id="Fingerstråle-1" serif:id="Fingerstråle 1">
        </g>
    </g>
</svg>
