<?xml version="1.0" encoding="UTF-8" standalone="no"?>
<!DOCTYPE svg PUBLIC "-//W3C//DTD SVG 1.1//EN" "http://www.w3.org/Graphics/SVG/1.1/DTD/svg11.dtd">
<svg width="100%" height="100%" viewBox="0 0 945 1182" version="1.1" xmlns="http://www.w3.org/2000/svg" xmlns:xlink="http://www.w3.org/1999/xlink" xml:space="preserve" xmlns:serif="http://www.serif.com/" style="fill-rule:evenodd;clip-rule:evenodd;stroke-linejoin:round;stroke-miterlimit:1.41421;">
    <g transform="matrix(-1,0,0,1,959.806,0)">
        <g transform="matrix(0.998673,-0.051499,-0.051499,-0.998673,16.7304,1201.8)">
            <g id="Fingerstråle-3" serif:id="Fingerstråle 3">
                <path id="Digital-phalange---middle" serif:id="Digital phalange - middle" d="M565.611,70.106C562.343,75.471 558.196,73.81 553.491,67.682L555.107,85.458C562.507,93.366 568.468,101.012 571.267,108.082C573.648,112.44 574.271,117.255 569.651,123.433C556.15,136.51 539.304,138.441 519.556,130.705C513.388,127.581 510.089,121.877 513.092,110.506C524.517,100.212 528.027,85.054 529.252,68.49L521.172,68.49C508.874,58.75 514.17,44.462 524.404,28.899C538.434,13.675 551.144,19.579 563.187,36.171C570.733,45.094 570.375,56.82 565.611,70.106" style="fill:rgb(78,166,153);fill-opacity:0.54;"/>
            </g>
        </g>
        <g id="Fingerstråle-2" serif:id="Fingerstråle 2">
        </g>
        <g id="Fingerstråle-1" serif:id="Fingerstråle 1">
        </g>
    </g>
</svg>
