<?xml version="1.0" encoding="UTF-8" standalone="no"?>
<!DOCTYPE svg PUBLIC "-//W3C//DTD SVG 1.1//EN" "http://www.w3.org/Graphics/SVG/1.1/DTD/svg11.dtd">
<svg width="100%" height="100%" viewBox="0 0 945 1182" version="1.1" xmlns="http://www.w3.org/2000/svg" xmlns:xlink="http://www.w3.org/1999/xlink" xml:space="preserve" xmlns:serif="http://www.serif.com/" style="fill-rule:evenodd;clip-rule:evenodd;stroke-linejoin:round;stroke-miterlimit:1.41421;">
    <g transform="matrix(-1,0,0,1,959.806,0)">
        <g transform="matrix(0.98906,0.147515,0.147534,-0.98919,-100.709,1125.03)">
            <g id="Mellemhånd">
                <path id="Metacarpal---ring" serif:id="Metacarpal - ring" d="M707.541,636.837L705.521,595.428C693.595,576.353 674.797,571.193 648.963,580.278C638.207,586.372 632.613,601.195 629.773,620.678L642.903,648.957C639.051,692.078 633.092,735.842 621.693,781.264L606.544,791.364L595.434,818.633L599.474,836.813L595.434,871.152C600.82,881.925 610.247,885.965 623.713,883.272C632.241,871.575 641.823,866.124 653.003,870.142C652.99,861.87 654.536,853.006 662.092,841.863C668.051,831.023 664.529,824.443 657.042,819.643L684.312,677.236C698.419,662.573 708.696,648.63 707.541,636.837" style="fill:rgb(78,166,153);fill-opacity:0.54;"/>
            </g>
        </g>
        <g id="Fingerstråle-5" serif:id="Fingerstråle 5">
        </g>
        <g id="Fingerstråle-4" serif:id="Fingerstråle 4">
        </g>
        <g id="Fingerstråle-3" serif:id="Fingerstråle 3">
        </g>
        <g id="Fingerstråle-2" serif:id="Fingerstråle 2">
        </g>
        <g id="Fingerstråle-1" serif:id="Fingerstråle 1">
        </g>
    </g>
</svg>
