<?xml version="1.0" encoding="UTF-8" standalone="no"?>
<!DOCTYPE svg PUBLIC "-//W3C//DTD SVG 1.1//EN" "http://www.w3.org/Graphics/SVG/1.1/DTD/svg11.dtd">
<svg width="100%" height="100%" viewBox="0 0 945 1182" version="1.1" xmlns="http://www.w3.org/2000/svg" xmlns:xlink="http://www.w3.org/1999/xlink" xml:space="preserve" xmlns:serif="http://www.serif.com/" style="fill-rule:evenodd;clip-rule:evenodd;stroke-linejoin:round;stroke-miterlimit:1.41421;">
    <g transform="matrix(-1,0,0,1,959.806,0)">
        <g transform="matrix(1.07938,-0.153767,-0.165039,-1.14296,35.6965,1447.3)">
            <g id="Fingerstråle-5" serif:id="Fingerstråle 5">
                <path id="Proximal-phalange---pinky" serif:id="Proximal phalange - pinky" d="M791.37,490.39C810.783,502.887 826.975,494.569 831.769,498.47C832.488,497.296 835.329,503.553 832.779,521.7C831.707,527.225 828.426,532.633 821.669,537.859L809.549,599.468L809.549,649.967C809.084,654.636 802.893,661.601 794.399,661.077C788.641,655.671 777.034,649.755 766.12,648.957C745.426,650.111 741.842,641.227 748.95,619.668C757.619,611.96 768.394,578.678 781.27,541.899C781.08,518.372 782.855,500.37 791.37,490.39" style="fill:rgb(78,166,153);fill-opacity:0.54;"/>
            </g>
        </g>
        <g id="Fingerstråle-4" serif:id="Fingerstråle 4">
        </g>
        <g id="Fingerstråle-3" serif:id="Fingerstråle 3">
        </g>
        <g id="Fingerstråle-2" serif:id="Fingerstråle 2">
        </g>
        <g id="Fingerstråle-1" serif:id="Fingerstråle 1">
        </g>
    </g>
</svg>
