<?xml version="1.0" encoding="UTF-8" standalone="no"?>
<!DOCTYPE svg PUBLIC "-//W3C//DTD SVG 1.1//EN" "http://www.w3.org/Graphics/SVG/1.1/DTD/svg11.dtd">
<svg width="100%" height="100%" viewBox="0 0 945 1182" version="1.1" xmlns="http://www.w3.org/2000/svg" xmlns:xlink="http://www.w3.org/1999/xlink" xml:space="preserve" xmlns:serif="http://www.serif.com/" style="fill-rule:evenodd;clip-rule:evenodd;stroke-linejoin:round;stroke-miterlimit:1.41421;">
    <g transform="matrix(-1,0,0,1,959.806,0)">
        <g transform="matrix(0.996507,-0.0835066,-0.0867285,-1.03495,41.4711,1281.94)">
            <g id="Fingerstråle-4" serif:id="Fingerstråle 4">
                <path id="Middle-phalange---ring" serif:id="Middle phalange - ring" d="M732.056,342.396C729.078,348.799 725.409,354.364 719.936,357.748C706.859,353.831 693.289,353.166 679.537,353.708C666.917,354.14 657.872,350.648 656.105,339.165C666.609,314.566 677.259,267.857 672.265,223.623C670.394,209.361 673.604,198.969 683.577,193.728L718.32,192.112C724.259,193.193 728.905,195.559 728.016,203.424C731.397,213.475 732.352,224.854 731.248,237.359L723.168,256.75C721.775,287.424 723.072,316.785 732.056,342.396" style="fill:rgb(78,166,153);fill-opacity:0.54;"/>
            </g>
        </g>
        <g id="Fingerstråle-3" serif:id="Fingerstråle 3">
        </g>
        <g id="Fingerstråle-2" serif:id="Fingerstråle 2">
        </g>
        <g id="Fingerstråle-1" serif:id="Fingerstråle 1">
        </g>
    </g>
</svg>
