<?xml version="1.0" encoding="UTF-8" standalone="no"?>
<!DOCTYPE svg PUBLIC "-//W3C//DTD SVG 1.1//EN" "http://www.w3.org/Graphics/SVG/1.1/DTD/svg11.dtd">
<svg width="100%" height="100%" viewBox="0 0 945 1182" version="1.1" xmlns="http://www.w3.org/2000/svg" xmlns:xlink="http://www.w3.org/1999/xlink" xml:space="preserve" xmlns:serif="http://www.serif.com/" style="fill-rule:evenodd;clip-rule:evenodd;stroke-linejoin:round;stroke-miterlimit:1.41421;">
    <g transform="matrix(-1,0,0,1,959.806,0)">
        <g transform="matrix(0.996507,-0.0835066,-0.0835066,-0.996507,40.6462,1272.1)">
            <g id="Fingerstråle-4" serif:id="Fingerstråle 4">
                <path id="Digital-phalange---ring" serif:id="Digital phalange - ring" d="M732.864,175.144C733.063,180.658 728.41,186.042 719.128,191.304L688.424,192.112C675.899,190.615 664.745,183.255 669.033,173.528L684.385,155.753C686.122,146.91 686.587,138.028 685.193,129.089L677.113,127.473C676.018,114.661 677.298,104.139 685.193,100.002C689.6,89.921 697.484,87.613 712.664,101.618C721.485,106.582 722.227,117.329 721.552,129.089L712.664,129.897C711.06,138.796 711.505,146.655 714.28,153.329C721.753,159.609 728.085,166.749 732.864,175.144" style="fill:rgb(78,166,153);fill-opacity:0.54;"/>
            </g>
        </g>
        <g id="Fingerstråle-3" serif:id="Fingerstråle 3">
        </g>
        <g id="Fingerstråle-2" serif:id="Fingerstråle 2">
        </g>
        <g id="Fingerstråle-1" serif:id="Fingerstråle 1">
        </g>
    </g>
</svg>
