<?xml version="1.0" encoding="UTF-8" standalone="no"?>
<!DOCTYPE svg PUBLIC "-//W3C//DTD SVG 1.1//EN" "http://www.w3.org/Graphics/SVG/1.1/DTD/svg11.dtd">
<svg width="100%" height="100%" viewBox="0 0 945 1182" version="1.1" xmlns="http://www.w3.org/2000/svg" xmlns:xlink="http://www.w3.org/1999/xlink" xml:space="preserve" xmlns:serif="http://www.serif.com/" style="fill-rule:evenodd;clip-rule:evenodd;stroke-linejoin:round;stroke-miterlimit:1.41421;">
    <g transform="matrix(-1,0,0,1,959.806,0)">
        <g id="Håndrod" transform="matrix(1.04654,0.122458,0.122458,-1.04654,-106.946,1194.28)">
            <path id="Carpal---Lunate" serif:id="Carpal - Lunate" d="M594.217,1042.18C608.151,1058.05 625.743,1059.34 644.312,1056.72C651.725,1053.16 658.115,1051.45 662.896,1052.68C674.059,1053.14 682.316,1050.19 681.479,1036.52L682.287,1015.51C681.62,1007.05 668.466,996.119 648.352,988.849L636.232,978.346C627.417,974.904 614.971,975.102 596.641,983.193C594.659,993.38 590.377,1000.61 584.521,1005.82C584.237,1019.89 587.12,1032.2 594.217,1042.18" style="fill:rgb(78,166,153);fill-opacity:0.54;"/>
        </g>
        <g id="Mellemhånd">
        </g>
        <g id="Fingerstråle-5" serif:id="Fingerstråle 5">
        </g>
        <g id="Fingerstråle-4" serif:id="Fingerstråle 4">
        </g>
        <g id="Fingerstråle-3" serif:id="Fingerstråle 3">
        </g>
        <g id="Fingerstråle-2" serif:id="Fingerstråle 2">
        </g>
        <g id="Fingerstråle-1" serif:id="Fingerstråle 1">
        </g>
    </g>
</svg>
