<?xml version="1.0" encoding="UTF-8" standalone="no"?>
<!DOCTYPE svg PUBLIC "-//W3C//DTD SVG 1.1//EN" "http://www.w3.org/Graphics/SVG/1.1/DTD/svg11.dtd">
<svg width="100%" height="100%" viewBox="0 0 945 1182" version="1.1" xmlns="http://www.w3.org/2000/svg" xmlns:xlink="http://www.w3.org/1999/xlink" xml:space="preserve" xmlns:serif="http://www.serif.com/" style="fill-rule:evenodd;clip-rule:evenodd;stroke-linejoin:round;stroke-miterlimit:1.41421;">
    <g transform="matrix(-1,0,0,1,959.806,0)">
        <g id="Håndrod" transform="matrix(1.04654,0.122458,0.122458,-1.04654,-106.946,1194.28)">
            <path id="Carpal---Pisiform" serif:id="Carpal - Pisiform" d="M652.392,1000.16C664.127,1006.08 674.625,1013.13 682.287,1022.78L696.831,1023.59C706.527,1016.32 711.913,1006.36 712.991,993.697C714.873,975.649 714.123,959.712 710.567,946.026C701.469,931.822 688.355,924.222 672.591,920.979C666.402,924.562 661.194,930.846 658.048,942.794C660.382,956.523 662.218,970.254 658.048,984.001C652.049,989.787 648.456,995.34 652.392,1000.16" style="fill:rgb(78,166,153);fill-opacity:0.54;"/>
        </g>
        <g id="Mellemhånd">
        </g>
        <g id="Fingerstråle-5" serif:id="Fingerstråle 5">
        </g>
        <g id="Fingerstråle-4" serif:id="Fingerstråle 4">
        </g>
        <g id="Fingerstråle-3" serif:id="Fingerstråle 3">
        </g>
        <g id="Fingerstråle-2" serif:id="Fingerstråle 2">
        </g>
        <g id="Fingerstråle-1" serif:id="Fingerstråle 1">
        </g>
    </g>
</svg>
