<?xml version="1.0" encoding="UTF-8" standalone="no"?>
<!DOCTYPE svg PUBLIC "-//W3C//DTD SVG 1.1//EN" "http://www.w3.org/Graphics/SVG/1.1/DTD/svg11.dtd">
<svg width="100%" height="100%" viewBox="0 0 945 1182" version="1.1" xmlns="http://www.w3.org/2000/svg" xmlns:xlink="http://www.w3.org/1999/xlink" xml:space="preserve" xmlns:serif="http://www.serif.com/" style="fill-rule:evenodd;clip-rule:evenodd;stroke-linejoin:round;stroke-miterlimit:1.41421;">
    <g transform="matrix(-1,0,0,1,959.806,0)">
        <g transform="matrix(1.11735,0.130744,0.117817,-1.00688,-150.682,1156.13)">
            <g id="Håndrod">
                <path id="Carpal---Hamate" serif:id="Carpal - Hamate" d="M609.569,882.196C603.621,887.855 599.613,894.473 599.873,903.203C600.174,933.807 600.893,963.9 614.417,978.346C621.322,989.918 631.202,994.429 644.312,991.273C656.256,959.752 668.086,931.458 679.055,927.443C685.013,927.235 701.465,919.9 707.335,914.515C706.584,905.464 703.827,896.812 694.407,889.467L683.095,895.123C673.96,895.339 668.907,890.828 665.32,884.62C666.633,864.735 663.174,857.122 650.776,872.5C640.707,867.066 631.782,871.066 624.112,885.428L609.569,882.196" style="fill:rgb(78,166,153);fill-opacity:0.54;"/>
            </g>
        </g>
        <g id="Mellemhånd">
        </g>
        <g id="Fingerstråle-5" serif:id="Fingerstråle 5">
        </g>
        <g id="Fingerstråle-4" serif:id="Fingerstråle 4">
        </g>
        <g id="Fingerstråle-3" serif:id="Fingerstråle 3">
        </g>
        <g id="Fingerstråle-2" serif:id="Fingerstråle 2">
        </g>
        <g id="Fingerstråle-1" serif:id="Fingerstråle 1">
        </g>
    </g>
</svg>
