<?xml version="1.0" encoding="UTF-8" standalone="no"?>
<!DOCTYPE svg PUBLIC "-//W3C//DTD SVG 1.1//EN" "http://www.w3.org/Graphics/SVG/1.1/DTD/svg11.dtd">
<svg width="100%" height="100%" viewBox="0 0 945 1182" version="1.1" xmlns="http://www.w3.org/2000/svg" xmlns:xlink="http://www.w3.org/1999/xlink" xml:space="preserve" xmlns:serif="http://www.serif.com/" style="fill-rule:evenodd;clip-rule:evenodd;stroke-linejoin:round;stroke-miterlimit:1.41421;">
    <g transform="matrix(-1,0,0,1,959.806,0)">
        <g id="Håndrod" transform="matrix(1.04654,0.122458,0.122458,-1.04654,-106.946,1194.28)">
            <path id="Carpal---Trapezium" serif:id="Carpal - Trapezium" d="M493.219,948.45C488.574,956.531 465.186,965.604 441.508,971.074C432.988,972.091 426.282,967.699 421.309,958.146L409.997,958.954C404.245,956.985 402.021,952.317 401.917,946.026L405.149,913.707C414.867,898.823 427.559,893.365 441.508,891.891C454.557,889.743 461.645,891.086 464.132,895.123C471.588,899.933 471.024,909.954 471.404,919.363C473.916,931.694 482.704,940.55 493.219,948.45Z" style="fill:rgb(78,166,153);fill-opacity:0.54;"/>
        </g>
        <g id="Mellemhånd">
        </g>
        <g id="Fingerstråle-5" serif:id="Fingerstråle 5">
        </g>
        <g id="Fingerstråle-4" serif:id="Fingerstråle 4">
        </g>
        <g id="Fingerstråle-3" serif:id="Fingerstråle 3">
        </g>
        <g id="Fingerstråle-2" serif:id="Fingerstråle 2">
        </g>
        <g id="Fingerstråle-1" serif:id="Fingerstråle 1">
        </g>
    </g>
</svg>
