<?xml version="1.0" encoding="UTF-8" standalone="no"?>
<!DOCTYPE svg PUBLIC "-//W3C//DTD SVG 1.1//EN" "http://www.w3.org/Graphics/SVG/1.1/DTD/svg11.dtd">
<svg width="100%" height="100%" viewBox="0 0 945 1182" version="1.1" xmlns="http://www.w3.org/2000/svg" xmlns:xlink="http://www.w3.org/1999/xlink" xml:space="preserve" xmlns:serif="http://www.serif.com/" style="fill-rule:evenodd;clip-rule:evenodd;stroke-linejoin:round;stroke-miterlimit:1.41421;">
    <g transform="matrix(-1,0,0,1,959.806,0)">
        <g transform="matrix(0.9959,0.0904656,0.0904656,-0.9959,-9.89036,1132.53)">
            <g id="Fingerstr책le-2" serif:id="Fingerstr책le 2">
                <path id="Middle-phalange---index" serif:id="Middle phalange - index" d="M420.174,315.733C410.232,301.47 405.274,285.46 400.783,269.678C402.558,247.464 406.144,225.866 399.167,212.311C407.498,207.316 405.198,198.961 398.359,193.728C378.516,203.12 363.126,196.245 353.112,196.96C347.519,204.921 344.834,216.314 349.072,222.007L360.384,248.671L355.536,299.573L346.648,321.389C353.992,346.244 376.862,349.176 412.903,333.509C423.745,330.463 420.174,315.733 420.174,315.733Z" style="fill:rgb(78,166,153);fill-opacity:0.54;"/>
            </g>
        </g>
        <g id="Fingerstr책le-1" serif:id="Fingerstr책le 1">
        </g>
    </g>
</svg>
