<?xml version="1.0" encoding="UTF-8" standalone="no"?>
<!DOCTYPE svg PUBLIC "-//W3C//DTD SVG 1.1//EN" "http://www.w3.org/Graphics/SVG/1.1/DTD/svg11.dtd">
<svg width="100%" height="100%" viewBox="0 0 945 1182" version="1.1" xmlns="http://www.w3.org/2000/svg" xmlns:xlink="http://www.w3.org/1999/xlink" xml:space="preserve" xmlns:serif="http://www.serif.com/" style="fill-rule:evenodd;clip-rule:evenodd;stroke-linejoin:round;stroke-miterlimit:1.41421;">
    <g transform="matrix(-1,0,0,1,959.806,0)">
        <g transform="matrix(0.996507,-0.0835066,-0.0835066,-0.996507,40.6462,1272.1)">
            <g id="Fingerstråle-4" serif:id="Fingerstråle 4">
                <path id="Proximal-phalange---ring" serif:id="Proximal phalange - ring" d="M707.541,577.248C713.36,568.476 717.293,561.866 719.661,557.049L709.561,521.7C713.362,483.972 713.105,445.903 711.812,411.016C715.967,401.286 719.329,394.034 725.721,388.383C726.441,379.592 726.082,369.82 723.701,361.113C715.198,356.64 707.631,356.558 701.481,363.133C694.789,355.061 685.678,352.341 673.202,357.073C662.759,355.963 657.047,362.5 656.398,375.022C655.471,387.031 656.492,399.452 662.044,405.783C654.817,439.68 652.117,473.427 649.973,509.58C645.8,517.198 640.933,527.005 633.813,543.919C631.398,550.352 630.841,556.757 633.813,563.109C638.567,570.435 645.033,572.583 653.003,570.179C672.752,578.828 690.583,579.786 707.541,577.248" style="fill:rgb(78,166,153);fill-opacity:0.54;"/>
            </g>
        </g>
        <g id="Fingerstråle-3" serif:id="Fingerstråle 3">
        </g>
        <g id="Fingerstråle-2" serif:id="Fingerstråle 2">
        </g>
        <g id="Fingerstråle-1" serif:id="Fingerstråle 1">
        </g>
    </g>
</svg>
