<?xml version="1.0" encoding="UTF-8" standalone="no"?>
<!DOCTYPE svg PUBLIC "-//W3C//DTD SVG 1.1//EN" "http://www.w3.org/Graphics/SVG/1.1/DTD/svg11.dtd">
<svg width="100%" height="100%" viewBox="0 0 591 1182" version="1.1" xmlns="http://www.w3.org/2000/svg" xmlns:xlink="http://www.w3.org/1999/xlink" xml:space="preserve" xmlns:serif="http://www.serif.com/" style="fill-rule:evenodd;clip-rule:evenodd;stroke-linejoin:round;stroke-miterlimit:1.41421;">
    <g id="Selections" transform="matrix(-1,0,0,-1,608.993,1180.48)">
        <path id="Metatarsal-3" serif:id="Metatarsal 3" d="M287.506,656.735C315.422,655.475 335.176,658.88 347.199,667.988C353.508,666.05 355.312,662.183 354.538,658.203C350.652,641.889 348.426,625.392 353.07,606.339C355.596,537.595 364.865,416.914 362.856,399.372C362.173,393.412 373.677,360.021 378.513,333.808C382.985,297.71 321.616,294.717 309.524,331.85C303.095,354.297 310.532,368.876 316.863,384.204C319.754,391.202 320.103,505.508 316.863,568.175C309.662,596.309 296.39,619.445 283.103,641.078C279.875,646.333 287.506,656.735 287.506,656.735Z" style="fill:rgb(78,166,153);fill-opacity:0.54;"/>
    </g>
</svg>
