<?xml version="1.0" encoding="UTF-8" standalone="no"?>
<!DOCTYPE svg PUBLIC "-//W3C//DTD SVG 1.1//EN" "http://www.w3.org/Graphics/SVG/1.1/DTD/svg11.dtd">
<svg width="100%" height="100%" viewBox="0 0 591 1182" version="1.1" xmlns="http://www.w3.org/2000/svg" xmlns:xlink="http://www.w3.org/1999/xlink" xml:space="preserve" xmlns:serif="http://www.serif.com/" style="fill-rule:evenodd;clip-rule:evenodd;stroke-linejoin:round;stroke-miterlimit:1.41421;">
    <g id="Selections" transform="matrix(-1,0,0,-1,608.993,1180.48)">
        <path id="Phalange-proximal-1" serif:id="Phalange proximal 1" d="M206.285,311.79C182.036,285.17 154.983,283.034 121.639,318.64C116.488,315.726 115.693,304.39 116.746,293.197C125.794,281.377 132.636,271.762 134.85,266.776C148.06,190.642 139.587,199.097 138.275,194.851C126.945,172.765 129.622,156.4 140.721,143.476C188.458,123.698 205.355,128.052 208.732,142.987C216.074,168.924 215.1,188.156 197.967,194.362C192.699,210.563 194.027,229.957 196.989,250.14C212.232,270.375 210.565,291.048 206.285,311.79" style="fill:rgb(78,166,153);fill-opacity:0.54;"/>
    </g>
</svg>
