<?xml version="1.0" encoding="UTF-8" standalone="no"?>
<!DOCTYPE svg PUBLIC "-//W3C//DTD SVG 1.1//EN" "http://www.w3.org/Graphics/SVG/1.1/DTD/svg11.dtd">
<svg width="100%" height="100%" viewBox="0 0 100 200" version="1.1" xmlns="http://www.w3.org/2000/svg" xmlns:xlink="http://www.w3.org/1999/xlink" xml:space="preserve" xmlns:serif="http://www.serif.com/" style="fill-rule:evenodd;clip-rule:evenodd;stroke-linejoin:round;stroke-miterlimit:1.41421;">
    <g id="Selections-Areas" serif:id="Selections Areas">
        <path id="Head" d="M39.342,11.595C39.316,11.289 39.302,10.98 39.302,10.667C39.302,4.869 44.01,0.161 49.808,0.161C55.607,0.161 60.314,4.869 60.314,10.667C60.314,11.02 60.297,11.368 60.263,11.712C61.165,12.332 61.415,14.131 60.798,15.993C60.419,17.135 59.793,18.063 59.113,18.601C58.87,19.807 58.456,21.053 57.862,22.28C56.642,24.805 54.891,26.786 53.036,27.96C52.712,28.267 52.347,28.522 51.941,28.718C51.24,29.057 50.474,29.192 49.68,29.144C48.886,29.192 48.121,29.057 47.419,28.718C47.014,28.522 46.648,28.267 46.324,27.96C44.47,26.786 42.719,24.805 41.498,22.28C40.899,21.041 40.482,19.784 40.24,18.566C39.577,18.024 38.97,17.111 38.599,15.993C37.937,13.995 38.273,12.069 39.342,11.595Z" style="fill:rgb(78,166,153);fill-opacity:0.545098;"/>
    </g>
</svg>
