<?xml version="1.0" encoding="UTF-8" standalone="no"?>
<!DOCTYPE svg PUBLIC "-//W3C//DTD SVG 1.1//EN" "http://www.w3.org/Graphics/SVG/1.1/DTD/svg11.dtd">
<svg width="100%" height="100%" viewBox="0 0 100 200" version="1.1" xmlns="http://www.w3.org/2000/svg" xmlns:xlink="http://www.w3.org/1999/xlink" xml:space="preserve" xmlns:serif="http://www.serif.com/" style="fill-rule:evenodd;clip-rule:evenodd;stroke-linejoin:round;stroke-miterlimit:1.41421;">
    <g transform="matrix(-1.01005,0,0,1.00596,99.972,-0.589524)">
        <g id="Selections-Areas" serif:id="Selections Areas">
            <path id="Right-hand" serif:id="Right hand" d="M78.685,103.58C80.113,99.946 83.167,99.011 86.741,98.939C89.301,100.083 91.07,102.295 92.216,104.245C94.842,106.88 95.978,107.347 95.956,107.737C95.92,108.356 95.77,109.149 93.259,109.096C91.156,108.313 91.221,108.19 90.942,107.655C91.023,108.555 91.196,109.309 91.434,110.15C92.139,112.632 93.814,116.562 93.657,117.281C93.346,118.708 92.238,118.82 91.732,118.29C90.751,117.224 90.109,115.916 89.673,114.439C90.479,116.526 91.063,118.263 91.203,120.255C90.601,121.338 89.89,121.812 88.972,121.05C87.772,119.297 87.218,117.394 86.697,115.488C86.991,116.821 87.233,118.155 87.091,119.604C86.561,120.716 85.705,120.425 85.251,119.774C84.408,118.522 84.132,117.234 83.936,115.749C83.957,116.498 83.983,117.023 83.676,117.893C83.141,118.276 82.608,118.766 82.1,117.853C79.689,111.804 78.015,106.502 78.685,103.58" style="fill:rgb(78,166,153);fill-opacity:0.537255;"/>
        </g>
    </g>
</svg>
