<?xml version="1.0" encoding="UTF-8" standalone="no"?>
<!DOCTYPE svg PUBLIC "-//W3C//DTD SVG 1.1//EN" "http://www.w3.org/Graphics/SVG/1.1/DTD/svg11.dtd">
<svg width="100%" height="100%" viewBox="0 0 945 1182" version="1.1" xmlns="http://www.w3.org/2000/svg" xmlns:xlink="http://www.w3.org/1999/xlink" xml:space="preserve" xmlns:serif="http://www.serif.com/" style="fill-rule:evenodd;clip-rule:evenodd;stroke-linejoin:round;stroke-miterlimit:1.41421;">
    <g>
        <g transform="matrix(0.999995,-0.0031413,-0.0031413,-0.999995,26.4713,1173.44)">
            <g id="Fingerstr책le-2" serif:id="Fingerstr책le 2">
                <path id="Proximal-phalange---index" serif:id="Proximal phalange - index" d="M452.494,547.624C457.428,539.524 462.303,523.819 461.381,513.689C449.626,506.474 441.155,499.665 438.758,491.873C430.763,451.717 422.979,411.591 415.326,371.484C424.677,353.869 421.771,341.933 411.287,333.509C391.817,339.425 377.49,343.638 362.808,339.165C351.365,345.031 348.807,355.606 354.728,370.676L367.655,402.995C366.824,419.763 369,433.024 375.735,440.97L378.967,508.841L370.887,538.736C372.343,549.786 377.773,558.071 392.703,559.744C413.155,543.755 452.494,547.624 452.494,547.624Z" style="fill:rgb(78,166,153);fill-opacity:0.54;"/>
            </g>
        </g>
        <g id="Fingerstr책le-1" serif:id="Fingerstr책le 1">
        </g>
    </g>
</svg>
