<?xml version="1.0" encoding="UTF-8" standalone="no"?>
<!DOCTYPE svg PUBLIC "-//W3C//DTD SVG 1.1//EN" "http://www.w3.org/Graphics/SVG/1.1/DTD/svg11.dtd">
<svg width="100%" height="100%" viewBox="0 0 945 1182" version="1.1" xmlns="http://www.w3.org/2000/svg" xmlns:xlink="http://www.w3.org/1999/xlink" xml:space="preserve" xmlns:serif="http://www.serif.com/" style="fill-rule:evenodd;clip-rule:evenodd;stroke-linejoin:round;stroke-miterlimit:1.41421;">
    <g>
        <g transform="matrix(0.999533,-0.0305692,-0.0305692,-0.999533,16.7179,1191.27)">
            <g id="Fingerstråle-3" serif:id="Fingerstråle 3">
                <path id="Proximal-phalange---middle" serif:id="Proximal phalange - middle" d="M585.811,531.464C599.405,533.952 601.967,504.752 596.315,493.489C586.619,483.978 581.539,471.382 577.731,457.938C580.229,413.769 578.154,372.603 570.459,335.125C583.562,310.811 578.42,295.451 561.571,285.838C548.117,286.136 533.795,287.423 516.324,292.302C509.712,296.735 507.678,309.062 509.86,328.661C510.229,336.458 513.271,340.66 518.748,341.589C522.644,375.101 524.551,409.661 520.364,447.434C513.801,469.773 508.92,490.189 504.205,508.033C507.274,519.73 510.73,531.12 526.02,533.08C549.046,523.255 569.21,522.015 585.811,531.464" style="fill:rgb(78,166,153);fill-opacity:0.54;"/>
            </g>
        </g>
        <g id="Fingerstråle-2" serif:id="Fingerstråle 2">
        </g>
        <g id="Fingerstråle-1" serif:id="Fingerstråle 1">
        </g>
    </g>
</svg>
