<?xml version="1.0" encoding="UTF-8" standalone="no"?>
<!DOCTYPE svg PUBLIC "-//W3C//DTD SVG 1.1//EN" "http://www.w3.org/Graphics/SVG/1.1/DTD/svg11.dtd">
<svg width="100%" height="100%" viewBox="0 0 945 1182" version="1.1" xmlns="http://www.w3.org/2000/svg" xmlns:xlink="http://www.w3.org/1999/xlink" xml:space="preserve" xmlns:serif="http://www.serif.com/" style="fill-rule:evenodd;clip-rule:evenodd;stroke-linejoin:round;stroke-miterlimit:1.41421;">
    <g>
        <g transform="matrix(0.942079,0.335392,0.335392,-0.942079,-263.417,997.59)">
            <g id="Mellemhånd">
                <path id="Metacarpal---thumb" serif:id="Metacarpal - thumb" d="M357.079,763.084C363.823,762.855 366.655,758.612 366.169,750.965C357.521,736.001 346.378,723.357 327.79,717.635C306.968,719.987 294.088,731.431 287.39,749.955L291.43,771.164L317.69,807.523C317.788,816.661 321.886,822.839 331.83,824.693L364.149,868.122C372.533,878.274 377.132,889.657 374.249,903.471C374.703,911.531 379.197,916.298 390.408,915.591L408.588,923.671C413.802,904.729 425.405,892.958 446.967,892.362C441.81,864.18 430.654,847.775 413.638,842.873C389.315,818.671 368.858,792.778 357.079,763.084" style="fill:rgb(78,166,153);fill-opacity:0.54;"/>
            </g>
        </g>
        <g id="Fingerstråle-5" serif:id="Fingerstråle 5">
        </g>
        <g id="Fingerstråle-4" serif:id="Fingerstråle 4">
        </g>
        <g id="Fingerstråle-3" serif:id="Fingerstråle 3">
        </g>
        <g id="Fingerstråle-2" serif:id="Fingerstråle 2">
        </g>
        <g id="Fingerstråle-1" serif:id="Fingerstråle 1">
        </g>
    </g>
</svg>
