<?xml version="1.0" encoding="UTF-8" standalone="no"?>
<!DOCTYPE svg PUBLIC "-//W3C//DTD SVG 1.1//EN" "http://www.w3.org/Graphics/SVG/1.1/DTD/svg11.dtd">
<svg width="100%" height="100%" viewBox="0 0 945 1182" version="1.1" xmlns="http://www.w3.org/2000/svg" xmlns:xlink="http://www.w3.org/1999/xlink" xml:space="preserve" xmlns:serif="http://www.serif.com/" style="fill-rule:evenodd;clip-rule:evenodd;stroke-linejoin:round;stroke-miterlimit:1.41421;">
    <g>
        <g transform="matrix(1.03792,0.160721,0.1571,-1.01454,-134.375,1129.4)">
            <g id="Mellemhånd">
                <path id="Metacarpal---pinky" serif:id="Metacarpal - pinky" d="M745.921,651.987C771.234,646.038 781.406,655.886 787.33,670.166C783.896,681.22 783.146,692.322 786.32,703.496L776.22,717.635C764.789,751.073 752.35,785.483 731.781,827.723C726.217,835.214 722.07,843.786 722.691,856.002L707.541,874.182C708.551,883.272 703.501,887.648 692.392,887.312C677.53,904.61 666.213,895.061 668.152,875.192C667.522,866.146 661.901,863.63 654.013,864.082C653.032,848.779 659.573,842.905 669.162,840.853L688.352,824.693L720.671,743.895L736.831,705.516C732.965,684.032 728.522,662.243 745.921,651.987" style="fill:rgb(78,166,153);fill-opacity:0.54;"/>
            </g>
        </g>
        <g id="Fingerstråle-5" serif:id="Fingerstråle 5">
        </g>
        <g id="Fingerstråle-4" serif:id="Fingerstråle 4">
        </g>
        <g id="Fingerstråle-3" serif:id="Fingerstråle 3">
        </g>
        <g id="Fingerstråle-2" serif:id="Fingerstråle 2">
        </g>
        <g id="Fingerstråle-1" serif:id="Fingerstråle 1">
        </g>
    </g>
</svg>
