<?xml version="1.0" encoding="UTF-8" standalone="no"?>
<!DOCTYPE svg PUBLIC "-//W3C//DTD SVG 1.1//EN" "http://www.w3.org/Graphics/SVG/1.1/DTD/svg11.dtd">
<svg width="100%" height="100%" viewBox="0 0 945 1182" version="1.1" xmlns="http://www.w3.org/2000/svg" xmlns:xlink="http://www.w3.org/1999/xlink" xml:space="preserve" xmlns:serif="http://www.serif.com/" style="fill-rule:evenodd;clip-rule:evenodd;stroke-linejoin:round;stroke-miterlimit:1.41421;">
    <g>
        <g transform="matrix(0.9959,0.0904656,0.0904656,-0.9959,-9.85193,1131.53)">
            <g id="Fingerstr책le-2" serif:id="Fingerstr책le 2">
                <path id="Digital-phalange---index" serif:id="Digital phalange - index" d="M403.207,175.938C393.014,167.068 387.332,152.313 383.815,134.731L394.319,135.539C398.335,126.16 396.754,118.477 393.511,111.3C389.049,103.773 383.187,97.809 376.543,92.716C365.625,89.1 355.618,93.318 346.648,106.452C342.432,119.116 340.616,130.139 345.84,136.347L355.536,136.347C353.055,148.664 351.948,157.806 351.496,165.434C348.369,169.559 344.222,172.385 339.376,174.322C337.629,181.509 337.99,187.398 344.224,189.674C363.115,200.462 381.492,203.254 398.359,192.906C407.733,186.992 407.819,181.387 403.207,175.938" style="fill:rgb(78,166,153);fill-opacity:0.54;"/>
            </g>
        </g>
        <g id="Fingerstr책le-1" serif:id="Fingerstr책le 1">
        </g>
    </g>
</svg>
