<?xml version="1.0" encoding="UTF-8" standalone="no"?>
<!DOCTYPE svg PUBLIC "-//W3C//DTD SVG 1.1//EN" "http://www.w3.org/Graphics/SVG/1.1/DTD/svg11.dtd">
<svg width="100%" height="100%" viewBox="0 0 945 1182" version="1.1" xmlns="http://www.w3.org/2000/svg" xmlns:xlink="http://www.w3.org/1999/xlink" xml:space="preserve" xmlns:serif="http://www.serif.com/" style="fill-rule:evenodd;clip-rule:evenodd;stroke-linejoin:round;stroke-miterlimit:1.41421;">
    <g transform="matrix(0.721436,0.692481,0.692481,-0.721436,-413.719,758.094)">
        <g id="Fingerstråle-1" serif:id="Fingerstråle 1">
            <path id="Digital-phalange---thumb" serif:id="Digital phalange - thumb" d="M273.122,549.226L272.314,533.874C269.505,525.628 262.725,523.896 253.73,525.795C242.066,514.24 233.975,504.334 234.338,498.323L241.61,489.435C241.049,472.995 229.767,459.367 202.827,449.844C189.501,454.108 180.167,458.579 181.012,463.58C178.53,479.821 180.52,494.944 190.707,508.019C194.478,513.405 199.326,513.405 205.251,508.019C204.133,519.612 205.014,529.479 208.483,537.106L197.171,548.418C208.013,560.299 207.7,573.844 210.907,571.85C241.014,583.166 258.146,568.368 273.122,549.226" style="fill:rgb(78,166,153);fill-opacity:0.54;"/>
        </g>
    </g>
</svg>
