<?xml version="1.0" encoding="UTF-8" standalone="no"?>
<!DOCTYPE svg PUBLIC "-//W3C//DTD SVG 1.1//EN" "http://www.w3.org/Graphics/SVG/1.1/DTD/svg11.dtd">
<svg width="100%" height="100%" viewBox="0 0 945 1182" version="1.1" xmlns="http://www.w3.org/2000/svg" xmlns:xlink="http://www.w3.org/1999/xlink" xml:space="preserve" xmlns:serif="http://www.serif.com/" style="fill-rule:evenodd;clip-rule:evenodd;stroke-linejoin:round;stroke-miterlimit:1.41421;">
    <g>
        <g transform="matrix(0.999646,-0.0266169,-0.0266169,-0.999646,13.9477,1189.45)">
            <g id="Fingerstråle-3" serif:id="Fingerstråle 3">
                <path id="Middle-phalange---middle" serif:id="Middle phalange - middle" d="M577.731,276.95C577.901,262.979 573.851,253.977 568.035,247.055C570.728,222.815 569.112,200.73 563.187,180.8C570.5,171.511 573.798,163.338 572.075,156.561C572.486,142.518 568.692,133.788 559.147,132.321C545.923,136.552 532.728,136.506 519.556,133.129C510.485,143.086 513.521,158.087 519.556,174.336C514.023,200.903 516.032,214.644 517.132,245.439C511.922,249.098 507.25,255.61 503.397,266.446C503.25,281.272 509.249,290.931 514.708,293.11C532.653,287.083 550.687,285.465 568.843,289.878C575.167,285.855 577.261,281.472 577.731,276.95Z" style="fill:rgb(78,166,153);fill-opacity:0.54;"/>
            </g>
        </g>
        <g id="Fingerstråle-2" serif:id="Fingerstråle 2">
        </g>
        <g id="Fingerstråle-1" serif:id="Fingerstråle 1">
        </g>
    </g>
</svg>
