<?xml version="1.0" encoding="UTF-8" standalone="no"?>
<!DOCTYPE svg PUBLIC "-//W3C//DTD SVG 1.1//EN" "http://www.w3.org/Graphics/SVG/1.1/DTD/svg11.dtd">
<svg width="100%" height="100%" viewBox="0 0 945 1182" version="1.1" xmlns="http://www.w3.org/2000/svg" xmlns:xlink="http://www.w3.org/1999/xlink" xml:space="preserve" xmlns:serif="http://www.serif.com/" style="fill-rule:evenodd;clip-rule:evenodd;stroke-linejoin:round;stroke-miterlimit:1.41421;">
    <g>
        <g transform="matrix(1.07311,-0.192681,-0.183111,-1.0088,60.8944,1427.2)">
            <g id="Fingerstråle-5" serif:id="Fingerstråle 5">
                <path id="Digital-phalange---pinky" serif:id="Digital phalange - pinky" d="M854.869,314.925C860.014,323.43 862.686,333.641 858.101,348.86C840.379,355.305 841.548,367.892 857.293,385.22C860.002,389.204 860.42,394.278 854.869,402.187C832.021,405.22 816.878,400.426 808.006,389.259C807.233,376.822 810.859,372.721 817.702,374.716C824.679,364.135 829.604,354.027 830.629,344.82L821.742,345.628C820.908,339.201 822.504,331.014 824.974,322.197C834.472,307.288 844.584,308.802 854.869,314.925" style="fill:rgb(78,166,153);fill-opacity:0.54;"/>
            </g>
        </g>
        <g id="Fingerstråle-4" serif:id="Fingerstråle 4">
        </g>
        <g id="Fingerstråle-3" serif:id="Fingerstråle 3">
        </g>
        <g id="Fingerstråle-2" serif:id="Fingerstråle 2">
        </g>
        <g id="Fingerstråle-1" serif:id="Fingerstråle 1">
        </g>
    </g>
</svg>
