<?xml version="1.0" encoding="UTF-8" standalone="no"?>
<!DOCTYPE svg PUBLIC "-//W3C//DTD SVG 1.1//EN" "http://www.w3.org/Graphics/SVG/1.1/DTD/svg11.dtd">
<svg width="100%" height="100%" viewBox="0 0 945 1182" version="1.1" xmlns="http://www.w3.org/2000/svg" xmlns:xlink="http://www.w3.org/1999/xlink" xml:space="preserve" xmlns:serif="http://www.serif.com/" style="fill-rule:evenodd;clip-rule:evenodd;stroke-linejoin:round;stroke-miterlimit:1.41421;">
    <g>
        <g transform="matrix(0.999941,-0.0108856,-0.0101968,-0.936661,20.4069,1155.73)">
            <g id="Mellemhånd">
                <path id="Metacarpal---index" serif:id="Metacarpal - index" d="M394.448,601.488C387.118,576.41 392.562,559.719 408.588,549.979C436.43,545.107 457.878,548.726 468.177,567.149C475.665,640.585 479.69,711.567 483.326,782.274C503.093,815.942 522.776,849.712 536.855,890.342C527.648,897.341 518.225,898.445 508.576,893.372C500.776,887.751 489.65,888.31 471.206,902.461C459.032,895.265 449.974,885.103 445.957,870.142L454.037,818.633L421.718,665.117C409.57,649.399 401.159,626.969 394.448,601.488" style="fill:rgb(78,166,153);fill-opacity:0.54;"/>
            </g>
        </g>
        <g id="Fingerstråle-5" serif:id="Fingerstråle 5">
        </g>
        <g id="Fingerstråle-4" serif:id="Fingerstråle 4">
        </g>
        <g id="Fingerstråle-3" serif:id="Fingerstråle 3">
        </g>
        <g id="Fingerstråle-2" serif:id="Fingerstråle 2">
        </g>
        <g id="Fingerstråle-1" serif:id="Fingerstråle 1">
        </g>
    </g>
</svg>
