<?xml version="1.0" encoding="UTF-8" standalone="no"?>
<!DOCTYPE svg PUBLIC "-//W3C//DTD SVG 1.1//EN" "http://www.w3.org/Graphics/SVG/1.1/DTD/svg11.dtd">
<svg width="100%" height="100%" viewBox="0 0 945 1182" version="1.1" xmlns="http://www.w3.org/2000/svg" xmlns:xlink="http://www.w3.org/1999/xlink" xml:space="preserve" xmlns:serif="http://www.serif.com/" style="fill-rule:evenodd;clip-rule:evenodd;stroke-linejoin:round;stroke-miterlimit:1.41421;">
    <g transform="matrix(0.88957,0.456798,0.456798,-0.88957,-324.212,910.986)">
        <g id="Fingerstråle-1" serif:id="Fingerstråle 1">
            <path id="Proximal-phalange---thumb" serif:id="Proximal phalange - thumb" d="M329.68,718.916C341.675,709.946 340.343,699.965 336.952,689.829C320.293,677.184 303.278,658.376 285.241,621.958C286.268,606.395 285.023,592.223 282.009,579.135C282.854,568.226 273.52,562.892 260.194,559.744C257.028,572.359 226.766,578.417 224.643,576.711C219.022,582.671 218.178,588.592 220.603,594.487C239.933,620.064 252.597,652.4 263.426,686.597L261.81,714.876C266.644,730.522 272.247,734.882 277.969,737.5C293.256,724.178 310.67,718.628 329.68,718.916" style="fill:rgb(78,166,153);fill-opacity:0.54;"/>
        </g>
    </g>
</svg>
