<?xml version="1.0" encoding="UTF-8" standalone="no"?>
<!DOCTYPE svg PUBLIC "-//W3C//DTD SVG 1.1//EN" "http://www.w3.org/Graphics/SVG/1.1/DTD/svg11.dtd">
<svg width="100%" height="100%" viewBox="0 0 945 1182" version="1.1" xmlns="http://www.w3.org/2000/svg" xmlns:xlink="http://www.w3.org/1999/xlink" xml:space="preserve" xmlns:serif="http://www.serif.com/" style="fill-rule:evenodd;clip-rule:evenodd;stroke-linejoin:round;stroke-miterlimit:1.41421;">
    <g>
        <g transform="matrix(0.997548,0.0699809,0.0667132,-0.950969,-41.5224,1112.53)">
            <g id="Mellemhånd">
                <path id="Metacarpal---middle" serif:id="Metacarpal - middle" d="M511.606,570.179C510.336,558.337 512.807,546.757 524.735,535.839C545.91,523.49 566.311,520.137 585.334,532.809L596.444,564.119L608.564,585.328L594.424,615.628L586.344,691.376L582.304,791.364L594.424,822.673C600.973,831.614 601.341,848.004 594.424,873.172C576.552,887.976 555.326,887.363 531.805,876.202L521.705,850.953C521.436,827.249 522.351,804.045 533.825,785.304C540.085,733.437 541.032,684.732 533.825,640.877C523.429,616.671 511.906,592.225 511.606,570.179" style="fill:rgb(78,166,153);fill-opacity:0.54;"/>
            </g>
        </g>
        <g id="Fingerstråle-5" serif:id="Fingerstråle 5">
        </g>
        <g id="Fingerstråle-4" serif:id="Fingerstråle 4">
        </g>
        <g id="Fingerstråle-3" serif:id="Fingerstråle 3">
        </g>
        <g id="Fingerstråle-2" serif:id="Fingerstråle 2">
        </g>
        <g id="Fingerstråle-1" serif:id="Fingerstråle 1">
        </g>
    </g>
</svg>
