<?xml version="1.0" encoding="UTF-8" standalone="no"?>
<!DOCTYPE svg PUBLIC "-//W3C//DTD SVG 1.1//EN" "http://www.w3.org/Graphics/SVG/1.1/DTD/svg11.dtd">
<svg width="100%" height="100%" viewBox="0 0 945 1182" version="1.1" xmlns="http://www.w3.org/2000/svg" xmlns:xlink="http://www.w3.org/1999/xlink" xml:space="preserve" xmlns:serif="http://www.serif.com/" style="fill-rule:evenodd;clip-rule:evenodd;stroke-linejoin:round;stroke-miterlimit:1.41421;">
    <path d="M64.439,494.038C63.514,481.359 62.548,468.321 61.522,454.898C42.256,203.063 243.437,8.045 469.355,8.045C469.723,8.045 470.092,8.045 470.461,8.047C470.829,8.045 471.198,8.045 471.567,8.045C697.484,8.045 898.665,203.063 879.4,454.898C878.256,469.848 877.188,484.321 876.168,498.35C898.381,453.858 958.852,463.004 935.344,592.279C923.465,657.604 930.548,698.158 892.612,736.428C882.119,747.012 865.486,743.32 854.613,727.751C842.489,802.986 822.467,864.137 781.599,927.008C741.171,997.893 708.048,1052.93 630.021,1101.1C575.037,1135.04 550.572,1157.74 473.942,1163.17L466.979,1163.17C390.349,1157.74 365.884,1135.04 310.9,1101.1C232.873,1052.93 199.75,997.893 159.322,927.008C118.865,864.769 98.837,804.216 86.677,730.017C75.829,743.656 60.329,746.478 50.366,736.428C12.43,698.158 19.513,657.604 7.634,592.279C-15.082,467.36 40.617,454.61 64.439,494.038Z" style="fill:rgb(234,208,204);"/>
    <g id="Brain---Hjerne" serif:id="Brain / Hjerne" transform="matrix(42.8345,0,0,42.8345,-1672.97,-28.0554)">
        <path d="M49.936,3.341C50.35,2.732 50.252,2.193 50.948,2.097C53.428,1.758 57.912,4.634 57.912,7.36C57.912,10.086 53.779,12.599 52.73,11.814C51.527,10.914 51.617,11.906 49.936,11.546C48.256,11.906 48.345,10.914 47.143,11.814C46.093,12.599 41.961,10.086 41.961,7.36C41.961,4.634 46.445,1.758 48.924,2.097C49.621,2.193 49.522,2.732 49.936,3.341Z" style="fill:rgb(204,129,129);"/>
    </g>
    <path d="M585.56,491.496C601.267,487.591 621.103,485.259 642.655,485.259C664.592,485.259 684.749,487.675 700.586,491.707C711.06,499.824 720.034,507.753 727.947,511.646C717.571,516.75 705.37,528.795 690.354,539.104C676.434,541.759 660.108,543.288 642.655,543.288C625.09,543.288 608.666,541.739 594.687,539.052C580.214,528.317 569.053,515.812 558.565,511.646C566.739,508.399 575.321,500.087 585.56,491.496Z" style="fill:rgb(168,134,135);"/>
    <g transform="matrix(1,0,0,1,-24.0122,-465.237)">
        <circle cx="666.79" cy="964.242" r="72.787" style="fill:white;"/>
        <clipPath id="_clip1">
            <circle cx="666.79" cy="964.242" r="72.787"/>
        </clipPath>
        <g clip-path="url(#_clip1)">
            <g transform="matrix(0.56701,0,0,0.56701,290.814,424.41)">
                <circle cx="666.79" cy="964.242" r="72.787" style="fill:rgb(56,111,167);"/>
            </g>
            <g transform="matrix(0.324536,0,0,0.324536,452.772,659.292)">
                <circle cx="666.79" cy="964.242" r="72.787" style="fill:rgb(19,44,71);"/>
            </g>
        </g>
    </g>
    <g transform="matrix(0.521166,5.86403e-17,5.86403e-17,1,409.201,-281.075)">
        <path d="M446.178,705.36C548.472,705.36 704.973,765.363 645.866,791.789C604.583,810.245 548.472,747.969 446.178,747.969C343.883,747.969 303.452,808.713 255.092,790.871C191.531,767.42 343.883,705.36 446.178,705.36Z" style="fill:rgb(234,208,204);"/>
    </g>
    <g transform="matrix(0.521166,-5.86403e-17,5.86403e-17,-1,409.201,1304.37)">
        <path d="M446.178,705.36C548.472,705.36 704.973,765.363 645.866,791.789C604.583,810.245 548.472,747.969 446.178,747.969C343.883,747.969 303.452,808.713 255.092,790.871C191.531,767.42 343.883,705.36 446.178,705.36Z" style="fill:rgb(234,208,204);"/>
    </g>
    <path d="M249.389,491.496C265.096,487.591 284.932,485.259 306.484,485.259C328.421,485.259 348.578,487.675 364.415,491.707C374.889,499.824 383.863,507.753 391.776,511.646C381.4,516.75 369.199,528.795 354.183,539.104C340.263,541.759 323.936,543.288 306.484,543.288C288.919,543.288 272.495,541.739 258.516,539.052C244.043,528.317 232.882,515.812 222.394,511.646C230.568,508.399 239.15,500.087 249.389,491.496Z" style="fill:rgb(168,134,135);"/>
    <g transform="matrix(1,0,0,1,-360.183,-465.237)">
        <circle cx="666.79" cy="964.242" r="72.787" style="fill:white;"/>
        <clipPath id="_clip2">
            <circle cx="666.79" cy="964.242" r="72.787"/>
        </clipPath>
        <g clip-path="url(#_clip2)">
            <g transform="matrix(0.56701,0,0,0.56701,290.814,424.41)">
                <circle cx="666.79" cy="964.242" r="72.787" style="fill:rgb(56,111,167);"/>
            </g>
            <g transform="matrix(0.324536,0,0,0.324536,451.801,658.813)">
                <circle cx="666.79" cy="964.242" r="72.787" style="fill:rgb(19,44,71);"/>
            </g>
        </g>
    </g>
    <g transform="matrix(0.521166,5.86403e-17,5.86403e-17,1,73.0296,-281.075)">
        <path d="M446.178,705.36C548.472,705.36 704.973,765.363 645.866,791.789C604.583,810.245 548.472,747.969 446.178,747.969C343.883,747.969 303.452,808.713 255.092,790.871C191.531,767.42 343.883,705.36 446.178,705.36Z" style="fill:rgb(234,208,204);"/>
    </g>
    <g transform="matrix(0.521166,-5.86403e-17,5.86403e-17,-1,73.0296,1304.37)">
        <path d="M446.178,705.36C548.472,705.36 704.973,765.363 645.866,791.789C604.583,810.245 548.472,747.969 446.178,747.969C343.883,747.969 303.452,808.713 255.092,790.871C191.531,767.42 343.883,705.36 446.178,705.36Z" style="fill:rgb(234,208,204);"/>
    </g>
    <g id="Paranasal-Sinuses---Bihulerne" serif:id="Paranasal Sinuses / Bihulerne" transform="matrix(32.7267,0,0,32.7267,-1156.68,100.55)">
        <g id="Right-paranasal-sinus---bihule" serif:id="Right paranasal sinus / bihule" transform="matrix(1,0,0,1,0.791535,-0.153773)">
            <g transform="matrix(0.81283,0,0,0.81283,8.16805,1.10904)">
                <path d="M47.747,16.031C48.205,16.519 48.488,17.244 48.737,17.257C49.059,17.222 49.029,16.595 48.873,16.307C48.386,16.064 48.197,15.819 48.04,15.411C47.965,15.126 48.157,14.577 48.38,14.733C48.724,14.973 48.97,15.232 49.361,15.278C49.571,14.6 48.856,14.438 48.792,13.66C48.895,13.329 49.08,13.331 49.267,13.388C49.635,13.654 50.068,14.232 50.217,14.78C49.838,16.63 50.592,21.35 49.789,21.906C49.434,22.152 49.055,21.974 48.466,21.805C47.781,21.481 47.467,20.736 47.244,20.04C46.877,18.978 47.921,18.361 48.228,19.497C48.374,20.034 48.449,20.353 48.873,20.413C49.228,20.34 49.338,20.147 49.28,19.87C49.337,19.317 48.986,18.751 48.635,18.411C48.132,18.213 47.95,17.819 47.81,17.325C47.644,17.636 47.277,18.328 47.061,18.965C46.863,19.548 46.106,21.635 44.968,21.336C44.267,21.151 43.757,19.816 42.815,18.177C42.177,17.068 45.478,17.064 45.994,16.555C46.684,15.874 47.478,15.563 47.747,16.031Z" style="fill:rgb(120,65,66);"/>
            </g>
            <g transform="matrix(0.728775,-0.276704,0.276704,0.728775,10.2663,12.6332)">
                <path d="M45.048,9.557C45.917,10.575 46.352,13.14 45.776,14.159C45.199,15.178 43.683,13.06 42.517,12.401C41.352,11.741 41.139,11.968 40.975,11.26C40.828,10.628 41.227,11.082 41.453,10.305C41.532,10.036 41.763,8.939 43.132,9.349C43.979,9.603 44.509,8.926 45.048,9.557Z" style="fill:rgb(120,65,66);"/>
            </g>
        </g>
        <g id="Left-paranasal-sinus---bihule" serif:id="Left paranasal sinus / bihule" transform="matrix(-1,0,0,1,98.9339,-0.153773)">
            <g transform="matrix(0.81283,0,0,0.81283,8.16805,1.10904)">
                <path d="M47.747,16.031C48.205,16.519 48.488,17.244 48.737,17.257C49.059,17.222 49.029,16.595 48.873,16.307C48.386,16.064 48.197,15.819 48.04,15.411C47.965,15.126 48.157,14.577 48.38,14.733C48.724,14.973 48.97,15.232 49.361,15.278C49.571,14.6 48.856,14.438 48.792,13.66C48.895,13.329 49.08,13.331 49.267,13.388C49.635,13.654 50.068,14.232 50.217,14.78C49.838,16.63 50.592,21.35 49.789,21.906C49.434,22.152 49.055,21.974 48.466,21.805C47.781,21.481 47.467,20.736 47.244,20.04C46.877,18.978 47.921,18.361 48.228,19.497C48.374,20.034 48.449,20.353 48.873,20.413C49.228,20.34 49.338,20.147 49.28,19.87C49.337,19.317 48.986,18.751 48.635,18.411C48.132,18.213 47.95,17.819 47.81,17.325C47.644,17.636 47.277,18.328 47.061,18.965C46.863,19.548 46.106,21.635 44.968,21.336C44.267,21.151 43.757,19.816 42.815,18.177C42.177,17.068 45.478,17.064 45.994,16.555C46.684,15.874 47.478,15.563 47.747,16.031Z" style="fill:rgb(120,65,66);"/>
            </g>
            <g transform="matrix(0.728775,-0.276704,0.276704,0.728775,10.2663,12.6332)">
                <path d="M45.048,9.557C45.917,10.575 46.352,13.14 45.776,14.159C45.199,15.178 43.683,13.06 42.517,12.401C41.352,11.741 41.139,11.968 40.975,11.26C40.828,10.628 41.227,11.082 41.453,10.305C41.532,10.036 41.763,8.939 43.132,9.349C43.979,9.603 44.509,8.926 45.048,9.557Z" style="fill:rgb(120,65,66);"/>
            </g>
        </g>
    </g>
    <g transform="matrix(1,0,0,1,-1.50076,1.50077)">
        <path d="M472.981,841.035C513.307,811.883 631.355,852.336 643.672,857.833C591.566,955.203 336.147,954.134 302.29,857.833C314.607,852.336 432.654,811.883 472.981,841.035Z" style="fill:rgb(210,170,164);"/>
    </g>
    <path d="M68.67,553.621C56.189,479.865 -0.191,480.937 18.023,574.224C25.839,614.256 42.264,664.198 48.8,672.121C63.601,690.062 83.421,685.127 81.097,674.042C70.047,621.356 62.13,588.035 68.67,553.621" style="fill:rgb(210,170,164);"/>
    <g transform="matrix(-1,0,0,1,940.593,0)">
        <path d="M68.67,553.621C56.189,479.865 -0.191,480.937 18.023,574.224C25.839,614.256 42.264,664.198 48.8,672.121C63.601,690.062 83.421,685.127 81.097,674.042C70.047,621.356 62.13,588.035 68.67,553.621" style="fill:rgb(210,170,164);"/>
    </g>
</svg>
