<?xml version="1.0" encoding="UTF-8" standalone="no"?>
<!DOCTYPE svg PUBLIC "-//W3C//DTD SVG 1.1//EN" "http://www.w3.org/Graphics/SVG/1.1/DTD/svg11.dtd">
<svg width="100%" height="100%" viewBox="0 0 945 1182" version="1.1" xmlns="http://www.w3.org/2000/svg" xmlns:xlink="http://www.w3.org/1999/xlink" xml:space="preserve" xmlns:serif="http://www.serif.com/" style="fill-rule:evenodd;clip-rule:evenodd;stroke-linejoin:round;stroke-miterlimit:1.41421;">
    <path d="M64.439,494.038C63.514,481.359 62.548,468.321 61.522,454.898C42.256,203.063 243.437,8.045 469.355,8.045C469.723,8.045 470.092,8.045 470.461,8.047C470.829,8.045 471.198,8.045 471.567,8.045C697.484,8.045 898.665,203.063 879.4,454.898C878.256,469.848 877.188,484.321 876.168,498.35C898.381,453.858 958.852,463.004 935.344,592.279C923.465,657.604 930.548,698.158 892.612,736.428C882.119,747.012 865.486,743.32 854.613,727.751C842.489,802.986 822.467,864.137 781.599,927.008C741.171,997.893 708.048,1052.93 630.021,1101.1C575.037,1135.04 550.572,1157.74 473.942,1163.17L466.979,1163.17C390.349,1157.74 365.884,1135.04 310.9,1101.1C232.873,1052.93 199.75,997.893 159.322,927.008C118.865,864.769 98.837,804.216 86.677,730.017C75.829,743.656 60.329,746.478 50.366,736.428C12.43,698.158 19.513,657.604 7.634,592.279C-15.082,467.36 40.617,454.61 64.439,494.038Z" style="fill:rgb(234,208,204);"/>
    <g transform="matrix(1,0,0,1,0,-2)">
        <path d="M667.54,712.061C683.055,715.559 709.552,713.567 741.078,709.059C760.883,710.423 777.803,688.701 793.605,658.033C781.669,705.698 766.037,745.971 738.076,761.586C722.346,827.36 722.291,878.905 742.579,932.673C740.806,943.128 737.85,959.734 720.067,970.192C683.082,1037.21 624.484,1084.77 547.479,1115.77C496.829,1123.4 443.566,1126.67 380.894,1114.27C323.402,1088.73 269.765,1050.87 232.318,961.188C217.764,951.82 212.855,940.04 214.309,926.67C216.342,903.611 214.278,886.697 208.306,875.644C210.07,832.597 209.045,795.125 206.805,760.085C166.661,735.333 147.399,697.292 151.277,644.526C184.294,687.723 217.311,705.382 250.328,704.557C254.956,756.976 277.713,804.216 310.358,848.63L330.16,891.054C330.81,907.831 348.111,897.325 380.784,918.105C468.573,923.325 549.598,925.826 601.25,898.925C618.021,882.171 608.594,897.298 613.367,872.532C640.006,836.577 664.913,776.03 667.54,712.061" style="fill:rgb(245,245,245);"/>
        <clipPath id="_clip1">
            <path d="M667.54,712.061C683.055,715.559 709.552,713.567 741.078,709.059C760.883,710.423 777.803,688.701 793.605,658.033C781.669,705.698 766.037,745.971 738.076,761.586C722.346,827.36 722.291,878.905 742.579,932.673C740.806,943.128 737.85,959.734 720.067,970.192C683.082,1037.21 624.484,1084.77 547.479,1115.77C496.829,1123.4 443.566,1126.67 380.894,1114.27C323.402,1088.73 269.765,1050.87 232.318,961.188C217.764,951.82 212.855,940.04 214.309,926.67C216.342,903.611 214.278,886.697 208.306,875.644C210.07,832.597 209.045,795.125 206.805,760.085C166.661,735.333 147.399,697.292 151.277,644.526C184.294,687.723 217.311,705.382 250.328,704.557C254.956,756.976 277.713,804.216 310.358,848.63L330.16,891.054C330.81,907.831 348.111,897.325 380.784,918.105C468.573,923.325 549.598,925.826 601.25,898.925C618.021,882.171 608.594,897.298 613.367,872.532C640.006,836.577 664.913,776.03 667.54,712.061"/>
        </clipPath>
        <g clip-path="url(#_clip1)">
            <g transform="matrix(1.01392,0,0,1.15332,-8.61148,-129.448)">
                <path d="M310.406,885.267C312.358,899.175 316.652,904.575 323.289,894.052C326.236,905.001 331.665,911.604 340.858,911.621C342.606,920.993 349.197,922.133 356.202,914.586C367.439,940.802 375.027,944.662 383.141,922.69C390.453,946.506 402.338,942.718 415.585,918.09C426.375,937.583 434.31,942.387 442.289,917.013C450.725,936.937 461.545,940.745 470.283,916.201C477.082,930.512 483.185,942.135 497.807,922.162C508.1,937.83 517.772,940.462 526.503,923.333C538.892,943.701 549.525,940.172 557.541,916.428C565.088,933.207 573.147,934.895 577.57,914.898C593.366,923.452 599.918,926.005 598.536,903.422C607.515,916.667 614.152,913.718 618.447,890.538L616.69,875.312C608.238,870.756 601.522,886.197 596.193,895.697C585.914,883.694 581.095,886.243 577.687,902.63C570.177,892.651 563.178,892.128 556.604,905.605C547.812,895.336 530.582,891.374 527.557,910.196C523.757,894.1 499.114,893.195 498.627,908.449C494.074,900.151 485.828,889.369 470.048,905.02C459.121,892.134 446.923,896.905 440.65,907.542C434.921,891.136 423.774,890.514 414.531,904.698C406.417,890.727 391.181,890.336 383.024,902.498C378.848,884.312 363.75,889.199 357.256,901.733C354.421,892.197 351.276,889.545 343.435,896.235C343.409,880.282 335.774,871.176 323.875,881.679C322.965,871.896 321.331,854.953 310.991,857.743L310.406,885.267" style="fill:rgb(234,234,234);"/>
            </g>
            <g transform="matrix(1,0,0,1,0,2)">
                <path d="M226.762,725.373C220.835,724.282 214.845,722.953 208.82,721.377C135.169,702.114 127.235,613.709 144.765,575.314C168.709,522.873 406.118,822.289 379.788,872.111C360.066,909.429 324.119,894.659 279.385,831.299C256.343,798.664 237.834,760.395 226.762,725.373Z" style="fill:rgb(194,194,194);"/>
            </g>
            <g transform="matrix(1,0,0,1,0,2)">
                <path d="M573.693,863.751C554.827,690.725 799.395,541.323 803.206,664.17C804.441,703.981 753.628,748.687 687.877,742.646C676.176,774.058 656.367,825.233 641.278,854.813C601.689,932.423 578.407,906.98 573.693,863.751Z" style="fill:rgb(194,194,194);"/>
            </g>
        </g>
    </g>
    <path d="M119.761,263.332C310.349,-79.963 691.298,1.168 829.623,269.335C844.194,313.325 845.568,363.915 828.122,423.914C827.099,506.491 826.321,590.461 813.115,604.006C815.803,619.234 814.934,634.298 793.605,653.531C773.49,728.469 692.896,714.775 665.711,712.896C645.114,711.471 625.43,750.38 621.753,762.223C617.084,777.266 626.058,823.233 607.46,825.186C586.467,827.391 312.048,856.158 311.907,805.326C311.65,712.658 267.222,708.01 247.636,705.336C195.899,698.274 162.749,659.248 151.277,644.526C131.04,630.979 118.458,614.562 130.266,588.998C121.262,542.012 112.257,496.358 103.253,461.433C95.186,387.645 99.813,321.111 119.761,263.332" style="fill:rgb(245,245,245);"/>
    <clipPath id="_clip2">
        <path d="M119.761,263.332C310.349,-79.963 691.298,1.168 829.623,269.335C844.194,313.325 845.568,363.915 828.122,423.914C827.099,506.491 826.321,590.461 813.115,604.006C815.803,619.234 814.934,634.298 793.605,653.531C773.49,728.469 692.896,714.775 665.711,712.896C645.114,711.471 625.43,750.38 621.753,762.223C617.084,777.266 626.058,823.233 607.46,825.186C586.467,827.391 312.048,856.158 311.907,805.326C311.65,712.658 267.222,708.01 247.636,705.336C195.899,698.274 162.749,659.248 151.277,644.526C131.04,630.979 118.458,614.562 130.266,588.998C121.262,542.012 112.257,496.358 103.253,461.433C95.186,387.645 99.813,321.111 119.761,263.332"/>
    </clipPath>
    <g clip-path="url(#_clip2)">
        <path d="M820.619,599.503C808.905,607.044 788.889,605.498 789.102,587.497C789.806,528.189 784.405,484.202 777.096,444.924C772.31,427.821 781.883,419.506 765.09,398.401C788.74,254.915 901.946,126.257 829.623,495.95C829.007,553.509 820.619,599.503 820.619,599.503Z" style="fill:rgb(234,234,234);"/>
        <g transform="matrix(-1,0,0,1,947.883,-7)">
            <path d="M820.619,599.503C808.905,607.044 789.019,590.452 786.101,566.486C779.739,514.243 780.952,501.161 778.597,456.931C773.81,439.827 769.877,424.008 753.084,402.903C815.982,234.273 877.011,137.308 840.128,515.46C839.513,573.019 820.619,599.503 820.619,599.503Z" style="fill:rgb(234,234,234);"/>
        </g>
        <g transform="matrix(1.02319,0,0,1,-7.19255,-15.7274)">
            <path d="M314.505,809.721C310.566,814.888 309.659,829.15 310.406,848.373C313.839,853.273 320.95,852.063 322.821,846.03C327.595,865.051 331.388,876.492 337.813,868.987C345.921,883.32 353.171,886.363 355.265,875.429C367.682,898.73 384.772,891.307 391.574,869.573C394.487,896.95 409.636,896.838 426.243,881.637C441.651,895.73 458.755,895.364 472.625,883.159C482.419,891.561 501.438,894.971 516.547,883.042C526.477,899.253 546.792,906.77 552.856,879.411C567.691,895.804 576.674,885.625 582.138,869.221C590.851,879.358 597.236,881.158 603.103,864.653C606.812,868.531 613.176,872.405 618.447,856.572C617.29,843.388 616.351,830.095 612.005,818.506C605.027,820.492 602.936,826.552 603.455,834.786C594.872,819.73 587.598,818.998 583.075,836.426C571.612,807.203 556.843,807.856 547,839.588C542.372,824.112 529.369,817.968 514.439,836.894C492.66,815.154 479.842,823.965 471.805,847.201C458.979,829.252 438.458,809.918 426.36,839.705C420.964,828.917 409.624,821.32 391.105,836.777C383.532,826.733 370.32,816.894 357.842,835.606C356.309,827.072 349.605,820.168 339.219,831.975C336.896,824.996 331.039,821.189 324.344,826.704C320.506,819.48 318.655,810.074 314.505,809.721" style="fill:rgb(234,234,234);"/>
        </g>
        <path d="M202.303,461.433C222.09,423.648 252.051,403.667 287.847,393.898C358.636,384.999 405.657,407.295 412.41,482.444C399.079,571.268 310.034,601.411 232.318,567.987C200.817,519.571 193.783,485.836 202.303,461.433" style="fill:rgb(152,152,152);"/>
        <g transform="matrix(-1,0,0,1,950.05,6)">
            <path d="M202.303,461.433C222.09,423.648 252.051,403.667 287.847,393.898C358.636,384.999 405.657,407.295 412.41,482.444C399.079,571.268 310.034,601.411 232.318,567.987C200.817,519.571 193.783,485.836 202.303,461.433" style="fill:rgb(152,152,152);"/>
        </g>
        <path d="M472.441,682.045C437.368,712.854 412.965,702.763 401.905,641.525C422.498,545.555 446.845,498.373 475.442,506.456C510.577,516.963 529.853,565.984 536.974,644.526C534.651,706.068 510.783,712.552 472.441,682.045" style="fill:rgb(152,152,152);"/>
        <clipPath id="_clip3">
            <path d="M472.441,682.045C437.368,712.854 412.965,702.763 401.905,641.525C422.498,545.555 446.845,498.373 475.442,506.456C510.577,516.963 529.853,565.984 536.974,644.526C534.651,706.068 510.783,712.552 472.441,682.045"/>
        </clipPath>
        <g clip-path="url(#_clip3)">
            <path d="M442.511,701.123C472.962,684.317 473.719,526.813 465.387,449.485L478.255,449.485C472.757,525.677 473.939,675.962 499.701,699.693C480.638,726.574 442.511,701.123 442.511,701.123Z" style="fill:rgb(194,194,194);"/>
        </g>
    </g>
    <g transform="matrix(1,0,0,1.15332,0,-144.316)">
        <path d="M310.406,885.267C311.637,894.041 313.801,899.429 316.897,899.569C318.709,899.651 320.839,897.936 323.289,894.052C326.236,905.001 331.665,911.604 340.858,911.621C342.606,920.993 349.197,922.133 356.202,914.586C367.439,940.802 375.027,944.662 383.141,922.69C390.453,946.506 402.338,942.718 415.585,918.09C426.375,937.583 434.31,942.387 442.289,917.013C450.725,936.937 461.545,940.745 470.283,916.201C477.082,930.512 483.185,942.135 497.807,922.162C508.1,937.83 517.772,940.462 526.503,923.333C538.892,943.701 549.525,940.172 557.541,916.428C565.088,933.207 573.147,934.895 577.57,914.898C593.366,923.452 599.918,926.005 598.536,903.422C607.515,916.667 614.152,913.718 618.447,890.538L616.69,875.312C608.238,870.756 601.522,886.197 596.193,895.697C585.914,883.694 581.095,886.243 577.687,902.63C570.177,892.651 563.178,892.128 556.604,905.605C547.812,895.336 530.582,891.374 527.557,910.196C523.757,894.1 499.114,893.195 498.627,908.449C494.074,900.151 485.828,889.369 470.048,905.02C459.121,892.134 446.923,896.905 440.65,907.542C434.921,891.136 423.774,890.514 414.531,904.698C406.417,890.727 391.181,890.336 383.024,902.498C378.848,884.312 363.75,889.199 357.256,901.733C354.421,892.197 351.276,889.545 343.435,896.235C343.409,880.282 335.774,871.176 323.875,881.679C322.965,871.896 321.331,854.953 310.991,857.743L310.406,885.267" style="fill:white;"/>
    </g>
    <path d="M314.505,809.721C310.566,814.888 309.659,829.15 310.406,848.373C313.839,853.273 320.95,852.063 322.821,846.03C327.595,865.051 331.388,876.492 337.813,868.987C345.921,883.32 353.171,886.363 355.265,875.429C367.682,898.73 384.772,891.307 391.574,869.573C394.487,896.95 409.636,896.838 426.243,881.637C441.651,895.73 458.755,895.364 472.625,883.159C482.419,891.561 501.438,894.971 516.547,883.042C526.477,899.253 546.792,906.77 552.856,879.411C567.691,895.804 576.674,885.625 582.138,869.221C590.851,879.358 597.236,881.158 603.103,864.653C606.812,868.531 613.176,872.405 618.447,856.572C617.29,843.388 616.351,830.095 612.005,818.506C605.027,820.492 602.936,826.552 603.455,834.786C594.872,819.73 587.598,818.998 583.075,836.426C571.612,807.203 556.843,807.856 547,839.588C542.372,824.112 529.369,817.968 514.439,836.894C492.66,815.154 479.842,823.965 471.805,847.201C458.979,829.252 438.458,809.918 426.36,839.705C420.964,828.917 409.624,821.32 391.105,836.777C383.532,826.733 370.32,816.894 357.842,835.606C356.309,827.072 349.605,820.168 339.219,831.975C336.896,824.996 331.039,821.189 324.344,826.704C320.506,819.48 318.655,810.074 314.505,809.721" style="fill:white;"/>
</svg>
