<?xml version="1.0" encoding="UTF-8" standalone="no"?>
<!DOCTYPE svg PUBLIC "-//W3C//DTD SVG 1.1//EN" "http://www.w3.org/Graphics/SVG/1.1/DTD/svg11.dtd">
<svg width="100%" height="100%" viewBox="0 0 100 200" version="1.1" xmlns="http://www.w3.org/2000/svg" xmlns:xlink="http://www.w3.org/1999/xlink" xml:space="preserve" xmlns:serif="http://www.serif.com/" style="fill-rule:evenodd;clip-rule:evenodd;stroke-linejoin:round;stroke-miterlimit:1.41421;">
    <path id="Body" d="M41.938,22.94L57.238,22.94C56.75,23.509 56.379,24.158 56.149,24.878C54.861,28.917 58.512,33.693 64.296,35.537C65.652,35.97 68.313,36.307 68.313,36.307C72.266,36.903 75.309,40.49 75.309,44.82C75.309,45.266 75.277,45.705 75.214,46.132L75.185,46.14C75.266,46.935 75.309,47.765 75.309,48.62C75.309,49.643 75.248,50.631 75.134,51.562C76.194,54.263 77.016,58.406 77.298,63.086C77.524,66.836 77.365,70.296 76.919,72.983C78.151,75.375 79.367,78.023 80.506,80.843C82.368,85.452 83.765,89.872 84.628,93.66C84.792,94.264 84.98,94.884 85.192,95.514C85.623,96.795 86.11,97.985 86.617,99.031C87.287,99.263 87.904,99.608 88.446,100.043C89.136,100.444 89.906,101.109 90.589,101.94C90.878,102.292 91.128,102.646 91.336,102.989L91.341,102.989C91.955,103.952 92.772,104.896 93.763,105.737C94.294,106.187 95.896,107.33 95.963,107.672C95.971,107.717 96.028,107.963 96.028,108.045C96.028,108.681 95.039,109.197 93.82,109.197C92.601,109.197 90.953,107.725 90.953,107.725C91.172,108.562 91.121,109.554 91.494,110.461C92.582,113.099 93.607,116.934 93.624,117.019C93.782,117.835 93.396,118.598 92.761,118.721C92.356,118.8 91.946,118.599 91.663,118.23C91.137,117.613 90.353,116.115 89.533,114.166C90.121,115.723 90.552,117.096 90.777,118.097C90.961,118.683 91.18,119.711 91.192,119.771C91.35,120.587 90.917,121.359 90.225,121.494C89.609,121.613 88.994,121.188 88.754,120.517C88.146,119.564 87.309,117.633 86.506,115.286C87.1,117.702 87.314,119.477 87.006,119.773C86.859,120.124 86.592,120.38 86.252,120.446C86.025,120.49 85.795,120.443 85.589,120.326C85.589,120.326 84.914,119.53 84.852,119.268C84.525,118.438 84.168,117.172 83.836,115.654C83.853,116.065 83.853,116.424 83.835,116.718C83.904,117.604 83.593,118.342 83.069,118.444C82.989,118.46 82.79,118.466 82.77,118.47C82.677,118.489 82.561,118.415 82.429,118.26C82.079,117.994 81.776,117.478 81.637,116.848C81.142,115.743 79.81,111.525 79.735,111.247C78.755,107.641 78.29,104.563 78.576,103.801C78.57,103.64 78.559,103.478 78.545,103.314C78.434,102.071 78.104,100.949 77.642,100.08C75.086,96.44 72.295,91.189 69.853,85.147C68.333,81.383 66.313,74.205 66.269,74.076C65.757,72.598 65.598,71.74 65.489,71.215C65.439,70.971 65.884,81.269 66.812,84.288L66.803,84.288C68.668,88.841 70.023,95.95 70.327,103.971C70.644,112.358 69.74,119.839 68.09,124.488C67.999,124.895 67.904,125.304 67.804,125.715C67.03,128.9 66.076,131.871 65.022,134.497C65.362,135.975 65.549,137.593 65.549,139.288C65.549,141.599 65.201,143.766 64.594,145.632C65.366,149.165 65.739,153.548 65.561,158.271C65.375,163.18 64.624,167.662 63.52,171.163L62.953,174.583C62.158,176.774 61.6,179.895 61.481,183.356C61.461,183.954 61.454,184.543 61.46,185.118C62.082,185.578 62.668,186.158 63.178,186.844C63.575,187.38 64.819,189.11 65.159,189.438C65.433,189.703 66.209,190.415 66.338,190.511C69.828,193.099 71.533,196.722 70.142,198.597C69.978,198.818 69.779,199.005 69.549,199.158C68.201,200.623 63.818,199.411 59.454,196.442C58.891,195.644 57.965,194.71 56.817,193.837C56.214,193.378 53.79,192.052 53.335,191.48C52.486,190.777 51.932,189.629 51.932,188.333C51.932,187.997 52.06,186.945 52.06,186.733C52.06,186.431 52.027,185.16 52.022,185.043C52.096,184.584 52.156,184.072 52.198,183.522C52.842,181.57 53.229,179.074 53.229,176.356C53.229,174.633 53.074,173 52.796,171.538C51.803,167.803 51.298,162.889 51.5,157.54C51.62,154.382 51.973,151.4 52.504,148.743C52.228,147.16 51.972,145.452 51.739,143.635C51.506,142.5 51.362,141.29 51.321,140.03C50.699,134.068 50.307,127.187 50.229,119.862C50.192,116.428 50.227,113.092 50.324,109.902C50.252,109.328 50.147,107.311 49.706,106.61L49.588,106.598L49.471,106.61C49.03,107.311 48.925,109.328 48.853,109.902C48.95,113.092 48.985,116.428 48.948,119.862C48.87,127.187 48.478,134.068 47.856,140.03C47.815,141.29 47.671,142.5 47.438,143.635C47.204,145.452 46.948,147.16 46.673,148.743C47.204,151.4 47.557,154.382 47.677,157.54C47.879,162.889 47.373,167.803 46.381,171.538C46.103,173 45.948,174.633 45.948,176.356C45.948,179.074 46.335,181.57 46.979,183.522C47.021,184.072 47.081,184.584 47.155,185.043C47.15,185.16 47.117,186.431 47.117,186.733C47.117,186.945 47.245,187.997 47.245,188.333C47.245,189.629 46.691,190.777 45.841,191.48C45.387,192.052 42.963,193.378 42.36,193.837C41.212,194.71 40.285,195.644 39.723,196.442C35.359,199.411 30.976,200.623 29.628,199.158C29.398,199.005 29.198,198.818 29.035,198.597C27.644,196.722 29.349,193.099 32.839,190.511C32.968,190.415 33.744,189.703 34.018,189.438C34.358,189.11 35.602,187.38 35.999,186.844C36.509,186.158 37.095,185.578 37.717,185.118C37.723,184.543 37.716,183.954 37.696,183.356C37.577,179.895 37.019,176.774 36.224,174.583L35.657,171.163C34.553,167.662 33.801,163.18 33.616,158.271C33.437,153.548 33.81,149.165 34.583,145.632C33.976,143.766 33.628,141.599 33.628,139.288C33.628,137.593 33.815,135.975 34.155,134.497C33.101,131.871 32.147,128.9 31.373,125.715C31.273,125.304 31.178,124.895 31.086,124.488C29.437,119.839 28.533,112.358 28.85,103.971C29.154,95.95 30.509,88.841 32.373,84.288L32.365,84.288C33.293,81.269 33.738,70.971 33.688,71.215C33.579,71.74 33.42,72.598 32.908,74.076C32.864,74.205 30.844,81.383 29.323,85.147C26.882,91.189 24.091,96.44 21.534,100.08C21.073,100.949 20.743,102.071 20.632,103.314C20.617,103.478 20.607,103.64 20.6,103.801C20.887,104.563 20.422,107.641 19.442,111.247C19.367,111.525 18.035,115.743 17.54,116.848C17.401,117.478 17.098,117.994 16.748,118.26C16.616,118.415 16.5,118.489 16.407,118.47C16.386,118.466 16.188,118.46 16.108,118.444C15.583,118.342 15.272,117.604 15.342,116.718C15.324,116.424 15.324,116.065 15.341,115.654C15.009,117.172 14.652,118.438 14.325,119.268C14.263,119.53 13.588,120.326 13.588,120.326C13.381,120.443 13.152,120.49 12.925,120.446C12.585,120.38 12.318,120.124 12.171,119.773C11.863,119.477 12.076,117.702 12.67,115.286C11.867,117.633 11.031,119.564 10.422,120.517C10.183,121.188 9.568,121.613 8.952,121.494C8.26,121.359 7.826,120.587 7.985,119.771C7.996,119.711 8.215,118.683 8.4,118.097C8.625,117.096 9.056,115.723 9.644,114.166C8.823,116.115 8.04,117.613 7.514,118.23C7.23,118.599 6.821,118.8 6.416,118.721C5.781,118.598 5.394,117.835 5.553,117.019C5.569,116.934 6.595,113.099 7.682,110.461C8.056,109.554 8.005,108.562 8.224,107.725C8.224,107.725 6.576,109.197 5.357,109.197C4.138,109.197 3.149,108.681 3.149,108.045C3.149,107.963 3.205,107.717 3.214,107.672C3.28,107.33 4.883,106.187 5.414,105.737C6.405,104.896 7.222,103.952 7.836,102.989L7.841,102.989C8.049,102.646 8.299,102.292 8.588,101.94C9.271,101.109 10.041,100.444 10.731,100.043C11.272,99.608 11.89,99.263 12.56,99.031C13.067,97.985 13.554,96.795 13.985,95.514C14.197,94.884 14.385,94.264 14.549,93.66C15.412,89.872 16.808,85.452 18.671,80.843C19.81,78.023 21.026,75.375 22.258,72.983C21.812,70.296 21.653,66.836 21.879,63.086C22.161,58.406 22.983,54.263 24.043,51.562C23.929,50.631 23.868,49.643 23.868,48.62C23.868,47.765 23.911,46.935 23.991,46.14L23.963,46.132C23.9,45.705 23.868,45.266 23.868,44.82C23.868,40.49 26.911,36.903 30.864,36.307C30.864,36.307 33.524,35.97 34.881,35.537C40.665,33.693 44.316,28.917 43.028,24.878C42.798,24.158 42.427,23.509 41.938,22.94Z" style="fill:rgb(234,208,204);"/>
    <path id="Head" d="M39.342,11.595C39.316,11.289 39.302,10.98 39.302,10.667C39.302,4.869 44.01,0.161 49.808,0.161C55.607,0.161 60.314,4.869 60.314,10.667C60.314,11.02 60.297,11.368 60.263,11.712C61.165,12.332 61.415,14.131 60.798,15.993C60.419,17.135 59.793,18.063 59.113,18.601C58.87,19.807 58.456,21.053 57.862,22.28C56.642,24.805 54.891,26.786 53.036,27.96C52.712,28.267 52.347,28.522 51.941,28.718C51.24,29.057 50.474,29.192 49.68,29.144C48.886,29.192 48.121,29.057 47.419,28.718C47.014,28.522 46.648,28.267 46.324,27.96C44.47,26.786 42.719,24.805 41.498,22.28C40.899,21.041 40.482,19.784 40.24,18.566C39.577,18.024 38.97,17.111 38.599,15.993C37.937,13.995 38.273,12.069 39.342,11.595Z" style="fill:rgb(232,204,200);"/>
    <g id="Skeleton">
        <g transform="matrix(1,0,0,0.9666,0,0.0270271)">
            <path d="M49.823,0.83C55.31,0.837 59.762,5.293 59.762,10.782C59.762,11.382 59.709,11.97 59.607,12.542C59.355,15.1 58.551,18.371 57.074,19.262C57.032,19.271 56.833,23.076 56.833,23.076C56.357,26.27 53.25,29.015 49.796,29.015L49.775,29.015L49.775,28.994C46.349,28.958 43.28,26.229 42.807,23.056C42.807,23.056 42.608,19.251 42.566,19.241C41.239,19.051 40.322,15.336 40.033,12.521C39.931,11.95 39.878,11.362 39.878,10.761C39.878,5.271 44.334,0.813 49.823,0.809L49.823,0.83ZM49.816,22.846C48.513,22.856 47.122,22.44 45.775,22.291L45.766,21.097C45.721,20.463 45.049,20.007 44.031,19.65C44.302,20.935 44.742,22.084 45.727,22.659C45.699,24.469 48.049,24.981 49.864,25.057L49.864,25.073C51.666,24.984 53.94,24.46 53.913,22.679C54.898,22.104 55.337,20.955 55.609,19.67C54.591,20.028 53.919,20.483 53.874,21.118L53.865,22.312C52.515,22.461 51.122,22.878 49.816,22.866L49.816,22.846ZM49.816,16.084C49.771,15.902 49.672,15.835 49.496,15.961C49.202,16.172 48.185,18.334 48.185,18.673C48.185,19.012 48.479,19.287 48.84,19.287C49.202,19.287 49.408,19 49.496,18.673C49.569,18.399 49.744,17.612 49.816,16.946L49.816,16.899L49.819,16.923L49.823,16.879L49.823,16.967C49.896,17.633 50.071,18.419 50.144,18.693C50.232,19.021 50.438,19.308 50.799,19.308C51.161,19.308 51.455,19.032 51.455,18.693C51.455,18.354 50.438,16.193 50.144,15.982C49.968,15.855 49.869,15.923 49.823,16.104L49.823,16.114L49.822,16.109C49.82,16.117 49.818,16.126 49.816,16.135L49.816,16.084ZM53.032,11.361C54.332,11.361 55.505,12.109 55.919,13.389C56.193,14.234 56.098,15.373 55.474,15.867C54.948,16.282 53.989,16.131 53.155,16.031C51.864,15.876 51.209,14.365 51.209,13.02C51.209,11.675 51.732,11.361 53.032,11.361ZM46.608,11.341C45.308,11.341 44.135,12.089 43.72,13.369C43.447,14.213 43.542,15.353 44.166,15.846C44.691,16.261 45.651,16.111 46.485,16.01C47.776,15.855 48.431,14.345 48.431,13C48.431,11.655 47.908,11.341 46.608,11.341Z" style="fill:white;"/>
        </g>
        <g transform="matrix(1,0,0,1.33908,0,-9.0531)">
            <path d="M45.512,22.105L45.898,21.971L46.2,22.324L46.586,22.122L46.888,22.122L47.139,22.324L47.441,22.055L47.844,22.474L48.331,22.34L48.716,22.659L49.27,22.24L49.639,22.374L49.84,22.592L50.042,22.24L50.579,22.273L50.746,22.659L51.082,22.273L51.736,22.173L52.005,22.324L52.089,21.938L52.542,22.122L52.827,22.374L52.961,21.954L53.263,21.988L53.414,22.357L53.599,21.954L53.867,21.971L54.035,22.324L53.901,22.592L53.968,22.961L53.615,23.162L53.364,23.028L53.112,23.229L52.827,23.129L52.609,23.347L52.24,23.431L51.921,23.263L51.485,23.682L51.199,23.649L51.099,23.431L50.847,23.464L50.696,23.75L50.193,23.733L50.008,23.364L49.706,23.364L49.371,23.682L48.951,23.699L48.733,23.397L48.532,23.33L48.515,23.531L47.961,23.582L47.878,23.229L47.626,23.548L47.257,23.498L47.022,23.179L46.686,23.515L46.284,23.347L46.149,23.045L45.965,23.246L45.512,23.078L45.579,22.642L45.512,22.105" style="fill:white;"/>
        </g>
        <g transform="matrix(1,0,0,1.16954,0.16384,-5.12895)">
            <path d="M45.495,23.263L45.26,23.783L45.546,24.018L45.847,24.253L46.015,24.186L46.149,24.622L46.552,24.622L46.837,25.109L47.223,25.159L47.643,25.562L48.045,25.243L48.582,25.444L48.935,25.192L49.304,25.461L49.589,25.411L50.042,25.545L50.428,25.377L50.679,25.293L50.931,25.511L51.116,25.36L51.384,25.075L51.854,25.461L52.089,25.327L52.206,24.874L52.424,24.79L52.625,25.041L52.81,24.79L52.81,24.505L53.062,24.404L53.33,24.354L53.33,24.018L53.548,24.169L53.733,24.102L53.766,23.833L53.968,23.682L54.102,23.146L53.682,23.297L53.632,23.431L53.431,23.297L53.162,23.431L53.179,23.599L52.995,23.414L52.86,23.531L52.743,23.766L52.609,23.531L52.324,23.599L52.156,23.934L51.938,23.75L51.602,23.833L51.384,24.152L51.132,23.85L50.663,23.968L50.579,24.203L50.176,24.018L49.924,24.068L49.723,24.421L49.555,24.052L49.035,24.018L48.968,24.404L48.599,23.817L48.263,23.8L48.163,24.27L47.71,23.833L47.357,23.833L47.341,24.169L47.022,23.817L46.72,23.817L46.602,24.035L46.519,23.666L46.233,23.599L46.116,23.766L46.015,23.414L45.764,23.498L45.495,23.263" style="fill:white;"/>
        </g>
        <path d="M71.005,39.825C71.429,40.014 71.627,40.458 71.619,41.136L71.292,43.266L72.439,66.162L73.422,70.176C73.847,70.523 74.073,70.879 74.118,71.241C74.188,71.482 74.185,71.726 73.995,71.979L74.282,72.839C74.204,73.207 74.026,73.443 73.708,73.494L73.997,74.395L74.12,75.296L75.226,77.426L77.356,83.857L78.749,86.56L81.739,94.548L83.336,97.538L83.377,97.988L84.688,99.79L84.401,100.405L84.893,100.814C85.426,101.054 85.875,101.521 86.244,102.207L89.275,103.19L90.504,104.173L92.388,105.73L93.576,106.59L94.354,106.958C94.408,107.209 94.345,107.388 94.027,107.409L91.733,106.467L89.931,104.992L87.637,104.296L87.76,105.033L89.193,108.064L90.299,110.235L90.258,110.563L91.2,112.406L91.405,113.471L92.306,115.478L92.511,117.035C92.476,117.312 92.39,117.467 92.143,117.239L90.791,113.922L89.685,111.013L89.111,110.686L89.071,109.662L86.367,105.853L86.08,106.344L87.391,111.874L87.678,112.201L87.596,112.652L88.62,115.56L89.726,118.837C89.747,119.051 89.691,119.21 89.521,119.287L87.801,115.806L86.818,113.061L86.449,112.652L86.449,112.201L84.975,107.491L84.524,107.327L84.155,107.819L84.975,112.16L85.015,113.471L85.384,113.963L85.179,114.454L85.466,116.297L85.917,118.427C85.894,118.777 85.752,118.851 85.466,118.591L84.442,114.618L84.196,114.167L84.319,113.471L83.5,109.744L82.845,107.573L82.23,108.433L82.476,112.939L82.845,113.348L82.517,114.004L82.722,115.765L82.558,116.133L82.722,116.625C82.774,116.962 82.648,117.214 82.394,117.403C82.101,117.109 81.925,116.785 81.903,116.42L82.066,116.093L81.78,113.881L81.616,113.389L81.821,112.857L81.37,107.982C80.938,108.045 80.659,107.912 80.51,107.614L80.633,105.853C80.237,105.64 79.957,105.319 79.773,104.91C80.074,103.77 80.59,102.684 81.247,101.634L79.691,102.74C79.388,102.678 79.138,102.518 78.994,102.166L79.281,101.634L78.585,99.79L78.257,97.865L71.744,80.375L69.574,76.32L69.451,74.518C69.055,74.333 68.876,73.953 68.877,73.412C68.996,72.84 69.243,72.375 69.574,71.979L70.393,69.316L69.041,42.528L68.631,42.324L68.427,43.02L67.034,43.839C66.609,46.105 65.881,48.359 64.74,50.598L64.863,51.867C64.816,52.669 64.609,53.28 64.249,53.71L64.945,54.775C64.995,55.683 64.882,56.404 64.576,56.905L64.863,58.421C64.819,59.168 64.613,59.77 64.29,60.264C64.591,60.44 64.817,60.705 64.945,61.083C65.069,61.611 65.044,62.17 64.863,62.763C64.783,63.316 64.604,63.829 64.167,64.237L64.576,64.647L65.109,65.835C65.097,66.731 64.778,67.571 64.249,68.374L63.78,68.971L63.798,69.767C63.654,70.762 63.152,71.357 62.528,71.815C62.068,72.138 61.523,72.332 60.726,72.142C60.045,71.824 59.544,71.412 59.211,70.914L50.814,56.619L50.814,68.169L51.592,68.046C51.879,68.142 51.948,68.382 51.838,68.743C51.668,69.064 51.269,69.298 50.732,69.48L50.855,71.528L52.043,71.323C52.324,71.449 52.398,71.724 52.329,72.101C51.904,72.591 51.408,72.822 50.855,72.839L51.019,75.542L52.411,75.296C52.712,75.597 52.795,75.854 52.698,76.075C52.23,76.676 51.704,76.95 51.142,77.017L50.896,78.082L51.264,79.925L52.288,79.679C52.72,79.637 52.891,79.83 52.944,80.13C52.512,80.774 52.046,81.054 51.551,81.031L51.264,83.161L52.657,82.915C52.949,82.927 53.059,83.153 52.903,83.693C52.453,84.048 51.945,84.311 51.346,84.43L51.387,85.7L52.493,85.618C52.698,85.774 52.729,86.011 52.616,86.315C52.413,86.654 52.028,86.892 51.428,87.011L51.715,87.748L53.271,87.502L54.664,86.028C57.312,82.711 60.696,82.759 64.74,85.823C67.049,88.173 65.286,92.354 62.201,94.507L62.324,96.514L61.996,97.005L62.733,97.497L63.757,97.538L64.74,96.637C65.511,96.657 66.194,96.89 66.788,97.333C67.292,97.858 67.706,98.422 67.771,99.135C67.798,99.842 67.381,100.437 66.911,101.019L66.665,103.313L65.969,104.132L62.078,127.234L62.037,131.78C62.83,132.846 63.559,133.974 64.126,135.262C64.379,135.945 64.462,136.774 64.454,137.678L63.716,139.972C63.367,140.633 62.984,141.227 62.406,141.447C62.614,141.497 62.843,141.708 63.102,142.143L63.102,143.454L62.406,144.56C62.791,144.709 63.043,145.134 63.184,145.789C63.3,146.268 63.224,146.786 62.938,147.345L59.62,180.482C59.978,181.505 60.035,182.571 59.825,183.677C59.785,184.145 59.645,184.567 59.415,184.946L69,194.285C69.152,194.538 69.134,194.707 69,194.818L68.386,194.572L69.574,195.965C69.635,196.183 69.568,196.349 69.246,196.415L67.444,195.104L68.345,196.661L68.836,197.89C68.725,198.154 68.533,198.195 68.263,198.013L66.379,196.169L65.682,195.35L66.174,196.784L67.403,198.381C67.439,198.727 67.355,198.998 66.829,198.996L65.6,198.299L64.495,196.497L62.406,194.736L63.43,196.538L63.839,197.89C63.694,198.216 63.359,198.227 62.938,198.094L61.832,197.111L60.153,194.736L58.146,193.425L57.531,192.155L55.565,191.254L54.009,190.558L53.394,188.797L54.664,185.765C54.39,185.804 54.132,185.635 53.886,185.315C53.718,184.753 53.696,184.219 53.845,183.717L55.279,178.106L56.343,149.024L54.459,145.256L53.476,144.314C53.301,143.669 53.303,143.026 53.64,142.389L54.418,141.733C53.915,141.666 53.456,141.333 53.026,140.832C52.585,139.542 52.225,137.899 52.166,134.934C52.391,134.468 52.795,134.284 53.312,134.279L55.934,131.248L57.695,126.128L60.399,116.052L61.955,105.566L61.709,103.313L62.365,101.224L62.037,99.79L60.071,100.241L59.866,100.896L58.105,102.125L58.351,103.477C57.965,104.461 57.322,105.302 56.303,105.934C55.186,106.745 54.081,106.896 52.985,106.467L49.689,103.967L46.394,106.467C45.298,106.896 44.192,106.745 43.076,105.934C42.057,105.302 41.414,104.461 41.028,103.477L41.274,102.125L39.512,100.896L39.308,100.241L37.342,99.79L37.014,101.224L37.669,103.313L37.424,105.566L38.98,116.052L41.683,126.128L43.445,131.248L46.066,134.279C46.583,134.284 46.987,134.468 47.213,134.934C47.154,137.899 46.793,139.542 46.353,140.832C45.923,141.333 45.464,141.666 44.96,141.733L45.738,142.389C46.076,143.026 46.077,143.669 45.902,144.314L44.919,145.256L43.035,149.024L44.1,178.106L45.534,183.717C45.683,184.219 45.661,184.753 45.493,185.315C45.247,185.635 44.989,185.804 44.714,185.765L45.984,188.797L45.37,190.558L43.813,191.254L41.847,192.155L41.233,193.425L39.226,194.736L37.546,197.111L36.44,198.094C36.019,198.227 35.685,198.216 35.539,197.89L35.949,196.538L36.973,194.736L34.884,196.497L33.778,198.299L32.549,198.996C32.024,198.998 31.939,198.727 31.976,198.381L33.205,196.784L33.696,195.35L33,196.169L31.116,198.013C30.845,198.195 30.654,198.154 30.542,197.89L31.034,196.661L31.935,195.104L30.133,196.415C29.811,196.349 29.743,196.183 29.805,195.965L30.993,194.572L30.378,194.818C30.244,194.707 30.227,194.538 30.378,194.285L39.963,184.946C39.733,184.567 39.594,184.145 39.553,183.677C39.344,182.571 39.4,181.505 39.758,180.482L36.44,147.345C36.154,146.786 36.078,146.268 36.195,145.789C36.336,145.134 36.587,144.709 36.973,144.56L36.277,143.454L36.277,142.143C36.535,141.708 36.765,141.497 36.973,141.447C36.395,141.227 36.011,140.633 35.662,139.972L34.925,137.678C34.917,136.774 34.999,135.945 35.253,135.262C35.819,133.974 36.549,132.846 37.342,131.78L37.301,127.234L33.409,104.132L32.713,103.313L32.467,101.019C31.997,100.437 31.58,99.842 31.607,99.135C31.672,98.422 32.086,97.858 32.59,97.333C33.185,96.89 33.867,96.657 34.638,96.637L35.621,97.538L36.645,97.497L37.383,97.005L37.055,96.514L37.178,94.507C34.093,92.354 32.329,88.173 34.638,85.823C38.683,82.759 42.067,82.711 44.714,86.028L46.107,87.502L47.664,87.748L47.95,87.011C47.351,86.892 46.966,86.654 46.762,86.315C46.65,86.011 46.681,85.774 46.885,85.618L47.991,85.7L48.032,84.43C47.433,84.311 46.925,84.048 46.476,83.693C46.32,83.153 46.43,82.927 46.721,82.915L48.114,83.161L47.827,81.031C47.333,81.054 46.866,80.774 46.435,80.13C46.487,79.83 46.659,79.637 47.09,79.679L48.114,79.925L48.483,78.082L48.237,77.017C47.674,76.95 47.149,76.676 46.68,76.075C46.584,75.854 46.667,75.597 46.967,75.296L48.36,75.542L48.524,72.839C47.97,72.822 47.475,72.591 47.049,72.101C46.981,71.724 47.054,71.449 47.336,71.323L48.524,71.528L48.647,69.48C48.11,69.298 47.711,69.064 47.541,68.743C47.43,68.382 47.5,68.142 47.786,68.046L48.565,68.169L48.565,56.619L40.168,70.914C39.834,71.412 39.334,71.824 38.652,72.142C37.855,72.332 37.31,72.138 36.85,71.815C36.227,71.357 35.725,70.762 35.58,69.767L35.598,68.971L35.13,68.374C34.601,67.571 34.282,66.731 34.27,65.835L34.802,64.647L35.212,64.237C34.774,63.829 34.595,63.316 34.515,62.763C34.335,62.17 34.31,61.611 34.433,61.083C34.562,60.705 34.788,60.44 35.089,60.264C34.765,59.77 34.56,59.168 34.515,58.421L34.802,56.905C34.496,56.404 34.383,55.683 34.433,54.775L35.13,53.71C34.77,53.28 34.562,52.669 34.515,51.867L34.638,50.598C33.498,48.359 32.77,46.105 32.344,43.839L30.952,43.02L30.747,42.324L30.337,42.528L28.986,69.316L29.805,71.979C30.135,72.375 30.383,72.84 30.501,73.412C30.502,73.953 30.324,74.333 29.928,74.518L29.805,76.32L27.634,80.375L21.121,97.865L20.794,99.79L20.097,101.634L20.384,102.166C20.24,102.518 19.991,102.678 19.688,102.74L18.131,101.634C18.789,102.684 19.305,103.77 19.606,104.91C19.422,105.319 19.142,105.64 18.746,105.853L18.869,107.614C18.72,107.912 18.441,108.045 18.008,107.982L17.558,112.857L17.763,113.389L17.599,113.881L17.312,116.093L17.476,116.42C17.453,116.785 17.278,117.109 16.984,117.403C16.73,117.214 16.604,116.962 16.657,116.625L16.821,116.133L16.657,115.765L16.862,114.004L16.534,113.348L16.903,112.939L17.148,108.433L16.534,107.573L15.879,109.744L15.059,113.471L15.182,114.167L14.936,114.618L13.912,118.591C13.626,118.851 13.484,118.777 13.462,118.427L13.912,116.297L14.199,114.454L13.994,113.963L14.363,113.471L14.404,112.16L15.223,107.819L14.855,107.327L14.404,107.491L12.929,112.201L12.929,112.652L12.561,113.061L11.578,115.806L9.857,119.287C9.688,119.21 9.631,119.051 9.653,118.837L10.759,115.56L11.783,112.652L11.701,112.201L11.987,111.874L13.298,106.344L13.011,105.853L10.308,109.662L10.267,110.686L9.694,111.013L8.588,113.922L7.236,117.239C6.989,117.467 6.902,117.312 6.867,117.035L7.072,115.478L7.973,113.471L8.178,112.406L9.12,110.563L9.079,110.235L10.185,108.064L11.619,105.033L11.742,104.296L9.448,104.992L7.646,106.467L5.352,107.409C5.034,107.388 4.971,107.209 5.024,106.958L5.802,106.59L6.99,105.73L8.874,104.173L10.103,103.19L13.134,102.207C13.503,101.521 13.952,101.054 14.486,100.814L14.977,100.405L14.691,99.79L16.001,97.988L16.042,97.538L17.64,94.548L20.63,86.56L22.023,83.857L24.152,77.426L25.258,75.296L25.381,74.395L25.67,73.494C25.352,73.443 25.174,73.207 25.097,72.839L25.384,71.979C25.193,71.726 25.191,71.482 25.261,71.241C25.305,70.879 25.531,70.523 25.957,70.176L26.94,66.162L28.087,43.266L27.759,41.136C27.752,40.458 27.95,40.014 28.374,39.825L29.029,39.825C29.362,39.499 29.734,39.458 30.135,39.62L30.053,39.006L30.504,38.514C30.44,38.116 30.674,37.807 31.159,37.572C33.605,36.951 37.733,37.057 41.768,37.122C42.699,36.168 44.081,35.304 46.191,34.582L47.215,34.582C47.884,34.805 48.435,35.025 48.772,35.238L48.813,34.541L47.789,34.459L47.789,33.927C48.197,33.613 48.518,33.225 48.772,32.78L47.748,32.411L47.748,31.961C48.371,31.491 48.725,31.012 48.895,30.527L47.912,30.486L47.83,30.036C48.341,29.814 48.644,29.429 48.854,28.971L49.544,28.884L49.544,28.848L49.689,28.866L49.834,28.848L49.834,28.884L50.525,28.971C50.734,29.429 51.038,29.814 51.549,30.036L51.467,30.486L50.484,30.527C50.653,31.012 51.007,31.491 51.631,31.961L51.631,32.411L50.607,32.78C50.86,33.225 51.181,33.613 51.59,33.927L51.59,34.459L50.566,34.541L50.607,35.238C50.944,35.025 51.494,34.806 52.163,34.582L53.187,34.582C55.297,35.304 56.679,36.169 57.611,37.122C61.645,37.057 65.774,36.951 68.22,37.572C68.705,37.807 68.938,38.116 68.875,38.514L69.326,39.006L69.244,39.62C69.645,39.458 70.017,39.499 70.35,39.825L71.005,39.825ZM60.518,147.57C60.961,147.715 61.183,148.227 61.03,149.362C60.665,159.439 59.763,168.778 58.662,177.842C59.059,168.504 59.508,159.115 60.07,149.618C60.398,148.96 60.568,148.28 60.518,147.57ZM38.86,147.57C38.418,147.715 38.196,148.227 38.348,149.362C38.714,159.439 39.615,168.778 40.716,177.842C40.32,168.504 39.87,159.115 39.308,149.618C38.98,148.96 38.81,148.28 38.86,147.57ZM46.814,103.701C45.766,102.81 44.825,102.378 43.957,102.26C43.713,102.27 43.615,102.362 43.59,102.496C43.477,103.814 43.801,104.537 44.691,104.488C45.476,104.409 46.177,104.132 46.814,103.701ZM52.564,103.701C53.613,102.81 54.554,102.378 55.421,102.26C55.666,102.27 55.764,102.362 55.788,102.496C55.902,103.814 55.578,104.537 54.687,104.488C53.903,104.409 53.201,104.132 52.564,103.701ZM49.953,100.957C51.405,100.385 52.821,99.61 54.137,98.249C54.294,97.637 54.347,97.026 54.294,96.414L55.238,96.073C55.884,95.241 56.204,94.285 56.155,93.19C55.516,91.283 53.79,91.176 52.905,92.849L52.774,94.526C52.667,95.203 52.163,95.438 50.65,96.755C50.672,97.408 50.426,97.932 49.948,98.345C49.788,98.794 49.615,98.792 49.43,98.345C48.952,97.932 48.707,97.408 48.728,96.755C47.216,95.438 46.712,95.203 46.605,94.526L46.474,92.849C45.589,91.176 43.863,91.283 43.223,93.19C43.174,94.285 43.495,95.241 44.141,96.073L45.084,96.414C45.032,97.026 45.084,97.637 45.242,98.249C46.557,99.61 47.974,100.385 49.426,100.957C49.514,100.992 49.601,101.025 49.689,101.058C49.777,101.025 49.865,100.991 49.953,100.957ZM81.651,100.435C81.725,99.054 81.588,97.633 81.037,96.134C79.389,91.968 77.722,87.841 75.712,84.42L73.623,79.75C73.178,77.729 72.733,75.712 72.189,75.736L73.131,79.382L73.418,80.201L74.606,84.625C76.965,90.381 79.973,97.199 81.651,100.435ZM17.728,100.435C17.654,99.054 17.79,97.633 18.342,96.134C19.99,91.968 21.656,87.841 23.667,84.42L25.756,79.75C26.2,77.729 26.645,75.712 27.189,75.736L26.247,79.382L25.96,80.201L24.773,84.625C22.413,90.381 19.405,97.199 17.728,100.435ZM39.289,69.354L39.289,70.219C38.702,70.868 38.009,71.121 37.061,70.428C36.689,70.144 36.521,69.827 36.51,69.485C37.553,69.638 38.458,69.558 39.289,69.354ZM60.09,69.354L60.09,70.219C60.676,70.868 61.37,71.121 62.318,70.428C62.69,70.144 62.858,69.827 62.868,69.485C61.825,69.638 60.921,69.558 60.09,69.354ZM59.408,67.073L59.591,68.043C60.502,68.943 61.662,69.013 63.314,67.44C63.807,66.158 63.939,65.239 63.314,65.081C61.508,65.916 60.329,66.714 59.408,67.073ZM39.971,67.073L39.787,68.043C38.876,68.943 37.717,69.013 36.065,67.44C35.571,66.158 35.439,65.239 36.065,65.081C37.87,65.916 39.049,66.714 39.971,67.073ZM58.543,65.185L58.019,63.953C57.962,63.123 60.486,62.244 63.366,61.358C63.684,61.596 63.843,61.825 63.733,62.04C63.838,62.792 63.57,63.443 62.973,64.006C61.497,64.936 60.02,65.269 58.543,65.185ZM40.836,65.185L41.36,63.953C41.417,63.123 38.892,62.244 36.012,61.358C35.695,61.596 35.536,61.825 35.645,62.04C35.54,62.792 35.809,63.443 36.405,64.006C37.881,64.936 39.358,65.269 40.836,65.185ZM55.476,59.34C59.361,59.354 61.63,58.989 62.868,58.186C63.212,58.426 63.352,58.67 63.209,58.92C61.774,61.804 58.29,62.523 55.79,60.126L55.476,59.34ZM43.903,59.34C40.018,59.354 37.749,58.989 36.51,58.186C36.166,58.426 36.026,58.67 36.17,58.92C37.604,61.804 41.089,62.523 43.588,60.126L43.903,59.34ZM47.573,54.175L47.678,54.726C46.756,55.825 45.449,56.768 43.824,57.583C39.967,58.097 37.35,57.485 35.881,55.984C35.634,55.274 36.046,54.706 36.405,54.411C39.639,56.069 43.367,55.996 47.573,54.175ZM51.806,54.175L51.701,54.726C52.623,55.825 53.929,56.768 55.554,57.583C59.411,58.097 62.028,57.485 63.497,55.984C63.745,55.274 63.333,54.706 62.973,54.411C59.74,56.069 56.012,55.996 51.806,54.175ZM52.278,51.738C57.395,53.319 60.353,52.105 62.816,49.981C63.194,50.203 63.656,50.813 63.707,51.371C62.414,55.549 56.239,55.115 52.199,52.917L52.278,51.738ZM47.101,51.738C41.983,53.319 39.026,52.105 36.563,49.981C36.185,50.203 35.723,50.813 35.671,51.371C36.965,55.549 43.14,55.115 47.18,52.917L47.101,51.738ZM47.127,49.116C42.223,49.322 38.725,48.45 37.035,46.521C36.849,46.94 36.681,47.497 36.772,47.936C39.163,51.817 43.092,52.29 47.048,50.715L47.127,49.116ZM52.251,49.116C57.156,49.322 60.653,48.45 62.344,46.521C62.529,46.94 62.698,47.497 62.606,47.936C60.216,51.817 56.287,52.29 52.33,50.715L52.251,49.116ZM38.791,42.694C41.412,45.478 44.379,46.065 47.494,45.708L47.363,47.569C43.352,48.349 40.004,47.939 37.638,44.948C37.538,43.98 37.961,43.131 38.791,42.694ZM60.588,42.694C57.966,45.478 55,46.065 51.884,45.708L52.015,47.569C56.027,48.349 59.375,47.939 61.741,44.948C61.84,43.98 61.418,43.131 60.588,42.694ZM47.363,41.802L47.861,42.903L47.809,44.214C44.338,44.779 41.585,43.672 39.473,41.068C39.35,40.084 39.755,39.713 40.495,39.731C42.321,41.957 44.578,42.756 47.363,41.802ZM52.015,41.802L51.517,42.903L51.57,44.214C55.04,44.779 57.794,43.672 59.906,41.068C60.028,40.084 59.624,39.713 58.884,39.731C57.057,41.957 54.801,42.756 52.015,41.802ZM42.007,38.676C43.399,38.601 45.227,38.981 47.332,39.649L47.127,40.571C45.869,41.355 41.795,40.588 42.007,38.676ZM57.372,38.676C55.98,38.601 54.152,38.981 52.047,39.649L52.252,40.571C53.51,41.355 57.583,40.588 57.372,38.676ZM48.974,37.703C49.01,37.196 48.579,36.702 48.048,36.219C47.201,35.771 46.637,35.671 46.308,35.86C45.011,36.252 44.143,36.791 43.769,37.245C45.099,37.325 46.344,37.396 47.178,37.652L48.974,37.703ZM50.405,37.703C50.369,37.196 50.8,36.702 51.33,36.219C52.178,35.771 52.742,35.671 53.071,35.86C54.368,36.252 55.236,36.791 55.61,37.245C54.279,37.325 53.034,37.396 52.201,37.652L50.405,37.703Z" style="fill:white;"/>
    </g>
</svg>
