<?xml version="1.0" encoding="UTF-8" standalone="no"?>
<!DOCTYPE svg PUBLIC "-//W3C//DTD SVG 1.1//EN" "http://www.w3.org/Graphics/SVG/1.1/DTD/svg11.dtd">
<svg width="100%" height="100%" viewBox="0 0 945 1182" version="1.1" xmlns="http://www.w3.org/2000/svg" xmlns:xlink="http://www.w3.org/1999/xlink" xml:space="preserve" xmlns:serif="http://www.serif.com/" style="fill-rule:evenodd;clip-rule:evenodd;stroke-linejoin:round;stroke-miterlimit:1.41421;">
    <g id="Bone-selection-layers" serif:id="Bone selection layers">
        <path id="Frontal-bone" serif:id="Frontal bone" d="M129.286,246.79C319.354,-71.525 680.513,2.763 822.19,255.518C822.509,256.398 822.826,257.281 823.14,258.165L821.632,261.526C802.775,278.913 780.357,326.63 768.746,379.418L737.354,449.396L736.58,449.374C717.414,423.037 691.803,407.976 662.203,399.898C607.994,393.084 567.723,404.562 548.8,444.059L547.911,444.034L537.11,443.899C498.34,376.369 457.401,371.743 413.871,442.247L413.937,442.359L404.935,442.247L403.064,442.089C384.986,399.345 343.856,386.857 287.847,393.898C261.502,401.088 238.317,413.809 220.023,435.088L217.279,435.098C207.02,424.819 197.535,414.411 188.884,403.864C190.659,401.289 192.621,398.641 194.799,395.903C170.35,330.355 146.184,275.636 127.94,255.44C127.916,253.968 127.909,252.494 127.919,251.017C128.368,249.602 128.824,248.193 129.286,246.79Z" style="fill:rgb(78,166,153);fill-opacity:0.54;"/>
    </g>
</svg>
