<?xml version="1.0" encoding="UTF-8" standalone="no"?>
<!DOCTYPE svg PUBLIC "-//W3C//DTD SVG 1.1//EN" "http://www.w3.org/Graphics/SVG/1.1/DTD/svg11.dtd">
<svg width="100%" height="100%" viewBox="0 0 945 1182" version="1.1" xmlns="http://www.w3.org/2000/svg" xmlns:xlink="http://www.w3.org/1999/xlink" xml:space="preserve" xmlns:serif="http://www.serif.com/" style="fill-rule:evenodd;clip-rule:evenodd;stroke-linejoin:round;stroke-miterlimit:1.41421;">
    <g id="Bone-selection-layers" serif:id="Bone selection layers">
        <path id="Left-mandible" serif:id="Left mandible" d="M471.061,919.442C522.605,919.372 568.01,914.237 601.25,896.925C618.021,880.171 608.594,895.298 613.367,870.532C640.006,834.577 664.913,774.03 667.54,710.061C683.055,713.559 709.552,711.567 741.078,707.059C760.883,708.423 777.803,686.701 793.605,656.033C781.669,703.698 766.037,743.971 738.076,759.586C722.346,825.36 722.291,876.905 742.579,930.673C740.806,941.128 737.85,957.734 720.067,968.192C683.082,1035.21 624.484,1082.77 547.479,1113.77C522.882,1117.47 497.669,1120.15 471.061,1120.5L471.061,919.442Z" style="fill:rgb(78,166,153);fill-opacity:0.54;"/>
    </g>
</svg>
