<?xml version="1.0" encoding="UTF-8" standalone="no"?>
<!DOCTYPE svg PUBLIC "-//W3C//DTD SVG 1.1//EN" "http://www.w3.org/Graphics/SVG/1.1/DTD/svg11.dtd">
<svg width="100%" height="100%" viewBox="0 0 945 1182" version="1.1" xmlns="http://www.w3.org/2000/svg" xmlns:xlink="http://www.w3.org/1999/xlink" xml:space="preserve" xmlns:serif="http://www.serif.com/" style="fill-rule:evenodd;clip-rule:evenodd;stroke-linejoin:round;stroke-miterlimit:1.41421;">
    <g transform="matrix(1,0,0,1.15332,0,-144.316)">
        <g id="Bone-selection-layers" serif:id="Bone selection layers">
            <path id="Lower-teeth" serif:id="Lower teeth" d="M310.406,885.267C311.637,894.041 313.801,899.429 316.897,899.569C318.709,899.651 320.839,897.936 323.289,894.052C326.236,905.001 331.665,911.604 340.858,911.621C342.606,920.993 349.197,922.133 356.202,914.586C367.439,940.802 375.027,944.662 383.141,922.69C390.453,946.506 402.338,942.718 415.585,918.09C426.375,937.583 434.31,942.387 442.289,917.013C450.725,936.937 461.545,940.745 470.283,916.201C477.082,930.512 483.185,942.135 497.807,922.162C508.1,937.83 517.772,940.462 526.503,923.333C538.892,943.701 549.525,940.172 557.541,916.428C565.088,933.207 573.147,934.895 577.57,914.898C593.366,923.452 599.918,926.005 598.536,903.422C607.515,916.667 614.152,913.718 618.447,890.538L616.69,875.312C608.238,870.756 601.522,886.197 596.193,895.697C585.914,883.694 581.095,886.243 577.687,902.63C570.177,892.651 563.178,892.128 556.604,905.605C547.812,895.336 530.582,891.374 527.557,910.196C523.757,894.1 499.114,893.195 498.627,908.449C494.074,900.151 485.828,889.369 470.048,905.02C459.121,892.134 446.923,896.905 440.65,907.542C434.921,891.136 423.774,890.514 414.531,904.698C406.417,890.727 391.181,890.336 383.024,902.498C378.848,884.312 363.75,889.199 357.256,901.733C354.421,892.197 351.276,889.545 343.435,896.235C343.409,880.282 335.774,871.176 323.875,881.679C322.965,871.896 321.331,854.953 310.991,857.743L310.406,885.267" style="fill:rgb(78,166,153);fill-opacity:0.54;"/>
        </g>
    </g>
</svg>
