<?xml version="1.0" encoding="UTF-8" standalone="no"?>
<!DOCTYPE svg PUBLIC "-//W3C//DTD SVG 1.1//EN" "http://www.w3.org/Graphics/SVG/1.1/DTD/svg11.dtd">
<svg width="100%" height="100%" viewBox="0 0 945 1182" version="1.1" xmlns="http://www.w3.org/2000/svg" xmlns:xlink="http://www.w3.org/1999/xlink" xml:space="preserve" xmlns:serif="http://www.serif.com/" style="fill-rule:evenodd;clip-rule:evenodd;stroke-linejoin:round;stroke-miterlimit:1.41421;">
    <g id="Bone-selection-layers" serif:id="Bone selection layers">
        <path id="Maxilla" d="M252.093,704.922C228.107,666.437 239.318,623.886 302.969,581.037C302.764,581.049 302.56,581.06 302.355,581.07C354.558,577.952 399.877,548.003 411.511,486.042C411.859,482.173 425.765,480.108 427.631,494.768C429.949,512.981 424.178,548.456 417.445,579.861C418.398,577.13 419.352,574.476 420.308,571.897C413.865,591.099 407.735,614.357 401.905,641.525C412.965,702.763 437.368,712.854 472.441,682.045C510.783,712.552 534.651,706.068 536.974,644.526C534.331,615.373 530.013,590.287 523.831,569.729C519.533,536.708 517.783,504.545 521.294,490.762C524.417,478.505 536.154,479.843 537.639,488.444C548.477,577.024 641.185,590.14 644.33,585.242C707.981,628.09 722.99,674.141 699.034,712.654L698.75,713.106C682.086,713.562 674.751,713.521 665.711,712.896C645.114,711.471 625.43,750.38 621.753,762.223C617.084,777.266 626.058,823.233 607.46,825.186C601.184,825.845 572.255,828.879 534.776,831.449C462.448,836.82 398.003,836.059 343.244,827.766C323.998,823.127 311.936,815.973 311.907,805.326C311.65,712.658 271.963,708.048 252.377,705.374L252.093,704.922ZM252.196,705.359C252.225,705.36 252.255,705.362 252.285,705.364L252.377,705.374C250.936,705.944 251.292,705.37 252.109,705.358L252.196,705.359Z" style="fill:rgb(78,166,153);fill-opacity:0.54;"/>
    </g>
</svg>
