<?xml version="1.0" encoding="UTF-8" standalone="no"?>
<!DOCTYPE svg PUBLIC "-//W3C//DTD SVG 1.1//EN" "http://www.w3.org/Graphics/SVG/1.1/DTD/svg11.dtd">
<svg width="100%" height="100%" viewBox="0 0 945 1182" version="1.1" xmlns="http://www.w3.org/2000/svg" xmlns:xlink="http://www.w3.org/1999/xlink" xml:space="preserve" xmlns:serif="http://www.serif.com/" style="fill-rule:evenodd;clip-rule:evenodd;stroke-linejoin:round;stroke-miterlimit:1.41421;">
    <g id="Bone-selection-layers" serif:id="Bone selection layers">
        <path id="Right-mandible" serif:id="Right mandible" d="M467.487,1120.54C440.364,1120.68 411.771,1118.38 380.894,1112.27C323.402,1086.73 269.765,1048.87 232.318,959.188C217.764,949.82 212.855,938.04 214.309,924.67C216.342,901.611 214.278,884.697 208.306,873.644C210.07,830.597 209.045,793.125 206.805,758.085C166.661,733.333 147.399,695.292 151.277,642.526C184.294,685.723 217.311,703.382 250.328,702.557C254.956,754.976 277.713,802.216 310.358,846.63L330.16,889.054C330.81,905.831 348.111,895.325 380.784,916.105C410.775,917.889 439.976,919.354 467.487,919.439L467.487,1120.54Z" style="fill:rgb(78,166,153);fill-opacity:0.54;"/>
    </g>
</svg>
