<?xml version="1.0" encoding="UTF-8" standalone="no"?>
<!DOCTYPE svg PUBLIC "-//W3C//DTD SVG 1.1//EN" "http://www.w3.org/Graphics/SVG/1.1/DTD/svg11.dtd">
<svg width="100%" height="100%" viewBox="0 0 945 1182" version="1.1" xmlns="http://www.w3.org/2000/svg" xmlns:xlink="http://www.w3.org/1999/xlink" xml:space="preserve" xmlns:serif="http://www.serif.com/" style="fill-rule:evenodd;clip-rule:evenodd;stroke-linejoin:round;stroke-miterlimit:1.41421;">
    <g id="Bone-selection-layers" serif:id="Bone selection layers">
        <path id="Right-zygomatic-bone" serif:id="Right zygomatic bone" d="M128.51,593.205C128.573,593.037 128.512,593.201 128.512,593.201C140.337,598.884 158.966,582.621 161.783,559.486C168.144,507.243 166.931,494.161 169.286,449.931C167.291,446.286 182.664,409.185 185.407,409.185C187.362,406.016 185.75,407.06 188.31,403.65L220.333,434.657C212.59,443.048 208.299,449.984 202.303,461.433C193.783,485.836 200.817,519.571 232.318,567.987C255.632,578.014 279.966,582.32 302.969,581.037C239.068,624.054 225.092,664.574 249.448,703.178C247.859,703.807 246.269,704.379 244.679,704.895C194.635,696.785 162.529,658.966 151.277,644.526C132.172,631.738 119.89,616.39 128.51,593.205Z" style="fill:rgb(78,166,153);fill-opacity:0.54;"/>
    </g>
</svg>
