<?xml version="1.0" encoding="UTF-8" standalone="no"?>
<!DOCTYPE svg PUBLIC "-//W3C//DTD SVG 1.1//EN" "http://www.w3.org/Graphics/SVG/1.1/DTD/svg11.dtd">
<svg width="100%" height="100%" viewBox="0 0 945 1182" version="1.1" xmlns="http://www.w3.org/2000/svg" xmlns:xlink="http://www.w3.org/1999/xlink" xml:space="preserve" xmlns:serif="http://www.serif.com/" style="fill-rule:evenodd;clip-rule:evenodd;stroke-linejoin:round;stroke-miterlimit:1.41421;">
    <g id="Bone-selection-layers" serif:id="Bone selection layers">
        <path id="Upper-teeth" serif:id="Upper teeth" d="M314.505,809.721C310.566,814.888 309.659,829.15 310.406,848.373C313.839,853.273 320.95,852.063 322.821,846.03C327.595,865.051 331.388,876.492 337.813,868.987C345.921,883.32 353.171,886.363 355.265,875.429C367.682,898.73 384.772,891.307 391.574,869.573C394.487,896.95 409.636,896.838 426.243,881.637C441.651,895.73 458.755,895.364 472.625,883.159C482.419,891.561 501.438,894.971 516.547,883.042C526.477,899.253 546.792,906.77 552.856,879.411C567.691,895.804 576.674,885.625 582.138,869.221C590.851,879.358 597.236,881.158 603.103,864.653C606.812,868.531 613.176,872.405 618.447,856.572C617.29,843.388 616.351,830.095 612.005,818.506C605.027,820.492 602.936,826.552 603.455,834.786C594.872,819.73 587.598,818.998 583.075,836.426C571.612,807.203 556.843,807.856 547,839.588C542.372,824.112 529.369,817.968 514.439,836.894C492.66,815.154 479.842,823.965 471.805,847.201C458.979,829.252 438.458,809.918 426.36,839.705C420.964,828.917 409.624,821.32 391.105,836.777C383.532,826.733 370.32,816.894 357.842,835.606C356.309,827.072 349.605,820.168 339.219,831.975C336.896,824.996 331.039,821.189 324.344,826.704C320.506,819.48 318.655,810.074 314.505,809.721" style="fill:rgb(78,166,153);fill-opacity:0.54;"/>
    </g>
</svg>
