<?xml version="1.0" encoding="UTF-8" standalone="no"?>
<!DOCTYPE svg PUBLIC "-//W3C//DTD SVG 1.1//EN" "http://www.w3.org/Graphics/SVG/1.1/DTD/svg11.dtd">
<svg width="100%" height="100%" viewBox="0 0 945 1182" version="1.1" xmlns="http://www.w3.org/2000/svg" xmlns:xlink="http://www.w3.org/1999/xlink" xml:space="preserve" xmlns:serif="http://www.serif.com/" style="fill-rule:evenodd;clip-rule:evenodd;stroke-linejoin:round;stroke-miterlimit:2;">
    <g id="Group-markings" serif:id="Group markings">
        <path id="Håndrod" d="M335.771,204.747C330.983,188.494 329.409,178.096 320.773,168.858C340.655,145.542 400.983,150.695 426.135,175.311C436.584,189.568 453.203,195.779 469.8,202.149C479.358,206.561 481.472,215.87 480.916,226.938C465.051,240.127 449.529,248.35 434.293,252.406C435.764,252.638 437.24,252.926 438.723,253.27C438.948,254.092 439.295,254.867 439.749,255.618C448.796,247.728 467.065,238.781 485.781,232.087C494.574,229.978 502.13,233.753 508.504,243.142L520.243,240.912C526.504,242.267 529.403,246.88 530.282,253.451L530.858,287.671C522.51,304.438 509.896,311.704 495.478,314.954C482.085,318.8 474.503,318.263 471.406,314.342C470.735,314.012 470.113,313.641 469.537,313.233C445.95,328.907 426.517,329.735 410.291,319.098C410.199,319.011 410.108,318.923 410.017,318.836C410.454,321.961 410.885,325.095 411.316,328.23C411.041,334.489 415.947,340.619 401.753,349.064C388.037,351.703 378.206,347.435 369.18,341.732L350.874,346.446C342.706,345.925 335.816,344.276 330.098,341.595C328.798,343.663 327.225,345.647 325.451,347.568L308.82,346.215C301.942,361.678 292.441,366.873 280.551,362.718C268.509,379.822 263.748,372.609 262.873,352.416C258.132,346.634 251.955,342.753 241.773,344.164L229.801,351.338C218.41,345.175 214.31,336.824 212.405,327.808C212.644,327.558 212.903,327.303 213.179,327.042C211.793,327.072 210.363,327.077 208.889,327.059C200.337,325.474 195.456,319.755 192.535,311.83C186.447,298.932 183.073,281.371 181.426,260.843C183.91,249.441 189.476,242.414 198.875,240.827C198.658,227.818 203.081,217.006 212.146,208.39L227.465,207.455C227.572,207.561 227.678,207.666 227.786,207.771L226.629,192.981C224.08,178.781 232.359,174.674 244.098,173.793C249.251,174.49 255.73,171.927 263.052,167.29C282.165,162.279 300.733,161.468 317.259,176.376C324.235,184.093 328.528,193.739 330.676,204.928L335.771,204.747ZM262.555,237.645C261.448,240.002 259.694,242.5 257.582,245.074C255.283,257.85 257.605,270.072 260.914,282.175C265.252,270.902 269.413,257.346 273.525,243.162L267.136,238.814C265.573,238.447 264.045,238.057 262.555,237.645ZM315.402,241.986C311.353,244.032 307.588,245.597 304.082,246.747C305.69,248.095 307.231,249.644 308.706,251.39C312.019,253.908 314.848,257.103 317.285,260.845L315.402,241.986ZM389.19,231.812C392.92,239.293 395.979,247.874 398.571,257.219C400.352,256.467 402.142,255.785 403.94,255.178C403.309,255.128 402.679,255.071 402.05,255.008C397.58,245.887 393.565,238.062 389.19,231.812Z" style="fill:rgb(78,166,153);fill-opacity:0.54;"/>
    </g>
</svg>
