<?xml version="1.0" encoding="UTF-8" standalone="no"?>
<!DOCTYPE svg PUBLIC "-//W3C//DTD SVG 1.1//EN" "http://www.w3.org/Graphics/SVG/1.1/DTD/svg11.dtd">
<svg width="100%" height="100%" viewBox="0 0 945 1182" version="1.1" xmlns="http://www.w3.org/2000/svg" xmlns:xlink="http://www.w3.org/1999/xlink" xml:space="preserve" xmlns:serif="http://www.serif.com/" style="fill-rule:evenodd;clip-rule:evenodd;stroke-linejoin:round;stroke-miterlimit:2;">
    <g id="Group-markings" serif:id="Group markings">
        <path id="Fingerstråle-5" serif:id="Fingerstråle 5" d="M172.447,569.253C173.012,559.883 171.596,550.784 167.522,542.049L175.784,526.08C182.394,490.319 189.9,453.41 204.613,407.249C209.211,398.756 212.168,389.392 209.605,377.098L222.473,356.219C219.997,347.16 224.551,341.908 236.135,340.464C248.842,320.525 262.089,328.394 263.197,348.864C265.273,357.94 271.502,359.589 279.619,357.863C283.041,373.231 277.174,380.241 267.544,383.865L250.165,403.344L229.314,490.511L218.57,532.045C225.958,553.221 233.992,574.612 217.545,587.814C216.141,588.373 214.777,588.877 213.453,589.325C227.225,593.325 227.44,604.048 217.978,623.888C207.35,631.364 190.227,667.747 170.259,707.804C166.581,734.723 161.694,755.026 150.856,765.123C146.628,761.258 142.402,758.61 138.337,756.769C141.854,759.762 144.762,763.848 146.993,769.147C156.7,776.623 156.381,784.529 146.935,792.827C129.241,800.808 116.212,829.773 104.467,864.514C105.148,868.948 103.983,872.363 100.036,874.337C101.178,875.754 102.201,877.25 103.107,878.822C101.659,891.518 97.017,894.957 90.039,891.626C80.614,900.956 73.478,910.203 70.692,919.294L80.378,920.191C80.096,926.836 76.883,934.787 72.619,943.206C59.696,956.416 49.121,952.94 39.206,944.782C35.241,935.211 34.245,924.394 41.952,909.925C62.149,906.838 63.2,893.915 49.477,873.401C47.299,868.859 47.78,863.661 55.185,856.751C61.91,857.111 67.938,857.933 73.303,859.193C72.169,858.773 70.996,858.375 69.785,857.997L62.762,839.567C68.262,828.761 75.446,823.849 83.068,820.465C94.142,800.34 95.453,786.076 91.001,775.27C87.553,768.901 89.036,761.88 98.878,753.756C102.943,752.489 106.826,751.549 110.51,750.968C109.716,750.647 109.068,750.231 108.584,749.676C107.614,750.907 105.58,743.319 111.328,722.971C113.396,716.821 117.83,711.143 125.986,706.209L149.236,637.657L157.57,579.939C158.685,575.326 164.834,569.376 172.447,569.253Z" style="fill:rgb(78,166,153);fill-opacity:0.54;"/>
    </g>
</svg>
