<?xml version="1.0" encoding="UTF-8" standalone="no"?>
<!DOCTYPE svg PUBLIC "-//W3C//DTD SVG 1.1//EN" "http://www.w3.org/Graphics/SVG/1.1/DTD/svg11.dtd">
<svg width="100%" height="100%" viewBox="0 0 945 1182" version="1.1" xmlns="http://www.w3.org/2000/svg" xmlns:xlink="http://www.w3.org/1999/xlink" xml:space="preserve" xmlns:serif="http://www.serif.com/" style="fill-rule:evenodd;clip-rule:evenodd;stroke-linejoin:round;stroke-miterlimit:2;">
    <g id="Group-markings" serif:id="Group markings">
        <path id="Fingerstråle-4" serif:id="Fingerstråle 4" d="M274.372,637.635L266.759,599.449C263.877,587.954 271.985,572.646 283.774,556.06L289.736,411.17C281.622,407.527 277.169,401.537 281.463,389.935C287.293,377.798 287.514,368.802 286.281,360.621C297.931,362.946 306.604,356.141 313.313,343.312C326.234,338.662 336.154,341.268 343.071,351.13L344.141,385.694L350.819,403.081L343.854,431.694L330.36,443.92C325.787,490.532 326.35,534.702 328.903,577.925L346.061,603.962C346.127,623.653 342.78,639.141 333.041,646.755C330.768,647.957 328.537,649.026 326.349,649.961C329.659,651.323 332.416,653.982 334.584,658.026C337.016,664.604 335.925,670.94 332.981,677.149C324.474,693.409 318.805,702.776 314.011,710.019C308.855,745.866 303.347,779.27 293.314,812.445C298.318,819.217 298.298,831.681 296.372,843.57C294.823,854.941 289.466,860.961 280.663,860.384C288.385,862.454 293.367,867.165 293.937,876.131C281.336,900.712 266.672,948.165 267.813,994.362C268.44,1009.28 264.34,1019.77 253.948,1024.36L253.604,1024.35C263.873,1027.74 271.418,1035.11 266.954,1043.31L250.172,1059.74C247.703,1068.4 246.498,1077.21 247.14,1086.24L255.057,1088.53C255.078,1101.38 252.924,1111.76 244.711,1115.23C239.478,1124.9 231.429,1126.54 217.471,1111.32C209.095,1105.64 209.253,1094.87 210.908,1083.2L219.832,1083.14C222.173,1074.41 222.387,1066.54 220.179,1059.66C213.256,1052.77 207.543,1045.13 203.482,1036.37C203.726,1031.22 208.179,1026.54 216.66,1022.3C212.162,1020.54 209.173,1017.46 210.505,1010.61C208.007,999.927 208.042,988.071 210.227,975.221L219.961,955.826C224.009,924.197 225.263,893.701 218.532,866.444C221.61,860.871 225.159,856.004 229.84,852.832C229.277,852.514 228.711,852.173 228.142,851.81C226.496,842.935 226.954,833.167 228.406,824.467C235.248,819.369 239.204,812.424 244.156,803.075C245.782,768.201 248.705,730.244 255.642,692.965L248.53,656.896C251.292,652.293 255.762,646.035 262.294,637.779C266.286,637.52 270.309,637.454 274.372,637.635ZM256.458,857.822C254.194,856.236 252.202,854.163 250.452,851.653C248.336,853.567 246.134,854.803 243.854,855.433C247.998,856.475 252.205,857.249 256.458,857.822Z" style="fill:rgb(78,166,153);fill-opacity:0.54;"/>
    </g>
</svg>
