<?xml version="1.0" encoding="UTF-8" standalone="no"?>
<!DOCTYPE svg PUBLIC "-//W3C//DTD SVG 1.1//EN" "http://www.w3.org/Graphics/SVG/1.1/DTD/svg11.dtd">
<svg width="100%" height="100%" viewBox="0 0 100 200" version="1.1" xmlns="http://www.w3.org/2000/svg" xmlns:xlink="http://www.w3.org/1999/xlink" xml:space="preserve" xmlns:serif="http://www.serif.com/" style="fill-rule:evenodd;clip-rule:evenodd;stroke-linejoin:round;stroke-miterlimit:1.41421;">
    <g id="Organ-selection" serif:id="Organ selection">
        <path id="Arteries" d="M27.097,65.439L27.785,54.965C27.434,52.392 30.327,42.665 32.571,41.047C32.571,41.047 33.013,40.08 35.911,38.561C37.926,37.505 45.616,35.844 47.451,37.521C47.085,34.684 47.332,32.077 48.007,29.632C48.436,28.076 49.395,25.562 50.118,24.854C50.996,24.915 49.907,28.045 49.229,29.632C48.405,32.189 48.178,34.515 48.785,36.521L48.896,41.41C49.663,40.727 49.554,40.705 49.53,40.707L49.53,40.707C49.53,40.707 49.53,40.707 49.53,40.707C49.53,40.707 49.53,40.707 49.53,40.707C49.51,40.709 49.545,40.726 50.118,40.438C49.744,39.518 49.709,37.282 50.176,35.987C50.831,33.854 51.832,30.591 53.118,29.938C52.842,30.658 51.668,33.93 51.136,36.36C50.95,37.209 51.01,38.942 51.451,39.549C53.987,38.487 59.08,36.656 61.229,37.41C62.674,37.929 64.676,38.895 66.159,40.591C67.387,41.995 68.331,43.681 68.896,45.743C69.756,48.529 71.282,51.109 71.229,54.327C71.166,56.81 70.738,60.802 71.257,63.077C71.801,65.851 73.011,70.085 73.09,70.215C74.758,73.675 79.507,79.498 80.346,83.254C80.267,85.339 82.4,94.855 85.186,98.272C85.639,100.398 87.502,103.924 87.124,104.588C86.467,103.98 85.397,101.069 84.568,99.143C82.279,95.007 80.321,90.707 79.568,85.81C79.153,81.47 72.375,70.839 72.375,70.839C70.598,72.657 69.555,79.538 72.473,84.306C73.542,89.185 77.355,94.734 79.47,98.85C80.052,100.864 81.073,103.793 80.951,104.679C80.237,104.407 79.439,100.499 78.44,98.569C76.952,96.01 72.412,87.542 71.228,84.424C68.562,77.401 70.942,69.968 71.696,68.769L70.813,66.077C70.043,63.221 69.999,58.64 70.118,55.215C70.547,51.991 69.145,49.395 68.007,46.632C67.544,44.447 66.611,42.535 64.896,41.077C63.637,39.886 62.175,39.108 60.563,38.632C58.349,37.964 56.46,38.342 54.785,39.41C52.361,40.304 51.641,40.773 50.646,42.465L51.813,68.66C52.087,70.271 52.358,71.655 53.813,73.077C55.142,74.203 58.064,74.807 58.479,75.632C57.592,75.777 55.071,74.987 54.035,74.41C52.663,73.886 51.798,72.989 51.257,71.854L50.283,92.051C53.68,96.258 59.319,104.982 59.394,105.939C59.478,107.005 58.434,125.093 59.172,134.051C59.858,137.891 55.753,144.057 55.104,148.12C54.075,157.807 54.736,172.972 54.773,174.069C54.83,175.769 54.17,181.939 54.765,185.738C55.582,188.34 59.286,192.38 58.592,192.209C57.739,191.8 54.786,188.627 53.876,186.071C53.627,182.32 53.591,178.415 54.174,174.062C53.754,164.97 52.637,158.285 53.715,148.259C54.569,144.489 58.637,137.668 57.839,133.717C57.548,130.249 57.43,125.501 57.42,120.915C57.404,113.526 58.064,106.619 57.95,106.051C57.762,105.119 51.882,95.358 50.727,95.384C49.225,95.418 44.855,101.883 43.761,105.927C43.855,107.858 44.393,124.299 43.658,133.066C42.859,137.017 44.705,145.644 45.559,149.414C46.637,159.439 44.826,164.319 44.406,173.411C44.989,177.764 44.953,181.669 44.703,185.42C43.794,187.975 40.841,191.149 39.988,191.558C39.294,191.729 42.998,187.689 43.814,185.087C44.41,181.288 43.75,175.118 43.807,173.418C43.843,172.321 45.06,159.101 44.031,149.414C43.382,145.351 41.638,137.24 42.325,133.4C43.012,125.057 42.061,105.384 42.061,105.384C42.061,105.384 44.68,97.64 47.172,93.939L48.924,72.632C47.833,74.004 45.384,75.716 44.701,75.077C45.487,74.481 47.971,72.454 48.813,70.41L47.229,39.077C45.934,36.688 39.159,38.268 36.502,39.289C35.221,39.782 34.272,39.865 32.902,42.069C30.404,44.768 29.639,47.916 29.229,51.077L28.701,62.965C28.701,62.965 27.778,69.353 27.702,69.544C28.628,72.079 29.955,78.275 27.713,84.181C26.53,87.299 21.99,95.767 20.501,98.326C19.502,100.256 18.704,104.164 17.991,104.436C17.869,103.55 18.889,100.621 19.471,98.607C21.586,94.491 25.4,88.942 26.468,84.063C29.386,79.295 28.343,72.414 26.566,70.596C26.566,70.596 19.788,81.227 19.373,85.567C18.62,90.464 16.662,94.764 14.373,98.9C13.545,100.826 12.474,103.737 11.818,104.345C11.439,103.681 13.302,100.155 13.756,98.029C16.542,94.612 18.674,85.096 18.596,83.011C19.434,79.255 24.183,73.432 25.851,69.972C25.908,69.879 26.541,67.692 27.097,65.439Z" style="fill:rgb(79,165,153);fill-opacity:0.545098;"/>
    </g>
</svg>
