<?xml version="1.0" encoding="UTF-8" standalone="no"?>
<!DOCTYPE svg PUBLIC "-//W3C//DTD SVG 1.1//EN" "http://www.w3.org/Graphics/SVG/1.1/DTD/svg11.dtd">
<svg width="100%" height="100%" viewBox="0 0 100 200" version="1.1" xmlns="http://www.w3.org/2000/svg" xmlns:xlink="http://www.w3.org/1999/xlink" xml:space="preserve" xmlns:serif="http://www.serif.com/" style="fill-rule:evenodd;clip-rule:evenodd;stroke-linejoin:round;stroke-miterlimit:1.41421;">
    <g id="Organ-selection" serif:id="Organ selection">
        <path id="Bladder-and-Kidneys" serif:id="Bladder and Kidneys" d="M56.788,65.413C56.632,64.946 56.47,64.478 56.47,64.221C56.47,63.057 57.415,62.112 58.579,62.112C59.217,62.112 59.789,62.396 60.176,62.844C61.088,63.714 61.683,65.139 61.683,66.749C61.683,67.841 61.409,68.848 60.948,69.654L60.921,69.646C60.59,70.378 59.853,70.888 58.998,70.888C57.834,70.888 56.889,69.943 56.889,68.779C56.889,68.733 56.913,68.485 56.943,68.167C56.82,68.273 56.698,68.416 56.577,68.61C56.53,68.684 56.486,68.76 56.444,68.837C56.384,68.947 56.318,69.055 56.276,69.174C54.729,73.607 57.305,78.85 56.989,83.816C56.915,84.992 57.201,85.334 56.232,88.964C55.941,89.931 55.566,91.176 54.959,92.215C56.196,92.834 57.046,94.114 57.046,95.591C57.046,97.125 56.129,98.446 54.813,99.035C53.577,99.85 51.26,101.4 51.021,101.878C50.928,102.065 50.803,102.881 50.654,103.03C50.622,103.063 49.964,103.126 49.869,103.03C49.834,102.995 49.691,102.12 49.449,101.878C49.024,101.452 46.997,99.904 45.812,98.959C44.582,98.337 43.739,97.061 43.739,95.591C43.739,94.326 44.362,93.206 45.318,92.522C44.597,91.429 44.175,90.028 43.855,88.964C42.886,85.334 43.172,84.992 43.097,83.816C42.782,78.85 45.358,73.607 43.811,69.174C43.769,69.055 43.703,68.947 43.643,68.837C43.601,68.76 43.557,68.684 43.51,68.61C43.386,68.411 43.26,68.266 43.134,68.159C43.165,68.481 43.189,68.733 43.189,68.779C43.189,69.943 42.244,70.888 41.08,70.888C40.225,70.888 39.488,70.378 39.157,69.646L39.13,69.654C38.669,68.848 38.395,67.841 38.395,66.749C38.395,65.139 38.99,63.714 39.902,62.844C40.289,62.396 40.861,62.112 41.499,62.112C42.663,62.112 43.608,63.057 43.608,64.221C43.608,64.477 43.446,64.945 43.291,65.411C45.587,65.997 46.718,69.023 46.878,70.971C47.325,76.42 44.311,81.946 46.26,88.281C46.695,89.726 47.882,91.644 47.882,91.644C47.933,91.716 47.98,91.785 48.024,91.853C48.97,91.982 49.805,92.462 50.393,93.157C50.801,92.674 51.33,92.294 51.931,92.065C52.009,91.933 52.1,91.793 52.205,91.644C52.205,91.644 53.392,89.726 53.827,88.281C55.775,81.946 52.762,76.42 53.209,70.971C53.369,69.025 54.497,66.005 56.788,65.413ZM52.469,91.53C52.498,91.518 52.476,91.527 52.469,91.53ZM47.618,91.53C47.589,91.518 47.61,91.527 47.618,91.53ZM52.528,91.511C52.684,91.461 52.57,91.5 52.528,91.511ZM47.558,91.511C47.403,91.461 47.517,91.5 47.558,91.511Z" style="fill:rgb(79,165,153);fill-opacity:0.545098;fill-rule:nonzero;"/>
    </g>
</svg>
