<?xml version="1.0" encoding="UTF-8" standalone="no"?>
<!DOCTYPE svg PUBLIC "-//W3C//DTD SVG 1.1//EN" "http://www.w3.org/Graphics/SVG/1.1/DTD/svg11.dtd">
<svg width="100%" height="100%" viewBox="0 0 100 200" version="1.1" xmlns="http://www.w3.org/2000/svg" xmlns:xlink="http://www.w3.org/1999/xlink" xml:space="preserve" xmlns:serif="http://www.serif.com/" style="fill-rule:evenodd;clip-rule:evenodd;stroke-linejoin:round;stroke-miterlimit:1.41421;">
    <g transform="matrix(0.247713,0,0,0.209311,43.3429,39.4036)">
        <g id="Organ-selection" serif:id="Organ selection">
            <path id="Heart---Hjerte" serif:id="Heart / Hjerte" d="M15.213,21.704C16.006,19.446 14.778,11.261 15.152,10.848C16.165,9.727 21.196,9.918 21.769,9.358C21.984,9.148 22.692,7.96 23.145,7.518C23.262,7.403 21.439,4.26 22.231,3.636C22.341,3.549 23.567,2.507 25.001,3.54C25.621,3.986 27.052,6.387 28.026,5.662C28.573,5.255 29.079,5.09 29.552,4.628C29.793,4.393 28.899,1.11 29.82,0.632C31.404,-0.19 32.423,0.585 32.453,0.614C32.585,0.744 33.009,2.321 33.039,3.659C33.057,4.437 34.636,4.02 34.686,3.971C34.829,3.831 34.249,1.987 34.964,1.555C35.86,1.015 37.65,1.748 37.803,2.38C37.825,2.468 37.495,4.441 37.972,5.221C38.256,5.687 38.989,7.111 39.889,8.462C40.611,9.546 41.322,10.645 41.599,11.112C41.68,11.249 44.409,10.251 44.806,10.218C45.853,10.131 45.998,11.732 45.508,12.427C44.981,13.175 42.579,14.272 42.31,14.535C42.166,14.675 42.467,16.1 42.502,16.057C43.94,14.331 44.68,14.369 44.73,14.355C45.46,14.156 47.582,16.737 46.51,17.67C45.824,18.268 44.256,18.943 43.28,19.741C43.208,19.801 42.882,21.93 43.129,23.034C45.726,25.107 49.8,30.973 49.8,36.941C49.8,36.994 49.68,37.229 49.837,37.504C59.583,54.59 51.86,61.861 50.582,62.215C26.324,68.939 8.551,45.968 8.496,36.941C8.458,30.911 11.086,25.481 15.213,21.704Z" style="fill:rgb(79,165,153);fill-opacity:0.54;"/>
        </g>
    </g>
</svg>
