<?xml version="1.0" encoding="UTF-8" standalone="no"?>
<!DOCTYPE svg PUBLIC "-//W3C//DTD SVG 1.1//EN" "http://www.w3.org/Graphics/SVG/1.1/DTD/svg11.dtd">
<svg width="100%" height="100%" viewBox="0 0 100 200" version="1.1" xmlns="http://www.w3.org/2000/svg" xmlns:xlink="http://www.w3.org/1999/xlink" xml:space="preserve" xmlns:serif="http://www.serif.com/" style="fill-rule:evenodd;clip-rule:evenodd;stroke-linejoin:round;stroke-miterlimit:1.41421;">
    <g transform="matrix(0.451988,0,0,0.451988,35.5311,70.162)">
        <g id="Organ-selection" serif:id="Organ selection">
            <path id="Large-intestine---Tyktarm" serif:id="Large intestine / Tyktarm" d="M4.903,38.399C4.409,37.521 4.126,36.507 4.126,35.428C4.126,34.06 4.58,32.798 5.345,31.782C3.875,30.715 2.913,28.94 2.913,26.933C2.913,25.745 3.25,24.638 3.83,23.711C3.301,22.897 2.994,21.927 2.994,20.885C2.994,20.115 3.161,19.385 3.462,18.727C2.592,17.76 2.063,16.481 2.063,15.079C2.063,13.234 2.98,11.602 4.382,10.613C3.808,9.632 3.479,8.49 3.479,7.271C3.479,3.61 6.452,0.637 10.114,0.637C11.404,0.637 12.609,1.006 13.629,1.645C14.521,1.01 15.612,0.637 16.789,0.637C18.883,0.637 20.704,1.818 21.62,3.551C22.509,2.841 23.635,2.417 24.86,2.417C27.622,2.417 29.884,4.576 30.048,7.296C30.635,7.021 31.289,6.867 31.98,6.867C33.707,6.867 35.211,7.831 35.982,9.25C36.817,8.286 38.049,7.676 39.424,7.676C40.618,7.676 41.706,8.137 42.518,8.891C43.177,7.413 44.66,6.381 46.382,6.381C46.922,6.381 47.439,6.483 47.914,6.668C48.536,5.261 49.944,4.278 51.58,4.278C52.176,4.278 52.741,4.408 53.249,4.641C53.242,4.555 53.239,4.467 53.239,4.379C53.239,2.448 54.807,0.879 56.738,0.879C58.67,0.879 60.238,2.448 60.238,4.379C60.238,5.661 59.547,6.783 58.517,7.393C59.518,8.213 60.157,9.458 60.157,10.852C60.157,12.343 59.425,13.664 58.302,14.476C59.072,15.239 59.55,16.297 59.55,17.466C59.55,18.765 58.96,19.927 58.034,20.699C59.004,21.43 59.631,22.592 59.631,23.898C59.631,24.886 59.273,25.791 58.679,26.489C60.526,27.306 61.815,29.154 61.815,31.302C61.815,33.593 60.347,35.544 58.301,36.264C58.735,37.033 58.984,37.921 58.984,38.867C58.984,41.792 56.609,44.166 53.684,44.166C53.281,44.166 52.888,44.121 52.51,44.036C52.472,46.928 50.112,49.264 47.211,49.264C46.904,49.264 46.603,49.238 46.31,49.187C45.826,52.197 43.487,54.483 40.678,54.483C39.859,54.483 39.08,54.288 38.376,53.939C38.207,56.471 34.739,59.71 34.739,59.83C34.739,61.777 33.337,63.358 31.61,63.358C29.883,63.358 28.48,61.777 28.48,59.83C28.48,59.254 26.943,55.344 26.943,53.451C26.943,49.89 29.508,46.998 32.668,46.998C33.486,46.998 34.265,47.192 34.969,47.542C35.191,44.208 37.664,41.577 40.678,41.577C41.259,41.577 41.819,41.675 42.348,41.857C43.163,39.979 45.035,38.665 47.211,38.665C47.614,38.665 48.007,38.71 48.385,38.795C48.415,36.505 49.901,34.564 51.958,33.855C51.537,33.099 51.297,32.228 51.297,31.302C51.297,29.624 52.084,28.129 53.31,27.165C52.288,26.439 51.621,25.246 51.621,23.898C51.621,22.718 52.132,21.657 52.946,20.923C51.852,20.163 51.135,18.898 51.135,17.466C51.135,16.14 51.75,14.957 52.71,14.185C52.14,13.677 51.702,13.024 51.452,12.286C51.065,12.274 50.693,12.207 50.341,12.092C49.74,13.695 48.193,14.837 46.382,14.837C45.352,14.837 44.408,14.468 43.674,13.855C43.019,15.564 41.362,16.778 39.424,16.778C37.696,16.778 36.192,15.814 35.421,14.395C34.587,15.359 33.354,15.969 31.98,15.969C29.701,15.969 27.812,14.291 27.48,12.105C26.711,12.555 25.815,12.814 24.86,12.814C22.942,12.814 21.265,11.773 20.364,10.226C19.406,11.057 18.156,11.56 16.789,11.56C16.285,11.56 15.798,11.491 15.335,11.364C14.649,12.237 13.749,12.934 12.715,13.376C12.891,13.912 12.986,14.485 12.986,15.079C12.986,16.034 12.741,16.931 12.31,17.712C12.987,18.59 13.391,19.691 13.391,20.885C13.391,21.68 13.212,22.434 12.892,23.108C13.733,24.139 14.24,25.475 14.24,26.933C14.24,28.144 13.89,29.271 13.289,30.208C15.069,31.266 16.263,33.209 16.263,35.428C16.263,36.026 16.176,36.604 16.015,37.15C16.341,37.636 16.587,38.179 16.734,38.771C17.195,40.632 16.563,42.534 15.222,43.912C14.572,45.633 12.712,46.877 10.52,46.877C8.428,46.877 6.638,45.744 5.915,44.145C5.282,43.496 4.816,42.695 4.589,41.779C4.303,40.623 4.438,39.451 4.903,38.399Z" style="fill:rgb(78,166,153);fill-opacity:0.531882;"/>
        </g>
    </g>
</svg>
