<?xml version="1.0" encoding="UTF-8" standalone="no"?>
<!DOCTYPE svg PUBLIC "-//W3C//DTD SVG 1.1//EN" "http://www.w3.org/Graphics/SVG/1.1/DTD/svg11.dtd">
<svg width="100%" height="100%" viewBox="0 0 100 200" version="1.1" xmlns="http://www.w3.org/2000/svg" xmlns:xlink="http://www.w3.org/1999/xlink" xml:space="preserve" xmlns:serif="http://www.serif.com/" style="fill-rule:evenodd;clip-rule:evenodd;stroke-linejoin:round;stroke-miterlimit:1.41421;">
    <g id="Organ-selection" serif:id="Organ selection">
        <path id="Nerves" d="M48.26,22.307C48.251,21.211 51.286,21.11 51.353,22.307L51.327,23.687L53.055,25.607C52.537,25.273 51.993,25.085 51.327,25.607L52.991,27.271C52.399,27.036 51.827,26.873 51.391,27.207L52.863,29.191C52.104,28.648 51.415,28.295 51.135,29.063C54.29,32.499 57.983,35.601 62.463,38.215L67.455,40.071C69.924,42.93 70.955,46.484 71.423,50.311L74.175,61.319L76.095,66.119L73.343,61.831L70.719,50.503C70.281,46.733 69.253,43.265 66.687,40.583L63.487,39.303C66.447,43.145 68.236,47.776 69.055,53.063L70.363,66.111C73.062,69.033 75.398,72.426 77.275,76.415C77.702,82.516 80.12,87.18 81.727,93.127L83.519,98.631L83.007,98.887L80.831,93.191C79.437,87.248 77.003,82.694 76.507,76.735L75.547,86.655C76.29,91.225 79.554,94.365 81.663,98.887L80.895,98.951C78.729,94.071 75.283,90.585 74.011,85.695L70.235,70.399L69.595,66.687L68.671,60.231L66.431,51.719C65.059,46.975 62.894,42.875 60.159,39.239L64.703,51.655L67.519,61.575L68.763,71.999C70.18,78.201 71.846,83.699 74.715,91.135C76.195,94.296 77.939,96.806 79.935,98.695L79.231,99.079C77.046,96.159 74.159,95.619 67.995,72.319L66.687,61.447L63.364,50.661C63.342,50.584 63.319,50.51 63.295,50.439L63.364,50.661C64.262,53.781 63.757,60.688 62.787,60.556C62.708,60.486 62.621,60.42 62.527,60.359C62.617,60.481 62.704,60.545 62.787,60.556C63.277,60.991 63.492,61.598 63.487,62.343C63.082,63.047 62.634,63.452 62.143,63.559C62.75,63.877 62.917,64.378 62.719,65.031C62.387,65.542 61.825,65.98 60.927,66.311C60.954,68.304 60.597,69.448 59.839,69.703C60.289,68.501 60.451,67.422 60.095,66.567C57.825,62.976 51.41,61.151 51.391,61.639L51.391,62.855C54.301,64.384 56.607,65.997 58.687,67.655C58.747,68.505 58.458,69.218 57.919,69.831C58.106,68.631 58.099,67.915 57.855,67.783C56.023,66.246 53.786,65.053 51.071,64.263L51.263,66.823C55.801,69.103 58.94,72.076 61.503,75.335C60.217,74.887 59.397,73.79 58.367,73.351C59.318,74.588 59.962,75.21 60.027,76.504L59.519,77.191C60.032,75.132 58.223,73.8 57.215,72.455C56.334,70.374 53.933,69.121 51.455,67.911L51.327,70.023C53.648,71.429 55.097,73.443 55.807,75.975C59.318,78.948 60.894,82.22 62.964,86.012L62.911,86.791C61.309,83.481 59.67,80.196 56.511,77.959L56.895,80.007C59.118,81.458 60.229,83.523 61.247,85.639C61.806,88.478 62.128,91.364 61.631,94.407L64.255,104.839L66.687,108.935L64.255,106.695L63.999,112.711L64.191,132.295C64.036,133.235 63.392,134.193 62.079,135.175C62.513,134.494 62.935,133.597 63.295,131.655L63.039,124.231C62.429,124.084 61.938,124.616 61.631,126.215L61.247,130.695L60.863,125.895C61.015,124.429 61.794,123.338 63.103,122.567L63.039,118.599C60.608,120.401 58.787,122.758 57.471,125.575L56.767,129.607L56.639,125.511C58.391,122.262 60.426,119.529 62.783,117.383L63.359,104.327L61.375,95.495L60.927,101.063C60.717,105.017 60.032,108.962 59.007,112.903C57.242,117.122 55.887,121.434 54.911,125.831C54.748,130.302 54.825,134.747 55.935,139.079C57.701,140.957 58.934,142.942 59.647,145.031C58.808,143.583 57.771,142.336 56.319,141.511L57.407,146.951C58.566,149.166 59.453,151.504 59.583,154.183C58.956,152.171 58.313,150.444 57.599,150.087L58.239,156.935C58.662,162.455 58.266,168.276 57.727,174.151C57.856,167.567 57.738,160.993 57.151,154.439C56.428,157.397 56.095,160.571 56.063,163.911C55.502,159.926 55.844,156.036 56.703,152.199C56.752,148.061 56.032,144.378 55.231,140.743C54.302,135.805 53.982,130.772 53.887,125.703C55.01,121.276 56.433,116.839 58.239,112.391C59.469,108.607 59.959,104.787 59.775,100.935L57.919,96.327L57.535,101.703L56.767,95.879L55.039,93.447L54.911,98.567L52.671,100.871L52.938,99.742L54.079,97.735L53.951,92.167L51.455,90.567L51.391,92.231L52.479,94.663L52.031,94.842L52.074,94.919L51.749,94.955L51.199,95.175L51.124,95.024L50.922,95.047L49.845,92.772L48.767,95.047L48.565,95.024L48.49,95.175L47.94,94.955L47.615,94.919L47.658,94.842L47.21,94.663L48.298,92.231L48.234,90.567L45.738,92.167L45.61,97.735L46.751,99.742L47.018,100.871L44.778,98.567L44.65,93.447L42.922,95.879L42.154,101.703L41.77,96.327L39.914,100.935C39.73,104.787 40.22,108.607 41.45,112.391C43.256,116.839 44.679,121.276 45.802,125.703C45.707,130.772 45.387,135.805 44.458,140.743C43.658,144.378 42.937,148.061 42.986,152.199C43.845,156.036 44.187,159.926 43.626,163.911C43.594,160.571 43.261,157.397 42.538,154.439C41.951,160.993 41.833,167.567 41.962,174.151C41.423,168.276 41.027,162.455 41.45,156.935L42.09,150.087C41.376,150.444 40.734,152.171 40.106,154.183C40.236,151.504 41.123,149.166 42.282,146.951L43.37,141.511C41.918,142.336 40.881,143.583 40.042,145.031C40.755,142.942 41.988,140.957 43.754,139.079C44.864,134.747 44.942,130.302 44.778,125.831C43.802,121.434 42.447,117.122 40.682,112.903C39.657,108.962 38.973,105.017 38.762,101.063L38.314,95.495L36.33,104.327L36.906,117.383C39.263,119.529 41.298,122.262 43.05,125.511L42.922,129.607L42.218,125.575C40.902,122.758 39.081,120.401 36.65,118.599L36.586,122.567C37.896,123.338 38.674,124.429 38.826,125.895L38.442,130.695L38.058,126.215C37.752,124.616 37.26,124.084 36.65,124.231L36.394,131.655C36.754,133.597 37.176,134.494 37.61,135.175C36.297,134.193 35.653,133.235 35.498,132.295L35.69,112.711L35.434,106.695L33.002,108.935L35.434,104.839L38.058,94.407C37.561,91.364 37.883,88.478 38.442,85.639C39.46,83.523 40.571,81.458 42.794,80.007L43.178,77.959C40.019,80.196 38.38,83.481 36.778,86.791L36.725,86.012C38.795,82.22 40.371,78.948 43.882,75.975C44.592,73.443 46.041,71.429 48.362,70.023L48.234,67.911C45.756,69.121 43.355,70.374 42.474,72.455C41.466,73.8 39.657,75.132 40.17,77.191L39.663,76.504C39.727,75.21 40.371,74.588 41.322,73.351C40.292,73.79 39.472,74.887 38.186,75.335C40.749,72.076 43.888,69.103 48.426,66.823L48.618,64.263C45.903,65.053 43.666,66.246 41.834,67.783C41.591,67.915 41.583,68.631 41.77,69.831C41.231,69.218 40.942,68.505 41.002,67.655C43.082,65.997 45.388,64.384 48.298,62.855L48.298,61.639C48.279,61.151 41.864,62.976 39.594,66.567C39.239,67.422 39.4,68.501 39.85,69.703C39.092,69.448 38.735,68.304 38.762,66.311C37.864,65.98 37.302,65.542 36.97,65.031C36.772,64.378 36.939,63.877 37.546,63.559C37.055,63.452 36.607,63.047 36.202,62.343C36.197,61.598 36.412,60.991 36.902,60.556C36.985,60.545 37.072,60.481 37.162,60.359C37.068,60.42 36.981,60.486 36.902,60.556C35.932,60.688 35.427,53.781 36.325,50.661L36.394,50.439C36.37,50.51 36.347,50.584 36.325,50.661L33.002,61.447L31.694,72.319C25.53,95.619 22.644,96.159 20.458,99.079L19.754,98.695C21.75,96.806 23.494,94.296 24.974,91.135C27.843,83.699 29.509,78.201 30.926,71.999L32.17,61.575L34.986,51.655L39.53,39.239C36.795,42.875 34.63,46.975 33.258,51.719L31.018,60.231L30.094,66.687L29.454,70.399L25.678,85.695C24.406,90.585 20.96,94.071 18.794,98.951L18.026,98.887C20.135,94.365 23.399,91.225 24.142,86.655L23.182,76.735C22.686,82.694 20.252,87.248 18.858,93.191L16.682,98.887L16.17,98.631L17.962,93.127C19.569,87.18 21.987,82.516 22.414,76.415C24.291,72.426 26.627,69.033 29.326,66.111L30.634,53.063C31.453,47.776 33.243,43.145 36.202,39.303L33.002,40.583C30.436,43.265 29.408,46.733 28.97,50.503L26.346,61.831L23.594,66.119L25.514,61.319L28.266,50.311C28.734,46.484 29.765,42.93 32.234,40.071L37.226,38.215C41.706,35.601 45.4,32.499 48.554,29.063C48.275,28.295 47.585,28.648 46.826,29.191L48.298,27.207C47.862,26.873 47.29,27.036 46.698,27.271L48.362,25.607C47.696,25.085 47.153,25.273 46.634,25.607L48.362,23.687L48.26,22.307ZM44.138,80.135C42.049,81.537 40.281,83.339 39.274,86.087C38.758,90.139 38.765,94.279 39.274,98.503C39.741,95.578 40.733,92.547 43.178,89.223C42.939,87.925 43.267,86.622 43.754,85.319C42.611,85.115 43.282,83.153 44.138,80.135ZM55.551,80.135C57.64,81.537 59.408,83.339 60.415,86.087C60.931,90.139 60.924,94.279 60.415,98.503C59.949,95.578 58.956,92.547 56.511,89.223C56.75,87.925 56.422,86.622 55.935,85.319C57.078,85.115 56.407,83.153 55.551,80.135ZM44.266,89.863L44.586,91.271C43.15,92.705 41.312,95.425 40.426,97.031C40.852,94.938 42.438,91.577 44.266,89.863ZM55.423,89.863L55.103,91.271C56.539,92.705 58.377,95.425 59.263,97.031C58.837,94.938 57.251,91.577 55.423,89.863ZM47.978,84.615L48.17,89.671C46.607,89.967 45.82,90.147 45.098,91.079L44.97,89.095C46.422,87.153 47.31,85.773 47.978,84.615ZM51.711,84.615L51.519,89.671C53.082,89.967 53.869,90.147 54.591,91.079L54.719,89.095C53.267,87.153 52.379,85.773 51.711,84.615ZM46.314,85.575C45.329,86.008 44.507,86.695 43.882,87.687L43.754,88.967C44.873,88.045 45.642,86.848 46.314,85.575ZM53.375,85.575C54.36,86.008 55.182,86.695 55.807,87.687L55.935,88.967C54.816,88.045 54.047,86.848 53.375,85.575ZM51.455,81.991L51.519,83.591C52.642,84.179 53.845,84.96 55.167,86.023C55.006,84.686 53.51,83.341 51.455,81.991ZM48.234,81.991L48.17,83.591C47.047,84.179 45.844,84.96 44.522,86.023C44.683,84.686 46.179,83.341 48.234,81.991ZM28.75,68.351L24.078,75.263L24.718,84.863L28.75,68.351ZM70.939,68.351L75.611,75.263L74.971,84.863L70.939,68.351ZM51.327,77.383L51.327,78.407C53.024,80.353 54.222,82.538 55.807,84.551C55.101,83.036 54.54,81.486 54.463,79.815C53.023,79.231 52.016,78.398 51.327,77.383ZM48.362,77.383L48.362,78.407C46.665,80.353 45.467,82.538 43.882,84.551C44.588,83.036 45.15,81.486 45.226,79.815C46.666,79.231 47.673,78.398 48.362,77.383ZM51.327,79.431L51.391,80.775C52.055,82.113 52.922,82.633 53.823,83.015C53.166,81.663 52.371,80.435 51.327,79.431ZM48.362,79.431L48.298,80.775C47.634,82.113 46.767,82.633 45.866,83.015C46.523,81.663 47.319,80.435 48.362,79.431ZM53.375,75.975C55.025,76.274 56.04,77.548 56.447,79.751C55.982,79.63 55.514,79.428 55.039,79.047C54.701,77.936 54.135,76.917 53.375,75.975ZM46.314,75.975C44.664,76.274 43.649,77.548 43.242,79.751C43.707,79.63 44.176,79.428 44.65,79.047C44.988,77.936 45.554,76.917 46.314,75.975ZM51.391,74.951L51.455,76.487C52.288,77.456 53.133,78.399 54.271,78.727C53.509,77.013 52.69,75.432 51.391,74.951ZM48.298,74.951L48.234,76.487C47.401,77.456 46.556,78.399 45.418,78.727C46.18,77.013 46.999,75.432 48.298,74.951ZM48.362,71.239L48.362,73.671C47.534,74.416 46.567,75.088 45.162,75.527C45.744,73.926 46.719,72.465 48.362,71.239ZM51.327,71.239L51.327,73.671C52.155,74.416 53.122,75.088 54.527,75.527C53.945,73.926 52.97,72.465 51.327,71.239ZM61.75,64.368C59.933,60.066 51.522,58.599 51.135,58.887L51.199,60.807C57.707,62.023 60.103,65.404 60.484,65.911C60.899,66.465 61.579,64.778 61.75,64.368ZM37.94,64.368C39.756,60.066 48.168,58.599 48.554,58.887L48.49,60.807C41.982,62.023 39.586,65.404 39.205,65.911C38.79,66.465 38.11,64.778 37.94,64.368ZM61.75,64.368L61.759,64.391C61.805,64.238 61.796,64.255 61.75,64.368ZM37.94,64.368L37.93,64.391C37.884,64.238 37.893,64.255 37.94,64.368ZM51.135,55.751L51.199,57.735C55.372,58.184 58.903,60.421 61.634,62.592C62.304,63.125 62.719,61.858 62.591,61.831C60.795,57.511 51.522,55.462 51.135,55.751ZM48.554,55.751L48.49,57.735C44.317,58.184 40.786,60.421 38.055,62.592C37.385,63.125 36.97,61.858 37.098,61.831C38.894,57.511 48.167,55.462 48.554,55.751ZM51.135,52.487L51.199,54.599C56.573,55.787 60.683,57.774 62.591,59.655C63.186,54.694 52.697,51.702 51.135,52.487ZM48.554,52.487L48.49,54.599C43.116,55.787 39.006,57.774 37.098,59.655C36.503,54.694 46.992,51.702 48.554,52.487ZM69.095,59.498L68.287,53.063C67.715,46.712 64.968,41.563 60.799,38.087C63.535,42.294 65.824,46.957 67.135,52.615L69.095,59.498ZM30.594,59.498L31.402,53.063C31.974,46.712 34.721,41.563 38.89,38.087C36.154,42.294 33.865,46.957 32.554,52.615L30.594,59.498ZM48.554,49.927L48.49,51.335C43.906,51.994 39.99,53.467 37.098,56.007C38.894,51.687 48.167,49.638 48.554,49.927ZM51.135,49.927L51.199,51.335C55.783,51.994 59.699,53.467 62.591,56.007C60.795,51.687 51.522,49.638 51.135,49.927ZM51.135,47.687L51.199,49.095C55.783,49.754 59.699,51.227 62.591,53.767C60.795,49.447 51.522,47.398 51.135,47.687ZM48.554,47.687L48.49,49.095C43.906,49.754 39.99,51.227 37.098,53.767C38.894,49.447 48.167,47.398 48.554,47.687ZM51.135,45.767L51.199,47.175C55.783,47.834 59.699,49.307 62.591,51.847C60.795,47.527 51.522,45.478 51.135,45.767ZM48.554,45.767L48.49,47.175C43.906,47.834 39.99,49.307 37.098,51.847C38.894,47.527 48.167,45.478 48.554,45.767ZM51.071,43.591C56.811,43.614 60.177,45.992 62.335,49.223C59.381,47.385 55.664,45.85 51.071,45.063L51.071,43.591ZM48.618,43.591C42.878,43.614 39.512,45.992 37.354,49.223C40.308,47.385 44.025,45.85 48.618,45.063L48.618,43.591ZM51.071,41.223L51.071,42.759C53,42.87 55.059,43.283 56.629,43.845C58.446,44.494 60.038,45.426 61.439,46.599C60.43,44.846 59.019,43.465 57.08,42.57C55.524,41.852 51.071,41.223 51.071,41.223ZM48.618,41.223L48.618,42.759C46.689,42.87 44.63,43.283 43.06,43.845C41.243,44.494 39.651,45.426 38.25,46.599C39.259,44.846 40.671,43.465 42.609,42.57C44.166,41.852 48.618,41.223 48.618,41.223ZM51.391,36.743L51.391,40.583C55.022,40.8 58.154,41.775 60.479,43.975C59.897,41.667 57.509,39.954 52.863,38.983L51.391,36.743ZM48.298,36.743L48.298,40.583C44.667,40.8 41.536,41.775 39.21,43.975C39.792,41.667 42.18,39.954 46.826,38.983L48.298,36.743ZM51.135,33.287L51.199,35.527L53.375,38.599C56.551,39.328 58.598,40.42 60.351,41.607C59.41,39.707 58.4,37.856 56.639,36.551L53.247,36.295L51.135,33.287ZM48.554,33.287L48.49,35.527L46.314,38.599C43.138,39.328 41.092,40.42 39.338,41.607C40.279,39.707 41.289,37.856 43.05,36.551L46.442,36.295L48.554,33.287ZM56.65,35.701L53.865,35.168C52.635,34.244 51.853,33.133 51.285,31.932L51.285,30.089C52.677,31.792 56.65,35.701 56.65,35.701ZM43.093,35.701L45.878,35.168C47.108,34.244 47.89,33.133 48.458,31.932L48.458,30.089C47.066,31.792 43.093,35.701 43.093,35.701Z" style="fill:rgb(79,165,153);fill-opacity:0.545098;"/>
    </g>
</svg>
