<?xml version="1.0" encoding="UTF-8" standalone="no"?>
<!DOCTYPE svg PUBLIC "-//W3C//DTD SVG 1.1//EN" "http://www.w3.org/Graphics/SVG/1.1/DTD/svg11.dtd">
<svg width="100%" height="100%" viewBox="0 0 100 200" version="1.1" xmlns="http://www.w3.org/2000/svg" xmlns:xlink="http://www.w3.org/1999/xlink" xml:space="preserve" xmlns:serif="http://www.serif.com/" style="fill-rule:evenodd;clip-rule:evenodd;stroke-linejoin:round;stroke-miterlimit:1.41421;">
    <g transform="matrix(0.416949,0,0,0.416949,35.2051,68.6312)">
        <g id="Organ-selection" serif:id="Organ selection">
            <path id="Small-intestine---Tyndtarm" serif:id="Small intestine / Tyndtarm" d="M5.051,11.536C4.804,11.45 3.553,11.479 3.095,11.479C1.543,11.479 0.283,10.219 0.283,8.667C0.283,7.115 1.543,5.855 3.095,5.855C3.855,5.855 5.607,6.503 5.906,6.503C6.76,6.503 8.044,7.555 8.071,7.555C9.392,7.555 10.524,8.374 10.985,9.532C12.463,9.925 13.552,11.274 13.552,12.874C13.552,12.89 13.552,12.907 13.552,12.923C14.258,13.063 14.903,13.335 15.448,13.705C16.127,12.448 20.4,12.488 21.26,13.659C22.709,12.559 30.314,15.162 30.061,16.581C30.692,15.906 35.009,16.196 35.603,17.249C36.537,16.417 39.297,16.879 39.486,18.122C39.857,17.986 42.113,17.91 42.614,18.192C43.515,17.08 46.712,17.335 47.21,18.337C49.697,14.844 54.342,16.122 54.776,15.221C55.669,13.366 56.181,12.086 57.912,12.086C59.642,12.086 61.047,13.49 61.047,15.221C61.047,15.603 62.746,18.249 62.746,19.752C62.746,21.31 61.918,22.654 60.727,23.265C62.326,24.247 63.393,26.012 63.393,28.025C63.393,29.58 62.756,30.988 61.728,32.001C64.203,32.071 64.056,36.477 61.602,36.945C61.512,38.046 60.907,39.002 60.027,39.57C62.279,40.408 61.391,46.063 57.919,46.222C59.102,48.253 53.836,51.933 52.342,49.976C51.847,50.338 50.672,51.127 50.69,51.388C50.894,54.341 46.537,55.507 46.013,54.626C45.756,56.955 41.785,57.544 41.134,56.792C39.946,59.242 34.178,59.507 33.648,57.561C32.37,58.888 27.587,58.653 26.669,55.698C25.661,56.983 20.56,56.209 20.758,53.631C20.14,53.514 19.564,53.276 19.056,52.944C14.552,53.665 13.133,50 13.218,48.935C12.374,48.885 11.628,48.47 11.135,47.846C7.623,48.143 6.471,41.593 7.965,40.344C5.182,39.385 5.779,31.392 7.694,30.952C5.53,30.717 5.247,26.951 6.386,26.167C4.774,24.31 6.445,18.876 9.152,19.606C8.249,18.888 7.765,15.936 7.911,15.557C7.288,15.049 6.844,14.329 6.692,13.506C5.899,13.117 5.294,12.402 5.051,11.536Z" style="fill:rgb(78,166,153);fill-opacity:0.537255;"/>
        </g>
    </g>
</svg>
