<?xml version="1.0" encoding="UTF-8" standalone="no"?>
<!DOCTYPE svg PUBLIC "-//W3C//DTD SVG 1.1//EN" "http://www.w3.org/Graphics/SVG/1.1/DTD/svg11.dtd">
<svg width="100%" height="100%" viewBox="0 0 100 200" version="1.1" xmlns="http://www.w3.org/2000/svg" xmlns:xlink="http://www.w3.org/1999/xlink" xml:space="preserve" xmlns:serif="http://www.serif.com/" style="fill-rule:evenodd;clip-rule:evenodd;stroke-linejoin:round;stroke-miterlimit:1.41421;">
    <g id="Organ-selection" serif:id="Organ selection">
        <path id="Veins" d="M73.206,52.043C74.324,59.529 72.275,72.367 72.368,72.521C74.036,75.98 75.418,79.542 76.257,83.299C76.857,85.095 80.399,88.944 81.257,89.188C80.455,89.238 79.705,88.967 79.035,88.188C77.755,87.148 76.945,86.392 76.177,85.019C76.83,89.425 78.814,94.685 81.097,98.317C81.55,100.442 83.413,103.969 83.035,104.632C82.378,104.025 81.308,101.114 80.479,99.188C78.19,95.052 76.232,90.752 75.479,85.854C75.064,81.514 73.93,77.411 71.813,73.632L68.146,66.299C67.376,63.444 66.916,60.39 67.035,56.965C67.464,53.741 67.173,50.728 66.035,47.965C65.572,45.78 64.639,43.868 62.924,42.41C61.665,41.219 60.202,40.441 58.59,39.965C56.377,39.297 54.488,39.675 52.813,40.743C50.389,41.637 48.696,42.94 47.701,44.632L48.59,68.743C48.865,70.354 49.691,71.877 51.146,73.299C52.475,74.425 55.398,75.029 55.813,75.854C54.926,75.999 52.405,75.209 51.368,74.632C49.996,74.108 49.132,73.211 48.59,72.077L48.701,91.188C52.454,95.422 57.988,104.139 57.813,105.077C57.616,106.127 56.853,124.23 57.59,133.188C58.277,137.028 58.338,140.972 57.689,145.035C56.66,154.722 56.071,172.109 56.108,173.206C56.165,174.906 56.839,180.899 57.434,184.697C58.251,187.3 61.954,191.339 61.26,191.169C60.408,190.76 57.454,187.586 56.545,185.031C56.295,181.279 54.926,177.552 55.509,173.199C55.089,164.107 55.5,154.505 56.578,144.48C57.432,140.71 57.055,136.805 56.257,132.854C55.966,129.386 55.848,124.638 55.838,120.053C55.822,112.663 56.483,105.757 56.368,105.188C56.181,104.256 50.301,94.495 49.146,94.521C47.643,94.555 43.273,101.02 42.179,105.064C42.273,106.995 42.811,123.436 42.076,132.203C41.278,136.154 40.902,140.058 41.755,143.829C42.833,153.854 43.244,163.456 42.824,172.548C43.408,176.901 42.393,180.984 42.144,184.735C41.234,187.29 38.281,190.464 37.429,190.873C36.735,191.044 40.438,187.004 41.255,184.402C41.85,180.603 42.168,174.255 42.225,172.555C42.262,171.458 41.673,154.071 40.644,144.384C39.995,140.321 40.057,136.377 40.743,132.537C41.43,124.195 40.479,104.521 40.479,104.521C40.479,104.521 43.098,96.777 45.59,93.077L46.257,72.854C45.167,74.227 42.717,75.938 42.035,75.299C42.82,74.704 45.304,72.676 46.146,70.632L45.257,40.41C43.709,39.607 41.892,39.237 39.768,39.361C37.237,39.992 37.618,39.668 36.248,41.872C33.751,44.571 32.667,47.583 32.257,50.743L31.035,61.521L30.257,67.41C29.614,69.86 28.244,72.024 26.59,74.077C24.864,77.872 24.518,79.644 23.826,83.037C22.398,86.447 21.014,89.851 20.146,93.188C19.874,95.172 19.187,97.007 17.924,98.632C17.004,100.707 16.942,104.86 16.257,105.077C15.729,105.243 15.685,101.305 16.813,98.965C18.014,96.728 18.807,94.657 19.173,92.761C19.727,90.1 20.964,87.537 22.146,84.965C20.608,86.464 18.631,88.349 17.813,88.632C18.256,87.274 21.407,84.213 22.813,82.41C23.317,79.539 25.737,72.894 25.808,72.803C24.999,66.266 23.778,59.996 24.945,52.182C27.112,43.904 30.595,40.103 35.479,41.077L35.49,41.041C35.95,39.545 37.466,38.87 39.257,38.41C41.996,37.925 43.889,38.245 45.479,38.854C45.113,36.017 45.36,33.411 46.035,30.965C46.464,29.41 47.422,26.895 48.146,26.188C49.024,26.248 47.935,29.378 47.257,30.965C46.432,33.522 46.206,35.849 46.813,37.854L46.924,42.743C48.301,41.517 49.631,40.616 50.924,39.965C50.549,39.046 50.514,37.643 50.981,36.348C51.636,34.215 52.638,30.952 53.924,30.299C53.648,31.019 52.473,34.291 51.941,36.721C51.756,37.57 51.815,38.47 52.257,39.077C54.792,38.015 57.107,37.99 59.257,38.743C60.702,39.263 61.987,39.961 63.087,40.866C67.754,40.185 71.1,44.002 73.206,52.043ZM25.74,52.254C24.681,56.134 25.42,61.84 26.522,71.056C28.182,68.943 28.663,68.585 29.257,66.632L30.813,54.632C30.415,51.793 32.343,45.167 34.244,42.223C31.85,40.553 27.433,46.056 25.74,52.254ZM71.514,71.044C72.604,61.956 73.462,55.963 72.411,52.115C70.782,46.152 66.632,40.832 64.187,41.925C65.415,43.328 66.359,45.014 66.924,47.077C67.784,49.863 68.199,52.859 68.146,56.077C68.083,58.56 68.071,61.025 68.59,63.299C69.134,66.073 70.184,68.621 71.514,71.044Z" style="fill:rgb(79,165,153);fill-opacity:0.545098;"/>
    </g>
</svg>
