<?xml version="1.0" encoding="UTF-8" standalone="no"?>
<!DOCTYPE svg PUBLIC "-//W3C//DTD SVG 1.1//EN" "http://www.w3.org/Graphics/SVG/1.1/DTD/svg11.dtd">
<svg width="100%" height="100%" viewBox="0 0 945 1182" version="1.1" xmlns="http://www.w3.org/2000/svg" xmlns:xlink="http://www.w3.org/1999/xlink" xml:space="preserve" xmlns:serif="http://www.serif.com/" style="fill-rule:evenodd;clip-rule:evenodd;stroke-linejoin:round;stroke-miterlimit:1.41421;">
    <g id="Bone-selection-layers" serif:id="Bone selection layers">
        <path d="M125.615,253.023C144.102,270.94 169.297,327.531 194.799,395.903C178.007,417.008 174.073,432.827 169.286,449.931C166.931,494.161 168.144,507.243 161.783,559.486C158.966,582.621 140.337,598.884 128.512,593.201C129.022,591.828 129.606,590.427 130.266,588.998C121.366,542.553 112.465,497.41 103.563,462.644C102.03,444.566 100.764,427.796 99.751,412.271C98.08,357.858 104.346,307.981 119.761,263.332C121.693,259.852 123.644,256.416 125.615,253.023Z" style="fill:rgb(78,110,166);"/>
        <path d="M824.272,259.273C826.094,262.597 827.878,265.951 829.623,269.335C844.194,313.325 845.568,363.915 828.122,423.914C827.133,503.742 826.373,584.871 814.392,602.421C802.95,606.111 788.924,602.581 789.102,587.497C789.806,528.189 784.405,484.202 777.096,444.924C772.31,427.821 781.883,419.506 765.09,398.401C775.397,335.866 802.715,276.148 824.272,259.273Z" style="fill:rgb(78,126,166);"/>
        <path d="M471.061,919.442C522.605,919.372 568.01,914.237 601.25,896.925C618.021,880.171 608.594,895.298 613.367,870.532C640.006,834.577 664.913,774.03 667.54,710.061C683.055,713.559 709.552,711.567 741.078,707.059C760.883,708.423 777.803,686.701 793.605,656.033C781.669,703.698 766.037,743.971 738.076,759.586C722.346,825.36 722.291,876.905 742.579,930.673C740.806,941.128 737.85,957.734 720.067,968.192C683.082,1035.21 624.484,1082.77 547.479,1113.77C522.882,1117.47 497.669,1120.15 471.061,1120.5L471.061,919.442Z" style="fill:rgb(166,78,105);"/>
        <path d="M467.487,1120.54C440.364,1120.68 411.771,1118.38 380.894,1112.27C323.402,1086.73 269.765,1048.87 232.318,959.188C217.764,949.82 212.855,938.04 214.309,924.67C216.342,901.611 214.278,884.697 208.306,873.644C210.07,830.597 209.045,793.125 206.805,758.085C166.661,733.333 147.399,695.292 151.277,642.526C184.294,685.723 217.311,703.382 250.328,702.557C254.956,754.976 277.713,802.216 310.358,846.63L330.16,889.054C330.81,905.831 348.111,895.325 380.784,916.105C410.775,917.889 439.976,919.354 467.487,919.439L467.487,1120.54Z" style="fill:rgb(166,78,125);"/>
        <path d="M202.303,461.433C222.09,423.648 252.051,403.667 287.847,393.898C358.636,384.999 405.657,407.295 412.41,482.444C399.079,571.268 310.034,601.411 232.318,567.987C200.817,519.571 193.783,485.836 202.303,461.433" style="fill:rgb(125,78,166);"/>
        <g transform="matrix(-1,0,0,1,950.05,6)">
            <path d="M202.303,461.433C222.09,423.648 252.051,403.667 287.847,393.898C358.636,384.999 405.657,407.295 412.41,482.444C399.079,571.268 310.034,601.411 232.318,567.987C200.817,519.571 193.783,485.836 202.303,461.433" style="fill:rgb(140,78,166);"/>
        </g>
        <path d="M472.441,682.045C437.368,712.854 412.965,702.763 401.905,641.525C422.498,545.555 446.845,498.373 475.442,506.456C510.577,516.963 529.853,565.984 536.974,644.526C534.651,706.068 510.783,712.552 472.441,682.045" style="fill:rgb(162,78,166);"/>
        <g transform="matrix(1,0,0,1.15332,0,-144.316)">
            <path d="M310.406,885.267C311.637,894.041 313.801,899.429 316.897,899.569C318.709,899.651 320.839,897.936 323.289,894.052C326.236,905.001 331.665,911.604 340.858,911.621C342.606,920.993 349.197,922.133 356.202,914.586C367.439,940.802 375.027,944.662 383.141,922.69C390.453,946.506 402.338,942.718 415.585,918.09C426.375,937.583 434.31,942.387 442.289,917.013C450.725,936.937 461.545,940.745 470.283,916.201C477.082,930.512 483.185,942.135 497.807,922.162C508.1,937.83 517.772,940.462 526.503,923.333C538.892,943.701 549.525,940.172 557.541,916.428C565.088,933.207 573.147,934.895 577.57,914.898C593.366,923.452 599.918,926.005 598.536,903.422C607.515,916.667 614.152,913.718 618.447,890.538L616.69,875.312C608.238,870.756 601.522,886.197 596.193,895.697C585.914,883.694 581.095,886.243 577.687,902.63C570.177,892.651 563.178,892.128 556.604,905.605C547.812,895.336 530.582,891.374 527.557,910.196C523.757,894.1 499.114,893.195 498.627,908.449C494.074,900.151 485.828,889.369 470.048,905.02C459.121,892.134 446.923,896.905 440.65,907.542C434.921,891.136 423.774,890.514 414.531,904.698C406.417,890.727 391.181,890.336 383.024,902.498C378.848,884.312 363.75,889.199 357.256,901.733C354.421,892.197 351.276,889.545 343.435,896.235C343.409,880.282 335.774,871.176 323.875,881.679C322.965,871.896 321.331,854.953 310.991,857.743L310.406,885.267" style="fill:rgb(166,141,78);"/>
        </g>
        <path d="M314.505,809.721C310.566,814.888 309.659,829.15 310.406,848.373C313.839,853.273 320.95,852.063 322.821,846.03C327.595,865.051 331.388,876.492 337.813,868.987C345.921,883.32 353.171,886.363 355.265,875.429C367.682,898.73 384.772,891.307 391.574,869.573C394.487,896.95 409.636,896.838 426.243,881.637C441.651,895.73 458.755,895.364 472.625,883.159C482.419,891.561 501.438,894.971 516.547,883.042C526.477,899.253 546.792,906.77 552.856,879.411C567.691,895.804 576.674,885.625 582.138,869.221C590.851,879.358 597.236,881.158 603.103,864.653C606.812,868.531 613.176,872.405 618.447,856.572C617.29,843.388 616.351,830.095 612.005,818.506C605.027,820.492 602.936,826.552 603.455,834.786C594.872,819.73 587.598,818.998 583.075,836.426C571.612,807.203 556.843,807.856 547,839.588C542.372,824.112 529.369,817.968 514.439,836.894C492.66,815.154 479.842,823.965 471.805,847.201C458.979,829.252 438.458,809.918 426.36,839.705C420.964,828.917 409.624,821.32 391.105,836.777C383.532,826.733 370.32,816.894 357.842,835.606C356.309,827.072 349.605,820.168 339.219,831.975C336.896,824.996 331.039,821.189 324.344,826.704C320.506,819.48 318.655,810.074 314.505,809.721" style="fill:rgb(166,108,78);"/>
        <path d="M417.445,579.861C451.077,483.473 486.279,482.041 524.677,576.287C516.946,517.918 516.204,473.688 537.188,444.034C498.395,376.375 457.43,371.696 413.871,442.247C433.089,474.858 431.588,513.89 417.445,579.861" style="fill:rgb(99,78,166);"/>
        <path d="M129.286,246.79C319.354,-71.525 680.513,2.763 822.19,255.518C822.509,256.398 822.826,257.281 823.14,258.165L821.632,261.526C802.775,278.913 780.357,326.63 768.746,379.418L737.354,449.396L736.58,449.374C717.414,423.037 691.803,407.976 662.203,399.898C607.994,393.084 567.723,404.562 548.8,444.059L547.911,444.034L537.11,443.899C498.34,376.369 457.401,371.743 413.871,442.247L413.937,442.359L404.935,442.247L403.064,442.089C384.986,399.345 343.856,386.857 287.847,393.898C261.502,401.088 238.317,413.809 220.023,435.088L217.279,435.098C207.02,424.819 197.535,414.411 188.884,403.864C190.659,401.289 192.621,398.641 194.799,395.903C170.35,330.355 146.184,275.636 127.94,255.44C127.916,253.968 127.909,252.494 127.919,251.017C128.368,249.602 128.824,248.193 129.286,246.79Z" style="fill:rgb(78,143,166);"/>
        <path d="M128.51,593.205C128.573,593.037 128.512,593.201 128.512,593.201C140.337,598.884 158.966,582.621 161.783,559.486C168.144,507.243 166.931,494.161 169.286,449.931C167.291,446.286 182.664,409.185 185.407,409.185C187.362,406.016 185.75,407.06 188.31,403.65L220.333,434.657C212.59,443.048 208.299,449.984 202.303,461.433C193.783,485.836 200.817,519.571 232.318,567.987C255.632,578.014 279.966,582.32 302.969,581.037C239.068,624.054 225.092,664.574 249.448,703.178C247.859,703.807 246.269,704.379 244.679,704.895C194.635,696.785 162.529,658.966 151.277,644.526C132.172,631.738 119.89,616.39 128.51,593.205Z" style="fill:rgb(78,98,166);"/>
        <g transform="matrix(-1,0,0,1,950.394,7)">
            <path d="M137.805,595.604C137.868,595.436 137.807,595.6 137.807,595.6C142.436,597.685 160.29,601.08 160.583,577.777C161.189,529.562 164.476,495.88 169.286,449.931C170.127,449.121 173.838,434.24 174.612,432.273C169.505,426.75 178.12,389.025 188.01,388.058L214.036,443.652C206.293,452.043 208.299,449.984 202.303,461.433C193.783,485.836 200.817,518.372 232.318,566.788C255.632,576.815 280.865,581.721 303.869,580.438C239.968,623.454 225.092,664.574 249.448,703.178C247.859,703.807 246.269,704.379 244.679,704.895C191.731,712.033 164.133,679.401 156.374,646.625C145.365,639.234 129.185,618.789 137.805,595.604Z" style="fill:rgb(81,78,166);"/>
        </g>
    </g>
    <g id="Bone-selection-layers1" serif:id="Bone selection layers">
        <path id="Maxilla" d="M252.093,704.922C228.107,666.437 239.318,623.886 302.969,581.037C302.764,581.049 302.56,581.06 302.355,581.07C354.558,577.952 399.877,548.003 411.511,486.042C411.859,482.173 425.765,480.108 427.631,494.768C429.949,512.981 424.178,548.456 417.445,579.861C418.398,577.13 419.352,574.476 420.308,571.897C413.865,591.099 407.735,614.357 401.905,641.525C412.965,702.763 437.368,712.854 472.441,682.045C510.783,712.552 534.651,706.068 536.974,644.526C534.331,615.373 530.013,590.287 523.831,569.729C519.533,536.708 517.783,504.545 521.294,490.762C524.417,478.505 536.154,479.843 537.639,488.444C548.477,577.024 641.185,590.14 644.33,585.242C707.981,628.09 722.99,674.141 699.034,712.654L698.75,713.106C682.086,713.562 674.751,713.521 665.711,712.896C645.114,711.471 625.43,750.38 621.753,762.223C617.084,777.266 626.058,823.233 607.46,825.186C601.184,825.845 572.255,828.879 534.776,831.449C462.448,836.82 398.003,836.059 343.244,827.766C323.998,823.127 311.936,815.973 311.907,805.326C311.65,712.658 271.963,708.048 252.377,705.374L252.093,704.922ZM252.196,705.359C252.225,705.36 252.255,705.362 252.285,705.364L252.377,705.374C250.936,705.944 251.292,705.37 252.109,705.358L252.196,705.359Z" style="fill:rgb(166,92,78);"/>
    </g>
</svg>
