<?xml version="1.0" encoding="UTF-8" standalone="no"?>
<!DOCTYPE svg PUBLIC "-//W3C//DTD SVG 1.1//EN" "http://www.w3.org/Graphics/SVG/1.1/DTD/svg11.dtd">
<svg width="100%" height="100%" viewBox="0 0 100 200" version="1.1" xmlns="http://www.w3.org/2000/svg" xmlns:xlink="http://www.w3.org/1999/xlink" xml:space="preserve" xmlns:serif="http://www.serif.com/" style="fill-rule:evenodd;clip-rule:evenodd;stroke-linejoin:round;stroke-miterlimit:2;">
    <g id="Organ-selection-colored" serif:id="Organ selection colored">
        <path id="Veins" d="M73.206,52.043C74.324,59.529 72.275,72.367 72.368,72.521C74.036,75.98 75.418,79.542 76.257,83.299C76.857,85.095 80.399,88.944 81.257,89.188C80.455,89.238 79.705,88.967 79.035,88.188C77.755,87.148 76.945,86.392 76.177,85.019C76.83,89.425 78.814,94.685 81.097,98.317C81.55,100.442 83.413,103.969 83.035,104.632C82.378,104.025 81.308,101.114 80.479,99.188C78.19,95.052 76.232,90.752 75.479,85.854C75.064,81.514 73.93,77.411 71.813,73.632L68.146,66.299C67.376,63.444 66.916,60.39 67.035,56.965C67.464,53.741 67.173,50.728 66.035,47.965C65.572,45.78 64.639,43.868 62.924,42.41C61.665,41.219 60.202,40.441 58.59,39.965C56.377,39.297 54.488,39.675 52.813,40.743C50.389,41.637 48.696,42.94 47.701,44.632L48.59,68.743C48.865,70.354 49.691,71.877 51.146,73.299C52.475,74.425 55.398,75.029 55.813,75.854C54.926,75.999 52.405,75.209 51.368,74.632C49.996,74.108 49.132,73.211 48.59,72.077L48.701,91.188C52.454,95.422 57.988,104.139 57.813,105.077C57.616,106.127 56.853,124.23 57.59,133.188C58.277,137.028 58.338,140.972 57.689,145.035C56.66,154.722 56.071,172.109 56.108,173.206C56.165,174.906 56.839,180.899 57.434,184.697C58.251,187.3 61.954,191.339 61.26,191.169C60.408,190.76 57.454,187.586 56.545,185.031C56.295,181.279 54.926,177.552 55.509,173.199C55.089,164.107 55.5,154.505 56.578,144.48C57.432,140.71 57.055,136.805 56.257,132.854C55.966,129.386 55.848,124.638 55.838,120.053C55.822,112.663 56.483,105.757 56.368,105.188C56.181,104.256 50.301,94.495 49.146,94.521C47.643,94.555 43.273,101.02 42.179,105.064C42.273,106.995 42.811,123.436 42.076,132.203C41.278,136.154 40.902,140.058 41.755,143.829C42.833,153.854 43.244,163.456 42.824,172.548C43.408,176.901 42.393,180.984 42.144,184.735C41.234,187.29 38.281,190.464 37.429,190.873C36.735,191.044 40.438,187.004 41.255,184.402C41.85,180.603 42.168,174.255 42.225,172.555C42.262,171.458 41.673,154.071 40.644,144.384C39.995,140.321 40.057,136.377 40.743,132.537C41.43,124.195 40.479,104.521 40.479,104.521C40.479,104.521 43.098,96.777 45.59,93.077L46.257,72.854C45.167,74.227 42.717,75.938 42.035,75.299C42.82,74.704 45.304,72.676 46.146,70.632L45.257,40.41C43.709,39.607 41.892,39.237 39.768,39.361C37.237,39.992 37.618,39.668 36.248,41.872C33.751,44.571 32.667,47.583 32.257,50.743L31.035,61.521L30.257,67.41C29.614,69.86 28.244,72.024 26.59,74.077C24.864,77.872 24.518,79.644 23.826,83.037C22.398,86.447 21.014,89.851 20.146,93.188C19.874,95.172 19.187,97.007 17.924,98.632C17.004,100.707 16.942,104.86 16.257,105.077C15.729,105.243 15.685,101.305 16.813,98.965C18.014,96.728 18.807,94.657 19.173,92.761C19.727,90.1 20.964,87.537 22.146,84.965C20.608,86.464 18.631,88.349 17.813,88.632C18.256,87.274 21.407,84.213 22.813,82.41C23.317,79.539 25.737,72.894 25.808,72.803C24.999,66.266 23.778,59.996 24.945,52.182C27.112,43.904 30.595,40.103 35.479,41.077L35.49,41.041C35.95,39.545 37.466,38.87 39.257,38.41C41.996,37.925 43.889,38.245 45.479,38.854C45.113,36.017 45.36,33.411 46.035,30.965C46.464,29.41 47.422,26.895 48.146,26.188C49.024,26.248 47.935,29.378 47.257,30.965C46.432,33.522 46.206,35.849 46.813,37.854L46.924,42.743C48.301,41.517 49.631,40.616 50.924,39.965C50.549,39.046 50.514,37.643 50.981,36.348C51.636,34.215 52.638,30.952 53.924,30.299C53.648,31.019 52.473,34.291 51.941,36.721C51.756,37.57 51.815,38.47 52.257,39.077C54.792,38.015 57.107,37.99 59.257,38.743C60.702,39.263 61.987,39.961 63.087,40.866C67.754,40.185 71.1,44.002 73.206,52.043ZM25.74,52.254C24.681,56.134 25.42,61.84 26.522,71.056C28.182,68.943 28.663,68.585 29.257,66.632L30.813,54.632C30.415,51.793 32.343,45.167 34.244,42.223C31.85,40.553 27.433,46.056 25.74,52.254ZM71.514,71.044C72.604,61.956 73.462,55.963 72.411,52.115C70.782,46.152 66.632,40.832 64.187,41.925C65.415,43.328 66.359,45.014 66.924,47.077C67.784,49.863 68.199,52.859 68.146,56.077C68.083,58.56 68.071,61.025 68.59,63.299C69.134,66.073 70.184,68.621 71.514,71.044Z" style="fill:rgb(165,117,79);"/>
        <path id="Arteries" d="M27.097,65.439L27.785,54.965C27.434,52.392 30.327,42.665 32.571,41.047C32.571,41.047 33.013,40.08 35.911,38.561C37.926,37.505 45.616,35.844 47.451,37.521C47.085,34.684 47.332,32.077 48.007,29.632C48.436,28.076 49.395,25.562 50.118,24.854C50.996,24.915 49.907,28.045 49.229,29.632C48.405,32.189 48.178,34.515 48.785,36.521L48.896,41.41C49.663,40.727 49.554,40.705 49.53,40.707L49.53,40.707C49.53,40.707 49.53,40.707 49.53,40.707C49.53,40.707 49.53,40.707 49.53,40.707C49.51,40.709 49.545,40.726 50.118,40.438C49.744,39.518 49.709,37.282 50.176,35.987C50.831,33.854 51.832,30.591 53.118,29.938C52.842,30.658 51.668,33.93 51.136,36.36C50.95,37.209 51.01,38.942 51.451,39.549C53.987,38.487 59.08,36.656 61.229,37.41C62.674,37.929 64.676,38.895 66.159,40.591C67.387,41.995 68.331,43.681 68.896,45.743C69.756,48.529 71.282,51.109 71.229,54.327C71.166,56.81 70.738,60.802 71.257,63.077C71.801,65.851 73.011,70.085 73.09,70.215C74.758,73.675 79.507,79.498 80.346,83.254C80.267,85.339 82.4,94.855 85.186,98.272C85.639,100.398 87.502,103.924 87.124,104.588C86.467,103.98 85.397,101.069 84.568,99.143C82.279,95.007 80.321,90.707 79.568,85.81C79.153,81.47 72.375,70.839 72.375,70.839C70.598,72.657 69.555,79.538 72.473,84.306C73.542,89.185 77.355,94.734 79.47,98.85C80.052,100.864 81.073,103.793 80.951,104.679C80.237,104.407 79.439,100.499 78.44,98.569C76.952,96.01 72.412,87.542 71.228,84.424C68.562,77.401 70.942,69.968 71.696,68.769L70.813,66.077C70.043,63.221 69.999,58.64 70.118,55.215C70.547,51.991 69.145,49.395 68.007,46.632C67.544,44.447 66.611,42.535 64.896,41.077C63.637,39.886 62.175,39.108 60.563,38.632C58.349,37.964 56.46,38.342 54.785,39.41C52.361,40.304 51.641,40.773 50.646,42.465L51.813,68.66C52.087,70.271 52.358,71.655 53.813,73.077C55.142,74.203 58.064,74.807 58.479,75.632C57.592,75.777 55.071,74.987 54.035,74.41C52.663,73.886 51.798,72.989 51.257,71.854L50.283,92.051C53.68,96.258 59.319,104.982 59.394,105.939C59.478,107.005 58.434,125.093 59.172,134.051C59.858,137.891 55.753,144.057 55.104,148.12C54.075,157.807 54.736,172.972 54.773,174.069C54.83,175.769 54.17,181.939 54.765,185.738C55.582,188.34 59.286,192.38 58.592,192.209C57.739,191.8 54.786,188.627 53.876,186.071C53.627,182.32 53.591,178.415 54.174,174.062C53.754,164.97 52.637,158.285 53.715,148.259C54.569,144.489 58.637,137.668 57.839,133.717C57.548,130.249 57.43,125.501 57.42,120.915C57.404,113.526 58.064,106.619 57.95,106.051C57.762,105.119 51.882,95.358 50.727,95.384C49.225,95.418 44.855,101.883 43.761,105.927C43.855,107.858 44.393,124.299 43.658,133.066C42.859,137.017 44.705,145.644 45.559,149.414C46.637,159.439 44.826,164.319 44.406,173.411C44.989,177.764 44.953,181.669 44.703,185.42C43.794,187.975 40.841,191.149 39.988,191.558C39.294,191.729 42.998,187.689 43.814,185.087C44.41,181.288 43.75,175.118 43.807,173.418C43.843,172.321 45.06,159.101 44.031,149.414C43.382,145.351 41.638,137.24 42.325,133.4C43.012,125.057 42.061,105.384 42.061,105.384C42.061,105.384 44.68,97.64 47.172,93.939L48.924,72.632C47.833,74.004 45.384,75.716 44.701,75.077C45.487,74.481 47.971,72.454 48.813,70.41L47.229,39.077C45.934,36.688 39.159,38.268 36.502,39.289C35.221,39.782 34.272,39.865 32.902,42.069C30.404,44.768 29.639,47.916 29.229,51.077L28.701,62.965C28.701,62.965 27.778,69.353 27.702,69.544C28.628,72.079 29.955,78.275 27.713,84.181C26.53,87.299 21.99,95.767 20.501,98.326C19.502,100.256 18.704,104.164 17.991,104.436C17.869,103.55 18.889,100.621 19.471,98.607C21.586,94.491 25.4,88.942 26.468,84.063C29.386,79.295 28.343,72.414 26.566,70.596C26.566,70.596 19.788,81.227 19.373,85.567C18.62,90.464 16.662,94.764 14.373,98.9C13.545,100.826 12.474,103.737 11.818,104.345C11.439,103.681 13.302,100.155 13.756,98.029C16.542,94.612 18.674,85.096 18.596,83.011C19.434,79.255 24.183,73.432 25.851,69.972C25.908,69.879 26.541,67.692 27.097,65.439Z" style="fill:rgb(165,138,79);"/>
        <path id="Nerves" d="M48.26,22.307C48.251,21.211 51.286,21.11 51.353,22.307L51.327,23.687L53.055,25.607C52.537,25.273 51.993,25.085 51.327,25.607L52.991,27.271C52.399,27.036 51.827,26.873 51.391,27.207L52.863,29.191C52.104,28.648 51.415,28.295 51.135,29.063C54.29,32.499 57.983,35.601 62.463,38.215L67.455,40.071C69.924,42.93 70.955,46.484 71.423,50.311L74.175,61.319L76.095,66.119L73.343,61.831L70.719,50.503C70.281,46.733 69.253,43.265 66.687,40.583L63.487,39.303C66.447,43.145 68.236,47.776 69.055,53.063L70.363,66.111C73.062,69.033 75.398,72.426 77.275,76.415C77.702,82.516 80.12,87.18 81.727,93.127L83.519,98.631L83.007,98.887L80.831,93.191C79.437,87.248 77.003,82.694 76.507,76.735L75.547,86.655C76.29,91.225 79.554,94.365 81.663,98.887L80.895,98.951C78.729,94.071 75.283,90.585 74.011,85.695L70.235,70.399L69.595,66.687L68.671,60.231L66.431,51.719C65.059,46.975 62.894,42.875 60.159,39.239L64.703,51.655L67.519,61.575L68.763,71.999C70.18,78.201 71.846,83.699 74.715,91.135C76.195,94.296 77.939,96.806 79.935,98.695L79.231,99.079C77.046,96.159 74.159,95.619 67.995,72.319L66.687,61.447L63.364,50.661C63.342,50.584 63.319,50.51 63.295,50.439L63.364,50.661C64.262,53.781 63.757,60.688 62.787,60.556C62.708,60.486 62.621,60.42 62.527,60.359C62.617,60.481 62.704,60.545 62.787,60.556C63.277,60.991 63.492,61.598 63.487,62.343C63.082,63.047 62.634,63.452 62.143,63.559C62.75,63.877 62.917,64.378 62.719,65.031C62.387,65.542 61.825,65.98 60.927,66.311C60.954,68.304 60.597,69.448 59.839,69.703C60.289,68.501 60.451,67.422 60.095,66.567C57.825,62.976 51.41,61.151 51.391,61.639L51.391,62.855C54.301,64.384 56.607,65.997 58.687,67.655C58.747,68.505 58.458,69.218 57.919,69.831C58.106,68.631 58.099,67.915 57.855,67.783C56.023,66.246 53.786,65.053 51.071,64.263L51.263,66.823C55.801,69.103 58.94,72.076 61.503,75.335C60.217,74.887 59.397,73.79 58.367,73.351C59.318,74.588 59.962,75.21 60.027,76.504L59.519,77.191C60.032,75.132 58.223,73.8 57.215,72.455C56.334,70.374 53.933,69.121 51.455,67.911L51.327,70.023C53.648,71.429 55.097,73.443 55.807,75.975C59.318,78.948 60.894,82.22 62.964,86.012L62.911,86.791C61.309,83.481 59.67,80.196 56.511,77.959L56.895,80.007C59.118,81.458 60.229,83.523 61.247,85.639C61.806,88.478 62.128,91.364 61.631,94.407L64.255,104.839L66.687,108.935L64.255,106.695L63.999,112.711L64.191,132.295C64.036,133.235 63.392,134.193 62.079,135.175C62.513,134.494 62.935,133.597 63.295,131.655L63.039,124.231C62.429,124.084 61.938,124.616 61.631,126.215L61.247,130.695L60.863,125.895C61.015,124.429 61.794,123.338 63.103,122.567L63.039,118.599C60.608,120.401 58.787,122.758 57.471,125.575L56.767,129.607L56.639,125.511C58.391,122.262 60.426,119.529 62.783,117.383L63.359,104.327L61.375,95.495L60.927,101.063C60.717,105.017 60.032,108.962 59.007,112.903C57.242,117.122 55.887,121.434 54.911,125.831C54.748,130.302 54.825,134.747 55.935,139.079C57.701,140.957 58.934,142.942 59.647,145.031C58.808,143.583 57.771,142.336 56.319,141.511L57.407,146.951C58.566,149.166 59.453,151.504 59.583,154.183C58.956,152.171 58.313,150.444 57.599,150.087L58.239,156.935C58.662,162.455 58.266,168.276 57.727,174.151C57.856,167.567 57.738,160.993 57.151,154.439C56.428,157.397 56.095,160.571 56.063,163.911C55.502,159.926 55.844,156.036 56.703,152.199C56.752,148.061 56.032,144.378 55.231,140.743C54.302,135.805 53.982,130.772 53.887,125.703C55.01,121.276 56.433,116.839 58.239,112.391C59.469,108.607 59.959,104.787 59.775,100.935L57.919,96.327L57.535,101.703L56.767,95.879L55.039,93.447L54.911,98.567L52.671,100.871L52.938,99.742L54.079,97.735L53.951,92.167L51.455,90.567L51.391,92.231L52.479,94.663L52.031,94.842L52.074,94.919L51.749,94.955L51.199,95.175L51.124,95.024L50.922,95.047L49.845,92.772L48.767,95.047L48.565,95.024L48.49,95.175L47.94,94.955L47.615,94.919L47.658,94.842L47.21,94.663L48.298,92.231L48.234,90.567L45.738,92.167L45.61,97.735L46.751,99.742L47.018,100.871L44.778,98.567L44.65,93.447L42.922,95.879L42.154,101.703L41.77,96.327L39.914,100.935C39.73,104.787 40.22,108.607 41.45,112.391C43.256,116.839 44.679,121.276 45.802,125.703C45.707,130.772 45.387,135.805 44.458,140.743C43.658,144.378 42.937,148.061 42.986,152.199C43.845,156.036 44.187,159.926 43.626,163.911C43.594,160.571 43.261,157.397 42.538,154.439C41.951,160.993 41.833,167.567 41.962,174.151C41.423,168.276 41.027,162.455 41.45,156.935L42.09,150.087C41.376,150.444 40.734,152.171 40.106,154.183C40.236,151.504 41.123,149.166 42.282,146.951L43.37,141.511C41.918,142.336 40.881,143.583 40.042,145.031C40.755,142.942 41.988,140.957 43.754,139.079C44.864,134.747 44.942,130.302 44.778,125.831C43.802,121.434 42.447,117.122 40.682,112.903C39.657,108.962 38.973,105.017 38.762,101.063L38.314,95.495L36.33,104.327L36.906,117.383C39.263,119.529 41.298,122.262 43.05,125.511L42.922,129.607L42.218,125.575C40.902,122.758 39.081,120.401 36.65,118.599L36.586,122.567C37.896,123.338 38.674,124.429 38.826,125.895L38.442,130.695L38.058,126.215C37.752,124.616 37.26,124.084 36.65,124.231L36.394,131.655C36.754,133.597 37.176,134.494 37.61,135.175C36.297,134.193 35.653,133.235 35.498,132.295L35.69,112.711L35.434,106.695L33.002,108.935L35.434,104.839L38.058,94.407C37.561,91.364 37.883,88.478 38.442,85.639C39.46,83.523 40.571,81.458 42.794,80.007L43.178,77.959C40.019,80.196 38.38,83.481 36.778,86.791L36.725,86.012C38.795,82.22 40.371,78.948 43.882,75.975C44.592,73.443 46.041,71.429 48.362,70.023L48.234,67.911C45.756,69.121 43.355,70.374 42.474,72.455C41.466,73.8 39.657,75.132 40.17,77.191L39.663,76.504C39.727,75.21 40.371,74.588 41.322,73.351C40.292,73.79 39.472,74.887 38.186,75.335C40.749,72.076 43.888,69.103 48.426,66.823L48.618,64.263C45.903,65.053 43.666,66.246 41.834,67.783C41.591,67.915 41.583,68.631 41.77,69.831C41.231,69.218 40.942,68.505 41.002,67.655C43.082,65.997 45.388,64.384 48.298,62.855L48.298,61.639C48.279,61.151 41.864,62.976 39.594,66.567C39.239,67.422 39.4,68.501 39.85,69.703C39.092,69.448 38.735,68.304 38.762,66.311C37.864,65.98 37.302,65.542 36.97,65.031C36.772,64.378 36.939,63.877 37.546,63.559C37.055,63.452 36.607,63.047 36.202,62.343C36.197,61.598 36.412,60.991 36.902,60.556C36.985,60.545 37.072,60.481 37.162,60.359C37.068,60.42 36.981,60.486 36.902,60.556C35.932,60.688 35.427,53.781 36.325,50.661L36.394,50.439C36.37,50.51 36.347,50.584 36.325,50.661L33.002,61.447L31.694,72.319C25.53,95.619 22.644,96.159 20.458,99.079L19.754,98.695C21.75,96.806 23.494,94.296 24.974,91.135C27.843,83.699 29.509,78.201 30.926,71.999L32.17,61.575L34.986,51.655L39.53,39.239C36.795,42.875 34.63,46.975 33.258,51.719L31.018,60.231L30.094,66.687L29.454,70.399L25.678,85.695C24.406,90.585 20.96,94.071 18.794,98.951L18.026,98.887C20.135,94.365 23.399,91.225 24.142,86.655L23.182,76.735C22.686,82.694 20.252,87.248 18.858,93.191L16.682,98.887L16.17,98.631L17.962,93.127C19.569,87.18 21.987,82.516 22.414,76.415C24.291,72.426 26.627,69.033 29.326,66.111L30.634,53.063C31.453,47.776 33.243,43.145 36.202,39.303L33.002,40.583C30.436,43.265 29.408,46.733 28.97,50.503L26.346,61.831L23.594,66.119L25.514,61.319L28.266,50.311C28.734,46.484 29.765,42.93 32.234,40.071L37.226,38.215C41.706,35.601 45.4,32.499 48.554,29.063C48.275,28.295 47.585,28.648 46.826,29.191L48.298,27.207C47.862,26.873 47.29,27.036 46.698,27.271L48.362,25.607C47.696,25.085 47.153,25.273 46.634,25.607L48.362,23.687L48.26,22.307ZM44.138,80.135C42.049,81.537 40.281,83.339 39.274,86.087C38.758,90.139 38.765,94.279 39.274,98.503C39.741,95.578 40.733,92.547 43.178,89.223C42.939,87.925 43.267,86.622 43.754,85.319C42.611,85.115 43.282,83.153 44.138,80.135ZM55.551,80.135C57.64,81.537 59.408,83.339 60.415,86.087C60.931,90.139 60.924,94.279 60.415,98.503C59.949,95.578 58.956,92.547 56.511,89.223C56.75,87.925 56.422,86.622 55.935,85.319C57.078,85.115 56.407,83.153 55.551,80.135ZM44.266,89.863L44.586,91.271C43.15,92.705 41.312,95.425 40.426,97.031C40.852,94.938 42.438,91.577 44.266,89.863ZM55.423,89.863L55.103,91.271C56.539,92.705 58.377,95.425 59.263,97.031C58.837,94.938 57.251,91.577 55.423,89.863ZM47.978,84.615L48.17,89.671C46.607,89.967 45.82,90.147 45.098,91.079L44.97,89.095C46.422,87.153 47.31,85.773 47.978,84.615ZM51.711,84.615L51.519,89.671C53.082,89.967 53.869,90.147 54.591,91.079L54.719,89.095C53.267,87.153 52.379,85.773 51.711,84.615ZM46.314,85.575C45.329,86.008 44.507,86.695 43.882,87.687L43.754,88.967C44.873,88.045 45.642,86.848 46.314,85.575ZM53.375,85.575C54.36,86.008 55.182,86.695 55.807,87.687L55.935,88.967C54.816,88.045 54.047,86.848 53.375,85.575ZM51.455,81.991L51.519,83.591C52.642,84.179 53.845,84.96 55.167,86.023C55.006,84.686 53.51,83.341 51.455,81.991ZM48.234,81.991L48.17,83.591C47.047,84.179 45.844,84.96 44.522,86.023C44.683,84.686 46.179,83.341 48.234,81.991ZM28.75,68.351L24.078,75.263L24.718,84.863L28.75,68.351ZM70.939,68.351L75.611,75.263L74.971,84.863L70.939,68.351ZM51.327,77.383L51.327,78.407C53.024,80.353 54.222,82.538 55.807,84.551C55.101,83.036 54.54,81.486 54.463,79.815C53.023,79.231 52.016,78.398 51.327,77.383ZM48.362,77.383L48.362,78.407C46.665,80.353 45.467,82.538 43.882,84.551C44.588,83.036 45.15,81.486 45.226,79.815C46.666,79.231 47.673,78.398 48.362,77.383ZM51.327,79.431L51.391,80.775C52.055,82.113 52.922,82.633 53.823,83.015C53.166,81.663 52.371,80.435 51.327,79.431ZM48.362,79.431L48.298,80.775C47.634,82.113 46.767,82.633 45.866,83.015C46.523,81.663 47.319,80.435 48.362,79.431ZM53.375,75.975C55.025,76.274 56.04,77.548 56.447,79.751C55.982,79.63 55.514,79.428 55.039,79.047C54.701,77.936 54.135,76.917 53.375,75.975ZM46.314,75.975C44.664,76.274 43.649,77.548 43.242,79.751C43.707,79.63 44.176,79.428 44.65,79.047C44.988,77.936 45.554,76.917 46.314,75.975ZM51.391,74.951L51.455,76.487C52.288,77.456 53.133,78.399 54.271,78.727C53.509,77.013 52.69,75.432 51.391,74.951ZM48.298,74.951L48.234,76.487C47.401,77.456 46.556,78.399 45.418,78.727C46.18,77.013 46.999,75.432 48.298,74.951ZM48.362,71.239L48.362,73.671C47.534,74.416 46.567,75.088 45.162,75.527C45.744,73.926 46.719,72.465 48.362,71.239ZM51.327,71.239L51.327,73.671C52.155,74.416 53.122,75.088 54.527,75.527C53.945,73.926 52.97,72.465 51.327,71.239ZM61.75,64.368C59.933,60.066 51.522,58.599 51.135,58.887L51.199,60.807C57.707,62.023 60.103,65.404 60.484,65.911C60.899,66.465 61.579,64.778 61.75,64.368ZM37.94,64.368C39.756,60.066 48.168,58.599 48.554,58.887L48.49,60.807C41.982,62.023 39.586,65.404 39.205,65.911C38.79,66.465 38.11,64.778 37.94,64.368ZM61.75,64.368L61.759,64.391C61.805,64.238 61.796,64.255 61.75,64.368ZM37.94,64.368L37.93,64.391C37.884,64.238 37.893,64.255 37.94,64.368ZM51.135,55.751L51.199,57.735C55.372,58.184 58.903,60.421 61.634,62.592C62.304,63.125 62.719,61.858 62.591,61.831C60.795,57.511 51.522,55.462 51.135,55.751ZM48.554,55.751L48.49,57.735C44.317,58.184 40.786,60.421 38.055,62.592C37.385,63.125 36.97,61.858 37.098,61.831C38.894,57.511 48.167,55.462 48.554,55.751ZM51.135,52.487L51.199,54.599C56.573,55.787 60.683,57.774 62.591,59.655C63.186,54.694 52.697,51.702 51.135,52.487ZM48.554,52.487L48.49,54.599C43.116,55.787 39.006,57.774 37.098,59.655C36.503,54.694 46.992,51.702 48.554,52.487ZM69.095,59.498L68.287,53.063C67.715,46.712 64.968,41.563 60.799,38.087C63.535,42.294 65.824,46.957 67.135,52.615L69.095,59.498ZM30.594,59.498L31.402,53.063C31.974,46.712 34.721,41.563 38.89,38.087C36.154,42.294 33.865,46.957 32.554,52.615L30.594,59.498ZM48.554,49.927L48.49,51.335C43.906,51.994 39.99,53.467 37.098,56.007C38.894,51.687 48.167,49.638 48.554,49.927ZM51.135,49.927L51.199,51.335C55.783,51.994 59.699,53.467 62.591,56.007C60.795,51.687 51.522,49.638 51.135,49.927ZM51.135,47.687L51.199,49.095C55.783,49.754 59.699,51.227 62.591,53.767C60.795,49.447 51.522,47.398 51.135,47.687ZM48.554,47.687L48.49,49.095C43.906,49.754 39.99,51.227 37.098,53.767C38.894,49.447 48.167,47.398 48.554,47.687ZM51.135,45.767L51.199,47.175C55.783,47.834 59.699,49.307 62.591,51.847C60.795,47.527 51.522,45.478 51.135,45.767ZM48.554,45.767L48.49,47.175C43.906,47.834 39.99,49.307 37.098,51.847C38.894,47.527 48.167,45.478 48.554,45.767ZM51.071,43.591C56.811,43.614 60.177,45.992 62.335,49.223C59.381,47.385 55.664,45.85 51.071,45.063L51.071,43.591ZM48.618,43.591C42.878,43.614 39.512,45.992 37.354,49.223C40.308,47.385 44.025,45.85 48.618,45.063L48.618,43.591ZM51.071,41.223L51.071,42.759C53,42.87 55.059,43.283 56.629,43.845C58.446,44.494 60.038,45.426 61.439,46.599C60.43,44.846 59.019,43.465 57.08,42.57C55.524,41.852 51.071,41.223 51.071,41.223ZM48.618,41.223L48.618,42.759C46.689,42.87 44.63,43.283 43.06,43.845C41.243,44.494 39.651,45.426 38.25,46.599C39.259,44.846 40.671,43.465 42.609,42.57C44.166,41.852 48.618,41.223 48.618,41.223ZM51.391,36.743L51.391,40.583C55.022,40.8 58.154,41.775 60.479,43.975C59.897,41.667 57.509,39.954 52.863,38.983L51.391,36.743ZM48.298,36.743L48.298,40.583C44.667,40.8 41.536,41.775 39.21,43.975C39.792,41.667 42.18,39.954 46.826,38.983L48.298,36.743ZM51.135,33.287L51.199,35.527L53.375,38.599C56.551,39.328 58.598,40.42 60.351,41.607C59.41,39.707 58.4,37.856 56.639,36.551L53.247,36.295L51.135,33.287ZM48.554,33.287L48.49,35.527L46.314,38.599C43.138,39.328 41.092,40.42 39.338,41.607C40.279,39.707 41.289,37.856 43.05,36.551L46.442,36.295L48.554,33.287ZM56.65,35.701L53.865,35.168C52.635,34.244 51.853,33.133 51.285,31.932L51.285,30.089C52.677,31.792 56.65,35.701 56.65,35.701ZM43.093,35.701L45.878,35.168C47.108,34.244 47.89,33.133 48.458,31.932L48.458,30.089C47.066,31.792 43.093,35.701 43.093,35.701Z" style="fill:rgb(162,165,79);"/>
        <g id="Brain---Hjerne" serif:id="Brain / Hjerne" transform="matrix(1,0,0,1,-0.109318,0)">
            <path d="M49.936,3.341C50.35,2.732 50.252,2.193 50.948,2.097C53.428,1.758 57.912,4.634 57.912,7.36C57.912,10.086 53.779,12.599 52.73,11.814C51.527,10.914 51.617,11.906 49.936,11.546C48.256,11.906 48.345,10.914 47.143,11.814C46.093,12.599 41.961,10.086 41.961,7.36C41.961,4.634 46.445,1.758 48.924,2.097C49.621,2.193 49.522,2.732 49.936,3.341Z" style="fill:rgb(78,94,166);"/>
        </g>
        <path id="Bladder-and-Kidneys" serif:id="Bladder and Kidneys" d="M56.788,65.413C56.632,64.946 56.47,64.478 56.47,64.221C56.47,63.057 57.415,62.112 58.579,62.112C59.217,62.112 59.789,62.396 60.176,62.844C61.088,63.714 61.683,65.139 61.683,66.749C61.683,67.841 61.409,68.848 60.948,69.654L60.921,69.646C60.59,70.378 59.853,70.888 58.998,70.888C57.834,70.888 56.889,69.943 56.889,68.779C56.889,68.733 56.913,68.485 56.943,68.167C56.82,68.273 56.698,68.416 56.577,68.61C56.53,68.684 56.486,68.76 56.444,68.837C56.384,68.947 56.318,69.055 56.276,69.174C54.729,73.607 57.305,78.85 56.989,83.816C56.915,84.992 57.201,85.334 56.232,88.964C55.941,89.931 55.566,91.176 54.959,92.215C56.196,92.834 57.046,94.114 57.046,95.591C57.046,97.125 56.129,98.446 54.813,99.035C53.577,99.85 51.26,101.4 51.021,101.878C50.928,102.065 50.803,102.881 50.654,103.03C50.622,103.063 49.964,103.126 49.869,103.03C49.834,102.995 49.691,102.12 49.449,101.878C49.024,101.452 46.997,99.904 45.812,98.959C44.582,98.337 43.739,97.061 43.739,95.591C43.739,94.326 44.362,93.206 45.318,92.522C44.597,91.429 44.175,90.028 43.855,88.964C42.886,85.334 43.172,84.992 43.097,83.816C42.782,78.85 45.358,73.607 43.811,69.174C43.769,69.055 43.703,68.947 43.643,68.837C43.601,68.76 43.557,68.684 43.51,68.61C43.386,68.411 43.26,68.266 43.134,68.159C43.165,68.481 43.189,68.733 43.189,68.779C43.189,69.943 42.244,70.888 41.08,70.888C40.225,70.888 39.488,70.378 39.157,69.646L39.13,69.654C38.669,68.848 38.395,67.841 38.395,66.749C38.395,65.139 38.99,63.714 39.902,62.844C40.289,62.396 40.861,62.112 41.499,62.112C42.663,62.112 43.608,63.057 43.608,64.221C43.608,64.477 43.446,64.945 43.291,65.411C45.587,65.997 46.718,69.023 46.878,70.971C47.325,76.42 44.311,81.946 46.26,88.281C46.695,89.726 47.882,91.644 47.882,91.644C47.933,91.716 47.98,91.785 48.024,91.853C48.97,91.982 49.805,92.462 50.393,93.157C50.801,92.674 51.33,92.294 51.931,92.065C52.009,91.933 52.1,91.793 52.205,91.644C52.205,91.644 53.392,89.726 53.827,88.281C55.775,81.946 52.762,76.42 53.209,70.971C53.369,69.025 54.497,66.005 56.788,65.413ZM52.469,91.53C52.498,91.518 52.476,91.527 52.469,91.53ZM47.618,91.53C47.589,91.518 47.61,91.527 47.618,91.53ZM52.528,91.511C52.684,91.461 52.57,91.5 52.528,91.511ZM47.558,91.511C47.403,91.461 47.517,91.5 47.558,91.511Z" style="fill:rgb(117,79,165);fill-rule:nonzero;"/>
        <g id="Spleen" transform="matrix(0.672336,0.39032,-0.407006,0.701078,46.8158,-3.54318)">
            <path d="M59.288,65.51C57.994,63.786 61.654,61.627 63.485,63.712C64.566,64.943 65.467,67.732 64.284,70.773C63.746,72.155 62.402,73.793 61.286,71.773C60.774,70.845 60.152,66.662 59.288,65.51Z" style="fill:rgb(214,26,109);"/>
        </g>
        <path id="Pancreas" d="M42.441,68.983C40.978,73.729 45.987,73.554 46.589,70.566C46.684,70.094 52.83,69.236 52.81,66.828C52.807,66.424 49.322,68.44 45.689,68.056C43.446,67.885 42.441,68.983 42.441,68.983Z" style="fill:rgb(236,204,45);"/>
        <g id="Stomach---Mavesæk" serif:id="Stomach / Mavesæk" transform="matrix(0.373534,0.20735,-0.20735,0.373534,48.2497,45.0383)">
            <path d="M32.368,36.107C33.61,32.246 34.488,31.392 34.634,30.504C34.705,30.069 35.096,29.382 33.678,28.19C28.994,24.251 22.961,7.371 24.273,0.789C24.425,0.025 26.235,0.322 26.296,1.638C26.487,5.789 30.244,21.839 37.542,25.17C38.731,25.712 43.472,23.916 46.308,24.563C56.558,26.899 53.207,44.33 45.22,48.293C39.003,52.047 23.196,51.886 20.73,51.263C18.183,50.619 14.16,56.452 17.098,60.453C17.479,60.972 15.387,62.097 15.28,62.039C9.542,58.937 12.442,46.441 17.493,44.662C21.938,43.096 26.314,42.42 32.368,36.107Z" style="fill:rgb(85,79,165);"/>
        </g>
        <g id="Small-intestine---Tyndtarm" serif:id="Small intestine / Tyndtarm" transform="matrix(0.416949,0,0,0.416949,35.2051,68.6312)">
            <path d="M5.051,11.536C4.804,11.45 3.553,11.479 3.095,11.479C1.543,11.479 0.283,10.219 0.283,8.667C0.283,7.115 1.543,5.855 3.095,5.855C3.855,5.855 5.607,6.503 5.906,6.503C6.76,6.503 8.044,7.555 8.071,7.555C9.392,7.555 10.524,8.374 10.985,9.532C12.463,9.925 13.552,11.274 13.552,12.874C13.552,12.89 13.552,12.907 13.552,12.923C14.258,13.063 14.903,13.335 15.448,13.705C16.127,12.448 20.4,12.488 21.26,13.659C22.709,12.559 30.314,15.162 30.061,16.581C30.692,15.906 35.009,16.196 35.603,17.249C36.537,16.417 39.297,16.879 39.486,18.122C39.857,17.986 42.113,17.91 42.614,18.192C43.515,17.08 46.712,17.335 47.21,18.337C49.697,14.844 54.342,16.122 54.776,15.221C55.669,13.366 56.181,12.086 57.912,12.086C59.642,12.086 61.047,13.49 61.047,15.221C61.047,15.603 62.746,18.249 62.746,19.752C62.746,21.31 61.918,22.654 60.727,23.265C62.326,24.247 63.393,26.012 63.393,28.025C63.393,29.58 62.756,30.988 61.728,32.001C64.203,32.071 64.056,36.477 61.602,36.945C61.512,38.046 60.907,39.002 60.027,39.57C62.279,40.408 61.391,46.063 57.919,46.222C59.102,48.253 53.836,51.933 52.342,49.976C51.847,50.338 50.672,51.127 50.69,51.388C50.894,54.341 46.537,55.507 46.013,54.626C45.756,56.955 41.785,57.544 41.134,56.792C39.946,59.242 34.178,59.507 33.648,57.561C32.37,58.888 27.587,58.653 26.669,55.698C25.661,56.983 20.56,56.209 20.758,53.631C20.14,53.514 19.564,53.276 19.056,52.944C14.552,53.665 13.133,50 13.218,48.935C12.374,48.885 11.628,48.47 11.135,47.846C7.623,48.143 6.471,41.593 7.965,40.344C5.182,39.385 5.779,31.392 7.694,30.952C5.53,30.717 5.247,26.951 6.386,26.167C4.774,24.31 6.445,18.876 9.152,19.606C8.249,18.888 7.765,15.936 7.911,15.557C7.288,15.049 6.844,14.329 6.692,13.506C5.899,13.117 5.294,12.402 5.051,11.536Z" style="fill:rgb(133,78,166);"/>
        </g>
        <g id="Large-intestine---Tyktarm" serif:id="Large intestine / Tyktarm" transform="matrix(0.451988,0,0,0.451988,35.5311,70.162)">
            <path d="M4.903,38.399C4.409,37.521 4.126,36.507 4.126,35.428C4.126,34.06 4.58,32.798 5.345,31.782C3.875,30.715 2.913,28.94 2.913,26.933C2.913,25.745 3.25,24.638 3.83,23.711C3.301,22.897 2.994,21.927 2.994,20.885C2.994,20.115 3.161,19.385 3.462,18.727C2.592,17.76 2.063,16.481 2.063,15.079C2.063,13.234 2.98,11.602 4.382,10.613C3.808,9.632 3.479,8.49 3.479,7.271C3.479,3.61 6.452,0.637 10.114,0.637C11.404,0.637 12.609,1.006 13.629,1.645C14.521,1.01 15.612,0.637 16.789,0.637C18.883,0.637 20.704,1.818 21.62,3.551C22.509,2.841 23.635,2.417 24.86,2.417C27.622,2.417 29.884,4.576 30.048,7.296C30.635,7.021 31.289,6.867 31.98,6.867C33.707,6.867 35.211,7.831 35.982,9.25C36.817,8.286 38.049,7.676 39.424,7.676C40.618,7.676 41.706,8.137 42.518,8.891C43.177,7.413 44.66,6.381 46.382,6.381C46.922,6.381 47.439,6.483 47.914,6.668C48.536,5.261 49.944,4.278 51.58,4.278C52.176,4.278 52.741,4.408 53.249,4.641C53.242,4.555 53.239,4.467 53.239,4.379C53.239,2.448 54.807,0.879 56.738,0.879C58.67,0.879 60.238,2.448 60.238,4.379C60.238,5.661 59.547,6.783 58.517,7.393C59.518,8.213 60.157,9.458 60.157,10.852C60.157,12.343 59.425,13.664 58.302,14.476C59.072,15.239 59.55,16.297 59.55,17.466C59.55,18.765 58.96,19.927 58.034,20.699C59.004,21.43 59.631,22.592 59.631,23.898C59.631,24.886 59.273,25.791 58.679,26.489C60.526,27.306 61.815,29.154 61.815,31.302C61.815,33.593 60.347,35.544 58.301,36.264C58.735,37.033 58.984,37.921 58.984,38.867C58.984,41.792 56.609,44.166 53.684,44.166C53.281,44.166 52.888,44.121 52.51,44.036C52.472,46.928 50.112,49.264 47.211,49.264C46.904,49.264 46.603,49.238 46.31,49.187C45.826,52.197 43.487,54.483 40.678,54.483C39.859,54.483 39.08,54.288 38.376,53.939C38.207,56.471 34.739,59.71 34.739,59.83C34.739,61.777 33.337,63.358 31.61,63.358C29.883,63.358 28.48,61.777 28.48,59.83C28.48,59.254 26.943,55.344 26.943,53.451C26.943,49.89 29.508,46.998 32.668,46.998C33.486,46.998 34.265,47.192 34.969,47.542C35.191,44.208 37.664,41.577 40.678,41.577C41.259,41.577 41.819,41.675 42.348,41.857C43.163,39.979 45.035,38.665 47.211,38.665C47.614,38.665 48.007,38.71 48.385,38.795C48.415,36.505 49.901,34.564 51.958,33.855C51.537,33.099 51.297,32.228 51.297,31.302C51.297,29.624 52.084,28.129 53.31,27.165C52.288,26.439 51.621,25.246 51.621,23.898C51.621,22.718 52.132,21.657 52.946,20.923C51.852,20.163 51.135,18.898 51.135,17.466C51.135,16.14 51.75,14.957 52.71,14.185C52.14,13.677 51.702,13.024 51.452,12.286C51.065,12.274 50.693,12.207 50.341,12.092C49.74,13.695 48.193,14.837 46.382,14.837C45.352,14.837 44.408,14.468 43.674,13.855C43.019,15.564 41.362,16.778 39.424,16.778C37.696,16.778 36.192,15.814 35.421,14.395C34.587,15.359 33.354,15.969 31.98,15.969C29.701,15.969 27.812,14.291 27.48,12.105C26.711,12.555 25.815,12.814 24.86,12.814C22.942,12.814 21.265,11.773 20.364,10.226C19.406,11.057 18.156,11.56 16.789,11.56C16.285,11.56 15.798,11.491 15.335,11.364C14.649,12.237 13.749,12.934 12.715,13.376C12.891,13.912 12.986,14.485 12.986,15.079C12.986,16.034 12.741,16.931 12.31,17.712C12.987,18.59 13.391,19.691 13.391,20.885C13.391,21.68 13.212,22.434 12.892,23.108C13.733,24.139 14.24,25.475 14.24,26.933C14.24,28.144 13.89,29.271 13.289,30.208C15.069,31.266 16.263,33.209 16.263,35.428C16.263,36.026 16.176,36.604 16.015,37.15C16.341,37.636 16.587,38.179 16.734,38.771C17.195,40.632 16.563,42.534 15.222,43.912C14.572,45.633 12.712,46.877 10.52,46.877C8.428,46.877 6.638,45.744 5.915,44.145C5.282,43.496 4.816,42.695 4.589,41.779C4.303,40.623 4.438,39.451 4.903,38.399Z" style="fill:rgb(78,149,166);fill-opacity:0.99;"/>
        </g>
        <g id="Liver---Lever" serif:id="Liver / Lever" transform="matrix(0.363049,-0.0594061,0.0607053,0.370989,33.0813,53.0401)">
            <path d="M63.26,27.492C63.804,25.884 47.898,23.091 44.582,22.24C38.746,20.742 34.18,14.979 20.794,15.605C18.489,15.713 9.626,17.02 5.583,24.182C3.13,28.526 -0.389,49.061 1.537,51.287C3.613,53.685 18.137,41.156 22.376,41.726C38.082,43.838 46.502,42.085 49.032,40.93C51.227,39.927 63.751,28.084 63.26,27.492Z" style="fill:rgb(166,78,114);"/>
        </g>
        <path id="Trachea" d="M48.695,26.414C48.772,26.139 49.235,25.928 49.794,25.928C50.407,25.928 50.904,26.182 50.904,26.495C50.904,26.539 50.894,26.581 50.876,26.622L50.876,45.705L57.689,50.945L56.379,52.649L49.852,47.629L43.325,52.649L42.015,50.945L48.689,45.811L48.689,26.55C48.686,26.532 48.684,26.513 48.684,26.495C48.684,26.476 48.686,26.457 48.689,26.439L48.689,26.414L48.695,26.414Z" style="fill:rgb(166,78,113);"/>
        <g id="Left-lung---Venstre-lunge" serif:id="Left lung / Venstre lunge" transform="matrix(0.435911,0,0,0.435911,43.9071,37.5045)">
            <path d="M42.882,63.411C41.011,62.518 31.013,58.285 25.244,56.371C23.412,55.764 20.325,51.013 19.742,49.494C17.2,42.87 19.762,23.052 19.904,20.366C19.995,18.653 17.207,3.994 17.881,2.485C18.14,1.907 18.938,1.373 19.58,1.11C37.231,-6.121 49.723,34.586 48.142,47.957C47.69,51.773 46.025,64.909 42.882,63.411Z" style="fill:rgb(166,84,78);"/>
        </g>
        <g id="Right-lung---Højre-lunge" serif:id="Right lung / Højre lunge" transform="matrix(-0.435911,0,0,0.435911,55.6601,37.6645)">
            <path d="M42.882,63.411C41.011,62.518 31.013,58.285 25.244,56.371C23.412,55.764 20.325,51.013 19.742,49.494C17.2,42.87 19.762,23.052 19.904,20.366C19.995,18.653 17.207,3.994 17.881,2.485C18.14,1.907 18.938,1.373 19.58,1.11C37.231,-6.121 49.723,34.586 48.142,47.957C47.69,51.773 46.025,64.909 42.882,63.411Z" style="fill:rgb(166,91,78);"/>
        </g>
        <g id="Heart---Hjerte" serif:id="Heart / Hjerte" transform="matrix(0.247713,0,0,0.209311,43.3429,39.4036)">
            <path d="M15.213,21.704C16.006,19.446 14.778,11.261 15.152,10.848C16.165,9.727 21.196,9.918 21.769,9.358C21.984,9.148 22.692,7.96 23.145,7.518C23.262,7.403 21.439,4.26 22.231,3.636C22.341,3.549 23.567,2.507 25.001,3.54C25.621,3.986 27.052,6.387 28.026,5.662C28.573,5.255 29.079,5.09 29.552,4.628C29.793,4.393 28.899,1.11 29.82,0.632C31.404,-0.19 32.423,0.585 32.453,0.614C32.585,0.744 33.009,2.321 33.039,3.659C33.057,4.437 34.636,4.02 34.686,3.971C34.829,3.831 34.249,1.987 34.964,1.555C35.86,1.015 37.65,1.748 37.803,2.38C37.825,2.468 37.495,4.441 37.972,5.221C38.256,5.687 38.989,7.111 39.889,8.462C40.611,9.546 41.322,10.645 41.599,11.112C41.68,11.249 44.409,10.251 44.806,10.218C45.853,10.131 45.998,11.732 45.508,12.427C44.981,13.175 42.579,14.272 42.31,14.535C42.166,14.675 42.467,16.1 42.502,16.057C43.94,14.331 44.68,14.369 44.73,14.355C45.46,14.156 47.582,16.737 46.51,17.67C45.824,18.268 44.256,18.943 43.28,19.741C43.208,19.801 42.882,21.93 43.129,23.034C45.726,25.107 49.8,30.973 49.8,36.941C49.8,36.994 49.68,37.229 49.837,37.504C59.583,54.59 51.86,61.861 50.582,62.215C26.324,68.939 8.551,45.968 8.496,36.941C8.458,30.911 11.086,25.481 15.213,21.704Z" style="fill:rgb(165,79,156);"/>
        </g>
        <g id="Thyroid---Skjoldbruskkirtel" serif:id="Thyroid / Skjoldbruskkirtel" transform="matrix(1,3.46945e-18,-6.93889e-18,1,0.906877,-0.574908)">
            <path d="M48.734,32.413C48.46,32.899 48.05,33.25 47.643,33.269C46.718,33.314 45.669,31.6 45.562,30.304C45.455,29.007 46.029,27.513 46.953,27.468C47.683,27.433 47.999,28.409 48.451,29.463C48.565,29.329 48.697,29.253 48.838,29.253C49.01,29.253 49.169,29.367 49.298,29.561C49.774,28.471 50.086,27.431 50.838,27.468C51.763,27.513 52.337,29.007 52.229,30.304C52.122,31.6 51.074,33.314 50.149,33.269C49.731,33.249 49.311,32.881 49.036,32.375C48.973,32.409 48.906,32.427 48.838,32.427C48.803,32.427 48.768,32.422 48.734,32.413Z" style="fill:rgb(78,114,166);"/>
        </g>
        <g id="Nerves1" serif:id="Nerves" transform="matrix(1,0,0,1,-2.24512,32.82)">
            <circle cx="86.924" cy="14.669" r="4.371" style="fill:rgb(162,165,79);"/>
        </g>
        <g id="Arteries1" serif:id="Arteries" transform="matrix(1,0,0,1,-2.24512,42.7819)">
            <circle cx="86.924" cy="14.669" r="4.371" style="fill:rgb(165,138,79);"/>
        </g>
        <g id="Veins1" serif:id="Veins" transform="matrix(1,0,0,1,-2.24512,52.9471)">
            <circle cx="86.924" cy="14.669" r="4.371" style="fill:rgb(165,117,79);"/>
        </g>
    </g>
</svg>
