<?xml version="1.0" encoding="UTF-8" standalone="no"?>
<!DOCTYPE svg PUBLIC "-//W3C//DTD SVG 1.1//EN" "http://www.w3.org/Graphics/SVG/1.1/DTD/svg11.dtd">
<svg width="100%" height="100%" viewBox="0 0 100 200" version="1.1" xmlns="http://www.w3.org/2000/svg" xmlns:xlink="http://www.w3.org/1999/xlink" xml:space="preserve" xmlns:serif="http://www.serif.com/" style="fill-rule:evenodd;clip-rule:evenodd;stroke-linejoin:round;stroke-miterlimit:2;">
    <g id="Body-scan-selections" serif:id="Body scan selections">
        <path d="M47.149,185.221C47.139,185.609 47.117,186.488 47.117,186.733C47.117,186.945 47.245,187.997 47.245,188.333C47.245,189.629 46.691,190.777 45.841,191.48C45.387,192.052 42.963,193.378 42.36,193.837C41.212,194.71 40.285,195.644 39.723,196.442C35.359,199.411 30.976,200.623 29.628,199.158C29.398,199.005 29.198,198.818 29.035,198.597C27.644,196.722 29.349,193.099 32.839,190.511C32.968,190.415 33.744,189.703 34.018,189.438C34.358,189.11 35.602,187.38 35.999,186.844C36.472,186.208 37.01,185.663 37.581,185.221L47.149,185.221ZM61.596,185.221C62.167,185.663 62.705,186.208 63.178,186.844C63.575,187.38 64.819,189.11 65.159,189.438C65.433,189.703 66.209,190.415 66.338,190.511C69.828,193.099 71.533,196.722 70.142,198.597C69.978,198.818 69.779,199.005 69.549,199.158C68.201,200.623 63.818,199.411 59.454,196.442C58.891,195.644 57.965,194.71 56.817,193.837C56.214,193.378 53.79,192.052 53.335,191.48C52.486,190.777 51.932,189.629 51.932,188.333C51.932,187.997 52.06,186.945 52.06,186.733C52.06,186.488 52.038,185.609 52.027,185.221L61.596,185.221Z" style="fill:rgb(166,78,141);"/>
        <path d="M47.155,145.709C47.002,146.764 46.841,147.777 46.673,148.743C47.204,151.4 47.557,154.382 47.677,157.54C47.879,162.889 47.373,167.803 46.381,171.538C46.103,173 45.948,174.633 45.948,176.356C45.948,179.074 46.335,181.57 46.979,183.522C47.021,184.072 47.081,184.584 47.155,185.043L47.148,185.288L37.495,185.288C37.569,185.229 37.642,185.173 37.717,185.118C37.723,184.543 37.716,183.954 37.696,183.356C37.577,179.895 37.019,176.774 36.224,174.583L35.657,171.163C34.553,167.662 33.801,163.18 33.616,158.271C33.439,153.583 33.805,149.228 34.567,145.709L47.155,145.709ZM64.61,145.709C65.372,149.228 65.738,153.583 65.561,158.271C65.375,163.18 64.624,167.662 63.52,171.163L62.953,174.583C62.158,176.774 61.6,179.895 61.481,183.356C61.461,183.954 61.454,184.543 61.46,185.118C61.535,185.173 61.608,185.229 61.681,185.288L52.029,185.288L52.022,185.043C52.096,184.584 52.156,184.072 52.198,183.522C52.842,181.57 53.229,179.074 53.229,176.356C53.229,174.633 53.074,173 52.796,171.538C51.803,167.803 51.298,162.889 51.5,157.54C51.62,154.382 51.973,151.4 52.504,148.743C52.336,147.777 52.175,146.764 52.022,145.709L64.61,145.709Z" style="fill:rgb(166,78,101);"/>
        <path d="M48.349,134.464C48.206,136.392 48.041,138.252 47.856,140.03C47.815,141.29 47.671,142.5 47.438,143.635C47.344,144.368 47.246,145.083 47.145,145.779L34.551,145.779C34.562,145.73 34.573,145.681 34.583,145.632C33.976,143.766 33.628,141.599 33.628,139.288C33.628,137.593 33.815,135.975 34.155,134.497L34.141,134.464L48.349,134.464ZM65.036,134.464L65.022,134.497C65.362,135.975 65.549,137.593 65.549,139.288C65.549,141.599 65.201,143.766 64.594,145.632C64.604,145.681 64.615,145.73 64.625,145.779L52.032,145.779C51.931,145.083 51.833,144.368 51.739,143.635C51.506,142.5 51.362,141.29 51.321,140.03C51.136,138.252 50.971,136.392 50.828,134.464L65.036,134.464Z" style="fill:rgb(166,78,86);"/>
        <path d="M49.001,108.475C48.926,109.076 48.886,109.64 48.853,109.902C48.95,113.092 48.985,116.428 48.948,119.862C48.893,125.025 48.682,129.968 48.344,134.524L34.148,134.524L34.155,134.497C33.101,131.871 32.147,128.9 31.373,125.715C31.273,125.304 31.178,124.895 31.086,124.488C29.739,120.69 28.889,115.003 28.796,108.475L49.001,108.475ZM70.381,108.475C70.288,115.003 69.438,120.69 68.09,124.488C67.999,124.895 67.904,125.304 67.804,125.715C67.03,128.9 66.076,131.871 65.022,134.497L65.028,134.524L50.833,134.524C50.495,129.968 50.284,125.025 50.229,119.862C50.192,116.428 50.227,113.092 50.324,109.902C50.291,109.64 50.251,109.076 50.176,108.475L70.381,108.475ZM91.091,108.475C91.177,109.122 91.228,109.813 91.494,110.461C92.582,113.099 93.607,116.934 93.624,117.019C93.782,117.835 93.396,118.598 92.761,118.721C92.356,118.8 91.946,118.599 91.663,118.23C91.137,117.613 90.353,116.115 89.533,114.166C90.121,115.723 90.552,117.096 90.777,118.097C90.961,118.683 91.18,119.711 91.192,119.771C91.35,120.587 90.917,121.359 90.225,121.494C89.609,121.613 88.994,121.188 88.754,120.517C88.146,119.564 87.309,117.633 86.506,115.286C87.1,117.702 87.314,119.477 87.006,119.773C86.859,120.124 86.592,120.38 86.252,120.446C86.025,120.49 85.795,120.443 85.589,120.326C85.589,120.326 84.914,119.53 84.852,119.268C84.525,118.438 84.168,117.172 83.836,115.654C83.853,116.065 83.853,116.424 83.835,116.718C83.904,117.604 83.593,118.342 83.069,118.444C82.989,118.46 82.79,118.466 82.77,118.47C82.677,118.489 82.561,118.415 82.429,118.26C82.079,117.994 81.776,117.478 81.637,116.848C81.142,115.743 79.81,111.525 79.735,111.247C79.47,110.273 79.243,109.337 79.058,108.475L91.091,108.475ZM20.119,108.475C19.934,109.337 19.707,110.273 19.442,111.247C19.367,111.525 18.035,115.743 17.54,116.848C17.401,117.478 17.098,117.994 16.748,118.26C16.616,118.415 16.5,118.489 16.407,118.47C16.386,118.466 16.188,118.46 16.108,118.444C15.583,118.342 15.272,117.604 15.342,116.718C15.324,116.424 15.324,116.065 15.341,115.654C15.009,117.172 14.652,118.438 14.325,119.268C14.263,119.53 13.588,120.326 13.588,120.326C13.381,120.443 13.152,120.49 12.925,120.446C12.585,120.38 12.318,120.124 12.171,119.773C11.863,119.477 12.076,117.702 12.67,115.286C11.867,117.633 11.031,119.564 10.422,120.517C10.183,121.188 9.568,121.613 8.952,121.494C8.26,121.359 7.826,120.587 7.985,119.771C7.996,119.711 8.215,118.683 8.4,118.097C8.625,117.096 9.056,115.723 9.644,114.166C8.823,116.115 8.04,117.613 7.514,118.23C7.23,118.599 6.821,118.8 6.416,118.721C5.781,118.598 5.394,117.835 5.553,117.019C5.569,116.934 6.595,113.099 7.682,110.461C7.949,109.813 8,109.122 8.086,108.475L20.119,108.475ZM95.868,108.475C95.542,108.898 94.747,109.197 93.82,109.197C93.219,109.197 92.512,108.838 91.952,108.475L95.868,108.475ZM7.225,108.475C6.664,108.838 5.958,109.197 5.357,109.197C4.43,109.197 3.635,108.898 3.308,108.475L7.225,108.475Z" style="fill:rgb(166,93,78);"/>
        <path d="M26.826,90.814C25.075,94.464 23.252,97.635 21.534,100.08C21.073,100.949 20.743,102.071 20.632,103.314C20.617,103.478 20.607,103.64 20.6,103.801C20.811,104.36 20.616,106.169 20.11,108.519L8.08,108.519C8.116,108.244 8.158,107.978 8.224,107.725C8.224,107.725 7.767,108.133 7.157,108.519L3.344,108.519C3.219,108.374 3.149,108.214 3.149,108.045C3.149,107.963 3.205,107.717 3.214,107.672C3.28,107.33 4.883,106.187 5.414,105.737C6.405,104.896 7.222,103.952 7.836,102.989L7.841,102.989C8.049,102.646 8.299,102.292 8.588,101.94C9.271,101.109 10.041,100.444 10.731,100.043C11.272,99.608 11.89,99.263 12.56,99.031C13.067,97.985 13.554,96.795 13.985,95.514C14.197,94.884 14.385,94.264 14.549,93.66C14.757,92.746 14.997,91.795 15.266,90.814L26.826,90.814ZM68.749,90.814C69.578,94.627 70.144,99.133 70.327,103.971C70.385,105.522 70.402,107.042 70.38,108.519L50.181,108.519C50.091,107.791 49.95,106.998 49.706,106.61L49.588,106.598L49.471,106.61C49.227,106.998 49.085,107.791 48.996,108.519L28.796,108.519C28.774,107.042 28.791,105.522 28.85,103.971C29.033,99.133 29.599,94.627 30.428,90.814L68.749,90.814ZM83.911,90.814C84.18,91.795 84.42,92.746 84.628,93.66C84.792,94.264 84.98,94.884 85.192,95.514C85.623,96.795 86.11,97.985 86.617,99.031C87.287,99.263 87.904,99.608 88.446,100.043C89.136,100.444 89.906,101.109 90.589,101.94C90.878,102.292 91.128,102.645 91.336,102.989L91.341,102.989C91.955,103.952 92.772,104.896 93.763,105.737C94.294,106.187 95.896,107.33 95.963,107.672C95.971,107.717 96.028,107.963 96.028,108.045C96.028,108.214 95.958,108.374 95.833,108.519L92.02,108.519C91.41,108.133 90.953,107.725 90.953,107.725C91.019,107.978 91.061,108.244 91.097,108.519L79.067,108.519C78.561,106.169 78.366,104.36 78.576,103.801C78.57,103.64 78.559,103.478 78.545,103.314C78.434,102.071 78.104,100.949 77.642,100.08C75.925,97.635 74.102,94.464 72.351,90.814L83.911,90.814Z" style="fill:rgb(166,110,78);"/>
        <path d="M33.412,72.434C33.297,72.874 33.138,73.413 32.908,74.076C32.864,74.205 30.844,81.383 29.323,85.147C28.513,87.152 27.665,89.07 26.799,90.871L15.25,90.871C16.099,87.77 17.249,84.361 18.671,80.843C19.81,78.023 21.026,75.375 22.258,72.983C22.228,72.804 22.2,72.621 22.172,72.434L33.412,72.434ZM65.53,72.434C65.662,75.214 66.091,81.944 66.812,84.288L66.803,84.288C67.549,86.109 68.213,88.338 68.761,90.871L30.416,90.871C30.964,88.338 31.628,86.109 32.373,84.288L32.365,84.288C33.085,81.944 33.515,75.214 33.647,72.434L65.53,72.434ZM77.004,72.434C76.977,72.621 76.949,72.804 76.919,72.983C78.151,75.375 79.367,78.023 80.506,80.843C81.928,84.361 83.078,87.77 83.926,90.871L72.378,90.871C71.512,89.07 70.664,87.152 69.853,85.147C68.333,81.383 66.313,74.205 66.269,74.076C66.039,73.413 65.88,72.874 65.765,72.434L77.004,72.434Z" style="fill:rgb(166,126,78);"/>
        <path d="M75.504,52.593C76.383,55.263 77.05,58.966 77.298,63.086C77.511,66.62 77.382,69.897 76.993,72.511L65.786,72.511C65.631,71.932 65.552,71.518 65.489,71.215C65.478,71.159 65.492,71.664 65.533,72.511L33.643,72.511C33.685,71.664 33.699,71.159 33.688,71.215C33.625,71.518 33.546,71.932 33.391,72.511L22.184,72.511C21.795,69.897 21.666,66.62 21.879,63.086C22.127,58.966 22.794,55.263 23.673,52.593L75.504,52.593Z" style="fill:rgb(166,155,78);"/>
        <path d="M62.281,34.739C62.918,35.044 63.591,35.312 64.296,35.537C65.652,35.97 68.313,36.307 68.313,36.307C72.266,36.903 75.309,40.49 75.309,44.82C75.309,45.266 75.277,45.705 75.214,46.132L75.185,46.14C75.266,46.935 75.309,47.765 75.309,48.62C75.309,49.643 75.248,50.631 75.134,51.562C75.268,51.905 75.399,52.272 75.526,52.659L23.651,52.659C23.778,52.272 23.908,51.905 24.043,51.562C23.929,50.631 23.868,49.643 23.868,48.62C23.868,47.765 23.911,46.935 23.991,46.14L23.963,46.132C23.9,45.705 23.868,45.266 23.868,44.82C23.868,40.49 26.911,36.903 30.864,36.307C30.864,36.307 33.524,35.97 34.881,35.537C35.586,35.312 36.259,35.044 36.895,34.739L62.281,34.739Z" style="fill:rgb(148,166,78);"/>
        <g transform="matrix(1,0,0,1.00364,0,-0.127346)">
            <path d="M55.99,25.503C55.306,29.057 58.216,33.023 62.901,35.019L36.276,35.019C40.961,33.023 43.871,29.057 43.187,25.503L55.99,25.503Z" style="fill:rgb(117,166,78);"/>
        </g>
        <path d="M61.137,14.076C61.127,14.674 61.018,15.329 60.798,15.993C60.419,17.135 59.793,18.063 59.113,18.601C58.87,19.807 58.456,21.053 57.862,22.28C57.347,23.346 56.738,24.315 56.066,25.167C56.04,25.267 56.016,25.368 55.996,25.469L43.18,25.469C43.141,25.27 43.09,25.073 43.028,24.878C43.016,24.841 43.004,24.804 42.991,24.768C42.439,24.016 41.935,23.183 41.498,22.28C40.899,21.041 40.482,19.784 40.24,18.566C39.577,18.024 38.97,17.111 38.599,15.993C38.379,15.329 38.269,14.674 38.26,14.076L61.137,14.076Z" style="fill:rgb(79,166,78);"/>
        <path d="M38.261,14.109C38.234,12.893 38.622,11.914 39.342,11.595C39.316,11.289 39.302,10.98 39.302,10.667C39.302,4.869 44.01,0.161 49.808,0.161C55.607,0.161 60.314,4.869 60.314,10.667C60.314,11.02 60.297,11.368 60.263,11.712C60.849,12.115 61.16,13.016 61.136,14.109L38.261,14.109Z" style="fill:rgb(78,166,129);"/>
    </g>
</svg>
