<?xml version="1.0" encoding="UTF-8" standalone="no"?>
<!DOCTYPE svg PUBLIC "-//W3C//DTD SVG 1.1//EN" "http://www.w3.org/Graphics/SVG/1.1/DTD/svg11.dtd">
<svg width="100%" height="100%" viewBox="0 0 100 200" version="1.1" xmlns="http://www.w3.org/2000/svg" xmlns:xlink="http://www.w3.org/1999/xlink" xml:space="preserve" xmlns:serif="http://www.serif.com/" style="fill-rule:evenodd;clip-rule:evenodd;stroke-linejoin:round;stroke-miterlimit:2;">
    <g id="Selections-Areas-colored" serif:id="Selections Areas colored">
        <path id="Head" d="M39.342,11.595C39.316,11.289 39.302,10.98 39.302,10.667C39.302,4.869 44.01,0.161 49.808,0.161C55.607,0.161 60.314,4.869 60.314,10.667C60.314,11.02 60.297,11.368 60.263,11.712C61.165,12.332 61.415,14.131 60.798,15.993C60.419,17.135 59.793,18.063 59.113,18.601C58.87,19.807 58.456,21.053 57.862,22.28C56.642,24.805 54.891,26.786 53.036,27.96C52.712,28.267 52.347,28.522 51.941,28.718C51.24,29.057 50.474,29.192 49.68,29.144C48.886,29.192 48.121,29.057 47.419,28.718C47.014,28.522 46.648,28.267 46.324,27.96C44.47,26.786 42.719,24.805 41.498,22.28C40.899,21.041 40.482,19.784 40.24,18.566C39.577,18.024 38.97,17.111 38.599,15.993C37.937,13.995 38.273,12.069 39.342,11.595Z" style="fill:rgb(166,163,78);"/>
        <g id="Right-shoulder" serif:id="Right shoulder" transform="matrix(1,0,0,1,1.26422,0.252845)">
            <ellipse cx="30.531" cy="43.995" rx="7.965" ry="8.091" style="fill:rgb(117,166,78);"/>
        </g>
        <g id="Left-shoulder" serif:id="Left shoulder" transform="matrix(1,0,0,1,36.6625,0.505689)">
            <ellipse cx="30.531" cy="43.995" rx="7.965" ry="8.091" style="fill:rgb(140,166,78);"/>
        </g>
        <g id="Neck" transform="matrix(0.843962,0,0,0.843962,23.8988,-7.29441)">
            <ellipse cx="30.531" cy="43.995" rx="7.965" ry="8.091" style="fill:rgb(166,138,78);"/>
        </g>
        <g id="Right-knee-joint" serif:id="Right knee joint" transform="matrix(1.16575,0,0,1.16575,-16.8067,18.3321)">
            <circle cx="49.414" cy="105.342" r="5.998" style="fill:rgb(122,78,166);"/>
        </g>
        <g id="Left-knee-joint" serif:id="Left knee joint" transform="matrix(1.16575,0,0,1.16575,0.923646,18.3321)">
            <circle cx="49.414" cy="105.342" r="5.998" style="fill:rgb(93,78,166);"/>
        </g>
        <path id="right-upper-leg" serif:id="right upper leg" d="M32.131,102.525C37.405,99.247 49.406,106.395 49.071,120.62C48.824,131.087 47.831,137.304 39.488,137.389C34.394,137.441 32.045,130.416 30.104,120.62C28.885,114.461 27.497,105.405 32.131,102.525Z" style="fill:rgb(166,78,157);"/>
        <g id="Left-upper-leg" serif:id="Left upper leg" transform="matrix(-1,0,0,1,99.2587,0)">
            <path d="M32.131,102.525C37.405,99.247 49.406,106.395 49.071,120.62C48.824,131.087 47.831,137.304 39.488,137.389C34.394,137.441 32.045,130.416 30.104,120.62C28.885,114.461 27.497,105.405 32.131,102.525Z" style="fill:rgb(147,78,166);"/>
        </g>
        <g id="Left-upper-arm" serif:id="Left upper arm" transform="matrix(-0.630165,0.169474,0.195725,0.727779,72.6446,-31.3054)">
            <path d="M32.026,102.188C39.852,95.474 45.583,102.009 50.072,123.395C52.789,136.339 52.491,139.149 39.488,137.389C34.439,136.706 32.045,130.416 30.104,120.62C28.885,114.461 27.885,105.741 32.026,102.188Z" style="fill:rgb(78,166,97);"/>
        </g>
        <g id="Right-upper-arm" serif:id="Right upper arm" transform="matrix(0.630165,0.169474,-0.195725,0.727779,26.6475,-31.3054)">
            <path d="M32.026,102.188C39.852,95.474 45.583,102.009 50.072,123.395C52.789,136.339 52.491,139.149 39.488,137.389C34.439,136.706 32.045,130.416 30.104,120.62C28.885,114.461 27.885,105.741 32.026,102.188Z" style="fill:rgb(78,166,124);"/>
        </g>
        <g id="Left-lower-leg" serif:id="Left lower leg" transform="matrix(-1,0,0,1,94.619,46.2315)">
            <path d="M32.131,102.525C37.084,98.324 45.897,102.084 42.608,121.448C41.091,130.382 42.226,138.51 37.251,139.875C32.8,141.095 32.822,130.819 30.104,120.62C28.488,114.553 27.97,106.054 32.131,102.525Z" style="fill:rgb(78,96,166);"/>
        </g>
        <g id="Left-lower-arm" serif:id="Left lower arm" transform="matrix(-0.738061,0.30174,0.341322,0.834879,62.0816,-25.2519)">
            <path d="M31.788,107.683C38.175,104.634 45.557,104.249 42.88,126.909C41.816,135.908 42.274,138.658 37.251,139.875C34.875,140.45 30.628,139.731 30.474,137.582C29.946,130.187 26.632,110.145 31.788,107.683Z" style="fill:rgb(78,166,153);"/>
        </g>
        <g id="Right-lower-arm" serif:id="Right lower arm" transform="matrix(0.738061,0.30174,-0.341322,0.834879,37.0226,-25.2519)">
            <path d="M31.788,107.683C38.175,104.634 45.557,104.249 42.88,126.909C41.816,135.908 42.274,138.658 37.251,139.875C34.875,140.45 30.628,139.731 30.474,137.582C29.946,130.187 26.632,110.145 31.788,107.683Z" style="fill:rgb(78,149,166);"/>
        </g>
        <g id="Left-foot" serif:id="Left foot" transform="matrix(-0.398526,0.545773,0.452828,0.330658,21.3315,132.214)">
            <path d="M32.131,102.525C37.33,100.955 42.327,102.279 43.336,108.547C43.72,110.936 42.438,115.884 43.474,122.403C44.213,127.056 42.735,138.583 37.642,140.025C33.762,141.123 31.328,135.756 30.484,128.471C30.081,124.99 29.793,121.005 28.719,117.08C27.062,111.025 26.908,104.102 32.131,102.525Z" style="fill:rgb(78,127,166);"/>
        </g>
        <g id="Right-foot" serif:id="Right foot" transform="matrix(0.398526,0.545773,-0.452828,0.330658,77.7526,132.214)">
            <path d="M32.131,102.525C37.33,100.955 42.327,102.279 43.336,108.547C43.72,110.936 42.438,115.884 43.474,122.403C44.213,127.056 42.735,138.583 37.642,140.025C33.762,141.123 31.328,135.756 30.484,128.471C30.081,124.99 29.793,121.005 28.719,117.08C27.062,111.025 26.908,104.102 32.131,102.525Z" style="fill:rgb(78,107,166);"/>
        </g>
        <g id="Right-lower-leg" serif:id="Right lower leg" transform="matrix(1,0,0,1,4.3806,46.3972)">
            <path d="M32.131,102.525C37.084,98.324 45.897,102.084 42.608,121.448C41.091,130.382 42.226,138.51 37.251,139.875C32.8,141.095 32.822,130.819 30.104,120.62C28.488,114.553 27.97,106.054 32.131,102.525Z" style="fill:rgb(78,84,166);"/>
        </g>
        <path id="Upper-abdomen" serif:id="Upper abdomen" d="M49.461,58.129C55.444,58.322 61.904,59.62 63.878,61.753C64.892,62.849 63.882,70.513 62.296,76.826C61.932,78.274 49.524,78.878 49.524,78.878C43.516,78.953 37.013,78.274 36.649,76.826C35.062,70.513 34.053,62.849 35.067,61.753C37.04,59.62 43.461,58.322 49.443,58.129L49.461,58.129Z" style="fill:rgb(202,75,78);"/>
        <path id="Lower-abdomen" serif:id="Lower abdomen" d="M49.532,78.772C49.532,78.772 60.271,78.308 62.322,76.979C63.269,76.366 66.043,91.149 56.726,100.535C54.266,102.259 51.865,103.158 49.532,103.11L49.531,103.11C47.198,103.158 44.716,102.259 42.256,100.535C32.939,91.149 35.714,76.366 36.66,76.979C38.71,78.306 44.179,78.894 49.532,78.772Z" style="fill:rgb(202,75,136);"/>
        <path id="Chest-area" serif:id="Chest area" d="M34.582,61.938C44.374,57.184 54.891,57.1 64.683,62.152C65.878,51.504 62.597,42.805 56.61,38.249C52.091,36.118 47.5,36.243 42.981,38.233C36.92,42.536 33.841,51.182 34.582,61.938" style="fill:rgb(166,111,78);"/>
        <path id="Right-outer-abdomen" serif:id="Right outer abdomen" d="M34.955,61.927C34.858,61.616 33.623,62.505 33.649,62.883C34.097,69.619 33.45,79.529 32.381,84.304C30.753,88.117 30.141,92.447 29.419,96.88C29.146,98.559 41.107,99.709 38.964,96.237C35.521,90.657 34.552,79.952 36.698,76.978C35.489,71.189 34.088,65.068 34.955,61.927" style="fill:rgb(166,97,78);"/>
        <g id="Left-outer-abdomen" serif:id="Left outer abdomen" transform="matrix(-1,0,0,1,99.1773,0.0218295)">
            <path d="M35.167,61.838C35.071,61.526 33.623,62.505 33.649,62.883C34.097,69.619 33.45,79.529 32.381,84.304C30.753,88.117 30.141,92.447 29.419,96.88C29.146,98.559 41.319,99.698 39.176,96.225C35.734,90.645 34.764,79.952 36.911,76.978C35.701,71.189 34.3,64.979 35.167,61.838" style="fill:rgb(166,78,96);"/>
        </g>
        <g id="Right-breast" serif:id="Right breast" transform="matrix(1,0,0,1,10.8723,7.33249)">
            <ellipse cx="30.531" cy="43.995" rx="7.965" ry="8.091" style="fill:rgb(123,206,147);"/>
        </g>
        <g id="Left-breast" serif:id="Left breast" transform="matrix(1,0,0,1,26.8015,7.33249)">
            <ellipse cx="30.531" cy="43.995" rx="7.965" ry="8.091" style="fill:rgb(123,206,194);"/>
        </g>
        <circle id="Skrunom" cx="49.414" cy="105.342" r="5.998" style="fill:rgb(166,78,139);"/>
        <g id="Left-hand" serif:id="Left hand" transform="matrix(1.01005,0,0,1.00596,-0.834164,-0.589524)">
            <path d="M78.685,103.58C80.113,99.946 83.167,99.011 86.741,98.939C89.301,100.083 91.07,102.295 92.216,104.245C94.842,106.88 95.978,107.347 95.956,107.737C95.92,108.356 95.77,109.149 93.259,109.096C91.156,108.313 91.221,108.19 90.942,107.655C91.023,108.555 91.196,109.309 91.434,110.15C92.139,112.632 93.814,116.562 93.657,117.281C93.346,118.708 92.238,118.82 91.732,118.29C90.751,117.224 90.109,115.916 89.673,114.439C90.479,116.526 91.063,118.263 91.203,120.255C90.601,121.338 89.89,121.812 88.972,121.05C87.772,119.297 87.218,117.394 86.697,115.488C86.991,116.821 87.233,118.155 87.091,119.604C86.561,120.716 85.705,120.425 85.251,119.774C84.408,118.522 84.132,117.234 83.936,115.749C83.957,116.498 83.983,117.023 83.676,117.893C83.141,118.276 82.608,118.766 82.1,117.853C79.689,111.804 78.015,106.502 78.685,103.58" style="fill:rgb(82,108,133);"/>
        </g>
        <g id="Right-hand" serif:id="Right hand" transform="matrix(-1.01005,0,0,1.00596,99.972,-0.589524)">
            <path d="M78.685,103.58C80.113,99.946 83.167,99.011 86.741,98.939C89.301,100.083 91.07,102.295 92.216,104.245C94.842,106.88 95.978,107.347 95.956,107.737C95.92,108.356 95.77,109.149 93.259,109.096C91.156,108.313 91.221,108.19 90.942,107.655C91.023,108.555 91.196,109.309 91.434,110.15C92.139,112.632 93.814,116.562 93.657,117.281C93.346,118.708 92.238,118.82 91.732,118.29C90.751,117.224 90.109,115.916 89.673,114.439C90.479,116.526 91.063,118.263 91.203,120.255C90.601,121.338 89.89,121.812 88.972,121.05C87.772,119.297 87.218,117.394 86.697,115.488C86.991,116.821 87.233,118.155 87.091,119.604C86.561,120.716 85.705,120.425 85.251,119.774C84.408,118.522 84.132,117.234 83.936,115.749C83.957,116.498 83.983,117.023 83.676,117.893C83.141,118.276 82.608,118.766 82.1,117.853C79.689,111.804 78.015,106.502 78.685,103.58" style="fill:rgb(82,130,133);"/>
        </g>
        <g id="Heart---Hjerte" serif:id="Heart / Hjerte" transform="matrix(0.247713,0,0,0.209311,43.3429,39.4036)">
            <path d="M15.213,21.704C16.006,19.446 14.778,11.261 15.152,10.848C16.165,9.727 21.196,9.918 21.769,9.358C21.984,9.148 22.692,7.96 23.145,7.518C23.262,7.403 21.439,4.26 22.231,3.636C22.341,3.549 23.567,2.507 25.001,3.54C25.621,3.986 27.052,6.387 28.026,5.662C28.573,5.255 29.079,5.09 29.552,4.628C29.793,4.393 28.899,1.11 29.82,0.632C31.404,-0.19 32.423,0.585 32.453,0.614C32.585,0.744 33.009,2.321 33.039,3.659C33.057,4.437 34.636,4.02 34.686,3.971C34.829,3.831 34.249,1.987 34.964,1.555C35.86,1.015 37.65,1.748 37.803,2.38C37.825,2.468 37.495,4.441 37.972,5.221C38.256,5.687 38.989,7.111 39.889,8.462C40.611,9.546 41.322,10.645 41.599,11.112C41.68,11.249 44.409,10.251 44.806,10.218C45.853,10.131 45.998,11.732 45.508,12.427C44.981,13.175 42.579,14.272 42.31,14.535C42.166,14.675 42.467,16.1 42.502,16.057C43.94,14.331 44.68,14.369 44.73,14.355C45.46,14.156 47.582,16.737 46.51,17.67C45.824,18.268 44.256,18.943 43.28,19.741C43.208,19.801 42.882,21.93 43.129,23.034C45.726,25.107 49.8,30.973 49.8,36.941C49.8,36.994 49.68,37.229 49.837,37.504C59.583,54.59 51.86,61.861 50.582,62.215C26.324,68.939 8.551,45.968 8.496,36.941C8.458,30.911 11.086,25.481 15.213,21.704Z" style="fill:rgb(0,128,72);"/>
        </g>
        <g id="Right-shoulder1" serif:id="Right shoulder" transform="matrix(1,0,0,1,1.26422,0.252845)">
            <ellipse cx="30.531" cy="43.995" rx="7.965" ry="8.091" style="fill:rgb(78,119,166);"/>
        </g>
        <g id="Left-shoulder1" serif:id="Left shoulder" transform="matrix(1,0,0,1,36.6625,0.505689)">
            <ellipse cx="30.531" cy="43.995" rx="7.965" ry="8.091" style="fill:rgb(78,109,166);"/>
        </g>
        <g id="Right-knee-joint1" serif:id="Right knee joint" transform="matrix(1.16575,0,0,1.16575,-16.8067,18.3321)">
            <circle cx="49.414" cy="105.342" r="5.998" style="fill:rgb(81,78,166);"/>
        </g>
        <g id="Left-knee-joint1" serif:id="Left knee joint" transform="matrix(1.16575,0,0,1.16575,0.923646,18.3321)">
            <circle cx="49.414" cy="105.342" r="5.998" style="fill:rgb(89,78,166);"/>
        </g>
        <g id="Left-hand-joint" serif:id="Left hand joint" transform="matrix(0.761687,0,0,0.761687,20.8489,21.6522)">
            <circle cx="80.839" cy="103.415" r="5.879" style="fill:rgb(165,123,79);"/>
        </g>
        <g id="Left-foot-joint" serif:id="Left foot joint" transform="matrix(0.808233,0,0,0.808233,-8.63563,101.256)">
            <circle cx="80.839" cy="103.415" r="5.879" style="fill:rgb(165,140,79);"/>
        </g>
        <g id="Right-foot-joint" serif:id="Right foot joint" transform="matrix(0.808233,0,0,0.808233,-23.0015,101.256)">
            <circle cx="80.839" cy="103.415" r="5.879" style="fill:rgb(165,154,79);"/>
        </g>
        <g id="Left-elbow-joint" serif:id="Left elbow joint" transform="matrix(0.903185,0,0,0.903185,-1.31619,-19.6002)">
            <circle cx="80.839" cy="103.415" r="5.879" style="fill:rgb(153,165,79);"/>
        </g>
        <g id="Right-elbow-joint" serif:id="Right elbow joint" transform="matrix(0.903185,0,0,0.903185,-45.6234,-19.6002)">
            <circle cx="80.839" cy="103.415" r="5.879" style="fill:rgb(130,165,79);"/>
        </g>
        <g id="Right-hand-joint" serif:id="Right hand joint" transform="matrix(0.761687,0,0,0.761687,-44.9115,21.6522)">
            <circle cx="80.839" cy="103.415" r="5.879" style="fill:rgb(117,165,79);"/>
        </g>
        <g id="Right-leg-joint" serif:id="Right leg joint" transform="matrix(1.34932,0,0,1.34932,-72.4055,-38.6736)">
            <circle cx="80.839" cy="103.415" r="5.879" style="fill:rgb(79,165,80);"/>
        </g>
        <g id="Left-leg-joint" serif:id="Left leg joint" transform="matrix(1.34932,0,0,1.34932,-46.9573,-38.6736)">
            <circle cx="80.839" cy="103.415" r="5.879" style="fill:rgb(79,165,102);"/>
        </g>
    </g>
</svg>
