<?xml version="1.0" encoding="UTF-8" standalone="no"?>
<!DOCTYPE svg PUBLIC "-//W3C//DTD SVG 1.1//EN" "http://www.w3.org/Graphics/SVG/1.1/DTD/svg11.dtd">
<svg width="100%" height="100%" viewBox="0 0 100 200" version="1.1" xmlns="http://www.w3.org/2000/svg" xmlns:xlink="http://www.w3.org/1999/xlink" xml:space="preserve" xmlns:serif="http://www.serif.com/" style="fill-rule:evenodd;clip-rule:evenodd;stroke-linejoin:round;stroke-miterlimit:1.41421;">
    <g id="Bone-Selections" serif:id="Bone Selections">
        <path id="Tailbone" d="M46.474,92.849C45.589,91.176 53.79,91.176 52.905,92.849L52.774,94.526C52.667,95.203 52.163,95.438 50.65,96.755C50.672,97.408 50.426,97.932 49.948,98.345C49.788,98.794 49.615,98.792 49.43,98.345C48.952,97.932 48.707,97.408 48.728,96.755C47.216,95.438 46.712,95.203 46.605,94.526L46.474,92.849Z" style="fill:rgb(78,166,153);fill-opacity:0.54;"/>
    </g>
    <g id="Skeleton-selections-color" serif:id="Skeleton selections color">
        <g id="Lower-spine" serif:id="Lower spine" transform="matrix(1,0,0,0.65,0,44.0342)">
            <ellipse cx="49.722" cy="52.907" rx="5.746" ry="17.786" style="fill:rgb(79,165,153);"/>
        </g>
        <path id="Chest---Ribcage" serif:id="Chest / Ribcage" d="M48.772,35.238L50.607,35.238C50.944,35.025 51.494,34.806 52.163,34.582L53.187,34.582C55.297,35.304 56.679,36.169 57.611,37.122C61.645,37.057 65.881,48.359 64.74,50.598L64.863,51.867C64.816,52.669 64.609,53.28 64.249,53.71L64.945,54.775C64.995,55.683 64.882,56.404 64.576,56.905L64.863,58.421C64.819,59.168 64.613,59.77 64.29,60.264C64.591,60.44 64.817,60.705 64.945,61.083C65.069,61.611 65.044,62.17 64.863,62.763C64.783,63.316 64.604,63.829 64.167,64.237L64.576,64.647L65.109,65.835C65.097,66.731 64.778,67.571 64.249,68.374L63.78,68.971L63.798,69.767C63.654,70.762 63.152,71.357 62.528,71.815C62.068,72.138 61.523,72.332 60.726,72.142C60.045,71.824 59.544,71.412 59.211,70.914L50.814,56.619L48.565,56.619L40.168,70.914C39.834,71.412 39.334,71.824 38.652,72.142C37.855,72.332 37.31,72.138 36.85,71.815C36.227,71.357 35.725,70.762 35.58,69.767L35.598,68.971L35.13,68.374C34.601,67.571 34.282,66.731 34.27,65.835L34.802,64.647L35.212,64.237C34.774,63.829 34.595,63.316 34.515,62.763C34.335,62.17 34.31,61.611 34.433,61.083C34.562,60.705 34.788,60.44 35.089,60.264C34.765,59.77 34.56,59.168 34.515,58.421L34.802,56.905C34.496,56.404 34.383,55.683 34.433,54.775L35.13,53.71C34.77,53.28 34.562,52.669 34.515,51.867L34.638,50.598C33.498,48.359 37.733,37.057 41.768,37.122C42.699,36.168 44.081,35.304 46.191,34.582L47.215,34.582C47.884,34.805 48.435,35.025 48.772,35.238Z" style="fill:rgb(79,158,165);"/>
        <path id="Pelvis" d="M47.664,89.359C49.091,90.029 50.439,90.008 51.715,89.359L53.271,87.502L54.664,86.028C57.312,82.711 60.696,82.759 64.74,85.823C67.049,88.173 65.286,92.354 62.201,94.507L62.324,96.514L61.996,97.005L60.071,100.241L59.866,100.896L58.105,102.125L58.351,103.477C57.965,104.461 57.322,105.302 56.303,105.934C55.186,106.745 54.081,106.896 52.985,106.467L49.689,103.967L46.394,106.467C45.298,106.896 44.192,106.745 43.076,105.934C42.057,105.302 41.414,104.461 41.028,103.477L41.274,102.125L39.512,100.896L39.308,100.241L37.383,97.005L37.055,96.514L37.178,94.507C34.093,92.354 32.329,88.173 34.638,85.823C38.683,82.759 42.067,82.711 44.714,86.028L46.107,87.502L47.664,89.359Z" style="fill:rgb(79,141,165);"/>
        <path id="Head" d="M39.342,11.595C39.316,11.289 39.302,10.98 39.302,10.667C39.302,4.869 44.01,0.161 49.808,0.161C55.607,0.161 60.314,4.869 60.314,10.667C60.314,11.02 60.297,11.368 60.263,11.712C61.165,12.332 61.415,14.131 60.798,15.993C60.419,17.135 59.793,18.063 59.113,18.601C58.87,19.807 58.456,21.053 57.862,22.28C56.642,24.805 54.891,26.786 53.036,27.96C52.712,28.267 52.347,28.522 51.941,28.718C51.24,29.057 50.474,29.192 49.68,29.144C48.886,29.192 48.121,29.057 47.419,28.718C47.014,28.522 46.648,28.267 46.324,27.96C44.47,26.786 42.719,24.805 41.498,22.28C40.899,21.041 40.482,19.784 40.24,18.566C39.577,18.024 38.97,17.111 38.599,15.993C37.937,13.995 38.273,12.069 39.342,11.595Z" style="fill:rgb(78,150,166);"/>
        <g id="Right-shoulder" serif:id="Right shoulder" transform="matrix(1,0,0,1,1.26422,0.252845)">
            <ellipse cx="30.531" cy="43.995" rx="7.965" ry="8.091" style="fill:rgb(78,119,166);"/>
        </g>
        <g id="Left-shoulder" serif:id="Left shoulder" transform="matrix(1,0,0,1,36.6625,0.505689)">
            <ellipse cx="30.531" cy="43.995" rx="7.965" ry="8.091" style="fill:rgb(78,109,166);"/>
        </g>
        <g id="Neck" transform="matrix(0.843962,0,0,0.843962,23.8988,-7.29441)">
            <ellipse cx="30.531" cy="43.995" rx="7.965" ry="8.091" style="fill:rgb(78,98,166);"/>
        </g>
        <g id="Right-knee-joint" serif:id="Right knee joint" transform="matrix(1.16575,0,0,1.16575,-16.8067,18.3321)">
            <circle cx="49.414" cy="105.342" r="5.998" style="fill:rgb(81,78,166);"/>
        </g>
        <g id="Left-knee-joint" serif:id="Left knee joint" transform="matrix(1.16575,0,0,1.16575,0.923646,18.3321)">
            <circle cx="49.414" cy="105.342" r="5.998" style="fill:rgb(89,78,166);"/>
        </g>
        <path id="right-upper-leg" serif:id="right upper leg" d="M32.131,102.525C37.405,99.247 49.406,106.395 49.071,120.62C48.824,131.087 47.831,137.304 39.488,137.389C34.394,137.441 32.045,130.416 30.104,120.62C28.885,114.461 27.497,105.405 32.131,102.525Z" style="fill:rgb(115,78,166);"/>
        <g id="Left-upper-leg" serif:id="Left upper leg" transform="matrix(-1,0,0,1,99.2587,0)">
            <path d="M32.131,102.525C37.405,99.247 49.406,106.395 49.071,120.62C48.824,131.087 47.831,137.304 39.488,137.389C34.394,137.441 32.045,130.416 30.104,120.62C28.885,114.461 27.497,105.405 32.131,102.525Z" style="fill:rgb(127,78,166);"/>
        </g>
        <g id="Left-upper-arm" serif:id="Left upper arm" transform="matrix(-0.630165,0.169474,0.195725,0.727779,72.6446,-31.3054)">
            <path d="M32.026,102.188C39.852,95.474 45.583,102.009 50.072,123.395C52.789,136.339 52.491,139.149 39.488,137.389C34.439,136.706 32.045,130.416 30.104,120.62C28.885,114.461 27.885,105.741 32.026,102.188Z" style="fill:rgb(146,78,166);"/>
        </g>
        <g id="Right-upper-arm" serif:id="Right upper arm" transform="matrix(0.630165,0.169474,-0.195725,0.727779,26.6475,-31.3054)">
            <path d="M32.026,102.188C39.852,95.474 45.583,102.009 50.072,123.395C52.789,136.339 52.491,139.149 39.488,137.389C34.439,136.706 32.045,130.416 30.104,120.62C28.885,114.461 27.885,105.741 32.026,102.188Z" style="fill:rgb(166,78,164);"/>
        </g>
        <g id="Left-lower-leg" serif:id="Left lower leg" transform="matrix(-1,0,0,1,94.619,46.2315)">
            <path d="M32.131,102.525C37.084,98.324 45.897,102.084 42.608,121.448C41.091,130.382 42.226,138.51 37.251,139.875C32.8,141.095 32.822,130.819 30.104,120.62C28.488,114.553 27.97,106.054 32.131,102.525Z" style="fill:rgb(166,78,142);"/>
        </g>
        <g id="Left-lower-arm" serif:id="Left lower arm" transform="matrix(-0.738061,0.30174,0.341322,0.834879,62.0816,-25.2519)">
            <path d="M31.788,107.683C38.175,104.634 45.557,104.249 42.88,126.909C41.816,135.908 42.274,138.658 37.251,139.875C34.875,140.45 30.628,139.731 30.474,137.582C29.946,130.187 26.632,110.145 31.788,107.683Z" style="fill:rgb(166,78,128);"/>
        </g>
        <g id="Right-lower-arm" serif:id="Right lower arm" transform="matrix(0.738061,0.30174,-0.341322,0.834879,37.0226,-25.2519)">
            <path d="M31.788,107.683C38.175,104.634 45.557,104.249 42.88,126.909C41.816,135.908 42.274,138.658 37.251,139.875C34.875,140.45 30.628,139.731 30.474,137.582C29.946,130.187 26.632,110.145 31.788,107.683Z" style="fill:rgb(166,78,113);"/>
        </g>
        <g id="Left-foot" serif:id="Left foot" transform="matrix(-0.398526,0.545773,0.452828,0.330658,21.3315,132.214)">
            <path d="M32.131,102.525C37.33,100.955 42.327,102.279 43.336,108.547C43.72,110.936 42.438,115.884 43.474,122.403C44.213,127.056 42.735,138.583 37.642,140.025C33.762,141.123 31.328,135.756 30.484,128.471C30.081,124.99 29.793,121.005 28.719,117.08C27.062,111.025 26.908,104.102 32.131,102.525Z" style="fill:rgb(166,78,111);"/>
        </g>
        <g id="Right-foot" serif:id="Right foot" transform="matrix(0.398526,0.545773,-0.452828,0.330658,77.7526,132.214)">
            <path d="M32.131,102.525C37.33,100.955 42.327,102.279 43.336,108.547C43.72,110.936 42.438,115.884 43.474,122.403C44.213,127.056 42.735,138.583 37.642,140.025C33.762,141.123 31.328,135.756 30.484,128.471C30.081,124.99 29.793,121.005 28.719,117.08C27.062,111.025 26.908,104.102 32.131,102.525Z" style="fill:rgb(166,78,82);"/>
        </g>
        <g id="Right-lower-leg" serif:id="Right lower leg" transform="matrix(1,0,0,1,4.3806,46.3972)">
            <path d="M32.131,102.525C37.084,98.324 45.897,102.084 42.608,121.448C41.091,130.382 42.226,138.51 37.251,139.875C32.8,141.095 32.822,130.819 30.104,120.62C28.488,114.553 27.97,106.054 32.131,102.525Z" style="fill:rgb(166,83,78);"/>
        </g>
        <g id="Left-hand" serif:id="Left hand" transform="matrix(1.01005,0,0,1.00596,-0.834164,-0.589524)">
            <path d="M78.685,103.58C80.113,99.946 83.167,99.011 86.741,98.939C89.301,100.083 91.07,102.295 92.216,104.245C94.842,106.88 95.978,107.347 95.956,107.737C95.92,108.356 95.77,109.149 93.259,109.096C91.156,108.313 91.221,108.19 90.942,107.655C91.023,108.555 91.196,109.309 91.434,110.15C92.139,112.632 93.814,116.562 93.657,117.281C93.346,118.708 92.238,118.82 91.732,118.29C90.751,117.224 90.109,115.916 89.673,114.439C90.479,116.526 91.063,118.263 91.203,120.255C90.601,121.338 89.89,121.812 88.972,121.05C87.772,119.297 87.218,117.394 86.697,115.488C86.991,116.821 87.233,118.155 87.091,119.604C86.561,120.716 85.705,120.425 85.251,119.774C84.408,118.522 84.132,117.234 83.936,115.749C83.957,116.498 83.983,117.023 83.676,117.893C83.141,118.276 82.608,118.766 82.1,117.853C79.689,111.804 78.015,106.502 78.685,103.58" style="fill:rgb(166,99,78);"/>
        </g>
        <g id="Right-hand" serif:id="Right hand" transform="matrix(-1.01005,0,0,1.00596,99.972,-0.589524)">
            <path d="M78.685,103.58C80.113,99.946 83.167,99.011 86.741,98.939C89.301,100.083 91.07,102.295 92.216,104.245C94.842,106.88 95.978,107.347 95.956,107.737C95.92,108.356 95.77,109.149 93.259,109.096C91.156,108.313 91.221,108.19 90.942,107.655C91.023,108.555 91.196,109.309 91.434,110.15C92.139,112.632 93.814,116.562 93.657,117.281C93.346,118.708 92.238,118.82 91.732,118.29C90.751,117.224 90.109,115.916 89.673,114.439C90.479,116.526 91.063,118.263 91.203,120.255C90.601,121.338 89.89,121.812 88.972,121.05C87.772,119.297 87.218,117.394 86.697,115.488C86.991,116.821 87.233,118.155 87.091,119.604C86.561,120.716 85.705,120.425 85.251,119.774C84.408,118.522 84.132,117.234 83.936,115.749C83.957,116.498 83.983,117.023 83.676,117.893C83.141,118.276 82.608,118.766 82.1,117.853C79.689,111.804 78.015,106.502 78.685,103.58" style="fill:rgb(166,116,78);"/>
        </g>
        <g id="Left-hand-joint" serif:id="Left hand joint" transform="matrix(0.761687,0,0,0.761687,20.8489,21.6522)">
            <circle cx="80.839" cy="103.415" r="5.879" style="fill:rgb(165,123,79);"/>
        </g>
        <g id="Left-foot-joint" serif:id="Left foot joint" transform="matrix(0.808233,0,0,0.808233,-8.63563,101.256)">
            <circle cx="80.839" cy="103.415" r="5.879" style="fill:rgb(165,140,79);"/>
        </g>
        <g id="Right-foot-joint" serif:id="Right foot joint" transform="matrix(0.808233,0,0,0.808233,-23.0015,101.256)">
            <circle cx="80.839" cy="103.415" r="5.879" style="fill:rgb(165,154,79);"/>
        </g>
        <g id="Left-elbow-joint" serif:id="Left elbow joint" transform="matrix(0.903185,0,0,0.903185,-1.31619,-19.6002)">
            <circle cx="80.839" cy="103.415" r="5.879" style="fill:rgb(153,165,79);"/>
        </g>
        <g id="Right-elbow-joint" serif:id="Right elbow joint" transform="matrix(0.903185,0,0,0.903185,-45.6234,-19.6002)">
            <circle cx="80.839" cy="103.415" r="5.879" style="fill:rgb(130,165,79);"/>
        </g>
        <g id="Right-hand-joint" serif:id="Right hand joint" transform="matrix(0.761687,0,0,0.761687,-44.9115,21.6522)">
            <circle cx="80.839" cy="103.415" r="5.879" style="fill:rgb(117,165,79);"/>
        </g>
        <g id="Right-leg-joint" serif:id="Right leg joint" transform="matrix(1.34932,0,0,1.34932,-72.4055,-38.6736)">
            <circle cx="80.839" cy="103.415" r="5.879" style="fill:rgb(79,165,80);"/>
        </g>
        <g id="Left-leg-joint" serif:id="Left leg joint" transform="matrix(1.34932,0,0,1.34932,-46.9573,-38.6736)">
            <circle cx="80.839" cy="103.415" r="5.879" style="fill:rgb(79,165,102);"/>
        </g>
        <g id="Upper-spine" serif:id="Upper spine" transform="matrix(1,0,0,0.915385,-1.11022e-16,2.97179)">
            <ellipse cx="49.722" cy="52.907" rx="5.746" ry="17.786" style="fill:rgb(79,165,132);"/>
        </g>
        <path id="Tailbone1" serif:id="Tailbone" d="M46.474,92.849C45.589,91.176 53.79,91.176 52.905,92.849L52.774,94.526C52.667,95.203 52.163,95.438 50.65,96.755C50.672,97.408 50.426,97.932 49.948,98.345C49.788,98.794 49.615,98.792 49.43,98.345C48.952,97.932 48.707,97.408 48.728,96.755C47.216,95.438 46.712,95.203 46.605,94.526L46.474,92.849Z" style="fill:rgb(175,67,72);"/>
    </g>
</svg>
