<?xml version="1.0" encoding="UTF-8" standalone="no"?>
<!DOCTYPE svg PUBLIC "-//W3C//DTD SVG 1.1//EN" "http://www.w3.org/Graphics/SVG/1.1/DTD/svg11.dtd">
<svg width="100%" height="100%" viewBox="0 0 591 1182" version="1.1" xmlns="http://www.w3.org/2000/svg" xmlns:xlink="http://www.w3.org/1999/xlink" xml:space="preserve" xmlns:serif="http://www.serif.com/" style="fill-rule:evenodd;clip-rule:evenodd;stroke-linejoin:round;stroke-miterlimit:1.41421;">
    <g transform="matrix(-1,0,0,-1,609.3,1180.48)">
        <path id="Calcaneus" d="M214.395,1058.75C205.273,1060.4 199.675,1068.65 190.518,1081.06C188.729,1088.57 186.888,1096.08 191.692,1103.77C198.892,1129.48 210.144,1148.77 230.835,1153.09C259.343,1157.95 295.805,1150.01 336.129,1135.86C368.118,1124.3 383.295,1079.1 393.668,1024.31C408.726,1009.4 419.368,997.32 419.111,992.209C423.981,982.197 423.554,974.042 419.503,967.158C415.8,963.204 408.738,960.957 405.411,953.067C405.862,930.548 407.068,912.065 405.02,893.961C404.518,883.349 398.598,875.551 388.188,870.084C379.926,868.049 366.45,859.178 348.654,844.641C343.896,840.404 336.144,837.986 326.343,836.813C322.521,838.336 319.887,841.397 318.906,846.598C317.458,857.753 317.884,870.409 321.646,885.741C327.515,899.165 336.779,909.662 351.003,915.881C362.785,934.031 368.578,954.506 359.223,980.858C340.504,1018.84 325.535,1056.89 304.814,1073.24C294.476,1082.61 280.915,1083.94 263.323,1075.19C249.285,1060.34 233.072,1054.46 214.395,1058.75" style="fill:rgb(177,255,0);"/>
        <path id="Talus" d="M156.59,831.055C206.221,837.124 256.236,836.051 304.734,835.361C314.622,835.22 317.223,840.277 319.201,847.016C313.144,881.606 330.569,905.77 350.384,915.209C356.245,918.001 364.383,943.394 364.925,960.961C354.844,1002.99 321.781,1062.95 303.458,1074.76C287.811,1084.85 278.686,1084.27 264.2,1076.26C245.961,1055.18 220.966,1054.64 198.153,1057.92C187.861,1059.39 174.621,1041.4 172.479,1033.1C164.661,1002.79 177.935,975.628 186.309,948.697C190.752,939.845 170.208,934.84 167.042,920.646C165.247,912.596 163.414,902.145 167.042,889.289C145.318,892.068 144.376,838.666 156.59,831.055" style="fill:rgb(120,255,0);"/>
        <path id="Cuboid" d="M390.271,870.731C399.715,868.123 409.59,868.13 410.234,862.902C412.827,841.841 413.567,826.279 421.585,814.365C425.621,785.523 424.027,754.735 422.759,725.903C431.372,723.869 440.323,715.333 444.679,705.94C446.986,698.938 447.222,690.292 441.939,687.934C425.301,680.507 409.506,674.758 399.274,665.623C388.408,673.982 373.702,676.541 362.48,676.583L358.174,684.02C356.819,720.83 353.191,752.993 337.82,770.917C361.1,780.982 329.504,832.403 315.508,833.545C319.562,833.898 330.61,835.35 349.562,845.288C361.678,857.634 375.135,866.413 390.271,870.731" style="fill:rgb(31,255,0);"/>
        <path id="Navicular" d="M152.283,832.762C204.705,837.341 257.743,837.969 311.203,835.894C325.836,833.582 342.221,811.565 346.822,790.097C348.403,782.726 341.611,776.67 335.08,771.308C318.166,776.69 294.295,769.55 259.926,743.517C238.755,745.207 229.842,741.662 212.563,725.903C196.907,749.145 182.015,752.117 141.323,756.043C133.47,756.8 126.624,820.557 152.283,832.762" style="fill:rgb(0,255,61);"/>
        <path id="Cuneiform-1" serif:id="Cuneiform 1" d="M335.471,772.874C311.88,776.719 283.668,761.71 259.143,743.517C302.546,695.378 283.609,675.404 273.234,666.014C258.819,652.969 354.579,648.313 357.391,683.237C359.884,714.199 352.587,757.678 335.471,772.874" style="fill:rgb(0,255,137);"/>
        <path id="Cuneiform-2" serif:id="Cuneiform 2" d="M259.534,742.734C242.342,746.649 226.539,739.892 211.78,725.12C217.443,698.899 216.504,677.247 212.954,657.403C216.998,656.519 220.262,653.882 223.132,650.357C261.22,649.415 280.293,663.703 285.368,684.412C290.86,698.236 281.168,720.996 259.534,742.734" style="fill:rgb(0,255,183);"/>
        <path id="Cuneiform-3" serif:id="Cuneiform 3" d="M140.932,755.651C176.374,756.703 199.83,747.88 212.172,725.903C217.19,696.243 217.722,673.745 213.346,656.62C218.507,655.75 221.208,653.747 223.914,649.966C220.265,636.636 206.224,626.744 187.12,619.435C177.593,621.313 165.605,622.426 147.978,621.783C142.664,624.828 138.899,628.71 139.758,635.092L139.758,693.414C131.51,714.697 115.412,736.468 140.932,755.651" style="fill:rgb(0,255,225);"/>
        <path id="Metatarsal-5" serif:id="Metatarsal 5" d="M438.416,685.586C453.547,686.046 472.045,674.429 472.079,667.58C472.261,631.475 471.974,599.436 479.516,565.418L484.213,462.864C486.87,433.809 501.591,403.976 499.479,384.187C496.944,360.437 447.634,353.764 445.853,384.187C444.312,410.519 448.406,494.895 440.765,555.632C437.173,576.433 430.523,598.541 412.974,625.306C414.43,644.186 409.567,657.077 398.882,664.449C409.2,674.743 426.094,682.691 438.416,685.586" style="fill:rgb(0,251,255);"/>
        <path id="Metatarsal-4" serif:id="Metatarsal 4" d="M363.835,675.817C399.258,677.636 418.166,656.907 413.742,624.931C427.325,530.337 433.865,430.304 432.824,416.986C430.969,393.261 441.687,379.113 444.077,362.675C449.894,339.235 415.469,310.535 388.788,353.379C380.959,365.682 391.089,382.951 392.213,404.264C393.568,429.956 390.062,503.656 382.427,555.453C377.08,573.136 353.281,596.907 351.113,611.232C349.773,620.089 348.858,664.401 363.835,675.817" style="fill:rgb(0,234,255);"/>
        <path id="Metatarsal-3" serif:id="Metatarsal 3" d="M287.506,656.735C315.422,655.475 335.176,658.88 347.199,667.988C353.508,666.05 355.312,662.183 354.538,658.203C350.652,641.889 348.426,625.392 353.07,606.339C355.596,537.595 364.865,416.914 362.856,399.372C362.173,393.412 373.677,360.021 378.513,333.808C382.985,297.71 321.616,294.717 309.524,331.85C303.095,354.297 310.532,368.876 316.863,384.204C319.754,391.202 320.103,505.508 316.863,568.175C309.662,596.309 296.39,619.445 283.103,641.078C279.875,646.333 287.506,656.735 287.506,656.735Z" style="fill:rgb(0,201,255);"/>
        <path id="Metatarsal-2" serif:id="Metatarsal 2" d="M286.039,656.735C277.982,659.011 272.312,660.131 271.36,662.117C261.192,654.915 244.436,651.546 223.899,650.374C220.474,644.666 216.071,637.979 210.689,630.314C209.656,613.372 221.768,595.34 235.153,576.982C244.044,510.107 245.395,442.751 242.003,375.886C234.783,352.131 230.512,325.507 234.664,302.004C249.132,266.191 301.676,268.778 309.035,286.836C311.821,294.239 302.926,331.607 291.91,374.418C281.344,468.996 281.927,656.748 286.039,656.735Z" style="fill:rgb(0,161,255);"/>
        <path id="Metatarsal-1" serif:id="Metatarsal 1" d="M133.382,614.167C131.72,624.792 205.772,636.731 224.878,592.639C227.111,572.132 219.214,556.123 213.135,539.307C209.846,487.63 206.588,435.656 212.157,381.268C220.648,356.546 222.084,337.121 215.092,324.022C192.462,288.458 154.989,272.695 118.703,322.554C105.621,342.724 107.219,366.189 117.236,391.543C123.863,440.231 126.851,489.633 142.678,535.393C134.805,593.426 127.492,596.401 133.382,614.167" style="fill:rgb(0,133,255);"/>
        <path id="Phalange-proximal-5" serif:id="Phalange proximal 5" d="M490.559,370.504C478.073,362.921 465.104,361.579 451.416,369.525C449.059,344.819 450.102,327.71 451.416,307.876C446.144,303.443 442.482,293.462 444.566,291.24C454.085,281.095 468.316,283.08 480.284,290.751C484.178,303.199 481.347,320.241 479.306,336.743C489.212,347.881 496.243,359.073 490.559,370.504" style="fill:rgb(0,111,255);"/>
        <path id="Phalange-proximal-4" serif:id="Phalange proximal 4" d="M441.141,344.572C430.307,324.388 402.675,326.242 387.81,355.336C384.057,339.533 384.959,325.241 392.213,317.172L391.235,252.586C387.09,247.132 386.011,241.747 388.299,236.44C405.97,228.645 421.84,224.902 427.442,244.269C425.174,263.57 424.717,283.384 426.952,303.961C436.961,317.79 445.366,334.278 441.141,344.572" style="fill:rgb(0,69,255);"/>
        <path id="Phalange-proximal-3" serif:id="Phalange proximal 3" d="M376.556,319.618C359.172,297.266 331.432,301.41 312.46,324.511C305.219,319.484 310.805,304.29 326.649,280.965C332.254,257.736 333.866,234.595 333.988,211.487C327.234,207.188 326.036,203.334 328.117,199.744C338.159,189.191 379.153,188.556 368.727,213.444C363.105,228.46 360.953,248.87 362.856,275.583C368.218,293.96 384.245,314.148 376.556,319.618" style="fill:rgb(37,0,255);"/>
        <path id="Phalange-proximal-2" serif:id="Phalange proximal 2" d="M308.546,284.879C281.148,262.835 255.463,276.956 237.11,296.622C236.006,284.066 243.586,263.548 260.106,241.333C262.364,215.548 261.765,193.497 260.106,172.833C256.99,169.464 254.091,166.023 258.639,160.112C280.104,149.083 291.802,152.852 300.228,161.58C302.664,167.8 302.424,173.883 298.271,180.662C295.388,203.117 295.018,224.466 296.313,244.269C304.784,259.498 310.444,274.146 308.546,284.879" style="fill:rgb(77,0,255);"/>
        <path id="Phalange-proximal-1" serif:id="Phalange proximal 1" d="M206.285,311.79C182.036,285.17 154.983,283.034 121.639,318.64C116.488,315.726 115.693,304.39 116.746,293.197C125.794,281.377 132.636,271.762 134.85,266.776C148.06,190.642 139.587,199.097 138.275,194.851C126.945,172.765 129.622,156.4 140.721,143.476C188.458,123.698 205.355,128.052 208.732,142.987C216.074,168.924 215.1,188.156 197.967,194.362C192.699,210.563 194.027,229.957 196.989,250.14C212.232,270.375 210.565,291.048 206.285,311.79" style="fill:rgb(131,0,255);"/>
        <path id="Phalange-media-4" serif:id="Phalange media 4" d="M480.284,290.261C469.555,285.244 458.811,281.885 447.991,287.326C443.273,282.466 445.778,271.606 447.502,261.394C443.55,257.147 440.524,251.83 442.609,249.651C452.615,239.196 460.097,239.726 474.902,247.694C477.755,250.721 476.359,254.587 472.456,258.947C478.529,271.012 482.346,282.018 480.284,290.261" style="fill:rgb(181,0,255);"/>
        <path id="Phalange-media-3" serif:id="Phalange media 3" d="M422.451,234.209C415.024,228.162 403.457,229.829 389.258,236.401C386.94,228.857 387.897,223.419 393.642,221.057C396.037,205.508 394.392,202.097 392.076,200.703C386.972,197.505 385.45,193.642 385.813,189.43C400.038,175.868 412.352,180.146 424.33,187.551C424.526,191.155 423.912,194.851 420.885,198.824C419.291,205.335 419.72,211.029 421.825,216.047C426.29,220.381 430.247,224.92 422.451,234.209" style="fill:rgb(255,0,247);"/>
        <path id="Phalange-media-2" serif:id="Phalange media 2" d="M367.338,198.511C358.118,191.307 345.094,191.674 329.135,197.885C325.926,192.127 329.772,186.257 336.024,180.349C338.904,172.167 339.126,165.415 335.711,160.621C333.065,156.746 333.398,152.249 335.084,147.469C343.888,131.892 362.563,135.158 370.782,148.721C372.609,153.202 371.918,158.102 366.712,163.752C365.02,170.519 365.549,176.315 367.964,181.288C371.957,187.073 373.601,192.833 367.338,198.511" style="fill:rgb(255,0,178);"/>
        <path id="Phalange-media-1" serif:id="Phalange media 1" d="M297.507,159.681C287.676,152.002 275.35,152.582 262.122,158.742C259.918,156.7 258.567,153.887 260.87,147.782C264.825,138.448 266.374,130.919 265.88,124.923C261.858,121.092 258.976,116.777 259.93,110.831C269.691,87.66 295.52,93.808 297.194,109.892C297.558,113.827 297.867,117.77 291.871,122.731C291.167,131.661 293.924,137.996 298.76,142.772C302.641,148.791 301.869,155.397 297.507,159.681" style="fill:rgb(202,3,157);"/>
        <path id="Phalange-distal-5" serif:id="Phalange distal 5" d="M443.275,248.77C450.92,240.426 461.959,240.024 474.765,247.831C477.652,243.275 477.507,238.735 475.881,234.972C473.531,234.145 471.173,233.292 464.627,219.315C467.898,217.978 469.286,215.804 468.052,212.465C458.054,202.314 448.475,203.144 439.184,211.487C438.378,215.649 439.546,218.819 445.056,219.804C446.03,223.995 444.639,229.153 441.631,234.972C438.683,242.728 439.519,247.863 443.275,248.77" style="fill:rgb(255,0,78);"/>
        <path id="Phalange-distal-4" serif:id="Phalange distal 4" d="M420.572,185.672C424.723,183.972 425.133,180.474 422.138,175.338C418.427,170.052 415.95,164.292 416.188,157.489C420.178,158.53 421.716,156.768 422.138,153.732C410.198,138.587 398.383,124.538 390.824,148.095C388.859,150.695 389.416,152.913 393.016,154.671C394.729,159.948 394.37,166.352 389.258,175.338C385.376,179.177 385.729,183.045 388.005,186.925C399.35,179.701 409.97,179.441 420.572,185.672" style="fill:rgb(255,0,25);"/>
        <path id="Phalange-distal-3" serif:id="Phalange distal 3" d="M365.146,141.832C371.759,140.032 372.322,136.312 371.409,132.125C365.011,126.283 362.536,119.919 361.701,113.336C365.777,112.652 369.182,111.164 370.156,106.76C352.234,77.066 342.56,80.972 336.337,98.932C334.956,102.805 335.46,105.822 339.155,107.387C340.623,113.197 340.683,120.191 338.216,129.307C333.97,135.134 333.413,139.583 337.903,142.145C348.404,135.338 357.224,136.467 365.146,141.832" style="fill:rgb(255,0,7);"/>
        <path id="Phalange-distal-2" serif:id="Phalange distal 2" d="M293.436,102.063C297.207,99.317 299.122,95.846 298.76,92.982C293.414,87.613 290.801,80.647 289.992,72.628C294.068,69.54 294.732,67.528 294.689,65.739C280.33,37.914 263.408,31.214 260.557,61.042C258.395,65.568 261.022,68.168 265.254,70.123C265.42,75.708 262.863,83.894 258.051,94.235C255.472,102.777 257.478,105.621 263.375,103.629C274.195,94.333 283.193,93.568 293.436,102.063" style="fill:rgb(255,48,0);"/>
        <path id="Phalange-distal-1" serif:id="Phalange distal 1" d="M207.009,138.388C199.173,127.842 180.121,127.274 144.068,141.832C136.943,141.038 134.411,135.406 132.169,126.488C129.804,117.083 144.088,106.993 154.715,97.053C156.18,87.653 156.858,78.756 155.654,71.062C151.941,68.894 150.778,65.954 150.957,62.607C170.136,20.973 197.571,38.123 203.565,57.91C207.506,64.165 207.569,70.765 201.06,77.951C198.659,87.454 198.292,95.682 201.373,101.75C213.354,107.646 217.826,139.144 207.009,138.388" style="fill:rgb(148,0,78);"/>
    </g>
</svg>
