<?xml version="1.0" encoding="UTF-8" standalone="no"?>
<!DOCTYPE svg PUBLIC "-//W3C//DTD SVG 1.1//EN" "http://www.w3.org/Graphics/SVG/1.1/DTD/svg11.dtd">
<svg width="100%" height="100%" viewBox="0 0 945 1182" version="1.1" xmlns="http://www.w3.org/2000/svg" xmlns:xlink="http://www.w3.org/1999/xlink" xml:space="preserve" xmlns:serif="http://www.serif.com/" style="fill-rule:evenodd;clip-rule:evenodd;stroke-linejoin:round;stroke-miterlimit:1.41421;">
    <g id="Head-selection" serif:id="Head selection">
        <g transform="matrix(1,-5.55112e-17,0,1,-1.50076,1.50077)">
            <path d="M472.981,841.035C513.307,811.883 631.355,852.336 643.672,857.833C591.566,955.203 336.147,954.134 302.29,857.833C314.607,852.336 432.654,811.883 472.981,841.035Z" style="fill:rgb(78,143,166);"/>
        </g>
        <g transform="matrix(26.6013,0,0,26.6013,-863.46,131.812)">
            <path d="M47.747,16.031C48.205,16.519 48.488,17.244 48.737,17.257C49.059,17.222 49.029,16.595 48.873,16.307C48.386,16.064 48.197,15.819 48.04,15.411C47.965,15.126 48.157,14.577 48.38,14.733C48.724,14.973 48.97,15.232 49.361,15.278C49.571,14.6 48.856,14.438 48.792,13.66C48.895,13.329 49.08,13.331 49.267,13.388C49.635,13.654 50.068,14.232 50.217,14.78C49.838,16.63 50.592,21.35 49.789,21.906C49.434,22.152 49.055,21.974 48.466,21.805C47.781,21.481 47.467,20.736 47.244,20.04C46.877,18.978 47.921,18.361 48.228,19.497C48.374,20.034 48.449,20.353 48.873,20.413C49.228,20.34 49.338,20.147 49.28,19.87C49.337,19.317 48.986,18.751 48.635,18.411C48.132,18.213 47.95,17.819 47.81,17.325C47.644,17.636 47.277,18.328 47.061,18.965C46.863,19.548 46.106,21.635 44.968,21.336C44.267,21.151 43.757,19.816 42.815,18.177C42.177,17.068 45.478,17.064 45.994,16.555C46.684,15.874 47.478,15.563 47.747,16.031Z" style="fill:rgb(78,114,166);"/>
        </g>
        <g transform="matrix(-26.6013,0,0,26.6013,1813.79,131.812)">
            <path d="M47.747,16.031C48.205,16.519 48.488,17.244 48.737,17.257C49.059,17.222 49.029,16.595 48.873,16.307C48.386,16.064 48.197,15.819 48.04,15.411C47.965,15.126 48.157,14.577 48.38,14.733C48.724,14.973 48.97,15.232 49.361,15.278C49.571,14.6 48.856,14.438 48.792,13.66C48.895,13.329 49.08,13.331 49.267,13.388C49.635,13.654 50.068,14.232 50.217,14.78C49.838,16.63 50.592,21.35 49.789,21.906C49.434,22.152 49.055,21.974 48.466,21.805C47.781,21.481 47.467,20.736 47.244,20.04C46.877,18.978 47.921,18.361 48.228,19.497C48.374,20.034 48.449,20.353 48.873,20.413C49.228,20.34 49.338,20.147 49.28,19.87C49.337,19.317 48.986,18.751 48.635,18.411C48.132,18.213 47.95,17.819 47.81,17.325C47.644,17.636 47.277,18.328 47.061,18.965C46.863,19.548 46.106,21.635 44.968,21.336C44.267,21.151 43.757,19.816 42.815,18.177C42.177,17.068 45.478,17.064 45.994,16.555C46.684,15.874 47.478,15.563 47.747,16.031Z" style="fill:rgb(95,78,166);"/>
        </g>
        <path id="Brain---Hjerne" serif:id="Brain / Hjerne" d="M464.705,113.044C465.131,113.709 465.572,114.377 466.027,115.046C483.756,88.953 479.537,65.86 509.381,61.773C615.587,47.229 807.66,170.448 807.66,287.217C807.66,403.985 630.64,511.61 585.685,477.976C534.172,439.436 538.018,481.938 466.027,466.523C465.583,466.618 465.143,466.711 464.705,466.801L464.705,113.044Z" style="fill:rgb(166,78,149);"/>
        <path id="Brain---Hjerne1" serif:id="Brain / Hjerne" d="M465.473,466.64C394.054,481.721 397.749,439.535 346.368,477.976C301.413,511.61 124.393,403.985 124.393,287.217C124.393,170.448 316.466,47.229 422.672,61.773C452.201,65.817 448.383,88.468 465.473,114.221L465.473,466.64Z" style="fill:rgb(146,78,166);"/>
        <g transform="matrix(23.8504,-9.05561,9.05561,23.8504,-794.792,508.96)">
            <path d="M45.048,9.557C45.917,10.575 46.352,13.14 45.776,14.159C45.199,15.178 43.683,13.06 42.517,12.401C41.352,11.741 41.139,11.968 40.975,11.26C40.828,10.628 41.227,11.082 41.453,10.305C41.532,10.036 41.763,8.939 43.132,9.349C43.979,9.603 44.509,8.926 45.048,9.557Z" style="fill:rgb(78,91,166);"/>
        </g>
        <g transform="matrix(-23.8504,-9.05561,-9.05561,23.8504,1745.12,508.96)">
            <path d="M45.048,9.557C45.917,10.575 46.352,13.14 45.776,14.159C45.199,15.178 43.683,13.06 42.517,12.401C41.352,11.741 41.139,11.968 40.975,11.26C40.828,10.628 41.227,11.082 41.453,10.305C41.532,10.036 41.763,8.939 43.132,9.349C43.979,9.603 44.509,8.926 45.048,9.557Z" style="fill:rgb(99,78,166);"/>
        </g>
        <g transform="matrix(1,0,0,1,-360.183,-465.237)">
            <circle cx="666.79" cy="964.242" r="72.787" style="fill:rgb(166,78,88);"/>
        </g>
        <g transform="matrix(1,0,0,1,-24.0122,-465.237)">
            <circle cx="666.79" cy="964.242" r="72.787" style="fill:rgb(166,106,78);"/>
        </g>
        <g transform="matrix(1,0,0,1,0,-0.648846)">
            <path d="M854.634,728.4C852.346,710.199 874.446,499.978 876.168,498.35C898.381,453.858 958.852,463.004 935.344,592.279C923.465,657.604 930.527,698.85 892.59,737.12C882.098,747.704 865.508,743.968 854.634,728.4Z" style="fill:rgb(166,138,78);"/>
        </g>
        <g transform="matrix(-1,0,0,1,941.518,-0.648846)">
            <path d="M855.004,730.988C852.715,712.786 875.291,496.44 877.013,494.812C897.325,457.712 958.852,463.004 935.344,592.279C923.465,657.604 930.527,698.85 892.59,737.12C882.098,747.704 863.923,743.388 855.004,730.988Z" style="fill:rgb(154,166,78);"/>
        </g>
    </g>
</svg>
