<?xml version="1.0" encoding="UTF-8" standalone="no"?>
<!DOCTYPE svg PUBLIC "-//W3C//DTD SVG 1.1//EN" "http://www.w3.org/Graphics/SVG/1.1/DTD/svg11.dtd">
<svg width="100%" height="100%" viewBox="0 0 945 1182" version="1.1" xmlns="http://www.w3.org/2000/svg" xmlns:xlink="http://www.w3.org/1999/xlink" xml:space="preserve" xmlns:serif="http://www.serif.com/" style="fill-rule:evenodd;clip-rule:evenodd;stroke-linejoin:round;stroke-miterlimit:1.41421;">
    <g>
        <g id="Håndrod" transform="matrix(1.04654,0.122458,0.122458,-1.04654,-106.946,1194.28)">
            <g transform="matrix(1.02229,0,0,1.0822,-11.5024,-84.4335)">
                <path d="M447.063,980.315C474.584,963.389 499.603,959.08 522.812,963.903C528.173,978.258 532.72,989.184 540.347,995.872C545.753,1000.61 550.083,995.758 578.158,1012.58C581.148,1028.32 581.204,1037.93 588.46,1047.23C567.611,1065.51 512.54,1054.87 492.005,1030.87C483.909,1017.38 469.255,1010.28 454.638,1003.04C446.301,998.223 445.356,989.898 447.063,980.315" style="fill:rgb(143,166,78);"/>
            </g>
            <path d="M493.219,948.45C488.574,956.531 465.186,965.604 441.508,971.074C432.988,972.091 426.282,967.699 421.309,958.146L409.997,958.954C404.245,956.985 402.021,952.317 401.917,946.026L405.149,913.707C414.867,898.823 427.559,893.365 441.508,891.891C454.557,889.743 461.645,891.086 464.132,895.123C471.588,899.933 471.024,909.954 471.404,919.363C473.916,931.694 482.704,940.55 493.219,948.45Z" style="fill:rgb(118,166,78);"/>
            <path d="M556.242,1011.47L586.137,1013.9C598.425,1005.16 604.292,996.018 603.105,986.425L603.913,938.754C606.867,940.666 609.382,933.394 610.377,894.315C604.598,886.215 595.122,880.676 581.289,878.156L563.514,880.58C555.635,874.209 546.839,869.101 533.618,870.076C519.308,876.471 523.256,882.79 522.307,888.659C523.387,942.663 524.671,996.406 556.242,1011.47" style="fill:rgb(85,166,78);"/>
            <g transform="matrix(1.171,0,0,1.0723,-87.4637,-65.9242)">
                <path d="M491.603,953.298C490.608,946.154 480.257,941.689 472.212,922.595C467.26,916.813 468.54,907.8 472.212,897.547C492.79,886.055 508.585,887.293 520.691,898.355C526.734,906.203 526.756,916.337 526.347,926.635C525.193,936.218 527.033,944.324 530.386,951.682C517.425,957.229 504.493,958.347 491.603,953.298" style="fill:rgb(78,166,106);"/>
            </g>
            <g transform="matrix(1.06766,0,0,0.962103,-45.4355,31.1392)">
                <path d="M609.569,882.196C603.621,887.855 599.613,894.473 599.873,903.203C600.174,933.807 600.893,963.9 614.417,978.346C621.322,989.918 631.202,994.429 644.312,991.273C656.256,959.752 668.086,931.458 679.055,927.443C685.013,927.235 701.465,919.9 707.335,914.515C706.584,905.464 703.827,896.812 694.407,889.467L683.095,895.123C673.96,895.339 668.907,890.828 665.32,884.62C666.633,864.735 663.174,857.122 650.776,872.5C640.707,867.066 631.782,871.066 624.112,885.428L609.569,882.196" style="fill:rgb(78,166,137);"/>
            </g>
            <path d="M594.217,1042.18C608.151,1058.05 625.743,1059.34 644.312,1056.72C651.725,1053.16 658.115,1051.45 662.896,1052.68C674.059,1053.14 682.316,1050.19 681.479,1036.52L682.287,1015.51C681.62,1007.05 668.466,996.119 648.352,988.849L636.232,978.346C627.417,974.904 614.971,975.102 596.641,983.193C594.659,993.38 590.377,1000.61 584.521,1005.82C584.237,1019.89 587.12,1032.2 594.217,1042.18" style="fill:rgb(78,166,153);"/>
            <path d="M652.392,1000.16C664.127,1006.08 674.625,1013.13 682.287,1022.78L696.831,1023.59C706.527,1016.32 711.913,1006.36 712.991,993.697C714.873,975.649 714.123,959.712 710.567,946.026C701.469,931.822 688.355,924.222 672.591,920.979C666.402,924.562 661.194,930.846 658.048,942.794C660.382,956.523 662.218,970.254 658.048,984.001C652.049,989.787 648.456,995.34 652.392,1000.16" style="fill:rgb(78,152,166);"/>
            <path d="M675.823,976.73C683.101,991.186 696.623,994.641 712.183,994.505C721.627,994.342 727.878,988.293 731.574,977.538C732.285,958.006 731.043,941.08 726.726,928.251C724.847,920.458 720.877,914.528 712.991,912.091C700.442,910.468 691.1,911.065 684.711,913.707C683.692,919.528 680.495,923.33 675.015,925.019C673.27,945.213 671.612,965.278 675.823,976.73" style="fill:rgb(78,141,166);"/>
        </g>
        <g id="Mellemhånd" transform="matrix(0.999262,0.0384226,0.0384226,-0.999262,-18.8445,1178.98)">
            <g transform="matrix(1.04333,-0.120722,0.118003,1.01983,-117.35,45.1131)">
                <path d="M745.921,651.987C771.234,646.038 781.406,655.886 787.33,670.166C783.896,681.22 783.146,692.322 786.32,703.496L776.22,717.635C764.789,751.073 752.35,785.483 731.781,827.723C726.217,835.214 722.07,843.786 722.691,856.002L707.541,874.182C708.551,883.272 703.501,887.648 692.392,887.312C677.53,904.61 666.213,895.061 668.152,875.192C667.522,866.146 661.901,863.63 654.013,864.082C653.032,848.779 659.573,842.905 669.162,840.853L688.352,824.693L720.671,743.895L736.831,705.516C732.965,684.032 728.522,662.243 745.921,651.987" style="fill:rgb(78,123,166);"/>
            </g>
            <g transform="matrix(0.993997,-0.109403,0.109418,0.994128,-83.8773,50.7699)">
                <path d="M707.541,636.837L705.521,595.428C693.595,576.353 674.797,571.193 648.963,580.278C638.207,586.372 632.613,601.195 629.773,620.678L642.903,648.957C639.051,692.078 633.092,735.842 621.693,781.264L606.544,791.364L595.434,818.633L599.474,836.813L595.434,871.152C600.82,881.925 610.247,885.965 623.713,883.272C632.241,871.575 641.823,866.124 653.003,870.142C652.99,861.87 654.536,853.006 662.092,841.863C668.051,831.023 664.529,824.443 657.042,819.643L684.312,677.236C698.419,662.573 708.696,648.63 707.541,636.837" style="fill:rgb(78,106,166);"/>
            </g>
            <g transform="matrix(0.999501,-0.0316008,0.0301252,0.95283,-25.2145,65.5327)">
                <path d="M511.606,570.179C510.336,558.337 512.807,546.757 524.735,535.839C545.91,523.49 566.311,520.137 585.334,532.809L596.444,564.119L608.564,585.328L594.424,615.628L586.344,691.376L582.304,791.364L594.424,822.673C600.973,831.614 601.341,848.004 594.424,873.172C576.552,887.976 555.326,887.363 531.805,876.202L521.705,850.953C521.436,827.249 522.351,804.045 533.825,785.304C540.085,733.437 541.032,684.732 533.825,640.877C523.429,616.671 511.906,592.225 511.606,570.179" style="fill:rgb(78,95,166);"/>
            </g>
            <g transform="matrix(0.95427,-0.298947,0.298947,0.95427,-251.362,171.864)">
                <path d="M357.079,763.084C363.823,762.855 366.655,758.612 366.169,750.965C357.521,736.001 346.378,723.357 327.79,717.635C306.968,719.987 294.088,731.431 287.39,749.955L291.43,771.164L317.69,807.523C317.788,816.661 321.886,822.839 331.83,824.693L364.149,868.122C372.533,878.274 377.132,889.657 374.249,903.471C374.703,911.531 379.197,916.298 390.408,915.591L408.588,923.671C413.802,904.729 425.405,892.958 446.967,892.362C441.81,864.18 430.654,847.775 413.638,842.873C389.315,818.671 368.858,792.778 357.079,763.084" style="fill:rgb(81,78,166);"/>
            </g>
            <g transform="matrix(0.998784,0.0492979,-0.0461782,0.935577,38.3291,24.741)">
                <path d="M394.448,601.488C387.118,576.41 392.562,559.719 408.588,549.979C436.43,545.107 457.878,548.726 468.177,567.149C475.665,640.585 479.69,711.567 483.326,782.274C503.093,815.942 522.776,849.712 536.855,890.342C527.648,897.341 518.225,898.445 508.576,893.372C500.776,887.751 489.65,888.31 471.206,902.461C459.032,895.265 449.974,885.103 445.957,870.142L454.037,818.633L421.718,665.117C409.57,649.399 401.159,626.969 394.448,601.488" style="fill:rgb(89,78,166);"/>
            </g>
        </g>
        <g transform="matrix(0.999605,-0.0280997,-0.0280997,-0.999605,18.1562,1260.29)">
            <g transform="matrix(1.08327,0.123376,-0.132857,1.14714,12.2783,-187.438)">
                <path d="M791.37,490.39C810.783,502.887 826.975,494.569 831.769,498.47C832.488,497.296 835.329,503.553 832.779,521.7C831.707,527.225 828.426,532.633 821.669,537.859L809.549,599.468L809.549,649.967C809.084,654.636 802.893,661.601 794.399,661.077C788.641,655.671 777.034,649.755 766.12,648.957C745.426,650.111 741.842,641.227 748.95,619.668C757.619,611.96 768.394,578.678 781.27,541.899C781.08,518.372 782.855,500.37 791.37,490.39" style="fill:rgb(97,78,166);"/>
            </g>
            <g transform="matrix(1.08314,0.267544,-0.296941,1.19243,93.8116,-326.339)">
                <path d="M849.213,415.115L838.709,402.187C827.814,401.861 819.374,399.408 816.086,392.491C806.476,395.261 804.635,399.46 807.198,404.611C805.429,434.408 801.159,459.955 787.806,470.058C781.651,478.618 783.281,484.887 793.462,488.641C805.135,502.019 820.68,500.816 838.709,490.257C845.248,481.748 844.837,475.92 840.325,471.674C833.879,464.167 831.573,452.696 836.285,434.506C842.05,430.197 847.069,424.784 849.213,415.115" style="fill:rgb(109,78,166);"/>
            </g>
            <g transform="matrix(1.0781,0.162451,-0.154692,1.01355,38.0312,-168.046)">
                <path d="M854.869,314.925C860.014,323.43 862.686,333.641 858.101,348.86C840.379,355.305 841.548,367.892 857.293,385.22C860.002,389.204 860.42,394.278 854.869,402.187C832.021,405.22 816.878,400.426 808.006,389.259C807.233,376.822 810.859,372.721 817.702,374.716C824.679,364.135 829.604,354.027 830.629,344.82L821.742,345.628C820.908,339.201 822.504,331.014 824.974,322.197C834.472,307.288 844.584,308.802 854.869,314.925" style="fill:rgb(122,78,166);"/>
            </g>
        </g>
        <g transform="matrix(0.994855,-0.101309,-0.101309,-0.994855,54.0266,1287.01)">
            <g transform="matrix(0.99984,-0.0178781,0.0178781,0.99984,-11.8002,16.1975)">
                <path d="M707.541,577.248C713.36,568.476 717.293,561.866 719.661,557.049L709.561,521.7C713.362,483.972 713.105,445.903 711.812,411.016C715.967,401.286 719.329,394.034 725.721,388.383C726.441,379.592 726.082,369.82 723.701,361.113C715.198,356.64 707.631,356.558 701.481,363.133C694.789,355.061 685.678,352.341 673.202,357.073C662.759,355.963 657.047,362.5 656.398,375.022C655.471,387.031 656.492,399.452 662.044,405.783C654.817,439.68 652.117,473.427 649.973,509.58C645.8,517.198 640.933,527.005 633.813,543.919C631.398,550.352 630.841,556.757 633.813,563.109C638.567,570.435 645.033,572.583 653.003,570.179C672.752,578.828 690.583,579.786 707.541,577.248" style="fill:rgb(134,78,166);"/>
            </g>
            <g transform="matrix(0.99984,-0.0178781,0.0185679,1.03842,-11.9768,6.32014)">
                <path d="M732.056,342.396C729.078,348.799 725.409,354.364 719.936,357.748C706.859,353.831 693.289,353.166 679.537,353.708C666.917,354.14 657.872,350.648 656.105,339.165C666.609,314.566 677.259,267.857 672.265,223.623C670.394,209.361 673.604,198.969 683.577,193.728L718.32,192.112C724.259,193.193 728.905,195.559 728.016,203.424C731.397,213.475 732.352,224.854 731.248,237.359L723.168,256.75C721.775,287.424 723.072,316.785 732.056,342.396" style="fill:rgb(150,78,166);"/>
            </g>
            <g transform="matrix(0.99984,-0.0178781,0.0178781,0.99984,-11.8002,16.1975)">
                <path d="M732.864,175.144C733.063,180.658 728.41,186.042 719.128,191.304L688.424,192.112C675.899,190.615 664.745,183.255 669.033,173.528L684.385,155.753C686.122,146.91 686.587,138.028 685.193,129.089L677.113,127.473C676.018,114.661 677.298,104.139 685.193,100.002C689.6,89.921 697.484,87.613 712.664,101.618C721.485,106.582 722.227,117.329 721.552,129.089L712.664,129.897C711.06,138.796 711.505,146.655 714.28,153.329C721.753,159.609 728.085,166.749 732.864,175.144" style="fill:rgb(166,78,166);"/>
            </g>
        </g>
        <g transform="matrix(0.999273,-0.0381268,-0.0381268,-0.999273,2.65279,1199.88)">
            <g transform="matrix(0.999971,-0.00756196,0.00756196,0.999971,14.3834,8.0747)">
                <path d="M585.811,531.464C599.405,533.952 601.967,504.752 596.315,493.489C586.619,483.978 581.539,471.382 577.731,457.938C580.229,413.769 578.154,372.603 570.459,335.125C583.562,310.811 578.42,295.451 561.571,285.838C548.117,286.136 533.795,287.423 516.324,292.302C509.712,296.735 507.678,309.062 509.86,328.661C510.229,336.458 513.271,340.66 518.748,341.589C522.644,375.101 524.551,409.661 520.364,447.434C513.801,469.773 508.92,490.189 504.205,508.033C507.274,519.73 510.73,531.12 526.02,533.08C549.046,523.255 569.21,522.015 585.811,531.464" style="fill:rgb(166,78,158);"/>
            </g>
            <g transform="matrix(0.999934,-0.0115158,0.0115158,0.999934,11.6847,9.9995)">
                <path d="M577.731,276.95C577.901,262.979 573.851,253.977 568.035,247.055C570.728,222.815 569.112,200.73 563.187,180.8C570.5,171.511 573.798,163.338 572.075,156.561C572.486,142.518 568.692,133.788 559.147,132.321C545.923,136.552 532.728,136.506 519.556,133.129C510.485,143.086 513.521,158.087 519.556,174.336C514.023,200.903 516.032,214.644 517.132,245.439C511.922,249.098 507.25,255.61 503.397,266.446C503.25,281.272 509.249,290.931 514.708,293.11C532.653,287.083 550.687,285.465 568.843,289.878C575.167,285.855 577.261,281.472 577.731,276.95Z" style="fill:rgb(166,78,132);"/>
            </g>
            <g transform="matrix(0.99991,0.0133853,-0.0133853,0.99991,13.9941,-2.45622)">
                <path d="M565.611,70.106C562.343,75.471 558.196,73.81 553.491,67.682L555.107,85.458C562.507,93.366 568.468,101.012 571.267,108.082C573.648,112.44 574.271,117.255 569.651,123.433C556.15,136.51 539.304,138.441 519.556,130.705C513.388,127.581 510.089,121.877 513.092,110.506C524.517,100.212 528.027,85.054 529.252,68.49L521.172,68.49C508.874,58.75 514.17,44.462 524.404,28.899C538.434,13.675 551.144,19.579 563.187,36.171C570.733,45.094 570.375,56.82 565.611,70.106" style="fill:rgb(166,78,116);"/>
            </g>
        </g>
        <g transform="matrix(0.999262,0.0384226,0.0384226,-0.999262,-16.9685,1147.09)">
            <g transform="matrix(0.999136,0.0415614,-0.0415614,0.999136,44.4203,-24.6628)">
                <path d="M452.494,547.624C457.428,539.524 462.303,523.819 461.381,513.689C449.626,506.474 441.155,499.665 438.758,491.873C430.763,451.717 422.979,411.591 415.326,371.484C424.677,353.869 421.771,341.933 411.287,333.509C391.817,339.425 377.49,343.638 362.808,339.165C351.365,345.031 348.807,355.606 354.728,370.676L367.655,402.995C366.824,419.763 369,433.024 375.735,440.97L378.967,508.841L370.887,538.736C372.343,549.786 377.773,558.071 392.703,559.744C413.155,543.755 452.494,547.624 452.494,547.624Z" style="fill:rgb(166,78,92);"/>
            </g>
            <g transform="matrix(0.99864,-0.0521337,0.0521337,0.99864,6.51333,14.8256)">
                <path d="M420.174,315.733C410.232,301.47 405.274,285.46 400.783,269.678C402.558,247.464 406.144,225.866 399.167,212.311C407.498,207.316 405.198,198.961 398.359,193.728C378.516,203.12 363.126,196.245 353.112,196.96C347.519,204.921 344.834,216.314 349.072,222.007L360.384,248.671L355.536,299.573L346.648,321.389C353.992,346.244 376.862,349.176 412.903,333.509C423.745,330.463 420.174,315.733 420.174,315.733Z" style="fill:rgb(166,81,78);"/>
            </g>
            <g transform="matrix(0.99864,-0.0521337,0.0521337,0.99864,6.51333,15.8256)">
                <path d="M403.207,175.938C393.014,167.068 387.332,152.313 383.815,134.731L394.319,135.539C398.335,126.16 396.754,118.477 393.511,111.3C389.049,103.773 383.187,97.809 376.543,92.716C365.625,89.1 355.618,93.318 346.648,106.452C342.432,119.116 340.616,130.139 345.84,136.347L355.536,136.347C353.055,148.664 351.948,157.806 351.496,165.434C348.369,169.559 344.222,172.385 339.376,174.322C337.629,181.509 337.99,187.398 344.224,189.674C363.115,200.462 381.492,203.254 398.359,192.906C407.733,186.992 407.819,181.387 403.207,175.938" style="fill:rgb(166,96,78);"/>
            </g>
        </g>
        <g id="Fingerstråler" transform="matrix(0.999262,0.0384226,0.0384226,-0.999262,-22.5964,1150.85)">
            <g transform="matrix(0.906465,-0.422282,0.422282,0.906465,-310.609,228.093)">
                <path d="M329.68,718.916C341.675,709.946 340.343,699.965 336.952,689.829C320.293,677.184 303.278,658.376 285.241,621.958C286.268,606.395 285.023,592.223 282.009,579.135C282.854,568.226 273.52,562.892 260.194,559.744C257.028,572.359 226.766,578.417 224.643,576.711C219.022,582.671 218.178,588.592 220.603,594.487C239.933,620.064 252.597,652.4 263.426,686.597L261.81,714.876C266.644,730.522 272.247,734.882 277.969,737.5C293.256,724.178 310.67,718.628 329.68,718.916" style="fill:rgb(166,107,78);"/>
            </g>
            <g transform="matrix(0.74751,-0.66425,0.66425,0.74751,-405.924,377.433)">
                <path d="M273.122,549.226L272.314,533.874C269.505,525.628 262.725,523.896 253.73,525.795C242.066,514.24 233.975,504.334 234.338,498.323L241.61,489.435C241.049,472.995 229.767,459.367 202.827,449.844C189.501,454.108 180.167,458.579 181.012,463.58C178.53,479.821 180.52,494.944 190.707,508.019C194.478,513.405 199.326,513.405 205.251,508.019C204.133,519.612 205.014,529.479 208.483,537.106L197.171,548.418C208.013,560.299 207.7,573.844 210.907,571.85C241.014,583.166 258.146,568.368 273.122,549.226" style="fill:rgb(166,122,78);"/>
            </g>
        </g>
    </g>
</svg>
